<svg xmlns="http://www.w3.org/2000/svg" viewBox="0 0 98.7 34.32"><defs><style>.cls-1{fill:none;stroke:#000;stroke-miterlimit:10;stroke-width:3px;}</style></defs><title>cloudyAsset 72</title><g id="Layer_2" data-name="Layer 2"><g id="Layer_1-2" data-name="Layer 1"><path class="cls-1" d="M59.26,31.64H97.15a15.06,15.06,0,0,0-12.1-14.06,15.87,15.87,0,0,0-7.62.47c-1.76.56-2.5.2-3.26-1.52a15.1,15.1,0,0,0-14.88-9.1A14.82,14.82,0,0,0,52,9.93c-1.62,1.06-2.55.86-3.63-.79a16.47,16.47,0,0,0-30.13,6.18c-.53,3.41-1.13,3.15-3.77,3.45-12.16,0-13,12.67-12.95,12.87H39.61"/><path d="M49.24,34.32a2.64,2.64,0,0,1-2.7-2.73,2.71,2.71,0,0,1,5.41,0A2.65,2.65,0,0,1,49.24,34.32Z"/></g></g></svg>