<svg xmlns="http://www.w3.org/2000/svg" viewBox="0 0 98.7 58.99"><defs><style>.cls-1,.cls-3{fill:none;stroke-width:3px;}.cls-1,.cls-2,.cls-3{stroke:#231f20;stroke-miterlimit:10;}.cls-2{fill:#231f20;}.cls-3{stroke-linecap:round;}</style></defs><title>4Asset 229FOG</title><g id="Layer_2" data-name="Layer 2"><g id="Layer_1-2" data-name="Layer 1"><path class="cls-1" d="M59.26,31.64H97.15a15.06,15.06,0,0,0-12.1-14.06,15.87,15.87,0,0,0-7.62.47c-1.76.56-2.5.2-3.26-1.52a15.1,15.1,0,0,0-14.88-9.1A14.82,14.82,0,0,0,52,9.93c-1.62,1.06-2.55.86-3.63-.79a16.47,16.47,0,0,0-30.13,6.18c-.53,3.41-1.13,3.15-3.77,3.45-12.16,0-13,12.67-12.95,12.87H39.61"/><path class="cls-2" d="M49.24,34.32a2.64,2.64,0,0,1-2.7-2.73,2.71,2.71,0,0,1,5.41,0A2.65,2.65,0,0,1,49.24,34.32Z"/><line class="cls-3" x1="29.06" y1="40.28" x2="86" y2="40.28"/><line class="cls-3" x1="12.13" y1="40.28" x2="23.52" y2="40.28"/><line class="cls-3" x1="69.08" y1="48.79" x2="12.13" y2="48.79"/><line class="cls-3" x1="86" y1="48.79" x2="74.62" y2="48.79"/><line class="cls-3" x1="32" y1="57.49" x2="20.62" y2="57.49"/><line class="cls-3" x1="76.22" y1="57.49" x2="70.83" y2="57.49"/><line class="cls-3" x1="63.13" y1="57.4" x2="39.51" y2="57.4"/></g></g></svg>