<svg xmlns="http://www.w3.org/2000/svg" viewBox="0 0 98.7 66.61"><defs><style>.cls-1,.cls-2{fill:none;stroke:#000;stroke-miterlimit:10;}.cls-1{stroke-width:3px;}.cls-2{stroke-width:2px;}</style></defs><title>hailAsset 86</title><g id="Layer_2" data-name="Layer 2"><g id="Layer_1-2" data-name="Layer 1"><polygon class="cls-1" points="26.95 40.13 30.52 40.16 31.66 43.57 32.75 47.02 29.87 49.16 26.91 51.27 23.94 49.16 21.07 47.02 22.17 43.52 23.3 40.16 26.95 40.13"/><polygon class="cls-1" points="48.91 40.13 52.48 40.16 53.62 43.57 54.72 47.02 51.83 49.16 48.87 51.27 45.91 49.16 43.03 47.02 44.13 43.52 45.26 40.16 48.91 40.13"/><polygon class="cls-1" points="70.87 40.13 74.44 40.16 75.58 43.57 76.68 47.02 73.79 49.16 70.83 51.27 67.87 49.16 64.99 47.02 66.09 43.52 67.22 40.16 70.87 40.13"/><polygon class="cls-2" points="33.28 57.46 35.82 57.48 36.63 59.91 37.41 62.37 35.35 63.89 33.25 65.39 31.14 63.89 29.09 62.37 29.88 59.87 30.68 57.48 33.28 57.46"/><polygon class="cls-2" points="48.9 57.46 51.44 57.48 52.25 59.91 53.03 62.37 50.98 63.89 48.87 65.39 46.76 63.89 44.71 62.37 45.5 59.87 46.3 57.48 48.9 57.46"/><polygon class="cls-2" points="64.52 57.46 67.06 57.48 67.88 59.91 68.65 62.37 66.6 63.89 64.49 65.39 62.38 63.89 60.34 62.37 61.12 59.87 61.92 57.48 64.52 57.46"/><path class="cls-1" d="M59.26,31.64H97.15a15.06,15.06,0,0,0-12.1-14.06,15.87,15.87,0,0,0-7.62.47c-1.76.56-2.5.2-3.26-1.52a15.1,15.1,0,0,0-14.88-9.1A14.82,14.82,0,0,0,52,9.93c-1.62,1.06-2.55.86-3.63-.79a16.47,16.47,0,0,0-30.13,6.18c-.53,3.41-1.13,3.15-3.77,3.45-12.16,0-13,12.67-12.95,12.87H39.61"/><path d="M49.24,34.32a2.64,2.64,0,0,1-2.7-2.73,2.71,2.71,0,0,1,5.41,0A2.65,2.65,0,0,1,49.24,34.32Z"/></g></g></svg>