<svg xmlns="http://www.w3.org/2000/svg" viewBox="0 0 102.12 54.41"><defs><style>.cls-1{fill:none;stroke:#000;stroke-miterlimit:10;stroke-width:3px;}</style></defs><title>partly-cloudy-nightAsset 71</title><g id="Layer_2" data-name="Layer 2"><g id="Layer_1-2" data-name="Layer 1"><path class="cls-1" d="M59.26,51.74H97.15a15.05,15.05,0,0,0-12.1-14.06,15.63,15.63,0,0,0-7.62.47c-1.76.56-2.5.2-3.26-1.53a15.1,15.1,0,0,0-14.88-9.09A14.81,14.81,0,0,0,52,30c-1.62,1.06-2.55.86-3.63-.78A16.42,16.42,0,0,0,31.51,21.9c-7,1.45-12.22,6.6-13.29,13.52-.53,3.41-1.13,3.14-3.77,3.45-12.16,0-13,12.67-12.95,12.87H39.61"/><path d="M49.24,54.41a2.64,2.64,0,0,1-2.7-2.72,2.71,2.71,0,1,1,5.41,0A2.64,2.64,0,0,1,49.24,54.41Z"/><path class="cls-1" d="M99,17.47h0A10.77,10.77,0,1,1,84.35,1.93,15.07,15.07,0,1,0,97.29,26.41h0a15,15,0,0,0,3.19-11.48A10.56,10.56,0,0,1,99,17.47Z"/></g></g></svg>