<svg xmlns="http://www.w3.org/2000/svg" viewBox="0 0 106.58 60.63"><defs><style>.cls-1,.cls-2,.cls-3{fill:none;stroke:#000;stroke-miterlimit:10;}.cls-1{stroke-width:3px;}.cls-2{stroke-linecap:round;}.cls-2,.cls-3{stroke-width:2px;}</style></defs><title>partly-cloudy-dayAsset 70</title><g id="Layer_2" data-name="Layer 2"><g id="Layer_1-2" data-name="Layer 1"><path class="cls-1" d="M59.26,58H97.15a15.05,15.05,0,0,0-12.1-14.06,15.87,15.87,0,0,0-7.62.47c-1.76.56-2.5.2-3.26-1.53a15.11,15.11,0,0,0-14.88-9.09A14.91,14.91,0,0,0,52,36.23c-1.62,1.07-2.55.86-3.63-.78a16.47,16.47,0,0,0-30.13,6.18c-.53,3.41-1.13,3.15-3.77,3.45C2.29,45.08,1.48,57.75,1.5,58H39.61"/><path d="M49.24,60.63a2.64,2.64,0,0,1-2.7-2.73,2.71,2.71,0,0,1,5.41,0A2.65,2.65,0,0,1,49.24,60.63Z"/><line class="cls-2" x1="73.2" y1="19.6" x2="68.39" y2="19.6"/><line class="cls-2" x1="77.02" y1="29.24" x2="73.56" y2="32.58"/><line class="cls-2" x1="77.43" y1="9.73" x2="74.07" y2="6.29"/><line class="cls-2" x1="74.21" y1="24.87" x2="69.76" y2="26.7"/><line class="cls-2" x1="81.78" y1="6.89" x2="79.92" y2="2.45"/><line class="cls-2" x1="81.41" y1="32.33" x2="79.48" y2="36.74"/><line class="cls-2" x1="74.37" y1="14.14" x2="69.94" y2="12.23"/><path class="cls-3" d="M87,29.82h0A10.15,10.15,0,1,0,87,9.53h0a10.15,10.15,0,1,0,0,20.29h0Z"/><line class="cls-2" x1="100.76" y1="19.6" x2="105.58" y2="19.6"/><line class="cls-2" x1="86.98" y1="5.82" x2="86.98" y2="1"/><line class="cls-2" x1="86.98" y1="33.38" x2="86.98" y2="38.19"/><line class="cls-2" x1="96.94" y1="29.24" x2="100.41" y2="32.58"/><line class="cls-2" x1="96.53" y1="9.73" x2="99.9" y2="6.29"/><line class="cls-2" x1="99.76" y1="24.87" x2="104.21" y2="26.7"/><line class="cls-2" x1="92.19" y1="6.89" x2="94.05" y2="2.45"/><line class="cls-2" x1="92.56" y1="32.33" x2="94.49" y2="36.74"/><line class="cls-2" x1="99.6" y1="14.14" x2="104.03" y2="12.23"/></g></g></svg>