<svg xmlns="http://www.w3.org/2000/svg" viewBox="0 0 98.7 70.65"><defs><style>.cls-1,.cls-2,.cls-3{fill:none;stroke-miterlimit:10;}.cls-1,.cls-2{stroke:#231f20;}.cls-1{stroke-linecap:round;}.cls-3{stroke:#000;stroke-width:3px;}</style></defs><title>rain-snowAsset 77</title><g id="Layer_2" data-name="Layer 2"><g id="Layer_1-2" data-name="Layer 1"><line class="cls-1" x1="47.46" y1="40.7" x2="48.71" y2="39.93"/><line class="cls-1" x1="48.71" y1="51.78" x2="47.49" y2="51.08"/><line class="cls-1" x1="47.49" y1="45.87" x2="52.11" y2="50.48"/><polyline class="cls-1" points="52.55 49.18 51.19 49.53 50.85 50.95"/><line class="cls-1" x1="52.18" y1="41.2" x2="47.47" y2="45.94"/><polyline class="cls-1" points="50.81 40.84 51.17 42.2 52.59 42.53"/><line class="cls-1" x1="54.12" y1="45.87" x2="47.49" y2="45.87"/><polyline class="cls-1" points="53.41 44.65 52.7 45.86 53.47 47.1"/><line class="cls-2" x1="47.49" y1="52.16" x2="47.49" y2="39.28"/><line class="cls-1" x1="47.49" y1="52.4" x2="47.49" y2="39.28"/><line class="cls-1" x1="47.5" y1="50.98" x2="46.26" y2="51.75"/><line class="cls-1" x1="46.26" y1="39.9" x2="47.47" y2="40.61"/><line class="cls-1" x1="47.47" y1="45.81" x2="42.85" y2="41.2"/><polyline class="cls-1" points="42.42 42.51 43.77 42.15 44.11 40.73"/><line class="cls-1" x1="42.79" y1="50.48" x2="47.5" y2="45.74"/><polyline class="cls-1" points="44.15 50.84 43.8 49.49 42.38 49.15"/><line class="cls-1" x1="40.85" y1="45.81" x2="47.47" y2="45.81"/><polyline class="cls-1" points="41.56 47.03 42.27 45.82 41.5 44.58"/><line class="cls-1" x1="56.34" y1="57.89" x2="57.58" y2="57.13"/><line class="cls-1" x1="57.58" y1="68.98" x2="56.37" y2="68.27"/><line class="cls-1" x1="56.36" y1="63.06" x2="60.99" y2="67.67"/><polyline class="cls-1" points="61.42 66.37 60.06 66.72 59.73 68.14"/><line class="cls-1" x1="61.05" y1="58.39" x2="56.34" y2="63.13"/><polyline class="cls-1" points="59.69 58.03 60.04 59.39 61.46 59.72"/><line class="cls-1" x1="62.99" y1="63.06" x2="56.36" y2="63.06"/><polyline class="cls-1" points="62.28 61.84 61.57 63.05 62.34 64.29"/><line class="cls-2" x1="56.36" y1="69.35" x2="56.36" y2="56.48"/><line class="cls-1" x1="56.36" y1="69.59" x2="56.36" y2="56.48"/><line class="cls-1" x1="56.37" y1="68.17" x2="55.13" y2="68.94"/><line class="cls-1" x1="55.13" y1="57.09" x2="56.34" y2="57.8"/><line class="cls-1" x1="56.35" y1="63" x2="51.72" y2="58.39"/><polyline class="cls-1" points="51.29 59.7 52.65 59.34 52.98 57.92"/><line class="cls-1" x1="51.66" y1="67.67" x2="56.37" y2="62.93"/><polyline class="cls-1" points="53.02 68.04 52.67 66.68 51.25 66.34"/><line class="cls-1" x1="49.72" y1="63" x2="56.35" y2="63"/><polyline class="cls-1" points="50.43 64.23 51.14 63.01 50.37 61.77"/><path class="cls-3" d="M28.67,40.49C26.2,42,24,43.27,21.82,44.7a4.44,4.44,0,0,0,3.37,8,4.51,4.51,0,0,0,3.47-4.36C28.71,45.86,28.67,43.38,28.67,40.49Z"/><path class="cls-3" d="M71.91,40.49c-2.48,1.51-4.72,2.78-6.85,4.21a4.44,4.44,0,0,0,3.36,8,4.5,4.5,0,0,0,3.47-4.36C72,45.86,71.91,43.38,71.91,40.49Z"/><path class="cls-3" d="M36.67,56.88c-2.47,1.5-4.71,2.77-6.85,4.2a4.41,4.41,0,1,0,6.84,3.64C36.71,62.24,36.67,59.77,36.67,56.88Z"/><path class="cls-3" d="M59.26,31.64H97.15a15.06,15.06,0,0,0-12.1-14.06,15.87,15.87,0,0,0-7.62.47c-1.76.56-2.5.2-3.26-1.52a15.1,15.1,0,0,0-14.88-9.1A14.82,14.82,0,0,0,52,9.93c-1.62,1.06-2.55.86-3.63-.79a16.47,16.47,0,0,0-30.13,6.18c-.53,3.41-1.13,3.15-3.77,3.45-12.16,0-13,12.67-12.95,12.87H39.61"/><path d="M49.24,34.32a2.64,2.64,0,0,1-2.7-2.73,2.71,2.71,0,0,1,5.41,0A2.65,2.65,0,0,1,49.24,34.32Z"/></g></g></svg>