<svg xmlns="http://www.w3.org/2000/svg" viewBox="0 0 98.7 72.29"><defs><style>.cls-1,.cls-2,.cls-3{fill:none;stroke-miterlimit:10;}.cls-1,.cls-2{stroke:#231f20;}.cls-1{stroke-linecap:round;}.cls-3{stroke:#000;stroke-width:3px;}</style></defs><title>snowAsset 87</title><g id="Layer_2" data-name="Layer 2"><g id="Layer_1-2" data-name="Layer 1"><line class="cls-1" x1="47.46" y1="42.9" x2="48.71" y2="42.13"/><line class="cls-1" x1="48.71" y1="53.98" x2="47.49" y2="53.28"/><line class="cls-1" x1="47.49" y1="48.07" x2="52.11" y2="52.68"/><polyline class="cls-1" points="52.55 51.38 51.19 51.73 50.85 53.15"/><line class="cls-1" x1="52.18" y1="43.4" x2="47.47" y2="48.14"/><polyline class="cls-1" points="50.81 43.04 51.17 44.4 52.59 44.73"/><line class="cls-1" x1="54.12" y1="48.07" x2="47.49" y2="48.07"/><polyline class="cls-1" points="53.41 46.85 52.7 48.06 53.47 49.3"/><line class="cls-2" x1="47.49" y1="54.36" x2="47.49" y2="41.48"/><line class="cls-1" x1="47.49" y1="54.6" x2="47.49" y2="41.48"/><line class="cls-1" x1="47.5" y1="53.18" x2="46.26" y2="53.95"/><line class="cls-1" x1="46.26" y1="42.1" x2="47.47" y2="42.81"/><line class="cls-1" x1="47.47" y1="48.01" x2="42.85" y2="43.4"/><polyline class="cls-1" points="42.42 44.71 43.77 44.35 44.11 42.93"/><line class="cls-1" x1="42.79" y1="52.68" x2="47.5" y2="47.94"/><polyline class="cls-1" points="44.15 53.04 43.8 51.69 42.38 51.35"/><line class="cls-1" x1="40.85" y1="48.01" x2="47.47" y2="48.01"/><polyline class="cls-1" points="41.56 49.23 42.27 48.02 41.5 46.78"/><line class="cls-1" x1="22.42" y1="42.9" x2="23.66" y2="42.13"/><line class="cls-1" x1="23.66" y1="53.98" x2="22.45" y2="53.28"/><line class="cls-1" x1="22.45" y1="48.07" x2="27.07" y2="52.68"/><polyline class="cls-1" points="27.51 51.38 26.15 51.73 25.81 53.15"/><line class="cls-1" x1="27.14" y1="43.4" x2="22.43" y2="48.14"/><polyline class="cls-1" points="25.77 43.04 26.13 44.4 27.55 44.73"/><line class="cls-1" x1="29.07" y1="48.07" x2="22.45" y2="48.07"/><polyline class="cls-1" points="28.37 46.85 27.66 48.06 28.42 49.3"/><line class="cls-2" x1="22.45" y1="54.36" x2="22.45" y2="41.48"/><line class="cls-1" x1="22.45" y1="54.6" x2="22.45" y2="41.48"/><line class="cls-1" x1="22.46" y1="53.18" x2="21.22" y2="53.95"/><line class="cls-1" x1="21.22" y1="42.1" x2="22.43" y2="42.81"/><line class="cls-1" x1="22.43" y1="48.01" x2="17.81" y2="43.4"/><polyline class="cls-1" points="17.37 44.71 18.73 44.35 19.07 42.93"/><line class="cls-1" x1="17.74" y1="52.68" x2="22.45" y2="47.94"/><polyline class="cls-1" points="19.11 53.04 18.75 51.69 17.33 51.35"/><line class="cls-1" x1="15.81" y1="48.01" x2="22.43" y2="48.01"/><polyline class="cls-1" points="16.52 49.23 17.22 48.02 16.46 46.78"/><line class="cls-1" x1="71.78" y1="42.9" x2="73.03" y2="42.13"/><line class="cls-1" x1="73.03" y1="53.98" x2="71.81" y2="53.28"/><line class="cls-1" x1="71.81" y1="48.07" x2="76.43" y2="52.68"/><polyline class="cls-1" points="76.87 51.38 75.51 51.73 75.17 53.15"/><line class="cls-1" x1="76.5" y1="43.4" x2="71.79" y2="48.14"/><polyline class="cls-1" points="75.13 43.04 75.49 44.4 76.91 44.73"/><line class="cls-1" x1="78.44" y1="48.07" x2="71.81" y2="48.07"/><polyline class="cls-1" points="77.73 46.85 77.02 48.06 77.79 49.3"/><line class="cls-2" x1="71.81" y1="54.36" x2="71.81" y2="41.48"/><line class="cls-1" x1="71.81" y1="54.6" x2="71.81" y2="41.48"/><line class="cls-1" x1="71.82" y1="53.18" x2="70.58" y2="53.95"/><line class="cls-1" x1="70.58" y1="42.1" x2="71.79" y2="42.81"/><line class="cls-1" x1="71.79" y1="48.01" x2="67.17" y2="43.4"/><polyline class="cls-1" points="66.74 44.71 68.09 44.35 68.43 42.93"/><line class="cls-1" x1="67.11" y1="52.68" x2="71.82" y2="47.94"/><polyline class="cls-1" points="68.47 53.04 68.11 51.69 66.69 51.35"/><line class="cls-1" x1="65.17" y1="48.01" x2="71.79" y2="48.01"/><polyline class="cls-1" points="65.88 49.23 66.58 48.02 65.82 46.78"/><line class="cls-1" x1="57.34" y1="60.09" x2="58.58" y2="59.32"/><line class="cls-1" x1="58.58" y1="71.18" x2="57.37" y2="70.47"/><line class="cls-1" x1="57.36" y1="65.26" x2="61.99" y2="69.87"/><polyline class="cls-1" points="62.42 68.57 61.06 68.92 60.73 70.34"/><line class="cls-1" x1="62.05" y1="60.59" x2="57.34" y2="65.33"/><polyline class="cls-1" points="60.69 60.23 61.04 61.59 62.46 61.92"/><line class="cls-1" x1="63.99" y1="65.26" x2="57.36" y2="65.26"/><polyline class="cls-1" points="63.28 64.04 62.57 65.25 63.34 66.49"/><line class="cls-2" x1="57.36" y1="71.55" x2="57.36" y2="58.67"/><line class="cls-1" x1="57.36" y1="71.79" x2="57.36" y2="58.67"/><line class="cls-1" x1="57.37" y1="70.37" x2="56.13" y2="71.14"/><line class="cls-1" x1="56.13" y1="59.29" x2="57.34" y2="60"/><line class="cls-1" x1="57.35" y1="65.2" x2="52.72" y2="60.59"/><polyline class="cls-1" points="52.29 61.9 53.65 61.54 53.98 60.12"/><line class="cls-1" x1="52.66" y1="69.87" x2="57.37" y2="65.13"/><polyline class="cls-1" points="54.02 70.24 53.67 68.88 52.25 68.54"/><line class="cls-1" x1="50.72" y1="65.2" x2="57.35" y2="65.2"/><polyline class="cls-1" points="51.43 66.43 52.14 65.21 51.37 63.97"/><line class="cls-1" x1="36.02" y1="60.09" x2="37.26" y2="59.32"/><line class="cls-1" x1="37.26" y1="71.18" x2="36.05" y2="70.47"/><line class="cls-1" x1="36.05" y1="65.26" x2="40.67" y2="69.87"/><polyline class="cls-1" points="41.1 68.57 39.74 68.92 39.41 70.34"/><line class="cls-1" x1="40.73" y1="60.59" x2="36.02" y2="65.33"/><polyline class="cls-1" points="39.37 60.23 39.72 61.59 41.14 61.92"/><line class="cls-1" x1="42.67" y1="65.26" x2="36.05" y2="65.26"/><polyline class="cls-1" points="41.96 64.04 41.25 65.25 42.02 66.49"/><line class="cls-2" x1="36.04" y1="71.55" x2="36.04" y2="58.67"/><line class="cls-1" x1="36.04" y1="71.79" x2="36.04" y2="58.67"/><line class="cls-1" x1="36.05" y1="70.37" x2="34.81" y2="71.14"/><line class="cls-1" x1="34.81" y1="59.29" x2="36.03" y2="60"/><line class="cls-1" x1="36.03" y1="65.2" x2="31.41" y2="60.59"/><polyline class="cls-1" points="30.97 61.9 32.33 61.54 32.66 60.12"/><line class="cls-1" x1="31.34" y1="69.87" x2="36.05" y2="65.13"/><polyline class="cls-1" points="32.7 70.24 32.35 68.88 30.93 68.54"/><line class="cls-1" x1="29.4" y1="65.2" x2="36.03" y2="65.2"/><polyline class="cls-1" points="30.11 66.43 30.82 65.21 30.05 63.97"/><path class="cls-3" d="M59.26,31.64H97.15a15.06,15.06,0,0,0-12.1-14.06,15.87,15.87,0,0,0-7.62.47c-1.76.56-2.5.2-3.26-1.52a15.1,15.1,0,0,0-14.88-9.1A14.82,14.82,0,0,0,52,9.93c-1.62,1.06-2.55.86-3.63-.79a16.47,16.47,0,0,0-30.13,6.18c-.53,3.41-1.13,3.15-3.77,3.45-12.16,0-13,12.67-12.95,12.87H39.61"/><path d="M49.24,34.32a2.64,2.64,0,0,1-2.7-2.73,2.71,2.71,0,0,1,5.41,0A2.65,2.65,0,0,1,49.24,34.32Z"/></g></g></svg>