<svg xmlns="http://www.w3.org/2000/svg" viewBox="0 0 98.7 47.07"><defs><style>.cls-1{fill:none;stroke:#231f20;stroke-miterlimit:10;stroke-width:3px;}.cls-2{fill:#231f20;}</style></defs><title>thunder Asset 82</title><g id="Layer_2" data-name="Layer 2"><g id="Layer_1-2" data-name="Layer 1"><path class="cls-1" d="M61.26,31.64H97.15a15.06,15.06,0,0,0-12.1-14.06,15.87,15.87,0,0,0-7.62.47c-1.76.56-2.5.2-3.26-1.52a15.1,15.1,0,0,0-14.88-9.1A14.82,14.82,0,0,0,52,9.93c-1.62,1.06-2.55.86-3.63-.79a16.47,16.47,0,0,0-30.13,6.18c-.53,3.41-1.13,3.15-3.77,3.45-12.16,0-13,12.67-12.95,12.87H36.61"/><polygon class="cls-2" points="56.48 20.29 44.71 32.99 43.46 30.3 55.58 30.91 57.98 31.03 56.34 32.64 41.58 47.07 54.82 31.24 55.58 32.97 43.46 33.58 40.04 33.75 42.2 30.89 52.65 17.07 56.48 20.29"/></g></g></svg>