<svg xmlns="http://www.w3.org/2000/svg" viewBox="0 0 102.12 92.38"><defs><style>.cls-1{fill:#cae3f6;}.cls-2{fill:#f5b952;}.cls-3,.cls-4,.cls-5{fill:none;stroke-miterlimit:10;}.cls-3,.cls-4{stroke:#231f20;}.cls-3{stroke-linecap:round;}.cls-5{stroke:#000;stroke-width:3px;}</style></defs><title>rain-snow-showers-nightAsset 211colored</title><g id="Layer_2" data-name="Layer 2"><g id="Layer_1-2" data-name="Layer 1"><path class="cls-1" d="M71.91,62.79c-2.48,1.5-4.72,2.77-6.85,4.2a4.45,4.45,0,0,0,3.36,8,4.51,4.51,0,0,0,3.47-4.36C72,68.15,71.91,65.68,71.91,62.79Z"/><path class="cls-1" d="M59.26,51.74H97.15a15.05,15.05,0,0,0-12.1-14.06,15.63,15.63,0,0,0-7.62.47c-1.76.56-2.5.2-3.26-1.53a15.1,15.1,0,0,0-14.88-9.09A14.81,14.81,0,0,0,52,30c-1.62,1.06-2.55.86-3.63-.78A16.42,16.42,0,0,0,31.51,21.9c-7,1.45-12.22,6.6-13.29,13.52-.53,3.41-1.13,3.14-3.77,3.45-12.16,0-13,12.67-12.95,12.87H39.61"/><path class="cls-2" d="M99,17.77h0A10.77,10.77,0,1,1,82.17,4.26a10.44,10.44,0,0,1,2.18-2A15.07,15.07,0,1,0,97.29,26.7h0a15,15,0,0,0,3.19-11.48A11,11,0,0,1,99,17.77Z"/><line class="cls-3" x1="47.46" y1="62.99" x2="48.71" y2="62.23"/><line class="cls-3" x1="48.71" y1="74.08" x2="47.49" y2="73.37"/><line class="cls-3" x1="47.49" y1="68.16" x2="52.11" y2="72.77"/><polyline class="cls-3" points="52.55 71.47 51.19 71.83 50.85 73.25"/><line class="cls-3" x1="52.18" y1="63.5" x2="47.47" y2="68.23"/><polyline class="cls-3" points="50.81 63.13 51.17 64.49 52.59 64.83"/><line class="cls-3" x1="54.12" y1="68.16" x2="47.49" y2="68.16"/><polyline class="cls-3" points="53.41 66.94 52.7 68.15 53.47 69.39"/><line class="cls-4" x1="47.49" y1="74.45" x2="47.49" y2="61.58"/><line class="cls-3" x1="47.49" y1="74.69" x2="47.49" y2="61.58"/><line class="cls-3" x1="47.5" y1="73.28" x2="46.26" y2="74.04"/><line class="cls-3" x1="46.26" y1="62.19" x2="47.47" y2="62.9"/><line class="cls-3" x1="47.47" y1="68.11" x2="42.85" y2="63.5"/><polyline class="cls-3" points="42.42 64.8 43.77 64.44 44.11 63.02"/><line class="cls-3" x1="42.79" y1="72.77" x2="47.5" y2="68.04"/><polyline class="cls-3" points="44.15 73.14 43.8 71.78 42.38 71.44"/><line class="cls-3" x1="40.85" y1="68.11" x2="47.47" y2="68.11"/><polyline class="cls-3" points="41.56 69.33 42.27 68.12 41.5 66.88"/><line class="cls-3" x1="56.34" y1="80.19" x2="57.58" y2="79.42"/><line class="cls-3" x1="57.58" y1="91.27" x2="56.37" y2="90.56"/><line class="cls-3" x1="56.36" y1="85.36" x2="60.99" y2="89.97"/><polyline class="cls-3" points="61.42 88.66 60.06 89.02 59.73 90.44"/><line class="cls-3" x1="61.05" y1="80.69" x2="56.34" y2="85.43"/><polyline class="cls-3" points="59.69 80.32 60.04 81.68 61.46 82.02"/><line class="cls-3" x1="62.99" y1="85.36" x2="56.36" y2="85.36"/><polyline class="cls-3" points="62.28 84.13 61.57 85.34 62.34 86.59"/><line class="cls-4" x1="56.36" y1="91.64" x2="56.36" y2="78.77"/><line class="cls-3" x1="56.36" y1="91.88" x2="56.36" y2="78.77"/><line class="cls-3" x1="56.37" y1="90.47" x2="55.13" y2="91.23"/><line class="cls-3" x1="55.13" y1="79.38" x2="56.34" y2="80.09"/><line class="cls-3" x1="56.35" y1="85.3" x2="51.72" y2="80.69"/><polyline class="cls-3" points="51.29 81.99 52.65 81.64 52.98 80.22"/><line class="cls-3" x1="51.66" y1="89.97" x2="56.37" y2="85.23"/><polyline class="cls-3" points="53.02 90.33 52.67 88.97 51.25 88.64"/><line class="cls-3" x1="49.72" y1="85.3" x2="56.35" y2="85.3"/><polyline class="cls-3" points="50.43 86.52 51.14 85.31 50.37 84.07"/><path class="cls-5" d="M71.91,62.79c-2.48,1.5-4.72,2.77-6.85,4.2a4.45,4.45,0,0,0,3.36,8,4.51,4.51,0,0,0,3.47-4.36C72,68.15,71.91,65.68,71.91,62.79Z"/><path class="cls-5" d="M59.26,51.74H97.15a15.05,15.05,0,0,0-12.1-14.06,15.63,15.63,0,0,0-7.62.47c-1.76.56-2.5.2-3.26-1.53a15.1,15.1,0,0,0-14.88-9.09A14.81,14.81,0,0,0,52,30c-1.62,1.06-2.55.86-3.63-.78A16.42,16.42,0,0,0,31.51,21.9c-7,1.45-12.22,6.6-13.29,13.52-.53,3.41-1.13,3.14-3.77,3.45-12.16,0-13,12.67-12.95,12.87H39.61"/><path d="M49.24,54.41a2.64,2.64,0,0,1-2.7-2.72,2.71,2.71,0,1,1,5.41,0A2.64,2.64,0,0,1,49.24,54.41Z"/><path class="cls-5" d="M99,17.47h0A10.77,10.77,0,1,1,84.35,1.93,15.07,15.07,0,1,0,97.29,26.41h0a15,15,0,0,0,3.19-11.48A10.56,10.56,0,0,1,99,17.47Z"/></g></g></svg>