<svg xmlns="http://www.w3.org/2000/svg" viewBox="0 0 116.8 101.96"><defs><style>.cls-1{fill:#cae3f6;}.cls-2{fill:#f5b952;}.cls-3,.cls-4,.cls-5,.cls-6{fill:none;stroke-miterlimit:10;}.cls-3,.cls-4{stroke:#231f20;}.cls-3,.cls-6{stroke-linecap:round;}.cls-5,.cls-6{stroke:#000;stroke-width:3px;}</style></defs><title>rain-snow-showers-dayAsset 212colored</title><g id="Layer_2" data-name="Layer 2"><g id="Layer_1-2" data-name="Layer 1"><path class="cls-1" d="M71.91,72.36c-2.48,1.51-4.72,2.78-6.85,4.2a4.45,4.45,0,0,0,3.36,8,4.5,4.5,0,0,0,3.47-4.36C72,77.73,71.91,75.25,71.91,72.36Z"/><path class="cls-1" d="M59.26,62.32H97.15a15.07,15.07,0,0,0-12.1-14.06,15.87,15.87,0,0,0-7.62.47c-1.76.56-2.5.2-3.26-1.52a15.1,15.1,0,0,0-14.88-9.1A14.82,14.82,0,0,0,52,40.61c-1.62,1.06-2.55.86-3.63-.79a16.43,16.43,0,0,0-16.84-7.33c-7,1.45-12.22,6.59-13.29,13.51-.53,3.41-1.13,3.15-3.77,3.45-12.16,0-13,12.68-12.95,12.87H39.61"/><path class="cls-2" d="M88.72,42.48h0a14.49,14.49,0,0,0,0-29h0a14.49,14.49,0,0,0,0,29h0Z"/><line class="cls-3" x1="47.46" y1="72.57" x2="48.71" y2="71.8"/><line class="cls-3" x1="48.71" y1="83.65" x2="47.49" y2="82.94"/><line class="cls-3" x1="47.49" y1="77.74" x2="52.11" y2="82.35"/><polyline class="cls-3" points="52.55 81.04 51.19 81.4 50.85 82.82"/><line class="cls-3" x1="52.18" y1="73.07" x2="47.47" y2="77.81"/><polyline class="cls-3" points="50.81 72.7 51.17 74.06 52.59 74.4"/><line class="cls-3" x1="54.12" y1="77.74" x2="47.49" y2="77.74"/><polyline class="cls-3" points="53.41 76.51 52.7 77.73 53.47 78.97"/><line class="cls-4" x1="47.49" y1="84.02" x2="47.49" y2="71.15"/><line class="cls-3" x1="47.49" y1="84.26" x2="47.49" y2="71.15"/><line class="cls-3" x1="47.5" y1="82.85" x2="46.26" y2="83.61"/><line class="cls-3" x1="46.26" y1="71.76" x2="47.47" y2="72.47"/><line class="cls-3" x1="47.47" y1="77.68" x2="42.85" y2="73.07"/><polyline class="cls-3" points="42.42 74.37 43.77 74.02 44.11 72.6"/><line class="cls-3" x1="42.79" y1="82.35" x2="47.5" y2="77.61"/><polyline class="cls-3" points="44.15 82.71 43.8 81.35 42.38 81.02"/><line class="cls-3" x1="40.85" y1="77.68" x2="47.47" y2="77.68"/><polyline class="cls-3" points="41.56 78.9 42.27 77.69 41.5 76.45"/><line class="cls-3" x1="56.34" y1="89.76" x2="57.58" y2="88.99"/><line class="cls-3" x1="57.58" y1="100.84" x2="56.37" y2="100.13"/><line class="cls-3" x1="56.36" y1="94.93" x2="60.99" y2="99.54"/><polyline class="cls-3" points="61.42 98.23 60.06 98.59 59.73 100.01"/><line class="cls-3" x1="61.05" y1="90.26" x2="56.34" y2="95"/><polyline class="cls-3" points="59.69 89.89 60.04 91.25 61.46 91.59"/><line class="cls-3" x1="62.99" y1="94.93" x2="56.36" y2="94.93"/><polyline class="cls-3" points="62.28 93.7 61.57 94.92 62.34 96.16"/><line class="cls-4" x1="56.36" y1="101.21" x2="56.36" y2="88.34"/><line class="cls-3" x1="56.36" y1="101.46" x2="56.36" y2="88.34"/><line class="cls-3" x1="56.37" y1="100.04" x2="55.13" y2="100.81"/><line class="cls-3" x1="55.13" y1="88.96" x2="56.34" y2="89.66"/><line class="cls-3" x1="56.35" y1="94.87" x2="51.72" y2="90.26"/><polyline class="cls-3" points="51.29 91.56 52.65 91.21 52.98 89.79"/><line class="cls-3" x1="51.66" y1="99.54" x2="56.37" y2="94.8"/><polyline class="cls-3" points="53.02 99.9 52.67 98.54 51.25 98.21"/><line class="cls-3" x1="49.72" y1="94.87" x2="56.35" y2="94.87"/><polyline class="cls-3" points="50.43 96.09 51.14 94.88 50.37 93.64"/><path class="cls-5" d="M71.91,72.36c-2.48,1.51-4.72,2.78-6.85,4.2a4.45,4.45,0,0,0,3.36,8,4.5,4.5,0,0,0,3.47-4.36C72,77.73,71.91,75.25,71.91,72.36Z"/><path class="cls-5" d="M59.26,62.32H97.15a15.07,15.07,0,0,0-12.1-14.06,15.87,15.87,0,0,0-7.62.47c-1.76.56-2.5.2-3.26-1.52a15.1,15.1,0,0,0-14.88-9.1A14.82,14.82,0,0,0,52,40.61c-1.62,1.06-2.55.86-3.63-.79a16.43,16.43,0,0,0-16.84-7.33c-7,1.45-12.22,6.59-13.29,13.51-.53,3.41-1.13,3.15-3.77,3.45-12.16,0-13,12.68-12.95,12.87H39.61"/><path d="M49.24,65a2.64,2.64,0,0,1-2.7-2.73,2.71,2.71,0,1,1,5.41,0A2.65,2.65,0,0,1,49.24,65Z"/><line class="cls-6" x1="69.07" y1="28.05" x2="62.2" y2="28.05"/><line class="cls-6" x1="75.11" y1="13.96" x2="70.3" y2="9.05"/><line class="cls-6" x1="81.32" y1="9.91" x2="78.66" y2="3.56"/><line class="cls-6" x1="70.73" y1="20.26" x2="64.42" y2="17.54"/><path class="cls-5" d="M88.72,42.66h0a14.49,14.49,0,0,0,0-29h0a14.49,14.49,0,1,0,0,29h0Z"/><line class="cls-6" x1="108.43" y1="28.05" x2="115.3" y2="28.05"/><line class="cls-6" x1="88.75" y1="8.38" x2="88.75" y2="1.5"/><line class="cls-6" x1="102.97" y1="41.82" x2="107.92" y2="46.59"/><line class="cls-6" x1="102.39" y1="13.96" x2="107.2" y2="9.05"/><line class="cls-6" x1="106.99" y1="35.59" x2="113.35" y2="38.2"/><line class="cls-6" x1="96.18" y1="9.91" x2="98.84" y2="3.56"/><line class="cls-6" x1="106.77" y1="20.26" x2="113.08" y2="17.54"/></g></g></svg>