<svg xmlns="http://www.w3.org/2000/svg" viewBox="0 0 98.7 70.44"><defs><style>.cls-1{fill:#cae3f6;}.cls-2{fill:none;stroke:#000;stroke-miterlimit:10;stroke-width:3px;}</style></defs><title>rainAsset 217colored</title><g id="Layer_2" data-name="Layer 2"><g id="Layer_1-2" data-name="Layer 1"><path class="cls-1" d="M50.29,40.29c-2.48,1.5-4.72,2.77-6.85,4.2a4.45,4.45,0,0,0,3.37,8,4.54,4.54,0,0,0,3.47-4.36C50.33,45.65,50.29,43.18,50.29,40.29Z"/><path class="cls-1" d="M71.91,40.29c-2.48,1.5-4.72,2.77-6.85,4.2a4.45,4.45,0,0,0,3.36,8,4.51,4.51,0,0,0,3.47-4.36C72,45.65,71.91,43.18,71.91,40.29Z"/><path class="cls-1" d="M58.29,56.67c-2.48,1.51-4.72,2.78-6.85,4.2a4.45,4.45,0,0,0,3.37,8,4.52,4.52,0,0,0,3.47-4.36C58.33,62,58.29,59.56,58.29,56.67Z"/><path class="cls-1" d="M59.26,31.64H97.15a15.06,15.06,0,0,0-12.1-14.06,15.87,15.87,0,0,0-7.62.47c-1.76.56-2.5.2-3.26-1.52a15.1,15.1,0,0,0-14.88-9.1A14.82,14.82,0,0,0,52,9.93c-1.62,1.06-2.55.86-3.63-.79a16.47,16.47,0,0,0-30.13,6.18c-.53,3.41-1.13,3.15-3.77,3.45-12.16,0-13,12.67-12.95,12.87H39.61"/><path class="cls-2" d="M50.29,40.29c-2.48,1.5-4.72,2.77-6.85,4.2a4.45,4.45,0,0,0,3.37,8,4.54,4.54,0,0,0,3.47-4.36C50.33,45.65,50.29,43.18,50.29,40.29Z"/><path class="cls-2" d="M71.91,40.29c-2.48,1.5-4.72,2.77-6.85,4.2a4.45,4.45,0,0,0,3.36,8,4.51,4.51,0,0,0,3.47-4.36C72,45.65,71.91,43.18,71.91,40.29Z"/><path class="cls-2" d="M58.29,56.67c-2.48,1.51-4.72,2.78-6.85,4.2a4.45,4.45,0,0,0,3.37,8,4.52,4.52,0,0,0,3.47-4.36C58.33,62,58.29,59.56,58.29,56.67Z"/><path class="cls-2" d="M59.26,31.64H97.15a15.06,15.06,0,0,0-12.1-14.06,15.87,15.87,0,0,0-7.62.47c-1.76.56-2.5.2-3.26-1.52a15.1,15.1,0,0,0-14.88-9.1A14.82,14.82,0,0,0,52,9.93c-1.62,1.06-2.55.86-3.63-.79a16.47,16.47,0,0,0-30.13,6.18c-.53,3.41-1.13,3.15-3.77,3.45-12.16,0-13,12.67-12.95,12.87H39.61"/><path d="M49.24,34.32a2.64,2.64,0,0,1-2.7-2.73,2.71,2.71,0,0,1,5.41,0A2.65,2.65,0,0,1,49.24,34.32Z"/></g></g></svg>