<svg xmlns="http://www.w3.org/2000/svg" viewBox="0 0 98.7 48.25"><defs><style>.cls-1{fill:#cae3f6;}.cls-2,.cls-3,.cls-4{fill:none;stroke-miterlimit:10;}.cls-2,.cls-3{stroke:#231f20;stroke-width:2px;}.cls-3{stroke-linecap:round;}.cls-4{stroke:#000;stroke-width:3px;}</style></defs><title>sleetAsset 214colored</title><g id="Layer_2" data-name="Layer 2"><g id="Layer_1-2" data-name="Layer 1"><path class="cls-1" d="M69.26,31.64H97.15a15.06,15.06,0,0,0-12.1-14.06,15.87,15.87,0,0,0-7.62.47c-1.76.56-2.5.2-3.26-1.52a15.1,15.1,0,0,0-14.88-9.1A14.82,14.82,0,0,0,52,9.93c-1.62,1.06-2.55.86-3.63-.79a16.47,16.47,0,0,0-30.13,6.18c-.53,3.41-1.13,3.15-3.77,3.45-12.16,0-13,12.67-12.95,12.87H29.61"/><line class="cls-2" x1="49.29" y1="16.34" x2="49.29" y2="47.25"/><line class="cls-3" x1="49.29" y1="15.76" x2="49.29" y2="47.25"/><line class="cls-3" x1="49.27" y1="19.16" x2="52.25" y2="17.32"/><line class="cls-3" x1="52.25" y1="45.77" x2="49.34" y2="44.07"/><line class="cls-3" x1="49.33" y1="31.57" x2="60.43" y2="42.64"/><polyline class="cls-3" points="61.48 39.51 58.22 40.37 57.41 43.78"/><line class="cls-3" x1="60.59" y1="20.36" x2="49.28" y2="31.74"/><polyline class="cls-3" points="57.31 19.49 58.16 22.75 61.58 23.56"/><line class="cls-3" x1="65.24" y1="31.57" x2="49.33" y2="31.57"/><polyline class="cls-3" points="63.54 28.64 61.84 31.55 63.68 34.53"/><line class="cls-2" x1="49.23" y1="46.67" x2="49.23" y2="15.76"/><line class="cls-3" x1="49.23" y1="47.25" x2="49.23" y2="15.76"/><line class="cls-3" x1="49.26" y1="43.85" x2="46.28" y2="45.69"/><line class="cls-3" x1="46.28" y1="17.23" x2="49.19" y2="18.93"/><line class="cls-3" x1="49.19" y1="31.43" x2="38.1" y2="20.36"/><polyline class="cls-3" points="37.05 23.5 40.31 22.64 41.12 19.23"/><line class="cls-3" x1="37.94" y1="42.64" x2="49.25" y2="31.27"/><polyline class="cls-3" points="41.22 43.52 40.36 40.26 36.95 39.45"/><line class="cls-3" x1="33.29" y1="31.43" x2="49.19" y2="31.43"/><polyline class="cls-3" points="34.99 34.37 36.69 31.46 34.85 28.48"/><path class="cls-4" d="M69.26,31.64H97.15a15.06,15.06,0,0,0-12.1-14.06,15.87,15.87,0,0,0-7.62.47c-1.76.56-2.5.2-3.26-1.52a15.1,15.1,0,0,0-14.88-9.1A14.82,14.82,0,0,0,52,9.93c-1.62,1.06-2.55.86-3.63-.79a16.47,16.47,0,0,0-30.13,6.18c-.53,3.41-1.13,3.15-3.77,3.45-12.16,0-13,12.67-12.95,12.87H29.61"/></g></g></svg>