<svg xmlns="http://www.w3.org/2000/svg" viewBox="0 0 116.8 102.82"><defs><style>.cls-1{fill:#cae3f6;}.cls-2{fill:#f5b952;}.cls-3,.cls-4,.cls-5,.cls-6{fill:none;stroke-miterlimit:10;}.cls-3,.cls-4{stroke:#231f20;}.cls-3,.cls-6{stroke-linecap:round;}.cls-5,.cls-6{stroke:#000;stroke-width:3px;}</style></defs><title>snow-showers-day Asset 202colored</title><g id="Layer_2" data-name="Layer 2"><g id="Layer_1-2" data-name="Layer 1"><path class="cls-1" d="M59.26,62.32H97.15a15.07,15.07,0,0,0-12.1-14.06,15.87,15.87,0,0,0-7.62.47c-1.76.56-2.5.2-3.26-1.52a15.1,15.1,0,0,0-14.88-9.1A14.82,14.82,0,0,0,52,40.61c-1.62,1.06-2.55.86-3.63-.79a16.43,16.43,0,0,0-16.84-7.33c-7,1.45-12.22,6.59-13.29,13.51-.53,3.41-1.13,3.15-3.77,3.45-12.16,0-13,12.68-12.95,12.87H39.61"/><path class="cls-2" d="M88.72,42.54h0a14.49,14.49,0,1,0,0-29h0a14.49,14.49,0,1,0,0,29h0Z"/><line class="cls-3" x1="47.46" y1="73.43" x2="48.71" y2="72.66"/><line class="cls-3" x1="48.71" y1="84.51" x2="47.49" y2="83.81"/><line class="cls-3" x1="47.49" y1="78.6" x2="52.11" y2="83.21"/><polyline class="cls-3" points="52.55 81.91 51.19 82.26 50.85 83.68"/><line class="cls-3" x1="52.18" y1="73.93" x2="47.47" y2="78.67"/><polyline class="cls-3" points="50.81 73.57 51.17 74.93 52.59 75.26"/><line class="cls-3" x1="54.12" y1="78.6" x2="47.49" y2="78.6"/><polyline class="cls-3" points="53.41 77.38 52.7 78.59 53.47 79.83"/><line class="cls-4" x1="47.49" y1="84.89" x2="47.49" y2="72.01"/><line class="cls-3" x1="47.49" y1="85.13" x2="47.49" y2="72.01"/><line class="cls-3" x1="47.5" y1="83.71" x2="46.26" y2="84.48"/><line class="cls-3" x1="46.26" y1="72.63" x2="47.47" y2="73.34"/><line class="cls-3" x1="47.47" y1="78.54" x2="42.85" y2="73.93"/><polyline class="cls-3" points="42.42 75.24 43.77 74.88 44.11 73.46"/><line class="cls-3" x1="42.79" y1="83.21" x2="47.5" y2="78.47"/><polyline class="cls-3" points="44.15 83.58 43.8 82.22 42.38 81.88"/><line class="cls-3" x1="40.85" y1="78.54" x2="47.47" y2="78.54"/><polyline class="cls-3" points="41.56 79.77 42.27 78.55 41.5 77.31"/><line class="cls-3" x1="71.78" y1="73.43" x2="73.03" y2="72.66"/><line class="cls-3" x1="73.03" y1="84.51" x2="71.81" y2="83.81"/><line class="cls-3" x1="71.81" y1="78.6" x2="76.43" y2="83.21"/><polyline class="cls-3" points="76.87 81.91 75.51 82.26 75.17 83.68"/><line class="cls-3" x1="76.5" y1="73.93" x2="71.79" y2="78.67"/><polyline class="cls-3" points="75.13 73.57 75.49 74.93 76.91 75.26"/><line class="cls-3" x1="78.44" y1="78.6" x2="71.81" y2="78.6"/><polyline class="cls-3" points="77.73 77.38 77.02 78.59 77.79 79.83"/><line class="cls-4" x1="71.81" y1="84.89" x2="71.81" y2="72.01"/><line class="cls-3" x1="71.81" y1="85.13" x2="71.81" y2="72.01"/><line class="cls-3" x1="71.82" y1="83.71" x2="70.58" y2="84.48"/><line class="cls-3" x1="70.58" y1="72.63" x2="71.79" y2="73.34"/><line class="cls-3" x1="71.79" y1="78.54" x2="67.17" y2="73.93"/><polyline class="cls-3" points="66.74 75.24 68.09 74.88 68.43 73.46"/><line class="cls-3" x1="67.11" y1="83.21" x2="71.82" y2="78.47"/><polyline class="cls-3" points="68.47 83.58 68.11 82.22 66.69 81.88"/><line class="cls-3" x1="65.17" y1="78.54" x2="71.79" y2="78.54"/><polyline class="cls-3" points="65.88 79.77 66.58 78.55 65.82 77.31"/><line class="cls-3" x1="57.34" y1="90.62" x2="58.58" y2="89.86"/><line class="cls-3" x1="58.58" y1="101.71" x2="57.37" y2="101"/><line class="cls-3" x1="57.36" y1="95.79" x2="61.99" y2="100.4"/><polyline class="cls-3" points="62.42 99.1 61.06 99.45 60.73 100.87"/><line class="cls-3" x1="62.05" y1="91.12" x2="57.34" y2="95.86"/><polyline class="cls-3" points="60.69 90.76 61.04 92.12 62.46 92.45"/><line class="cls-3" x1="63.99" y1="95.79" x2="57.36" y2="95.79"/><polyline class="cls-3" points="63.28 94.57 62.57 95.78 63.34 97.02"/><line class="cls-4" x1="57.36" y1="102.08" x2="57.36" y2="89.21"/><line class="cls-3" x1="57.36" y1="102.32" x2="57.36" y2="89.21"/><line class="cls-3" x1="57.37" y1="100.9" x2="56.13" y2="101.67"/><line class="cls-3" x1="56.13" y1="89.82" x2="57.34" y2="90.53"/><line class="cls-3" x1="57.35" y1="95.73" x2="52.72" y2="91.12"/><polyline class="cls-3" points="52.29 92.43 53.65 92.07 53.98 90.65"/><line class="cls-3" x1="52.66" y1="100.4" x2="57.37" y2="95.66"/><polyline class="cls-3" points="54.02 100.77 53.67 99.41 52.25 99.07"/><line class="cls-3" x1="50.72" y1="95.73" x2="57.35" y2="95.73"/><polyline class="cls-3" points="51.43 96.96 52.14 95.74 51.37 94.5"/><path class="cls-5" d="M59.26,62.32H97.15a15.07,15.07,0,0,0-12.1-14.06,15.87,15.87,0,0,0-7.62.47c-1.76.56-2.5.2-3.26-1.52a15.1,15.1,0,0,0-14.88-9.1A14.82,14.82,0,0,0,52,40.61c-1.62,1.06-2.55.86-3.63-.79a16.43,16.43,0,0,0-16.84-7.33c-7,1.45-12.22,6.59-13.29,13.51-.53,3.41-1.13,3.15-3.77,3.45-12.16,0-13,12.68-12.95,12.87H39.61"/><path d="M49.24,65a2.64,2.64,0,0,1-2.7-2.73,2.71,2.71,0,1,1,5.41,0A2.65,2.65,0,0,1,49.24,65Z"/><line class="cls-6" x1="69.07" y1="28.05" x2="62.2" y2="28.05"/><line class="cls-6" x1="75.11" y1="13.96" x2="70.3" y2="9.05"/><line class="cls-6" x1="81.32" y1="9.91" x2="78.66" y2="3.56"/><line class="cls-6" x1="70.73" y1="20.26" x2="64.42" y2="17.54"/><path class="cls-5" d="M88.72,42.66h0a14.49,14.49,0,0,0,0-29h0a14.49,14.49,0,1,0,0,29h0Z"/><line class="cls-6" x1="108.43" y1="28.05" x2="115.3" y2="28.05"/><line class="cls-6" x1="88.75" y1="8.38" x2="88.75" y2="1.5"/><line class="cls-6" x1="102.97" y1="41.82" x2="107.92" y2="46.59"/><line class="cls-6" x1="102.39" y1="13.96" x2="107.2" y2="9.05"/><line class="cls-6" x1="106.99" y1="35.59" x2="113.35" y2="38.2"/><line class="cls-6" x1="96.18" y1="9.91" x2="98.84" y2="3.56"/><line class="cls-6" x1="106.77" y1="20.26" x2="113.08" y2="17.54"/></g></g></svg>