<svg xmlns="http://www.w3.org/2000/svg" viewBox="0 0 102.12 92.89"><defs><style>.cls-1{fill:#cae3f6;}.cls-2{fill:#f5b952;}.cls-3,.cls-4,.cls-5{fill:none;stroke-miterlimit:10;}.cls-3,.cls-4{stroke:#231f20;}.cls-3{stroke-linecap:round;}.cls-5{stroke:#000;stroke-width:3px;}</style></defs><title>snow-showers-nightAsset 201colored</title><g id="Layer_2" data-name="Layer 2"><g id="Layer_1-2" data-name="Layer 1"><path class="cls-1" d="M59.26,51.74H97.15a15.05,15.05,0,0,0-12.1-14.06,15.63,15.63,0,0,0-7.62.47c-1.76.56-2.5.2-3.26-1.53a15.1,15.1,0,0,0-14.88-9.09A14.81,14.81,0,0,0,52,30c-1.62,1.06-2.55.86-3.63-.78A16.42,16.42,0,0,0,31.51,21.9c-7,1.45-12.22,6.6-13.29,13.52-.53,3.41-1.13,3.14-3.77,3.45-12.16,0-13,12.67-12.95,12.87H39.61"/><path class="cls-2" d="M99,17.92h0A10.77,10.77,0,1,1,82.17,4.41a10.44,10.44,0,0,1,2.18-2A15.07,15.07,0,1,0,97.29,26.85h0a15.05,15.05,0,0,0,3.19-11.49A10.81,10.81,0,0,1,99,17.92Z"/><line class="cls-3" x1="47.46" y1="63.5" x2="48.71" y2="62.73"/><line class="cls-3" x1="48.71" y1="74.58" x2="47.49" y2="73.87"/><line class="cls-3" x1="47.49" y1="68.67" x2="52.11" y2="73.28"/><polyline class="cls-3" points="52.55 71.97 51.19 72.33 50.85 73.75"/><line class="cls-3" x1="52.18" y1="64" x2="47.47" y2="68.74"/><polyline class="cls-3" points="50.81 63.63 51.17 64.99 52.59 65.33"/><line class="cls-3" x1="54.12" y1="68.67" x2="47.49" y2="68.67"/><polyline class="cls-3" points="53.41 67.44 52.7 68.66 53.47 69.9"/><line class="cls-4" x1="47.49" y1="74.95" x2="47.49" y2="62.08"/><line class="cls-3" x1="47.49" y1="75.2" x2="47.49" y2="62.08"/><line class="cls-3" x1="47.5" y1="73.78" x2="46.26" y2="74.55"/><line class="cls-3" x1="46.26" y1="62.69" x2="47.47" y2="63.4"/><line class="cls-3" x1="47.47" y1="68.61" x2="42.85" y2="64"/><polyline class="cls-3" points="42.42 65.3 43.77 64.95 44.11 63.53"/><line class="cls-3" x1="42.79" y1="73.28" x2="47.5" y2="68.54"/><polyline class="cls-3" points="44.15 73.64 43.8 72.28 42.38 71.95"/><line class="cls-3" x1="40.85" y1="68.61" x2="47.47" y2="68.61"/><polyline class="cls-3" points="41.56 69.83 42.27 68.62 41.5 67.38"/><line class="cls-3" x1="71.78" y1="63.5" x2="73.03" y2="62.73"/><line class="cls-3" x1="73.03" y1="74.58" x2="71.81" y2="73.87"/><line class="cls-3" x1="71.81" y1="68.67" x2="76.43" y2="73.28"/><polyline class="cls-3" points="76.87 71.97 75.51 72.33 75.17 73.75"/><line class="cls-3" x1="76.5" y1="64" x2="71.79" y2="68.74"/><polyline class="cls-3" points="75.13 63.63 75.49 64.99 76.91 65.33"/><line class="cls-3" x1="78.44" y1="68.67" x2="71.81" y2="68.67"/><polyline class="cls-3" points="77.73 67.44 77.02 68.66 77.79 69.9"/><line class="cls-4" x1="71.81" y1="74.95" x2="71.81" y2="62.08"/><line class="cls-3" x1="71.81" y1="75.2" x2="71.81" y2="62.08"/><line class="cls-3" x1="71.82" y1="73.78" x2="70.58" y2="74.55"/><line class="cls-3" x1="70.58" y1="62.69" x2="71.79" y2="63.4"/><line class="cls-3" x1="71.79" y1="68.61" x2="67.17" y2="64"/><polyline class="cls-3" points="66.74 65.3 68.09 64.95 68.43 63.53"/><line class="cls-3" x1="67.11" y1="73.28" x2="71.82" y2="68.54"/><polyline class="cls-3" points="68.47 73.64 68.11 72.28 66.69 71.95"/><line class="cls-3" x1="65.17" y1="68.61" x2="71.79" y2="68.61"/><polyline class="cls-3" points="65.88 69.83 66.58 68.62 65.82 67.38"/><line class="cls-3" x1="57.34" y1="80.69" x2="58.58" y2="79.92"/><line class="cls-3" x1="58.58" y1="91.77" x2="57.37" y2="91.06"/><line class="cls-3" x1="57.36" y1="85.86" x2="61.99" y2="90.47"/><polyline class="cls-3" points="62.42 89.16 61.06 89.52 60.73 90.94"/><line class="cls-3" x1="62.05" y1="81.19" x2="57.34" y2="85.93"/><polyline class="cls-3" points="60.69 80.83 61.04 82.18 62.46 82.52"/><line class="cls-3" x1="63.99" y1="85.86" x2="57.36" y2="85.86"/><polyline class="cls-3" points="63.28 84.64 62.57 85.85 63.34 87.09"/><line class="cls-4" x1="57.36" y1="92.14" x2="57.36" y2="79.27"/><line class="cls-3" x1="57.36" y1="92.39" x2="57.36" y2="79.27"/><line class="cls-3" x1="57.37" y1="90.97" x2="56.13" y2="91.74"/><line class="cls-3" x1="56.13" y1="79.89" x2="57.34" y2="80.59"/><line class="cls-3" x1="57.35" y1="85.8" x2="52.72" y2="81.19"/><polyline class="cls-3" points="52.29 82.49 53.65 82.14 53.98 80.72"/><line class="cls-3" x1="52.66" y1="90.47" x2="57.37" y2="85.73"/><polyline class="cls-3" points="54.02 90.83 53.67 89.47 52.25 89.14"/><line class="cls-3" x1="50.72" y1="85.8" x2="57.35" y2="85.8"/><polyline class="cls-3" points="51.43 87.02 52.14 85.81 51.37 84.57"/><path class="cls-5" d="M59.26,51.74H97.15a15.05,15.05,0,0,0-12.1-14.06,15.63,15.63,0,0,0-7.62.47c-1.76.56-2.5.2-3.26-1.53a15.1,15.1,0,0,0-14.88-9.09A14.81,14.81,0,0,0,52,30c-1.62,1.06-2.55.86-3.63-.78A16.42,16.42,0,0,0,31.51,21.9c-7,1.45-12.22,6.6-13.29,13.52-.53,3.41-1.13,3.14-3.77,3.45-12.16,0-13,12.67-12.95,12.87H39.61"/><path d="M49.24,54.41a2.64,2.64,0,0,1-2.7-2.72,2.71,2.71,0,1,1,5.41,0A2.64,2.64,0,0,1,49.24,54.41Z"/><path class="cls-5" d="M99,17.47h0A10.77,10.77,0,1,1,84.35,1.93,15.07,15.07,0,1,0,97.29,26.41h0a15,15,0,0,0,3.19-11.48A10.56,10.56,0,0,1,99,17.47Z"/></g></g></svg>