<svg xmlns="http://www.w3.org/2000/svg" viewBox="0 0 116.8 101.94"><defs><style>.cls-1{fill:#cae3f6;}.cls-2{fill:#f5b952;}.cls-3,.cls-4{fill:none;stroke:#000;stroke-miterlimit:10;stroke-width:3px;}.cls-4{stroke-linecap:round;}.cls-5{fill:#231f20;}</style></defs><title>thunder-showers-dayAsset 206colored</title><g id="Layer_2" data-name="Layer 2"><g id="Layer_1-2" data-name="Layer 1"><path class="cls-1" d="M66.91,71.78c-2.48,1.51-4.72,2.78-6.85,4.21a4.44,4.44,0,0,0,3.36,8,4.49,4.49,0,0,0,3.47-4.35C67,77.15,66.91,74.68,66.91,71.78Z"/><path class="cls-1" d="M53.29,88.17c-2.48,1.51-4.72,2.77-6.85,4.2a4.45,4.45,0,0,0,3.37,8A4.53,4.53,0,0,0,53.28,96C53.33,93.53,53.29,91.06,53.29,88.17Z"/><path class="cls-1" d="M59.26,62.32H97.15a15.07,15.07,0,0,0-12.1-14.06,15.87,15.87,0,0,0-7.62.47c-1.76.56-2.5.2-3.26-1.52a15.1,15.1,0,0,0-14.88-9.1A14.82,14.82,0,0,0,52,40.61c-1.62,1.06-2.55.86-3.63-.79a16.43,16.43,0,0,0-16.84-7.33c-7,1.45-12.22,6.59-13.29,13.51-.53,3.41-1.13,3.15-3.77,3.45-12.16,0-13,12.68-12.95,12.87H39.61"/><path class="cls-2" d="M88.72,41.46h0a14.49,14.49,0,0,0,0-29h0a14.49,14.49,0,1,0,0,29h0Z"/><path class="cls-3" d="M59.26,62.32H97.15a15.07,15.07,0,0,0-12.1-14.06,15.87,15.87,0,0,0-7.62.47c-1.76.56-2.5.2-3.26-1.52a15.1,15.1,0,0,0-14.88-9.1A14.82,14.82,0,0,0,52,40.61c-1.62,1.06-2.55.86-3.63-.79a16.43,16.43,0,0,0-16.84-7.33c-7,1.45-12.22,6.59-13.29,13.51-.53,3.41-1.13,3.15-3.77,3.45-12.16,0-13,12.68-12.95,12.87H39.61"/><path d="M49.24,65a2.64,2.64,0,0,1-2.7-2.73,2.71,2.71,0,1,1,5.41,0A2.65,2.65,0,0,1,49.24,65Z"/><line class="cls-4" x1="69.07" y1="28.05" x2="62.2" y2="28.05"/><line class="cls-4" x1="75.11" y1="13.96" x2="70.3" y2="9.05"/><line class="cls-4" x1="81.32" y1="9.91" x2="78.66" y2="3.56"/><line class="cls-4" x1="70.73" y1="20.26" x2="64.42" y2="17.54"/><path class="cls-3" d="M88.72,42.66h0a14.49,14.49,0,0,0,0-29h0a14.49,14.49,0,1,0,0,29h0Z"/><line class="cls-4" x1="108.43" y1="28.05" x2="115.3" y2="28.05"/><line class="cls-4" x1="88.75" y1="8.38" x2="88.75" y2="1.5"/><line class="cls-4" x1="102.97" y1="41.82" x2="107.92" y2="46.59"/><line class="cls-4" x1="102.39" y1="13.96" x2="107.2" y2="9.05"/><line class="cls-4" x1="106.99" y1="35.59" x2="113.35" y2="38.2"/><line class="cls-4" x1="96.18" y1="9.91" x2="98.84" y2="3.56"/><line class="cls-4" x1="106.77" y1="20.26" x2="113.08" y2="17.54"/><path class="cls-3" d="M66.91,71.78c-2.48,1.51-4.72,2.78-6.85,4.21a4.44,4.44,0,0,0,3.36,8,4.49,4.49,0,0,0,3.47-4.35C67,77.15,66.91,74.68,66.91,71.78Z"/><path class="cls-3" d="M53.29,88.17c-2.48,1.51-4.72,2.77-6.85,4.2a4.45,4.45,0,0,0,3.37,8A4.53,4.53,0,0,0,53.28,96C53.33,93.53,53.29,91.06,53.29,88.17Z"/><polygon class="cls-5" points="86.46 72.09 74.69 84.79 73.44 82.11 85.56 82.71 87.96 82.83 86.31 84.44 71.56 98.87 84.8 83.04 85.56 84.77 73.44 85.38 70.02 85.55 72.18 82.69 82.63 68.88 86.46 72.09"/></g></g></svg>