<svg xmlns="http://www.w3.org/2000/svg" viewBox="0 0 102.12 92.88"><defs><style>.cls-1{fill:#cae3f6;}.cls-2{fill:#f5b952;}.cls-3{fill:none;stroke:#000;stroke-miterlimit:10;stroke-width:3px;}.cls-4{fill:#231f20;}</style></defs><title>thunder-showers-nightAsset 205colored</title><g id="Layer_2" data-name="Layer 2"><g id="Layer_1-2" data-name="Layer 1"><path class="cls-1" d="M66.91,62.72c-2.48,1.51-4.72,2.78-6.85,4.21a4.44,4.44,0,0,0,3.36,8,4.5,4.5,0,0,0,3.47-4.36C67,68.09,66.91,65.61,66.91,62.72Z"/><path class="cls-1" d="M53.29,79.11c-2.48,1.5-4.72,2.77-6.85,4.2a4.45,4.45,0,0,0,3.37,8A4.54,4.54,0,0,0,53.28,87C53.33,84.47,53.29,82,53.29,79.11Z"/><path class="cls-1" d="M59.26,51.74H97.15a15.05,15.05,0,0,0-12.1-14.06,15.63,15.63,0,0,0-7.62.47c-1.76.56-2.5.2-3.26-1.53a15.1,15.1,0,0,0-14.88-9.09A14.81,14.81,0,0,0,52,30c-1.62,1.06-2.55.86-3.63-.78A16.42,16.42,0,0,0,31.51,21.9c-7,1.45-12.22,6.6-13.29,13.52-.53,3.41-1.13,3.14-3.77,3.45-12.16,0-13,12.67-12.95,12.87H39.61"/><path class="cls-2" d="M99,16.68h0A10.77,10.77,0,1,1,84.35,1.14,15.08,15.08,0,1,0,97.29,25.62h0a15,15,0,0,0,3.19-11.48A10.56,10.56,0,0,1,99,16.68Z"/><path class="cls-3" d="M59.26,51.74H97.15a15.05,15.05,0,0,0-12.1-14.06,15.63,15.63,0,0,0-7.62.47c-1.76.56-2.5.2-3.26-1.53a15.1,15.1,0,0,0-14.88-9.09A14.81,14.81,0,0,0,52,30c-1.62,1.06-2.55.86-3.63-.78A16.42,16.42,0,0,0,31.51,21.9c-7,1.45-12.22,6.6-13.29,13.52-.53,3.41-1.13,3.14-3.77,3.45-12.16,0-13,12.67-12.95,12.87H39.61"/><path d="M49.24,54.41a2.64,2.64,0,0,1-2.7-2.72,2.71,2.71,0,1,1,5.41,0A2.64,2.64,0,0,1,49.24,54.41Z"/><path class="cls-3" d="M99,17.47h0A10.77,10.77,0,1,1,84.35,1.93,15.07,15.07,0,1,0,97.29,26.41h0a15,15,0,0,0,3.19-11.48A10.56,10.56,0,0,1,99,17.47Z"/><path class="cls-3" d="M66.91,62.72c-2.48,1.51-4.72,2.78-6.85,4.21a4.44,4.44,0,0,0,3.36,8,4.5,4.5,0,0,0,3.47-4.36C67,68.09,66.91,65.61,66.91,62.72Z"/><path class="cls-3" d="M53.29,79.11c-2.48,1.5-4.72,2.77-6.85,4.2a4.45,4.45,0,0,0,3.37,8A4.54,4.54,0,0,0,53.28,87C53.33,84.47,53.29,82,53.29,79.11Z"/><polygon class="cls-4" points="86.46 63.03 74.69 75.73 73.44 73.05 85.56 73.65 87.96 73.77 86.31 75.38 71.56 89.81 84.8 73.98 85.56 75.71 73.44 76.32 70.02 76.49 72.18 73.63 82.63 59.82 86.46 63.03"/></g></g></svg>