<svg xmlns="http://www.w3.org/2000/svg" viewBox="0 0 98.7 70.65"><defs><style>.cls-1{fill:#cae3f6;}.cls-2{fill:none;stroke:#000;stroke-miterlimit:10;stroke-width:3px;}.cls-3{fill:#231f20;}</style></defs><title>thunder-rainAsset 207colored</title><g id="Layer_2" data-name="Layer 2"><g id="Layer_1-2" data-name="Layer 1"><path class="cls-1" d="M66.91,40.49c-2.48,1.51-4.72,2.78-6.85,4.21a4.44,4.44,0,0,0,3.36,8,4.5,4.5,0,0,0,3.47-4.36C67,45.86,66.91,43.38,66.91,40.49Z"/><path class="cls-1" d="M53.29,56.88c-2.48,1.5-4.72,2.77-6.85,4.2a4.44,4.44,0,0,0,3.37,8,4.52,4.52,0,0,0,3.47-4.35C53.33,62.24,53.29,59.77,53.29,56.88Z"/><path class="cls-1" d="M59.26,31.64H97.15a15.06,15.06,0,0,0-12.1-14.06,15.87,15.87,0,0,0-7.62.47c-1.76.56-2.5.2-3.26-1.52a15.1,15.1,0,0,0-14.88-9.1A14.82,14.82,0,0,0,52,9.93c-1.62,1.06-2.55.86-3.63-.79a16.47,16.47,0,0,0-30.13,6.18c-.53,3.41-1.13,3.15-3.77,3.45-12.16,0-13,12.67-12.95,12.87H39.61"/><path class="cls-2" d="M66.91,40.49c-2.48,1.51-4.72,2.78-6.85,4.21a4.44,4.44,0,0,0,3.36,8,4.5,4.5,0,0,0,3.47-4.36C67,45.86,66.91,43.38,66.91,40.49Z"/><path class="cls-2" d="M53.29,56.88c-2.48,1.5-4.72,2.77-6.85,4.2a4.44,4.44,0,0,0,3.37,8,4.52,4.52,0,0,0,3.47-4.35C53.33,62.24,53.29,59.77,53.29,56.88Z"/><path class="cls-2" d="M59.26,31.64H97.15a15.06,15.06,0,0,0-12.1-14.06,15.87,15.87,0,0,0-7.62.47c-1.76.56-2.5.2-3.26-1.52a15.1,15.1,0,0,0-14.88-9.1A14.82,14.82,0,0,0,52,9.93c-1.62,1.06-2.55.86-3.63-.79a16.47,16.47,0,0,0-30.13,6.18c-.53,3.41-1.13,3.15-3.77,3.45-12.16,0-13,12.67-12.95,12.87H39.61"/><path d="M49.24,34.32a2.64,2.64,0,0,1-2.7-2.73,2.71,2.71,0,0,1,5.41,0A2.65,2.65,0,0,1,49.24,34.32Z"/><polygon class="cls-3" points="86.46 40.8 74.69 53.5 73.44 50.81 85.56 51.42 87.96 51.54 86.31 53.15 71.56 67.58 84.8 51.75 85.56 53.48 73.44 54.09 70.02 54.26 72.18 51.4 82.63 37.59 86.46 40.8"/></g></g></svg>