<svg xmlns="http://www.w3.org/2000/svg" viewBox="0 0 48.94 54.04"><defs><style>.cls-1{fill:#f5b952;}.cls-2{fill:none;stroke:#000;stroke-miterlimit:10;stroke-width:4px;}</style></defs><title>clear-nightAsset 136colored</title><g id="Layer_2" data-name="Layer 2"><g id="Layer_1-2" data-name="Layer 1"><path class="cls-1" d="M3.87,9A25.57,25.57,0,0,1,21.5,2,25.23,25.23,0,0,1,46.94,27,25.23,25.23,0,0,1,21.5,52a26.81,26.81,0,0,1-4.42-.37l1.74-2.46A26,26,0,0,0,5.07,9.34Z"/><path class="cls-2" d="M3.87,9A25.57,25.57,0,0,1,21.5,2,25.23,25.23,0,0,1,46.94,27,25.23,25.23,0,0,1,21.5,52a26.81,26.81,0,0,1-4.42-.37l1.74-2.46A26,26,0,0,0,5.07,9.34Z"/></g></g></svg>