<svg xmlns="http://www.w3.org/2000/svg" viewBox="0 0 76.26 49.64"><defs><style>.cls-1{fill:#e5f1fb;}.cls-2{fill:none;stroke:#000;stroke-miterlimit:10;stroke-width:5px;}</style></defs><title>cloudyAsset 139colored</title><g id="Layer_2" data-name="Layer 2"><g id="Layer_1-2" data-name="Layer 1"><path class="cls-1" d="M73.41,23.38a10,10,0,0,0-1.94-3.79A9.73,9.73,0,0,0,69,17.27a10.45,10.45,0,0,0-4.21-1.56c-.21,0-.46-.33-.56-.56A10.25,10.25,0,0,0,53.29,8.4a17.52,17.52,0,0,0-3.62,1,1.07,1.07,0,0,1-1.21-.43,12.23,12.23,0,0,0-4.7-4,13.15,13.15,0,0,0-2.09-.82c-.37-.11-.74-.21-1.12-.29a10.24,10.24,0,0,0-3-.19c-.45,0-.87.09-1.22.14A10.62,10.62,0,0,0,35.12,4L35,4a21.91,21.91,0,0,0-4.26,2.1,30.81,30.81,0,0,0-3.5,3.46l-.1-.05a11.55,11.55,0,0,0-5.29-1.37,9.84,9.84,0,0,0-4.66,1.12,11.1,11.1,0,0,0-4.83,5.2A2.22,2.22,0,0,1,11,15.55a11.2,11.2,0,0,0-2.89,1A9.84,9.84,0,0,0,4.45,19.8c-.14.22-.29.44-.43.68A12.07,12.07,0,0,0,2.67,24a9.26,9.26,0,0,0,0,3.46A10.31,10.31,0,0,0,11.13,36a1.18,1.18,0,0,1,1,.87,10.25,10.25,0,0,0,8.48,6.63,10.11,10.11,0,0,0,5.85-1,1,1,0,0,1,1.28.32,12.65,12.65,0,0,0,20.63.11,1,1,0,0,1,1.28-.33,10.33,10.33,0,0,0,14.46-5.71.84.84,0,0,1,.79-.59A10.35,10.35,0,0,0,73.41,23.38Z"/><path class="cls-2" d="M73.4,22.15a9.69,9.69,0,0,0-1.72-3.46,10.33,10.33,0,0,0-3.24-2.93,10.58,10.58,0,0,0-3.7-1.24,1,1,0,0,1-.56-.55,10.26,10.26,0,0,0-11-6.7,16.2,16.2,0,0,0-3.43.92,1.32,1.32,0,0,1-1.47-.46A12.37,12.37,0,0,0,43.66,3.8a13.2,13.2,0,0,0-2.1-.8c-.36-.11-.73-.21-1.12-.29a10.53,10.53,0,0,0-3-.17,12,12,0,0,0-1.22.15A11,11,0,0,0,35,3a22.08,22.08,0,0,0-4.32,2.16,30.78,30.78,0,0,0-3.48,3.47l-.1-.05a11.55,11.55,0,0,0-5.3-1.35A9.79,9.79,0,0,0,17.1,8.33a11.12,11.12,0,0,0-5,5.62,1.12,1.12,0,0,1-.76.6A11.52,11.52,0,0,0,8,15.63a9.65,9.65,0,0,0-3.6,3.28c-.15.22-.3.44-.44.68a12.13,12.13,0,0,0-1.33,3.53,9.24,9.24,0,0,0,0,3.47,10.32,10.32,0,0,0,8.51,8.49,1.19,1.19,0,0,1,1,.86,10.24,10.24,0,0,0,8.51,6.59,10.1,10.1,0,0,0,5.91-1.06,1,1,0,0,1,1.22.35,12.65,12.65,0,0,0,20.88-.37.46.46,0,0,1,.62-.16,10.35,10.35,0,0,0,14.83-5.58.85.85,0,0,1,.79-.6A10.36,10.36,0,0,0,73.4,22.15Z"/></g></g></svg>