<svg xmlns="http://www.w3.org/2000/svg" viewBox="0 0 76.24 48.01"><defs><style>.cls-1{fill:#e5f1fb;}.cls-2,.cls-3{fill:none;stroke:#231f20;stroke-miterlimit:10;}.cls-2{stroke-width:4px;}.cls-3{stroke-width:5px;}</style></defs><title>11Asset 224FOG</title><g id="Layer_2" data-name="Layer 2"><g id="Layer_1-2" data-name="Layer 1"><path class="cls-1" d="M74.64,24.71a10.83,10.83,0,0,0-.34-2.85,10.18,10.18,0,0,0-2-3.82,9.64,9.64,0,0,0-2.48-2.33,10.51,10.51,0,0,0-4.25-1.58c-.21,0-.46-.33-.56-.56A10.34,10.34,0,0,0,54,6.76a17.86,17.86,0,0,0-3.65,1,1.09,1.09,0,0,1-1.21-.43,12.63,12.63,0,0,0-6.85-4.9c-.37-.11-.74-.22-1.13-.3a10.7,10.7,0,0,0-3-.19c-.45,0-.87.09-1.23.15a12,12,0,0,0-1.19.24l-.13,0A21.68,21.68,0,0,0,31.3,4.48,30.34,30.34,0,0,0,27.78,8l-.11,0a11.55,11.55,0,0,0-5.32-1.38,9.74,9.74,0,0,0-4.7,1.13,11.14,11.14,0,0,0-4.87,5.24A2.19,2.19,0,0,1,11.4,14a11.23,11.23,0,0,0-2.91,1,9.68,9.68,0,0,0-3.66,3.29c-.15.22-.3.44-.43.67A12.12,12.12,0,0,0,3,22.49a8.66,8.66,0,0,0-.14,2.22Z"/><path class="cls-2" d="M2.49,34.1l3.15-4a5.14,5.14,0,0,1,8.66.94l.87,1.79a5.14,5.14,0,0,0,8.92.58L26,30.49a5.15,5.15,0,0,1,8.85.43L35.42,32a5.14,5.14,0,0,0,9.17-.15l0-.09a5.15,5.15,0,0,1,9.15-.2h0a5.14,5.14,0,0,0,9.07-.05l.12-.23a5.14,5.14,0,0,1,9.17.14l1.4,2.87"/><path class="cls-2" d="M2.49,44.38l3.15-4a5.14,5.14,0,0,1,8.66.93l.87,1.8a5.14,5.14,0,0,0,8.92.58L26,40.77a5.15,5.15,0,0,1,8.85.43l.56,1.06a5.14,5.14,0,0,0,9.17-.14l0-.1a5.15,5.15,0,0,1,9.15-.19h0a5.14,5.14,0,0,0,9.07,0l.12-.24a5.14,5.14,0,0,1,9.17.15l1.4,2.86"/><path class="cls-3" d="M73.74,24.78a11,11,0,0,0-.35-2.63,9.69,9.69,0,0,0-1.72-3.46,10.33,10.33,0,0,0-3.24-2.93,10.58,10.58,0,0,0-3.7-1.24,1,1,0,0,1-.56-.55c-2-4.68-6-7.21-11-6.7a16,16,0,0,0-3.35.89,1.39,1.39,0,0,1-1.58-.49A12.29,12.29,0,0,0,43.64,3.8,12.73,12.73,0,0,0,41.55,3c-.37-.11-.74-.21-1.12-.29a10.55,10.55,0,0,0-3-.17,12,12,0,0,0-1.22.15A11,11,0,0,0,34.94,3a22.08,22.08,0,0,0-4.32,2.16,30,30,0,0,0-3.48,3.47L27,8.53a11.58,11.58,0,0,0-5.3-1.35,9.79,9.79,0,0,0-4.65,1.15,11.08,11.08,0,0,0-5,5.62,1.12,1.12,0,0,1-.76.6A11.42,11.42,0,0,0,8,15.63a9.84,9.84,0,0,0-3.61,3.28c-.14.22-.29.44-.43.68a12.13,12.13,0,0,0-1.33,3.53,8.39,8.39,0,0,0-.15,1.61"/></g></g></svg>