<svg xmlns="http://www.w3.org/2000/svg" viewBox="0 0 76.26 49.64"><defs><style>.cls-1{fill:#e5f1fb;}.cls-2,.cls-3{fill:none;stroke:#000;}.cls-2,.cls-3,.cls-4{stroke-miterlimit:10;}.cls-2{stroke-width:1.5px;}.cls-3{stroke-width:5px;}.cls-4{fill:#b9e4fa;stroke:#231f20;stroke-width:3px;}</style></defs><title>rain-snowAsset 144colored</title><g id="Layer_2" data-name="Layer 2"><g id="Layer_1-2" data-name="Layer 1"><path class="cls-1" d="M73.41,23.41a10,10,0,0,0-1.94-3.79A9.56,9.56,0,0,0,69,17.3a10.61,10.61,0,0,0-4.21-1.57c-.21,0-.46-.32-.56-.55A10.27,10.27,0,0,0,53.29,8.42a18.22,18.22,0,0,0-3.62,1A1.09,1.09,0,0,1,48.46,9a12.34,12.34,0,0,0-4.7-4.05,13.12,13.12,0,0,0-2.09-.81c-.37-.11-.74-.22-1.12-.3a10.57,10.57,0,0,0-3-.18,12.17,12.17,0,0,0-1.22.14c-.6.1-1,.2-1.18.24l-.13,0a21.36,21.36,0,0,0-4.26,2.1,30.81,30.81,0,0,0-3.5,3.46l-.1,0a11.42,11.42,0,0,0-5.29-1.37,9.72,9.72,0,0,0-4.66,1.12,11,11,0,0,0-4.83,5.2A2.25,2.25,0,0,1,11,15.58a11.2,11.2,0,0,0-2.89,1,9.67,9.67,0,0,0-3.63,3.26c-.14.22-.29.44-.43.67A12.18,12.18,0,0,0,2.67,24a9.31,9.31,0,0,0,0,3.47A10.32,10.32,0,0,0,11.13,36a1.16,1.16,0,0,1,1,.87,10.22,10.22,0,0,0,8.48,6.62,10,10,0,0,0,5.85-1,1,1,0,0,1,1.28.33A12.66,12.66,0,0,0,48.38,43a1,1,0,0,1,1.28-.33,10.33,10.33,0,0,0,14.46-5.71.84.84,0,0,1,.79-.59A10.35,10.35,0,0,0,73.41,23.41Z"/><line class="cls-2" x1="21.22" y1="19.8" x2="21.22" y2="23.71"/><polyline class="cls-2" points="19.83 18.38 21.23 19.78 22.64 18.37"/><line class="cls-2" x1="21.25" y1="29.68" x2="21.25" y2="25.77"/><polyline class="cls-2" points="22.64 31.1 21.25 29.7 19.83 31.12"/><line class="cls-2" x1="25.42" y1="27.37" x2="22.1" y2="25.3"/><polyline class="cls-2" points="25.88 29.31 25.44 27.38 27.39 26.93"/><line class="cls-2" x1="17.05" y1="22.11" x2="20.37" y2="24.19"/><polyline class="cls-2" points="16.59 20.18 17.04 22.1 15.09 22.55"/><line class="cls-2" x1="17.05" y1="27.37" x2="20.37" y2="25.3"/><polyline class="cls-2" points="16.58 29.3 17.03 27.38 15.08 26.92"/><line class="cls-2" x1="25.42" y1="22.12" x2="22.1" y2="24.19"/><polyline class="cls-2" points="25.89 20.18 25.44 22.11 27.39 22.56"/><circle class="cls-2" cx="21.17" cy="24.76" r="1.38"/><line class="cls-2" x1="56.76" y1="19.8" x2="56.76" y2="23.71"/><polyline class="cls-2" points="55.36 18.38 56.76 19.78 58.18 18.37"/><line class="cls-2" x1="56.78" y1="29.68" x2="56.78" y2="25.77"/><polyline class="cls-2" points="58.18 31.1 56.78 29.7 55.36 31.12"/><line class="cls-2" x1="60.95" y1="27.37" x2="57.64" y2="25.3"/><polyline class="cls-2" points="61.41 29.31 60.97 27.38 62.92 26.93"/><line class="cls-2" x1="52.59" y1="22.11" x2="55.9" y2="24.19"/><polyline class="cls-2" points="52.13 20.18 52.57 22.1 50.62 22.55"/><line class="cls-2" x1="52.59" y1="27.37" x2="55.9" y2="25.3"/><polyline class="cls-2" points="52.12 29.3 52.56 27.38 50.62 26.92"/><line class="cls-2" x1="60.96" y1="22.12" x2="57.64" y2="24.19"/><polyline class="cls-2" points="61.42 20.18 60.98 22.11 62.92 22.56"/><circle class="cls-2" cx="56.71" cy="24.76" r="1.38"/><path class="cls-3" d="M73.4,22.15a9.69,9.69,0,0,0-1.72-3.46,10.33,10.33,0,0,0-3.24-2.93,10.58,10.58,0,0,0-3.7-1.24,1,1,0,0,1-.56-.55,10.26,10.26,0,0,0-11-6.7,16.1,16.1,0,0,0-3.36.89,1.4,1.4,0,0,1-1.58-.49A12.34,12.34,0,0,0,43.66,3.8a13.2,13.2,0,0,0-2.1-.8c-.36-.11-.73-.21-1.12-.29a10.53,10.53,0,0,0-3-.17,12,12,0,0,0-1.22.15A11,11,0,0,0,35,3a22.08,22.08,0,0,0-4.32,2.16,30.78,30.78,0,0,0-3.48,3.47l-.1-.05a11.55,11.55,0,0,0-5.3-1.35A9.79,9.79,0,0,0,17.1,8.33a11.12,11.12,0,0,0-5,5.62,1.12,1.12,0,0,1-.76.6A11.52,11.52,0,0,0,8,15.63a9.65,9.65,0,0,0-3.6,3.28c-.15.22-.3.44-.44.68a12.13,12.13,0,0,0-1.33,3.53,9.24,9.24,0,0,0,0,3.47,10.32,10.32,0,0,0,8.51,8.49,1.19,1.19,0,0,1,1,.86,10.24,10.24,0,0,0,8.51,6.59,10,10,0,0,0,5.47-.85,1.55,1.55,0,0,1,1.9.48,12.67,12.67,0,0,0,20.14,0,1.57,1.57,0,0,1,1.91-.5,10.32,10.32,0,0,0,14-6,.85.85,0,0,1,.79-.6A10.36,10.36,0,0,0,73.4,22.15Z"/><path class="cls-4" d="M38.41,16.06c-1.48,3.34-3.12,6.61-4.47,10-1.1,2.77.51,5.45,3.35,6.34a4.32,4.32,0,0,0,2.39-.06c2.77-1,4.23-3.52,3.15-6.26C41.5,22.68,39.87,19.4,38.41,16.06Z"/></g></g></svg>