<svg xmlns="http://www.w3.org/2000/svg" viewBox="0 0 76.26 69.69"><defs><style>.cls-1{fill:#e5f1fb;}.cls-2{fill:#f5b952;}.cls-3{fill:none;stroke:#000;stroke-width:5px;}.cls-3,.cls-4{stroke-miterlimit:10;}.cls-4{fill:#b9e4fa;stroke:#231f20;stroke-width:3px;}</style></defs><title>showers-nightAsset 142colored</title><g id="Layer_2" data-name="Layer 2"><g id="Layer_1-2" data-name="Layer 1"><path class="cls-1" d="M73.41,42.43a10.14,10.14,0,0,0-1.94-3.8A9.7,9.7,0,0,0,69,36.32a10.61,10.61,0,0,0-4.21-1.57c-.21,0-.46-.32-.56-.55a10.27,10.27,0,0,0-10.94-6.76,18.22,18.22,0,0,0-3.62,1A1.09,1.09,0,0,1,48.46,28a12.34,12.34,0,0,0-4.7-4.05,13.12,13.12,0,0,0-2.09-.81c-.37-.11-.74-.22-1.12-.3a10.57,10.57,0,0,0-3-.18,12.17,12.17,0,0,0-1.22.14,11.56,11.56,0,0,0-1.18.24l-.13.05a21.36,21.36,0,0,0-4.26,2.1,30,30,0,0,0-3.5,3.46l-.1-.05a11.56,11.56,0,0,0-5.29-1.38,9.84,9.84,0,0,0-4.66,1.13,11,11,0,0,0-4.83,5.2A2.25,2.25,0,0,1,11,34.6a11.2,11.2,0,0,0-2.89,1,9.67,9.67,0,0,0-3.63,3.26c-.14.22-.29.44-.43.67a12.18,12.18,0,0,0-1.35,3.53,9.31,9.31,0,0,0,0,3.47,10.32,10.32,0,0,0,8.47,8.53,1.16,1.16,0,0,1,1,.87,10.22,10.22,0,0,0,8.48,6.62,10,10,0,0,0,5.85-1,1,1,0,0,1,1.28.33A12.66,12.66,0,0,0,48.38,62a1,1,0,0,1,1.28-.33,10.33,10.33,0,0,0,14.46-5.71.84.84,0,0,1,.79-.59A10.35,10.35,0,0,0,73.41,42.43Z"/><path class="cls-2" d="M25.34,26.66c2.34-.46,4.67-1,7-1.48,4.81-1.07,9.77-1.1,14.56-2.15.3-.06.59-.11.87-.14A25.59,25.59,0,0,0,5.12,9.28l1.19.36C18.25,13.27,25.58,18.7,25.34,26.66Z"/><path class="cls-3" d="M49.57,28.3c0-.26,0-.52,0-.78a25.24,25.24,0,0,0-25.45-25,25.57,25.57,0,0,0-17.62,7l1.2.36a25.89,25.89,0,0,1,17.52,18"/><path class="cls-3" d="M73.4,42.2a9.53,9.53,0,0,0-1.72-3.46,10.24,10.24,0,0,0-3.24-2.94,10.36,10.36,0,0,0-3.7-1.23c-.21,0-.47-.33-.56-.55a10.25,10.25,0,0,0-11-6.71,16.79,16.79,0,0,0-3.36.9,1.42,1.42,0,0,1-1.58-.49,12.25,12.25,0,0,0-4.61-3.87,14.27,14.27,0,0,0-2.1-.81c-.36-.1-.73-.21-1.12-.29a10.17,10.17,0,0,0-3-.16A12.47,12.47,0,0,0,35,23a22,22,0,0,0-4.32,2.15,30.89,30.89,0,0,0-3.48,3.48c.09,0,0,0-.1-.05a11.43,11.43,0,0,0-5.3-1.35,9.9,9.9,0,0,0-4.65,1.14,11.16,11.16,0,0,0-5,5.62,1.12,1.12,0,0,1-.76.6A11.53,11.53,0,0,0,8,35.68,9.65,9.65,0,0,0,4.43,39c-.15.22-.3.44-.44.67a12.3,12.3,0,0,0-1.33,3.54,9.18,9.18,0,0,0,0,3.46,10.31,10.31,0,0,0,8.51,8.49,1.2,1.2,0,0,1,1,.87,10.21,10.21,0,0,0,8.51,6.58,9.91,9.91,0,0,0,5.47-.85,1.56,1.56,0,0,1,1.9.48,12.67,12.67,0,0,0,20.14,0,1.58,1.58,0,0,1,1.91-.49,10.32,10.32,0,0,0,14-6,.84.84,0,0,1,.79-.59A10.36,10.36,0,0,0,73.4,42.2Z"/><path class="cls-4" d="M22,40c-.93,2.1-2,4.15-2.81,6.28a3,3,0,0,0,2.11,4,2.73,2.73,0,0,0,1.5,0,2.94,2.94,0,0,0,2-3.94C24,44.11,22.94,42.05,22,40Z"/><path class="cls-4" d="M55.85,40c-.93,2.1-2,4.15-2.81,6.28a3,3,0,0,0,2.11,4,2.73,2.73,0,0,0,1.5,0,3,3,0,0,0,2-3.94C57.79,44.11,56.77,42.05,55.85,40Z"/><path class="cls-4" d="M38.41,36.89c-1.48,3.33-3.12,6.61-4.47,10-1.1,2.78.51,5.46,3.35,6.35a4.41,4.41,0,0,0,2.39-.06c2.77-1,4.23-3.52,3.15-6.27C41.5,43.51,39.87,40.23,38.41,36.89Z"/></g></g></svg>