<svg xmlns="http://www.w3.org/2000/svg" viewBox="0 0 95.87 85.74"><defs><style>.cls-1{fill:#e5f1fb;}.cls-2{fill:#f5b952;}.cls-3{fill:#b9e4fa;stroke:#231f20;stroke-width:3px;}.cls-3,.cls-4,.cls-5,.cls-6{stroke-miterlimit:10;}.cls-4,.cls-5,.cls-6{fill:none;stroke:#000;}.cls-4,.cls-6{stroke-width:5px;}.cls-5,.cls-6{stroke-linecap:round;}.cls-5{stroke-width:4px;}</style></defs><title>showers-dayAsset 141colored</title><g id="Layer_2" data-name="Layer 2"><g id="Layer_1-2" data-name="Layer 1"><path class="cls-1" d="M93,59.16a10.14,10.14,0,0,0-1.94-3.8,9.86,9.86,0,0,0-2.47-2.31,10.67,10.67,0,0,0-4.21-1.57,1,1,0,0,1-.56-.55A10.26,10.26,0,0,0,72.9,44.17a18.22,18.22,0,0,0-3.62,1,1.08,1.08,0,0,1-1.21-.43,12.26,12.26,0,0,0-4.7-4.05,14.18,14.18,0,0,0-2.09-.82c-.37-.1-.74-.21-1.12-.29a10.22,10.22,0,0,0-3-.18,12.17,12.17,0,0,0-1.22.14,11.56,11.56,0,0,0-1.18.24l-.13,0a21.36,21.36,0,0,0-4.26,2.1,30,30,0,0,0-3.5,3.46l-.1,0a11.44,11.44,0,0,0-5.29-1.38,9.84,9.84,0,0,0-4.66,1.13A11,11,0,0,0,32,50.26a2.25,2.25,0,0,1-1.38,1.07,11.2,11.2,0,0,0-2.89,1,9.59,9.59,0,0,0-3.63,3.26c-.14.22-.3.43-.43.67a12.18,12.18,0,0,0-1.35,3.53,9,9,0,0,0,0,3.46,10.32,10.32,0,0,0,8.47,8.54,1.16,1.16,0,0,1,1,.87,10.22,10.22,0,0,0,8.48,6.62,10,10,0,0,0,5.85-1,1,1,0,0,1,1.28.33A12.66,12.66,0,0,0,68,78.71a1,1,0,0,1,1.28-.33,10.34,10.34,0,0,0,14.46-5.71.85.85,0,0,1,.79-.6A10.35,10.35,0,0,0,93,59.16Z"/><path class="cls-2" d="M59.92,38.42C59.85,40,48.43,41.1,36.05,46.59c-9.45,4.19-12.81,7.24-12.81-3.11A18.73,18.73,0,0,1,42,24.76C52.31,24.76,60.31,30.12,59.92,38.42Z"/><path class="cls-3" d="M41.63,55.68c-.93,2.1-2,4.15-2.81,6.28a3,3,0,0,0,2.11,4,2.7,2.7,0,0,0,1.49,0,3,3,0,0,0,2-3.94C43.57,59.84,42.55,57.78,41.63,55.68Z"/><path class="cls-3" d="M75.46,55.68c-.93,2.1-2,4.15-2.81,6.28a3,3,0,0,0,2.11,4,2.7,2.7,0,0,0,1.49,0,3,3,0,0,0,2-3.94C77.4,59.84,76.38,57.78,75.46,55.68Z"/><path class="cls-3" d="M58,52.62c-1.47,3.33-3.11,6.61-4.46,10-1.1,2.78.5,5.46,3.35,6.35a4.51,4.51,0,0,0,2.39-.06c2.77-1,4.23-3.52,3.15-6.27C61.11,59.24,59.48,56,58,52.62Z"/><path class="cls-4" d="M93,58.42a10,10,0,0,0-1.94-3.79,9.9,9.9,0,0,0-2.47-2.32,10.51,10.51,0,0,0-4.21-1.56c-.21,0-.47-.33-.56-.56A10.27,10.27,0,0,0,72.9,43.43a18.22,18.22,0,0,0-3.62,1A1.08,1.08,0,0,1,68.07,44a12.23,12.23,0,0,0-4.7-4,13.15,13.15,0,0,0-2.09-.82c-.37-.11-.74-.21-1.12-.29a10.24,10.24,0,0,0-3-.19,12.17,12.17,0,0,0-1.22.14,10.62,10.62,0,0,0-1.18.25l-.13,0a21.36,21.36,0,0,0-4.26,2.1,30.81,30.81,0,0,0-3.5,3.46l-.1,0a11.55,11.55,0,0,0-5.29-1.37,9.84,9.84,0,0,0-4.66,1.12A11.06,11.06,0,0,0,32,49.52a2.22,2.22,0,0,1-1.38,1.07,11.2,11.2,0,0,0-2.89,1,9.68,9.68,0,0,0-3.63,3.26c-.14.22-.3.44-.43.68A12.12,12.12,0,0,0,22.28,59a9.1,9.1,0,0,0,0,3.47A10.31,10.31,0,0,0,30.74,71a1.18,1.18,0,0,1,1,.87,10.25,10.25,0,0,0,8.48,6.63,10.11,10.11,0,0,0,5.85-1,1,1,0,0,1,1.28.32A12.66,12.66,0,0,0,68,78a1,1,0,0,1,1.28-.33,10.34,10.34,0,0,0,14.46-5.71.84.84,0,0,1,.79-.59A10.35,10.35,0,0,0,93,58.42Z"/><path class="cls-4" d="M60.77,39A18.84,18.84,0,0,0,23.35,42a18.65,18.65,0,0,0,3.09,10.32"/><line class="cls-5" x1="42.15" y1="14.23" x2="42.15" y2="6.07"/><line class="cls-5" x1="14.23" y1="42.15" x2="6.07" y2="42.15"/><line class="cls-5" x1="22.41" y1="22.41" x2="16.64" y2="16.64"/><line class="cls-5" x1="67.66" y1="16.64" x2="61.89" y2="22.41"/><line class="cls-6" x1="54.63" y1="11.47" x2="58.28" y2="2.5"/><line class="cls-6" x1="11.47" y1="29.67" x2="2.5" y2="26.02"/><line class="cls-6" x1="29.28" y1="11.63" x2="25.52" y2="2.71"/><line class="cls-6" x1="11.63" y1="55.02" x2="2.71" y2="58.78"/><line class="cls-6" x1="81.59" y1="25.52" x2="72.67" y2="29.28"/></g></g></svg>