<svg xmlns="http://www.w3.org/2000/svg" viewBox="0 0 69.13 84.05"><defs><style>.cls-1{fill:#b9e4fa;}.cls-2,.cls-3{fill:none;stroke:#000;stroke-miterlimit:10;}.cls-2{stroke-width:2px;}.cls-3{stroke-width:5px;}</style></defs><title>sleetAsset 143colored</title><g id="Layer_2" data-name="Layer 2"><g id="Layer_1-2" data-name="Layer 1"><circle class="cls-1" cx="30.81" cy="50.71" r="5.87"/><line class="cls-2" x1="58.35" y1="3.17" x2="58.35" y2="9.86"/><polyline class="cls-2" points="55.96 0.74 58.35 3.13 60.78 0.71"/><line class="cls-2" x1="58.39" y1="20.08" x2="58.39" y2="13.38"/><polyline class="cls-2" points="60.78 22.51 58.39 20.11 55.96 22.54"/><line class="cls-2" x1="65.53" y1="16.12" x2="59.85" y2="12.57"/><polyline class="cls-2" points="66.32 19.44 65.56 16.14 68.9 15.37"/><line class="cls-2" x1="51.21" y1="7.12" x2="56.89" y2="10.67"/><polyline class="cls-2" points="50.42 3.81 51.18 7.1 47.84 7.87"/><line class="cls-2" x1="51.21" y1="16.11" x2="56.89" y2="12.57"/><polyline class="cls-2" points="50.41 19.43 51.17 16.13 47.84 15.35"/><line class="cls-2" x1="65.54" y1="7.13" x2="59.86" y2="10.67"/><polyline class="cls-2" points="66.33 3.82 65.57 7.11 68.91 7.89"/><circle class="cls-2" cx="58.26" cy="11.65" r="2.36"/><line class="cls-3" x1="31.07" y1="26.11" x2="31.07" y2="45.52"/><polyline class="cls-3" points="24.14 19.06 31.07 26 38.11 18.98"/><line class="cls-3" x1="31.17" y1="75.15" x2="31.17" y2="55.73"/><polyline class="cls-3" points="38.11 82.2 31.17 75.26 24.14 82.28"/><line class="cls-3" x1="51.88" y1="63.68" x2="35.42" y2="53.38"/><polyline class="cls-3" points="54.18 73.3 51.98 63.73 61.66 61.5"/><line class="cls-3" x1="10.36" y1="37.58" x2="26.82" y2="47.87"/><polyline class="cls-3" points="8.06 27.96 10.27 37.52 0.58 39.76"/><line class="cls-3" x1="10.34" y1="63.65" x2="26.82" y2="53.38"/><polyline class="cls-3" points="8.03 73.26 10.24 63.7 0.57 61.45"/><line class="cls-3" x1="51.9" y1="37.61" x2="35.42" y2="47.88"/><polyline class="cls-3" points="54.21 28 52 37.55 61.67 39.81"/><circle class="cls-3" cx="30.81" cy="50.71" r="6.85"/></g></g></svg>