<svg xmlns="http://www.w3.org/2000/svg" viewBox="0 0 95.87 85.74"><defs><style>.cls-1{fill:#e5f1fb;}.cls-2{fill:#f5b952;}.cls-3,.cls-4,.cls-5,.cls-6,.cls-7{fill:none;stroke:#000;stroke-miterlimit:10;}.cls-3{stroke-width:1.5px;}.cls-4{stroke-width:2px;}.cls-5,.cls-7{stroke-width:5px;}.cls-6,.cls-7{stroke-linecap:round;}.cls-6{stroke-width:4px;}</style></defs><title>snow-showers-dayAsset 155colored</title><g id="Layer_2" data-name="Layer 2"><g id="Layer_1-2" data-name="Layer 1"><path class="cls-1" d="M92.24,59.26a9.76,9.76,0,0,0-1.91-3.66,9.66,9.66,0,0,0-2.41-2.23,10.34,10.34,0,0,0-4.12-1.51c-.21,0-.45-.31-.55-.54a10.06,10.06,0,0,0-10.7-6.52,18.06,18.06,0,0,0-3.54.94,1.06,1.06,0,0,1-1.18-.42,12,12,0,0,0-4.6-3.9,13.6,13.6,0,0,0-2-.79,10.25,10.25,0,0,0-1.09-.28,10.14,10.14,0,0,0-3-.18c-.44,0-.85.08-1.19.13-.58.1-1,.2-1.15.24l-.13,0a21.18,21.18,0,0,0-4.17,2A29,29,0,0,0,47.06,46a.55.55,0,1,0-.1-.05,11.39,11.39,0,0,0-5.17-1.33,9.62,9.62,0,0,0-4.56,1.09,10.67,10.67,0,0,0-4.73,5,2.15,2.15,0,0,1-1.34,1,11.09,11.09,0,0,0-2.83.95,9.39,9.39,0,0,0-3.55,3.15c-.14.21-.29.42-.42.65A11.45,11.45,0,0,0,23,59.86a8.63,8.63,0,0,0,0,3.34,10,10,0,0,0,8.29,8.24,1.15,1.15,0,0,1,1,.84,10.26,10.26,0,0,0,14,5.43,1,1,0,0,1,1.25.31,12.48,12.48,0,0,0,20.18.1A1,1,0,0,1,69,77.81,10.16,10.16,0,0,0,83.15,72.3a.81.81,0,0,1,.77-.57A10,10,0,0,0,92.24,59.26Z"/><path class="cls-2" d="M60.07,37.59C60,39.13,48.58,40.27,36.2,45.76,26.75,50,23.39,53,23.39,42.65A18.72,18.72,0,0,1,42.12,23.93C52.46,23.93,60.46,29.29,60.07,37.59Z"/><line class="cls-3" x1="38.83" y1="56.16" x2="38.83" y2="60.07"/><polyline class="cls-3" points="37.44 54.74 38.84 56.14 40.25 54.72"/><line class="cls-3" x1="38.86" y1="66.04" x2="38.86" y2="62.13"/><polyline class="cls-3" points="40.25 67.46 38.85 66.06 37.44 67.47"/><line class="cls-3" x1="43.03" y1="63.73" x2="39.71" y2="61.65"/><polyline class="cls-3" points="43.49 65.67 43.05 63.74 44.99 63.29"/><line class="cls-3" x1="34.66" y1="58.47" x2="37.98" y2="60.55"/><polyline class="cls-3" points="34.2 56.53 34.64 58.46 32.69 58.91"/><line class="cls-3" x1="34.66" y1="63.72" x2="37.98" y2="61.65"/><polyline class="cls-3" points="34.19 65.66 34.64 63.73 32.69 63.28"/><line class="cls-3" x1="43.03" y1="58.48" x2="39.71" y2="60.55"/><polyline class="cls-3" points="43.5 56.54 43.05 58.47 45 58.92"/><circle class="cls-3" cx="38.78" cy="61.12" r="1.38"/><line class="cls-4" x1="57.97" y1="54.2" x2="57.97" y2="59.66"/><polyline class="cls-4" points="56.02 52.21 57.97 54.16 59.95 52.19"/><line class="cls-4" x1="58" y1="68" x2="58" y2="62.54"/><polyline class="cls-4" points="59.95 69.99 58 68.04 56.02 70.01"/><line class="cls-4" x1="63.83" y1="64.77" x2="59.2" y2="61.88"/><polyline class="cls-4" points="64.48 67.48 63.86 64.79 66.58 64.16"/><line class="cls-4" x1="52.14" y1="57.43" x2="56.78" y2="60.32"/><polyline class="cls-4" points="51.49 54.72 52.11 57.41 49.39 58.04"/><line class="cls-4" x1="52.14" y1="64.77" x2="56.78" y2="61.87"/><polyline class="cls-4" points="51.48 67.47 52.11 64.78 49.38 64.15"/><line class="cls-4" x1="63.84" y1="57.43" x2="59.2" y2="60.33"/><polyline class="cls-4" points="64.49 54.73 63.87 57.42 66.59 58.05"/><circle class="cls-4" cx="57.9" cy="61.12" r="1.93"/><line class="cls-3" x1="76.37" y1="56.16" x2="76.37" y2="60.07"/><polyline class="cls-3" points="74.97 54.74 76.37 56.14 77.79 54.72"/><line class="cls-3" x1="76.39" y1="66.04" x2="76.39" y2="62.13"/><polyline class="cls-3" points="77.79 67.46 76.39 66.06 74.97 67.47"/><line class="cls-3" x1="80.56" y1="63.73" x2="77.25" y2="61.65"/><polyline class="cls-3" points="81.02 65.67 80.58 63.74 82.53 63.29"/><line class="cls-3" x1="72.2" y1="58.47" x2="75.51" y2="60.55"/><polyline class="cls-3" points="71.73 56.53 72.18 58.46 70.23 58.91"/><line class="cls-3" x1="72.19" y1="63.72" x2="75.51" y2="61.65"/><polyline class="cls-3" points="71.73 65.66 72.17 63.73 70.22 63.28"/><line class="cls-3" x1="80.56" y1="58.48" x2="77.25" y2="60.55"/><polyline class="cls-3" points="81.03 56.54 80.58 58.47 82.53 58.92"/><circle class="cls-3" cx="76.32" cy="61.12" r="1.38"/><path class="cls-5" d="M93,58.42a10,10,0,0,0-1.94-3.79,9.9,9.9,0,0,0-2.47-2.32,10.51,10.51,0,0,0-4.21-1.56c-.21,0-.47-.33-.56-.56A10.27,10.27,0,0,0,72.9,43.43a18.22,18.22,0,0,0-3.62,1A1.08,1.08,0,0,1,68.07,44a12.23,12.23,0,0,0-4.7-4,13.15,13.15,0,0,0-2.09-.82c-.37-.11-.74-.21-1.12-.29a10.24,10.24,0,0,0-3-.19,12.17,12.17,0,0,0-1.22.14,10.62,10.62,0,0,0-1.18.25l-.13,0a21.36,21.36,0,0,0-4.26,2.1,30.81,30.81,0,0,0-3.5,3.46l-.1,0a11.55,11.55,0,0,0-5.29-1.37,9.84,9.84,0,0,0-4.66,1.12A11.06,11.06,0,0,0,32,49.52a2.22,2.22,0,0,1-1.38,1.07,11.2,11.2,0,0,0-2.89,1,9.68,9.68,0,0,0-3.63,3.26c-.14.22-.3.44-.43.68A12.12,12.12,0,0,0,22.28,59a9.1,9.1,0,0,0,0,3.47A10.31,10.31,0,0,0,30.74,71a1.18,1.18,0,0,1,1,.87,10.25,10.25,0,0,0,8.48,6.63,10.11,10.11,0,0,0,5.85-1,1,1,0,0,1,1.28.32A12.66,12.66,0,0,0,68,78a1,1,0,0,1,1.28-.33,10.34,10.34,0,0,0,14.46-5.71.84.84,0,0,1,.79-.59A10.35,10.35,0,0,0,93,58.42Z"/><path class="cls-5" d="M60.77,39A18.84,18.84,0,0,0,23.35,42a18.65,18.65,0,0,0,3.09,10.32"/><line class="cls-6" x1="42.15" y1="14.23" x2="42.15" y2="6.07"/><line class="cls-6" x1="14.23" y1="42.15" x2="6.07" y2="42.15"/><line class="cls-6" x1="22.41" y1="22.41" x2="16.64" y2="16.64"/><line class="cls-6" x1="67.66" y1="16.64" x2="61.89" y2="22.41"/><line class="cls-7" x1="54.63" y1="11.47" x2="58.28" y2="2.5"/><line class="cls-7" x1="11.47" y1="29.67" x2="2.5" y2="26.02"/><line class="cls-7" x1="29.28" y1="11.63" x2="25.52" y2="2.71"/><line class="cls-7" x1="11.63" y1="55.02" x2="2.71" y2="58.78"/><line class="cls-7" x1="81.59" y1="25.52" x2="72.67" y2="29.28"/></g></g></svg>