<svg xmlns="http://www.w3.org/2000/svg" viewBox="0 0 76.26 49.64"><defs><style>.cls-1{fill:#e5f1fb;}.cls-2,.cls-3,.cls-4{fill:none;stroke-miterlimit:10;}.cls-2,.cls-3{stroke:#000;}.cls-2{stroke-width:1.5px;}.cls-3{stroke-width:2px;}.cls-4{stroke:#231f20;stroke-width:5px;}</style></defs><title>snow Asset 154colored</title><g id="Layer_2" data-name="Layer 2"><g id="Layer_1-2" data-name="Layer 1"><path class="cls-1" d="M72.88,23.39A9.81,9.81,0,0,0,71,19.73a9.56,9.56,0,0,0-2.42-2.24A10.43,10.43,0,0,0,64.44,16c-.2,0-.45-.31-.54-.53A10,10,0,0,0,53.2,8.93a17.43,17.43,0,0,0-3.55.93,1.07,1.07,0,0,1-1.18-.41,11.86,11.86,0,0,0-4.6-3.91,13.08,13.08,0,0,0-2-.79c-.36-.1-.72-.2-1.1-.28a10.43,10.43,0,0,0-3-.18,12.07,12.07,0,0,0-1.2.14c-.57.09-1,.19-1.15.23l-.12,0a20.65,20.65,0,0,0-4.17,2,28.87,28.87,0,0,0-3.42,3.33l-.1-.05A11.38,11.38,0,0,0,22.43,8.7a9.79,9.79,0,0,0-4.56,1.08,10.75,10.75,0,0,0-4.72,5,2.17,2.17,0,0,1-1.34,1,10.8,10.8,0,0,0-2.84,1,9.33,9.33,0,0,0-3.54,3.14c-.15.21-.29.42-.43.65A11.67,11.67,0,0,0,3.68,24a8.8,8.8,0,0,0,0,3.34A10,10,0,0,0,12,35.56a1.16,1.16,0,0,1,1,.84,10.24,10.24,0,0,0,14,5.43,1,1,0,0,1,1.25.32,12.48,12.48,0,0,0,20.18.1,1,1,0,0,1,1.25-.31,10.16,10.16,0,0,0,14.14-5.52.84.84,0,0,1,.78-.57A10,10,0,0,0,72.88,23.39Z"/><line class="cls-2" x1="19.22" y1="19.16" x2="19.22" y2="23.07"/><polyline class="cls-2" points="17.83 17.74 19.23 19.14 20.64 17.73"/><line class="cls-2" x1="19.25" y1="29.04" x2="19.25" y2="25.13"/><polyline class="cls-2" points="20.64 30.46 19.25 29.06 17.83 30.48"/><line class="cls-2" x1="23.42" y1="26.73" x2="20.1" y2="24.65"/><polyline class="cls-2" points="23.88 28.67 23.44 26.74 25.39 26.29"/><line class="cls-2" x1="15.05" y1="21.47" x2="18.37" y2="23.55"/><polyline class="cls-2" points="14.59 19.53 15.04 21.46 13.09 21.91"/><line class="cls-2" x1="15.05" y1="26.72" x2="18.37" y2="24.65"/><polyline class="cls-2" points="14.58 28.66 15.03 26.73 13.08 26.28"/><line class="cls-2" x1="23.42" y1="21.48" x2="20.1" y2="23.55"/><polyline class="cls-2" points="23.89 19.54 23.44 21.47 25.39 21.92"/><circle class="cls-2" cx="19.17" cy="24.12" r="1.38"/><line class="cls-3" x1="38.36" y1="17.2" x2="38.36" y2="22.66"/><polyline class="cls-3" points="36.41 15.21 38.37 17.16 40.34 15.19"/><line class="cls-3" x1="38.39" y1="31" x2="38.39" y2="25.54"/><polyline class="cls-3" points="40.34 32.99 38.39 31.04 36.41 33.01"/><line class="cls-3" x1="44.22" y1="27.77" x2="39.59" y2="24.88"/><polyline class="cls-3" points="44.87 30.48 44.25 27.79 46.98 27.16"/><line class="cls-3" x1="32.53" y1="20.43" x2="37.17" y2="23.32"/><polyline class="cls-3" points="31.89 17.72 32.51 20.41 29.78 21.04"/><line class="cls-3" x1="32.53" y1="27.77" x2="37.17" y2="24.87"/><polyline class="cls-3" points="31.88 30.47 32.5 27.78 29.77 27.15"/><line class="cls-3" x1="44.23" y1="20.43" x2="39.59" y2="23.33"/><polyline class="cls-3" points="44.88 17.73 44.26 20.42 46.98 21.05"/><circle class="cls-3" cx="38.29" cy="24.12" r="1.93"/><line class="cls-2" x1="56.76" y1="19.16" x2="56.76" y2="23.07"/><polyline class="cls-2" points="55.36 17.74 56.76 19.14 58.18 17.73"/><line class="cls-2" x1="56.78" y1="29.04" x2="56.78" y2="25.13"/><polyline class="cls-2" points="58.18 30.46 56.78 29.06 55.36 30.48"/><line class="cls-2" x1="60.95" y1="26.73" x2="57.64" y2="24.65"/><polyline class="cls-2" points="61.41 28.67 60.97 26.74 62.92 26.29"/><line class="cls-2" x1="52.59" y1="21.47" x2="55.9" y2="23.55"/><polyline class="cls-2" points="52.13 19.53 52.57 21.46 50.62 21.91"/><line class="cls-2" x1="52.59" y1="26.72" x2="55.9" y2="24.65"/><polyline class="cls-2" points="52.12 28.66 52.56 26.73 50.62 26.28"/><line class="cls-2" x1="60.96" y1="21.48" x2="57.64" y2="23.55"/><polyline class="cls-2" points="61.42 19.54 60.98 21.47 62.92 21.92"/><circle class="cls-2" cx="56.71" cy="24.12" r="1.38"/><path class="cls-4" d="M73.4,22.15a9.69,9.69,0,0,0-1.72-3.46,10.33,10.33,0,0,0-3.24-2.93,10.58,10.58,0,0,0-3.7-1.24,1,1,0,0,1-.56-.55,10.26,10.26,0,0,0-11-6.7,16.1,16.1,0,0,0-3.36.89,1.4,1.4,0,0,1-1.58-.49A12.34,12.34,0,0,0,43.66,3.8a13.2,13.2,0,0,0-2.1-.8c-.36-.11-.73-.21-1.12-.29a10.53,10.53,0,0,0-3-.17,12,12,0,0,0-1.22.15A11,11,0,0,0,35,3a22.08,22.08,0,0,0-4.32,2.16,30.78,30.78,0,0,0-3.48,3.47l-.1-.05a11.55,11.55,0,0,0-5.3-1.35A9.79,9.79,0,0,0,17.1,8.33a11.12,11.12,0,0,0-5,5.62,1.12,1.12,0,0,1-.76.6A11.52,11.52,0,0,0,8,15.63a9.65,9.65,0,0,0-3.6,3.28c-.15.22-.3.44-.44.68a12.13,12.13,0,0,0-1.33,3.53,9.24,9.24,0,0,0,0,3.47,10.32,10.32,0,0,0,8.51,8.49,1.19,1.19,0,0,1,1,.86,10.24,10.24,0,0,0,8.51,6.59,10,10,0,0,0,5.47-.85,1.55,1.55,0,0,1,1.9.48,12.67,12.67,0,0,0,20.14,0,1.57,1.57,0,0,1,1.91-.5,10.32,10.32,0,0,0,14-6,.85.85,0,0,1,.79-.6A10.36,10.36,0,0,0,73.4,22.15Z"/></g></g></svg>