<svg xmlns="http://www.w3.org/2000/svg" viewBox="0 0 76.26 69.69"><defs><style>.cls-1{fill:#f5b952;}.cls-2{fill:#e5f1fb;}.cls-3,.cls-4,.cls-5{fill:none;stroke:#000;stroke-miterlimit:10;}.cls-3{stroke-width:1.5px;}.cls-4{stroke-width:2px;}.cls-5{stroke-width:5px;}</style></defs><title>snow-showers-nightAsset 156colored</title><g id="Layer_2" data-name="Layer 2"><g id="Layer_1-2" data-name="Layer 1"><path class="cls-1" d="M25.21,26.89c2.34-.46,4.67-1,7-1.48C37,24.34,42,24.31,46.79,23.26c.29-.06.58-.11.86-.14A25.59,25.59,0,0,0,5,9.51l1.2.36C18.12,13.5,25.46,18.93,25.21,26.89Z"/><path class="cls-2" d="M72.63,42.71a9.76,9.76,0,0,0-1.91-3.66,9.48,9.48,0,0,0-2.41-2.23,10.19,10.19,0,0,0-4.12-1.51c-.21,0-.45-.32-.55-.54a10,10,0,0,0-10.7-6.52,18.19,18.19,0,0,0-3.54.93,1,1,0,0,1-1.18-.41,12,12,0,0,0-4.6-3.9,12.61,12.61,0,0,0-2-.79c-.35-.11-.72-.21-1.09-.29a10.43,10.43,0,0,0-3-.17c-.45,0-.85.08-1.2.13a10.94,10.94,0,0,0-1.15.24L35,24a21.18,21.18,0,0,0-4.17,2,29.76,29.76,0,0,0-3.42,3.34c.09,0,0,0-.1,0A11.39,11.39,0,0,0,22.18,28a9.65,9.65,0,0,0-4.56,1.09,10.67,10.67,0,0,0-4.73,5,2.18,2.18,0,0,1-1.34,1,11.09,11.09,0,0,0-2.83,1,9.39,9.39,0,0,0-3.55,3.15c-.14.21-.29.42-.42.65a11.34,11.34,0,0,0-1.32,3.4,8.63,8.63,0,0,0,0,3.34,10,10,0,0,0,8.29,8.24,1.16,1.16,0,0,1,1,.84A10,10,0,0,0,21,62.12a9.92,9.92,0,0,0,5.72-1,1,1,0,0,1,1.26.31,12.48,12.48,0,0,0,20.18.1,1,1,0,0,1,1.25-.31,10.16,10.16,0,0,0,14.14-5.51.8.8,0,0,1,.77-.57A10,10,0,0,0,72.63,42.71Z"/><line class="cls-3" x1="19.22" y1="40.5" x2="19.22" y2="44.41"/><polyline class="cls-3" points="17.83 39.08 19.23 40.47 20.64 39.06"/><line class="cls-3" x1="19.25" y1="50.37" x2="19.25" y2="46.46"/><polyline class="cls-3" points="20.64 51.79 19.25 50.4 17.83 51.81"/><line class="cls-3" x1="23.42" y1="48.06" x2="20.1" y2="45.99"/><polyline class="cls-3" points="23.88 50 23.44 48.08 25.39 47.62"/><line class="cls-3" x1="15.05" y1="42.81" x2="18.37" y2="44.88"/><polyline class="cls-3" points="14.59 40.87 15.04 42.8 13.09 43.25"/><line class="cls-3" x1="15.05" y1="48.06" x2="18.37" y2="45.99"/><polyline class="cls-3" points="14.58 49.99 15.03 48.07 13.08 47.62"/><line class="cls-3" x1="23.42" y1="42.81" x2="20.1" y2="44.88"/><polyline class="cls-3" points="23.89 40.88 23.44 42.8 25.39 43.26"/><circle class="cls-3" cx="19.17" cy="45.45" r="1.38"/><line class="cls-4" x1="38.36" y1="38.53" x2="38.36" y2="44"/><polyline class="cls-4" points="36.41 36.55 38.37 38.5 40.34 36.52"/><line class="cls-4" x1="38.39" y1="52.34" x2="38.39" y2="46.87"/><polyline class="cls-4" points="40.34 54.32 38.39 52.37 36.41 54.35"/><line class="cls-4" x1="44.22" y1="49.11" x2="39.59" y2="46.21"/><polyline class="cls-4" points="44.87 51.82 44.25 49.13 46.98 48.49"/><line class="cls-4" x1="32.53" y1="41.76" x2="37.17" y2="44.66"/><polyline class="cls-4" points="31.89 39.05 32.51 41.74 29.78 42.38"/><line class="cls-4" x1="32.53" y1="49.1" x2="37.17" y2="46.21"/><polyline class="cls-4" points="31.88 51.81 32.5 49.12 29.77 48.48"/><line class="cls-4" x1="44.23" y1="41.77" x2="39.59" y2="44.66"/><polyline class="cls-4" points="44.88 39.06 44.26 41.75 46.98 42.39"/><circle class="cls-4" cx="38.29" cy="45.46" r="1.93"/><line class="cls-3" x1="56.76" y1="40.5" x2="56.76" y2="44.41"/><polyline class="cls-3" points="55.36 39.08 56.76 40.47 58.18 39.06"/><line class="cls-3" x1="56.78" y1="50.37" x2="56.78" y2="46.46"/><polyline class="cls-3" points="58.18 51.79 56.78 50.4 55.36 51.81"/><line class="cls-3" x1="60.95" y1="48.06" x2="57.64" y2="45.99"/><polyline class="cls-3" points="61.41 50 60.97 48.08 62.92 47.62"/><line class="cls-3" x1="52.59" y1="42.81" x2="55.9" y2="44.88"/><polyline class="cls-3" points="52.13 40.87 52.57 42.8 50.62 43.25"/><line class="cls-3" x1="52.59" y1="48.06" x2="55.9" y2="45.99"/><polyline class="cls-3" points="52.12 49.99 52.56 48.07 50.62 47.62"/><line class="cls-3" x1="60.96" y1="42.81" x2="57.64" y2="44.88"/><polyline class="cls-3" points="61.42 40.88 60.98 42.8 62.92 43.26"/><circle class="cls-3" cx="56.71" cy="45.45" r="1.38"/><path class="cls-5" d="M49.57,28.3c0-.26,0-.52,0-.78a25.24,25.24,0,0,0-25.45-25,25.57,25.57,0,0,0-17.62,7l1.2.36a25.89,25.89,0,0,1,17.52,18"/><path class="cls-5" d="M73.4,42.2a9.53,9.53,0,0,0-1.72-3.46,10.24,10.24,0,0,0-3.24-2.94,10.36,10.36,0,0,0-3.7-1.23c-.21,0-.47-.33-.56-.55a10.25,10.25,0,0,0-11-6.71,16.79,16.79,0,0,0-3.36.9,1.42,1.42,0,0,1-1.58-.49,12.25,12.25,0,0,0-4.61-3.87,14.27,14.27,0,0,0-2.1-.81c-.36-.1-.73-.21-1.12-.29a10.17,10.17,0,0,0-3-.16A12.47,12.47,0,0,0,35,23a22,22,0,0,0-4.32,2.15,30.89,30.89,0,0,0-3.48,3.48c.09,0,0,0-.1-.05a11.43,11.43,0,0,0-5.3-1.35,9.9,9.9,0,0,0-4.65,1.14,11.16,11.16,0,0,0-5,5.62,1.12,1.12,0,0,1-.76.6A11.53,11.53,0,0,0,8,35.68,9.65,9.65,0,0,0,4.43,39c-.15.22-.3.44-.44.67a12.3,12.3,0,0,0-1.33,3.54,9.18,9.18,0,0,0,0,3.46,10.31,10.31,0,0,0,8.51,8.49,1.2,1.2,0,0,1,1,.87,10.21,10.21,0,0,0,8.51,6.58,9.91,9.91,0,0,0,5.47-.85,1.56,1.56,0,0,1,1.9.48,12.67,12.67,0,0,0,20.14,0,1.58,1.58,0,0,1,1.91-.49,10.32,10.32,0,0,0,14-6,.84.84,0,0,1,.79-.59A10.36,10.36,0,0,0,73.4,42.2Z"/></g></g></svg>