<svg xmlns="http://www.w3.org/2000/svg" viewBox="0 0 76.26 77.56"><defs><style>.cls-1{fill:#f5b952;}.cls-2{fill:#e5f1fb;}.cls-3,.cls-4,.cls-5,.cls-6{fill:none;stroke-miterlimit:10;}.cls-3{stroke:#231f20;stroke-width:2.5px;}.cls-4,.cls-5,.cls-6{stroke:#000;}.cls-4{stroke-width:5px;}.cls-5{stroke-width:3px;}.cls-6{stroke-width:4px;}</style></defs><title>thunder-rainAsset 150colored</title><g id="Layer_2" data-name="Layer 2"><g id="Layer_1-2" data-name="Layer 1"><path class="cls-1" d="M35,52.73H45.68a.23.23,0,0,1,.2.34l-4.37,8.47a.24.24,0,0,0,.21.34h3.72a.23.23,0,0,1,.17.39l-13.06,14a.23.23,0,0,1-.39-.22l3.12-9.91a.24.24,0,0,0-.22-.31h-6.2a.23.23,0,0,1-.21-.33l6.11-12.6A.23.23,0,0,1,35,52.73Z"/><path class="cls-2" d="M71.88,23A9.81,9.81,0,0,0,70,19.31a9.52,9.52,0,0,0-2.42-2.23,10.13,10.13,0,0,0-4.12-1.51c-.2,0-.45-.32-.54-.54A10,10,0,0,0,52.2,8.51a18.1,18.1,0,0,0-3.55.93A1.05,1.05,0,0,1,47.47,9a11.84,11.84,0,0,0-4.6-3.9,12.16,12.16,0,0,0-2-.79c-.36-.11-.72-.21-1.1-.29a10.43,10.43,0,0,0-3-.18c-.44,0-.85.09-1.2.14-.57.09-1,.2-1.15.24l-.12,0a20.65,20.65,0,0,0-4.17,2,28.87,28.87,0,0,0-3.42,3.33l-.1,0a11.27,11.27,0,0,0-5.18-1.33,9.79,9.79,0,0,0-4.56,1.08,10.75,10.75,0,0,0-4.72,5,2.14,2.14,0,0,1-1.34,1,11.18,11.18,0,0,0-2.84,1,9.5,9.5,0,0,0-3.54,3.14L4,20.16a11.78,11.78,0,0,0-1.32,3.41,8.8,8.8,0,0,0,0,3.34A10,10,0,0,0,11,35.15,1.13,1.13,0,0,1,12,36a10,10,0,0,0,8.3,6.39,9.92,9.92,0,0,0,5.72-1,1,1,0,0,1,1.25.32,12.48,12.48,0,0,0,20.18.1,1,1,0,0,1,1.25-.31A10.15,10.15,0,0,0,62.79,36a.82.82,0,0,1,.78-.57A10,10,0,0,0,71.88,23Z"/><path class="cls-3" d="M35,52.73H45.68a.23.23,0,0,1,.2.34l-4.37,8.47a.24.24,0,0,0,.21.34h3.72a.23.23,0,0,1,.17.39l-13.06,14a.23.23,0,0,1-.39-.22l3.12-9.91a.24.24,0,0,0-.22-.31h-6.2a.23.23,0,0,1-.21-.33l6.11-12.6A.23.23,0,0,1,35,52.73Z"/><path class="cls-4" d="M73.4,22.15a9.69,9.69,0,0,0-1.72-3.46,10.33,10.33,0,0,0-3.24-2.93,10.58,10.58,0,0,0-3.7-1.24,1,1,0,0,1-.56-.55,10.26,10.26,0,0,0-11-6.7,16.1,16.1,0,0,0-3.36.89,1.4,1.4,0,0,1-1.58-.49A12.34,12.34,0,0,0,43.66,3.8a13.2,13.2,0,0,0-2.1-.8c-.36-.11-.73-.21-1.12-.29a10.53,10.53,0,0,0-3-.17,12,12,0,0,0-1.22.15A11,11,0,0,0,35,3a22.08,22.08,0,0,0-4.32,2.16,30.78,30.78,0,0,0-3.48,3.47l-.1-.05a11.55,11.55,0,0,0-5.3-1.35A9.79,9.79,0,0,0,17.1,8.33a11.12,11.12,0,0,0-5,5.62,1.12,1.12,0,0,1-.76.6A11.52,11.52,0,0,0,8,15.63a9.65,9.65,0,0,0-3.6,3.28c-.15.22-.3.44-.44.68a12.13,12.13,0,0,0-1.33,3.53,9.24,9.24,0,0,0,0,3.47,10.32,10.32,0,0,0,8.51,8.49,1.19,1.19,0,0,1,1,.86,10.24,10.24,0,0,0,8.51,6.59,10,10,0,0,0,5.47-.85,1.55,1.55,0,0,1,1.9.48,12.67,12.67,0,0,0,20.14,0,1.57,1.57,0,0,1,1.91-.5,10.32,10.32,0,0,0,14-6,.85.85,0,0,1,.79-.6A10.36,10.36,0,0,0,73.4,22.15Z"/><path class="cls-5" d="M22,19.91c-.93,2.09-2,4.15-2.81,6.28a3,3,0,0,0,2.11,4,2.73,2.73,0,0,0,1.5,0,2.93,2.93,0,0,0,2-3.93C24,24.06,22.94,22,22,19.91Z"/><path class="cls-5" d="M55.85,19.91c-.93,2.09-2,4.15-2.81,6.28a3,3,0,0,0,2.11,4,2.73,2.73,0,0,0,1.5,0,2.94,2.94,0,0,0,2-3.93C57.79,24.06,56.77,22,55.85,19.91Z"/><path class="cls-6" d="M38.41,16.84c-1.48,3.34-3.12,6.61-4.47,10-1.1,2.77.51,5.45,3.35,6.34a4.32,4.32,0,0,0,2.39-.06c2.77-1,4.23-3.51,3.15-6.26C41.5,23.46,39.87,20.18,38.41,16.84Z"/></g></g></svg>