<svg xmlns="http://www.w3.org/2000/svg" viewBox="0 0 76.26 76.86"><defs><style>.cls-1{fill:#f5b952;}.cls-2{fill:#e5f1fb;}.cls-3,.cls-4{fill:none;stroke:#231f20;stroke-miterlimit:10;}.cls-3{stroke-width:2.5px;}.cls-4{stroke-width:5px;}</style></defs><title>thunderAsset 149colored</title><g id="Layer_2" data-name="Layer 2"><g id="Layer_1-2" data-name="Layer 1"><path class="cls-1" d="M35,52H45.68a.23.23,0,0,1,.2.34l-4.37,8.47a.24.24,0,0,0,.21.34h3.72a.23.23,0,0,1,.17.39l-13.06,14a.23.23,0,0,1-.39-.22l3.12-9.91a.24.24,0,0,0-.22-.31h-6.2a.23.23,0,0,1-.21-.33l6.11-12.6A.23.23,0,0,1,35,52Z"/><path class="cls-2" d="M71.88,23.29A9.89,9.89,0,0,0,70,19.63a9.52,9.52,0,0,0-2.42-2.23,10.13,10.13,0,0,0-4.12-1.51c-.2,0-.45-.32-.54-.54A10,10,0,0,0,52.2,8.83a18.1,18.1,0,0,0-3.55.93,1.05,1.05,0,0,1-1.18-.41,11.84,11.84,0,0,0-4.6-3.9,12.16,12.16,0,0,0-2-.79c-.36-.11-.72-.21-1.1-.29a10.41,10.41,0,0,0-3-.17c-.44,0-.85.08-1.2.13-.57.09-1,.2-1.15.24l-.12,0a20.65,20.65,0,0,0-4.17,2A28.87,28.87,0,0,0,26.71,10c.08,0,0,0-.1,0A11.27,11.27,0,0,0,21.43,8.6a9.68,9.68,0,0,0-4.56,1.09,10.68,10.68,0,0,0-4.72,5,2.14,2.14,0,0,1-1.34,1,11.18,11.18,0,0,0-2.84,1,9.44,9.44,0,0,0-3.54,3.15c-.15.21-.29.42-.43.65a11.61,11.61,0,0,0-1.32,3.4,8.79,8.79,0,0,0,0,3.34A10,10,0,0,0,11,35.47a1.15,1.15,0,0,1,1,.84,10,10,0,0,0,8.3,6.39,9.92,9.92,0,0,0,5.72-1,1,1,0,0,1,1.25.31,12.48,12.48,0,0,0,20.18.1,1,1,0,0,1,1.25-.31,10.15,10.15,0,0,0,14.14-5.51.82.82,0,0,1,.78-.57A10,10,0,0,0,71.88,23.29Z"/><path class="cls-3" d="M35,52H45.68a.23.23,0,0,1,.2.34l-4.37,8.47a.24.24,0,0,0,.21.34h3.72a.23.23,0,0,1,.17.39l-13.06,14a.23.23,0,0,1-.39-.22l3.12-9.91a.24.24,0,0,0-.22-.31h-6.2a.23.23,0,0,1-.21-.33l6.11-12.6A.23.23,0,0,1,35,52Z"/><path class="cls-4" d="M73.4,22.15a9.69,9.69,0,0,0-1.72-3.46,10.33,10.33,0,0,0-3.24-2.93,10.58,10.58,0,0,0-3.7-1.24,1,1,0,0,1-.56-.55,10.26,10.26,0,0,0-11-6.7,16.1,16.1,0,0,0-3.36.89,1.4,1.4,0,0,1-1.58-.49A12.34,12.34,0,0,0,43.66,3.8a13.2,13.2,0,0,0-2.1-.8c-.36-.11-.73-.21-1.12-.29a10.53,10.53,0,0,0-3-.17,12,12,0,0,0-1.22.15A11,11,0,0,0,35,3a22.08,22.08,0,0,0-4.32,2.16,30.78,30.78,0,0,0-3.48,3.47l-.1-.05a11.55,11.55,0,0,0-5.3-1.35A9.79,9.79,0,0,0,17.1,8.33a11.12,11.12,0,0,0-5,5.62,1.12,1.12,0,0,1-.76.6A11.52,11.52,0,0,0,8,15.63a9.65,9.65,0,0,0-3.6,3.28c-.15.22-.3.44-.44.68a12.13,12.13,0,0,0-1.33,3.53,9.24,9.24,0,0,0,0,3.47,10.32,10.32,0,0,0,8.51,8.49,1.19,1.19,0,0,1,1,.86,10.24,10.24,0,0,0,8.51,6.59,10,10,0,0,0,5.47-.85,1.55,1.55,0,0,1,1.9.48,12.67,12.67,0,0,0,20.14,0,1.57,1.57,0,0,1,1.91-.5,10.32,10.32,0,0,0,14-6,.85.85,0,0,1,.79-.6A10.36,10.36,0,0,0,73.4,22.15Z"/></g></g></svg>