<svg xmlns="http://www.w3.org/2000/svg" viewBox="0 0 76.26 97.16"><defs><style>.cls-1{fill:#f5b952;}.cls-2{fill:#e5f1fb;}.cls-3,.cls-4,.cls-5,.cls-6{fill:none;stroke-miterlimit:10;}.cls-3{stroke:#231f20;stroke-width:2.5px;}.cls-4,.cls-5,.cls-6{stroke:#000;}.cls-4{stroke-width:5px;}.cls-5{stroke-width:3px;}.cls-6{stroke-width:4px;}</style></defs><title>thunder-showers-nightAsset 152colored</title><g id="Layer_2" data-name="Layer 2"><g id="Layer_1-2" data-name="Layer 1"><path class="cls-1" d="M35,72.33H45.68a.23.23,0,0,1,.2.34l-4.37,8.47a.24.24,0,0,0,.21.34h3.72a.23.23,0,0,1,.17.39l-13.06,14a.23.23,0,0,1-.39-.23l3.12-9.9a.24.24,0,0,0-.22-.31h-6.2a.23.23,0,0,1-.21-.33l6.11-12.6A.23.23,0,0,1,35,72.33Z"/><path class="cls-1" d="M25.34,27.8c2.34-.46,4.67-1,7-1.48,4.81-1.07,9.77-1.1,14.56-2.15a7.13,7.13,0,0,1,.87-.14A25.59,25.59,0,0,0,5.12,10.42l1.19.36C18.25,14.41,25.58,19.84,25.34,27.8Z"/><path class="cls-2" d="M71.88,42.66A9.81,9.81,0,0,0,70,39a9.56,9.56,0,0,0-2.42-2.24,10.43,10.43,0,0,0-4.12-1.51.93.93,0,0,1-.54-.53A10,10,0,0,0,52.2,28.2a17.43,17.43,0,0,0-3.55.93,1.07,1.07,0,0,1-1.18-.41,11.78,11.78,0,0,0-4.6-3.91,13.08,13.08,0,0,0-2-.79c-.36-.11-.72-.2-1.1-.28a10.08,10.08,0,0,0-3-.18,12.07,12.07,0,0,0-1.2.14c-.57.09-1,.19-1.15.23l-.12,0a21.19,21.19,0,0,0-4.17,2,29.79,29.79,0,0,0-3.42,3.34l-.1-.05A11.4,11.4,0,0,0,21.43,28a9.8,9.8,0,0,0-4.56,1.09,10.65,10.65,0,0,0-4.72,5,2.17,2.17,0,0,1-1.34,1A11.16,11.16,0,0,0,8,36.05,9.44,9.44,0,0,0,4.43,39.2c-.15.21-.29.42-.43.65a11.72,11.72,0,0,0-1.32,3.4,8.85,8.85,0,0,0,0,3.35A10,10,0,0,0,11,54.83a1.15,1.15,0,0,1,1,.84,10,10,0,0,0,8.3,6.39,9.92,9.92,0,0,0,5.72-1,1,1,0,0,1,1.25.31,12.48,12.48,0,0,0,20.18.11,1,1,0,0,1,1.25-.32,10.15,10.15,0,0,0,14.14-5.51.84.84,0,0,1,.78-.57A10,10,0,0,0,71.88,42.66Z"/><path class="cls-3" d="M35,72.33H45.68a.23.23,0,0,1,.2.34l-4.37,8.47a.24.24,0,0,0,.21.34h3.72a.23.23,0,0,1,.17.39l-13.06,14a.23.23,0,0,1-.39-.23l3.12-9.9a.24.24,0,0,0-.22-.31h-6.2a.23.23,0,0,1-.21-.33l6.11-12.6A.23.23,0,0,1,35,72.33Z"/><path class="cls-4" d="M49.57,28.3c0-.26,0-.52,0-.78a25.24,25.24,0,0,0-25.45-25,25.57,25.57,0,0,0-17.62,7l1.2.36a25.89,25.89,0,0,1,17.52,18"/><path class="cls-4" d="M73.4,42.2a9.53,9.53,0,0,0-1.72-3.46,10.24,10.24,0,0,0-3.24-2.94,10.36,10.36,0,0,0-3.7-1.23c-.21,0-.47-.33-.56-.55a10.25,10.25,0,0,0-11-6.71,16.79,16.79,0,0,0-3.36.9,1.42,1.42,0,0,1-1.58-.49,12.25,12.25,0,0,0-4.61-3.87,14.27,14.27,0,0,0-2.1-.81c-.36-.1-.73-.21-1.12-.29a10.17,10.17,0,0,0-3-.16A12.47,12.47,0,0,0,35,23a22,22,0,0,0-4.32,2.15,30.89,30.89,0,0,0-3.48,3.48c.09,0,0,0-.1-.05a11.43,11.43,0,0,0-5.3-1.35,9.9,9.9,0,0,0-4.65,1.14,11.16,11.16,0,0,0-5,5.62,1.12,1.12,0,0,1-.76.6A11.53,11.53,0,0,0,8,35.68,9.65,9.65,0,0,0,4.43,39c-.15.22-.3.44-.44.67a12.3,12.3,0,0,0-1.33,3.54,9.18,9.18,0,0,0,0,3.46,10.31,10.31,0,0,0,8.51,8.49,1.2,1.2,0,0,1,1,.87,10.21,10.21,0,0,0,8.51,6.58,9.91,9.91,0,0,0,5.47-.85,1.56,1.56,0,0,1,1.9.48,12.67,12.67,0,0,0,20.14,0,1.58,1.58,0,0,1,1.91-.49,10.32,10.32,0,0,0,14-6,.84.84,0,0,1,.79-.59A10.36,10.36,0,0,0,73.4,42.2Z"/><path class="cls-5" d="M22,40c-.93,2.1-2,4.15-2.81,6.28a3,3,0,0,0,2.11,4,2.73,2.73,0,0,0,1.5,0,2.94,2.94,0,0,0,2-3.94C24,44.11,22.94,42.05,22,40Z"/><path class="cls-5" d="M55.85,40c-.93,2.1-2,4.15-2.81,6.28a3,3,0,0,0,2.11,4,2.73,2.73,0,0,0,1.5,0,3,3,0,0,0,2-3.94C57.79,44.11,56.77,42.05,55.85,40Z"/><path class="cls-6" d="M38.41,36.89c-1.48,3.33-3.12,6.61-4.47,10-1.1,2.78.51,5.46,3.35,6.35a4.41,4.41,0,0,0,2.39-.06c2.77-1,4.23-3.52,3.15-6.27C41.5,43.51,39.87,40.23,38.41,36.89Z"/></g></g></svg>