<svg xmlns="http://www.w3.org/2000/svg" viewBox="0 0 48.56 55.83"><title>clear-nightAsset 2set1</title><g id="Layer_2" data-name="Layer 2"><g id="Layer_1-2" data-name="Layer 1"><path d="M2.84,12.93a19.66,19.66,0,0,1,6.5,2.76C17.07,20.78,20.57,28,19.79,37.33A22.05,22.05,0,0,1,13.51,50.5a2.83,2.83,0,0,0-.87,3,2.76,2.76,0,0,0,2.45,1.89c10.31,1.69,19-1.26,26.15-8.93,5.1-5,8-14.64,7.17-22-.76-6.55-5-15.78-13.48-20.73a28.74,28.74,0,0,0-33.63,4l-.14.13c-.06,0-.17.17-.29.3A3.07,3.07,0,0,0,0,10a2.61,2.61,0,0,0,.22,1.29C.69,12.28,1.59,12.65,2.84,12.93ZM15,6.16h0a16.35,16.35,0,0,1,5.79-.34C36.36,7.65,41.11,17.22,42.17,25,43.56,35.13,38,45.31,28.4,49a19.93,19.93,0,0,1-7.83,1.38c4.63-7.35,6-15.19,3.56-23.52S16.27,12.68,8.26,9.05A20.83,20.83,0,0,1,15,6.16Z"/></g></g></svg>