<svg xmlns="http://www.w3.org/2000/svg" viewBox="0 0 79.24 49.66"><title>cloudyAsset 5set1</title><g id="Layer_2" data-name="Layer 2"><g id="Layer_1-2" data-name="Layer 1"><path d="M78.84,21.86c-.59-2.8-3.43-5.65-3.43-5.65a11.94,11.94,0,0,0-6.21-2.84c-.23,0-.51-.36-.62-.61C66.42,7.55,62,4.74,56.37,5.3a29.26,29.26,0,0,0-4.88,1.36,13.73,13.73,0,0,0-5.74-5.21,14.43,14.43,0,0,0-2.33-.9C43,.43,42.6.32,42.17.23A11.5,11.5,0,0,0,38.8,0c-.5,0-1,.1-1.35.17-.84.14-1.39.29-1.39.29a24.66,24.66,0,0,0-4.79,2.4,33.62,33.62,0,0,0-3.88,3.86l-.11,0a12.75,12.75,0,0,0-5.89-1.5,11,11,0,0,0-5.18,1.27,12.43,12.43,0,0,0-5.56,6.3,1.24,1.24,0,0,1-.81.62,12.44,12.44,0,0,0-3.71,1.21,10.71,10.71,0,0,0-4,3.65c-.16.24-.33.48-.48.75A28.75,28.75,0,0,0,0,23.37v3a1.52,1.52,0,0,1,.16.4,11.46,11.46,0,0,0,9.47,9.45,1.32,1.32,0,0,1,1.13,1,11.34,11.34,0,0,0,9.47,7.32,11.54,11.54,0,0,0,7.39-1.6,14.06,14.06,0,0,0,24,0l.32.15a11.5,11.5,0,0,0,16.62-6.13.94.94,0,0,1,.88-.66A11.52,11.52,0,0,0,78.84,21.86ZM68,31h-.57c-2.4-.06-3.23.65-3.58,2.88A6.19,6.19,0,0,1,52.92,37,2.89,2.89,0,0,0,50,35.69a2.92,2.92,0,0,0-2.2,2.4,8.48,8.48,0,0,1-16.37,0,2.89,2.89,0,0,0-2.24-2.37,2.82,2.82,0,0,0-2.83,1.26A5.89,5.89,0,0,1,19.83,39a5.93,5.93,0,0,1-3.55-2.57,6.52,6.52,0,0,1-.86-2.55c-.25-2-1.42-3-3.65-2.87h0a6.06,6.06,0,0,1-6.38-5.52,5.27,5.27,0,0,1,0-1.19,6.35,6.35,0,0,1,4.72-5.45,6,6,0,0,1,1.85-.16C14,18.81,15.06,18,15.4,16a6.33,6.33,0,0,1,2.31-4.09,6.21,6.21,0,0,1,2.71-1.2,6.5,6.5,0,0,1,2.53,0,6.17,6.17,0,0,1,3.4,2.17,3,3,0,0,0,2,1.27c1.5.13,2.53-.7,3-2.42A8.28,8.28,0,0,1,37,5.79a8.46,8.46,0,0,1,3.13-.4h.05a8.39,8.39,0,0,1,5.48,2.54,8.17,8.17,0,0,1,.9,1.12,8.9,8.9,0,0,1,1.23,2.6c.5,1.78,1.54,2.61,3.07,2.45A3.22,3.22,0,0,0,53,12.75a6.1,6.1,0,0,1,7.94-1.29,6,6,0,0,1,2.9,4.36c.34,2.22,1.32,3,3.56,2.83A6.2,6.2,0,1,1,68,31Z"/></g></g></svg>