<svg xmlns="http://www.w3.org/2000/svg" viewBox="0 0 101.55 84.55"><defs><style>.cls-1{fill:none;}</style></defs><title>partly-cloudy-dayAsset 3set1</title><g id="Layer_2" data-name="Layer 2"><g id="Layer_1-2" data-name="Layer 1"><path d="M26.52,23.88A2.65,2.65,0,0,1,25,26.15a2.23,2.23,0,0,1-2.64-.34q-3.15-3-6.18-6.18a2.42,2.42,0,0,1,3.42-3.42q3.15,3,6.17,6.19A5,5,0,0,1,26.52,23.88Z"/><path d="M66.05,26.05A2.4,2.4,0,0,1,65.16,25a2.47,2.47,0,0,1,.5-2.74q3-3.08,6-6a2.42,2.42,0,0,1,3.42,3.42c-2,2.1-4.09,4.15-6.18,6.17a2,2,0,0,1-.57.36A2.5,2.5,0,0,1,66.05,26.05Z"/><path d="M48.09,10.81c0,1.38,0,2.76,0,4.13a2.43,2.43,0,1,1-4.85,0q0-4.12,0-8.26a2.43,2.43,0,1,1,4.85,0C48.1,8.06,48.09,9.44,48.09,10.81Z"/><path d="M10.76,48.09h-4a2.43,2.43,0,1,1,0-4.85c2.73,0,5.45,0,8.18,0a2.43,2.43,0,1,1,0,4.85Z"/><path d="M90.08,26.15a3.44,3.44,0,0,1-2.49,3.46c-2.68,1.13-5.29,2.4-7.94,3.61a2.85,2.85,0,1,1-2.36-5.16c2.67-1.23,5.37-2.39,8-3.69a3.4,3.4,0,0,1,4.16.4Z"/><path d="M14.7,31.82A3.12,3.12,0,0,1,14.22,35a2.62,2.62,0,0,1-3,.92q-4.82-1.7-9.58-3.56a2.84,2.84,0,0,1,2-5.3c3.21,1.12,6.4,2.32,9.58,3.57A6.45,6.45,0,0,1,14.7,31.82Z"/><path d="M57.79,14.88a2.85,2.85,0,0,1-1.47-.69A2.91,2.91,0,0,1,55.51,11Q57.18,6.32,59,1.67a2.83,2.83,0,0,1,5.3,2C63.18,6.85,62,10,60.73,13.21a2.27,2.27,0,0,1-.43.66A2.87,2.87,0,0,1,57.79,14.88Z"/><path d="M31.27,7.43c.67,1.46,1.35,2.92,2,4.39a2.84,2.84,0,1,1-5.17,2.33c-1.35-2.92-2.7-5.85-4-8.78A2.84,2.84,0,1,1,29.26,3C29.94,4.5,30.6,6,31.27,7.43Z"/><path d="M9.74,65.24c-1.44.66-2.87,1.33-4.31,2a2.84,2.84,0,1,1-2.37-5.15q4.33-2,8.69-4a2.84,2.84,0,1,1,2.38,5.15C12.67,63.91,11.2,64.57,9.74,65.24Z"/><path class="cls-1" d="M45.65,63.33A17.75,17.75,0,0,0,63.33,45.66a17.42,17.42,0,0,0-.86-5.38,8.46,8.46,0,0,0-3.13.4,8.28,8.28,0,0,0-5.62,5.91c-.48,1.72-1.5,2.55-3,2.42a3,3,0,0,1-2-1.27,6,6,0,0,0-5.94-2.19,6.06,6.06,0,0,0-5,5.29c-.35,2.09-1.37,2.86-3.5,2.73a6.41,6.41,0,0,0-1.85.16,6.2,6.2,0,0,0-1.91.85A17.76,17.76,0,0,0,45.65,63.33Z"/><path class="cls-1" d="M33,47.67c2.91-6.91,10-9.51,16.63-6.07l.12,0a33.56,33.56,0,0,1,3.87-3.86,23.89,23.89,0,0,1,4.8-2.39,12.72,12.72,0,0,1,1.38-.3A17.61,17.61,0,0,0,28.44,49.5a12.63,12.63,0,0,1,3.71-1.21A1.24,1.24,0,0,0,33,47.67Z"/><path class="cls-1" d="M45.64,68.18a22.42,22.42,0,0,1-18-9,5.27,5.27,0,0,0,0,1.19,6.07,6.07,0,0,0,6.38,5.52c2.25-.12,3.42.87,3.67,2.87a5.77,5.77,0,0,0,4.41,5.12,5.89,5.89,0,0,0,6.53-2,2.85,2.85,0,0,1,2.84-1.26,2.89,2.89,0,0,1,2.23,2.37,8.48,8.48,0,0,0,16.37,0,3,3,0,0,1,2.21-2.4,2.88,2.88,0,0,1,2.91,1.28A6.19,6.19,0,0,0,86.14,68.8c.35-2.22,1.18-2.94,3.58-2.88h.57a6.2,6.2,0,1,0-.6-12.38c-2.24.16-3.22-.61-3.56-2.83a6,6,0,0,0-2.9-4.36,6.1,6.1,0,0,0-7.94,1.29A3.22,3.22,0,0,1,73.2,49c-1.53.16-2.57-.67-3.07-2.45A8.62,8.62,0,0,0,68,42.83a22.21,22.21,0,0,1,.18,2.84A22.5,22.5,0,0,1,45.64,68.18Z"/><path d="M28.44,49.5A17.62,17.62,0,0,1,59.76,35.1a12.92,12.92,0,0,1,4.73,0c.42.09.84.2,1.24.32A22.52,22.52,0,0,0,23.14,45.62a22.89,22.89,0,0,0,1.28,7.53A10.79,10.79,0,0,1,28.44,49.5Z"/><path d="M34.22,53.57c2.13.13,3.15-.64,3.5-2.73a6.06,6.06,0,0,1,5-5.29,6,6,0,0,1,5.94,2.19,3,3,0,0,0,2,1.27c1.51.13,2.53-.7,3-2.42a8.28,8.28,0,0,1,5.62-5.91,8.46,8.46,0,0,1,3.13-.4,17.55,17.55,0,0,0-2.71-5.18,12.72,12.72,0,0,0-1.38.3,23.89,23.89,0,0,0-4.8,2.39,33.56,33.56,0,0,0-3.87,3.86l-.12,0C43,38.16,35.87,40.76,33,47.67a1.24,1.24,0,0,1-.81.62,12.63,12.63,0,0,0-3.71,1.21,17.7,17.7,0,0,0,2,5.08,6.2,6.2,0,0,1,1.91-.85A6.41,6.41,0,0,1,34.22,53.57Z"/><path d="M101.15,56.75c-.59-2.8-3.43-5.65-3.43-5.65a11.91,11.91,0,0,0-6.21-2.84c-.23,0-.51-.36-.62-.61-2.16-5.21-6.61-8-12.2-7.46a30.07,30.07,0,0,0-4.89,1.36,13.82,13.82,0,0,0-8.07-6.11A22.32,22.32,0,0,1,68,42.83a8.62,8.62,0,0,1,2.13,3.72c.5,1.78,1.54,2.61,3.07,2.45a3.22,3.22,0,0,0,2.09-1.36,6.1,6.1,0,0,1,7.94-1.29,6,6,0,0,1,2.9,4.36c.34,2.22,1.32,3,3.56,2.83a6.2,6.2,0,1,1,.6,12.38h-.57c-2.4-.06-3.23.66-3.58,2.88a6.19,6.19,0,0,1-10.91,3.06,2.88,2.88,0,0,0-2.91-1.28A3,3,0,0,0,70.11,73a8.48,8.48,0,0,1-16.37,0,2.89,2.89,0,0,0-2.23-2.37,2.85,2.85,0,0,0-2.84,1.26,5.89,5.89,0,0,1-6.53,2,5.77,5.77,0,0,1-4.41-5.12c-.25-2-1.42-3-3.67-2.87a6.07,6.07,0,0,1-6.38-5.52,5.27,5.27,0,0,1,0-1.19,22.58,22.58,0,0,1-3.23-6c-.16.24-.33.48-.48.75a28.75,28.75,0,0,0-1.63,4.36v3a1.52,1.52,0,0,1,.16.4,11.47,11.47,0,0,0,9.47,9.45,1.32,1.32,0,0,1,1.13,1,11.37,11.37,0,0,0,9.47,7.32,11.54,11.54,0,0,0,7.39-1.6,14.07,14.07,0,0,0,24,0l.31.16a11.52,11.52,0,0,0,16.63-6.14.92.92,0,0,1,.87-.66A11.52,11.52,0,0,0,101.15,56.75Z"/><path d="M59.76,35.1a17.55,17.55,0,0,1,2.71,5.18A8.46,8.46,0,0,1,68,42.83a22.32,22.32,0,0,0-2.27-7.39c-.4-.12-.82-.23-1.24-.32A12.92,12.92,0,0,0,59.76,35.1Z"/><path d="M30.46,54.58a17.7,17.7,0,0,1-2-5.08,10.79,10.79,0,0,0-4,3.65,22.58,22.58,0,0,0,3.23,6A6.26,6.26,0,0,1,30.46,54.58Z"/></g></g></svg>