<svg xmlns="http://www.w3.org/2000/svg" viewBox="0 0 81.16 68.97"><defs><style>.cls-1{fill:none;}</style></defs><title>partly-cloudy-nightAsset 4set1</title><g id="Layer_2" data-name="Layer 2"><g id="Layer_1-2" data-name="Layer 1"><path class="cls-1" d="M29.32,26.07a32.88,32.88,0,0,1,3.87-3.87A24.43,24.43,0,0,1,38,19.81a12.72,12.72,0,0,1,1.38-.3c.39-.06.86-.12,1.36-.16-2.43-6.18-8-12.13-19.93-13.53A16.35,16.35,0,0,0,15,6.16,20.83,20.83,0,0,0,8.26,9.05c7.22,3.28,12.31,8.38,15.05,15.46A12.84,12.84,0,0,1,29.2,26Z"/><path d="M23.31,24.51c-2.74-7.08-7.83-12.18-15-15.46A20.83,20.83,0,0,1,15,6.16a16.35,16.35,0,0,1,5.79-.34c11.92,1.4,17.5,7.35,19.93,13.53a11.5,11.5,0,0,1,3.37.19c.43.09.84.2,1.25.32a14.32,14.32,0,0,1,2.32.9,28.73,28.73,0,0,0-12.74-17,28.74,28.74,0,0,0-33.63,4l-.14.13c-.06,0-.17.17-.29.3A3.07,3.07,0,0,0,0,10a2.61,2.61,0,0,0,.22,1.29c.46,1,1.36,1.41,2.61,1.69a19.66,19.66,0,0,1,6.5,2.76,22.79,22.79,0,0,1,8.79,10.1A11,11,0,0,1,23.31,24.51Z"/><path d="M80.76,41.17c-.58-2.81-3.43-5.66-3.43-5.66a11.82,11.82,0,0,0-6.2-2.83c-.24,0-.52-.36-.63-.62-2.16-5.21-6.61-8-12.2-7.45A29.1,29.1,0,0,0,53.41,26a13.61,13.61,0,0,0-5.74-5.21,23.28,23.28,0,0,1,.74,3.68,25.45,25.45,0,0,1,.11,3.93A8.78,8.78,0,0,1,49.75,31c.49,1.77,1.54,2.61,3.06,2.45a3.25,3.25,0,0,0,2.09-1.37,6.11,6.11,0,0,1,8-1.28,6,6,0,0,1,2.89,4.35c.34,2.22,1.32,3,3.56,2.84a6.19,6.19,0,1,1,.61,12.37c-.24,0-.48,0-.58,0-2.39,0-3.23.66-3.58,2.89a6.2,6.2,0,0,1-10.91,3.06A2.86,2.86,0,0,0,51.93,55a2.9,2.9,0,0,0-2.2,2.4,8.49,8.49,0,0,1-16.38,0A2.87,2.87,0,0,0,31.12,55a2.82,2.82,0,0,0-2.84,1.25,5.87,5.87,0,0,1-6.53,2,5.82,5.82,0,0,1-3.54-2.56c-1-.08-2.06-.19-3.12-.36a2.76,2.76,0,0,1-2.45-1.89,2.83,2.83,0,0,1,.87-3l.18-.2h0a6.05,6.05,0,0,1-6.38-5.52,5.82,5.82,0,0,1,0-1.18A6.37,6.37,0,0,1,12,38.14,6,6,0,0,1,13.83,38c2.13.12,3.15-.65,3.5-2.74a6.33,6.33,0,0,1,2.3-4.09,21.54,21.54,0,0,0-1.5-5.37,12.44,12.44,0,0,0-5.56,6.3,1.24,1.24,0,0,1-.81.61,12.93,12.93,0,0,0-3.71,1.21,10.77,10.77,0,0,0-4,3.65c-.17.25-.33.49-.48.75a29.19,29.19,0,0,0-1.64,4.36v3a2.37,2.37,0,0,1,.17.41,11.46,11.46,0,0,0,9.46,9.44,1.32,1.32,0,0,1,1.13,1,11.4,11.4,0,0,0,9.47,7.32,11.61,11.61,0,0,0,7.39-1.61,14.07,14.07,0,0,0,24,0l.31.16A11.52,11.52,0,0,0,70.5,56.24a.93.93,0,0,1,.87-.66A11.51,11.51,0,0,0,80.76,41.17Z"/><path d="M28.28,32.15a3,3,0,0,0,2,1.27c1.5.13,2.52-.69,3-2.41a8.58,8.58,0,0,1,8.75-6.32h.05a23.92,23.92,0,0,0-1.4-5.35c-.5,0-1,.1-1.36.16a12.72,12.72,0,0,0-1.38.3,24.43,24.43,0,0,0-4.8,2.39,32.88,32.88,0,0,0-3.87,3.87L29.2,26a12.84,12.84,0,0,0-5.89-1.5c.3.77.58,1.55.82,2.37A29.86,29.86,0,0,1,24.88,30,6.13,6.13,0,0,1,28.28,32.15Z"/><path d="M22.34,30a6.19,6.19,0,0,1,2.54,0,29.86,29.86,0,0,0-.75-3.11c-.24-.82-.52-1.6-.82-2.37a11,11,0,0,0-5.18,1.28,21.54,21.54,0,0,1,1.5,5.37A6.08,6.08,0,0,1,22.34,30Z"/><path d="M13.69,50.3l-.18.2a2.83,2.83,0,0,0-.87,3,2.76,2.76,0,0,0,2.45,1.89c1.06.17,2.09.28,3.12.36a6.26,6.26,0,0,1-.86-2.56C17.09,51.18,15.93,50.19,13.69,50.3Z"/><path d="M44.1,19.54a11.5,11.5,0,0,0-3.37-.19,23.92,23.92,0,0,1,1.4,5.35,8.44,8.44,0,0,1,5.48,2.54,9,9,0,0,1,.91,1.13,25.45,25.45,0,0,0-.11-3.93,23.28,23.28,0,0,0-.74-3.68,14.32,14.32,0,0,0-2.32-.9C44.94,19.74,44.53,19.63,44.1,19.54Z"/></g></g></svg>