<svg xmlns="http://www.w3.org/2000/svg" viewBox="0 0 79.24 49.66"><defs><style>.cls-1{stroke:#231f20;stroke-miterlimit:10;stroke-width:0.5px;}</style></defs><title>rain-snowAsset 10set1</title><g id="Layer_2" data-name="Layer 2"><g id="Layer_1-2" data-name="Layer 1"><path class="cls-1" d="M61,21.66l.92.25L61.66,23l1.09.29-.25.92c-.34-.09-.67-.16-1-.26a.71.71,0,0,0-.7.09c-.49.3-1,.58-1.5.86a.19.19,0,0,0-.1.2,4,4,0,0,1,0,.6c0,.09,0,.14.09.19l1.75,1a.31.31,0,0,0,.21,0l1.11-.3.13,0,.25.91-1.09.29L62,28.89l-.92.25a8,8,0,0,1-.25-.93.85.85,0,0,0-.5-.66c-.53-.28-1-.59-1.53-.87l-.78.44c0,.58,0,1.2,0,1.81a.77.77,0,0,0,.28.68c.25.22.48.47.7.69l-.68.68-.76-.78-.77.78-.69-.69.37-.36.52-.53a.25.25,0,0,0,.08-.16c0-.71,0-1.42,0-2.12l-.77-.44-.24.13-1.52.88a.36.36,0,0,0-.2.26c-.1.39-.21.78-.32,1.19l-.92-.25.29-1.09-1.09-.29.25-.92.38.1.87.23a.34.34,0,0,0,.2,0l1.75-1c.08,0,.09-.09.09-.18s0-.42,0-.62a.17.17,0,0,0-.09-.18c-.58-.33-1.16-.67-1.74-1a.31.31,0,0,0-.23,0l-1.07.28-.16,0-.25-.92L53.34,23l-.29-1.09.92-.25c.1.37.21.71.28,1.07a.65.65,0,0,0,.34.45c.53.29,1.06.6,1.58.9a.15.15,0,0,0,.21,0,3.6,3.6,0,0,1,.54-.31c.08,0,.11-.07.1-.15,0-.68,0-1.35,0-2a.31.31,0,0,0-.09-.19c-.29-.3-.59-.6-.88-.88l.68-.68.75.8.78-.83.7.7-.87.86a.34.34,0,0,0-.12.29c0,.68,0,1.37,0,2l.71.45s.09,0,.12,0l1.78-1a.3.3,0,0,0,.12-.17l.29-1.1Zm-3.54,4.53a.79.79,0,0,0,.8-.79.79.79,0,1,0-1.58,0A.78.78,0,0,0,57.49,26.19Z"/><path class="cls-1" d="M25.7,21.66l.91.25L26.33,23l1.08.29-.25.92c-.34-.09-.67-.16-1-.26a.73.73,0,0,0-.71.09c-.49.3-1,.58-1.49.86a.17.17,0,0,0-.1.2q0,.3,0,.6a.16.16,0,0,0,.09.19l1.74,1a.33.33,0,0,0,.22,0l1.1-.3.13,0,.25.91-1.08.29.28,1.09-.92.25c-.08-.31-.19-.62-.24-.93a.86.86,0,0,0-.51-.66c-.53-.28-1-.59-1.53-.87l-.77.44c0,.58,0,1.2,0,1.81a.77.77,0,0,0,.29.68c.25.22.47.47.7.69l-.68.68-.76-.78L21.4,31l-.68-.69.36-.36c.18-.17.36-.35.53-.53a.24.24,0,0,0,.07-.16c0-.71,0-1.42,0-2.12l-.78-.44-.23.13-1.53.88A.36.36,0,0,0,19,28c-.09.39-.21.78-.31,1.19l-.93-.25L18,27.8l-1.08-.29.24-.92.38.1.87.23a.37.37,0,0,0,.21,0l1.74-1c.08,0,.09-.09.09-.18s0-.42,0-.62,0-.14-.09-.18c-.58-.33-1.15-.67-1.73-1a.33.33,0,0,0-.24,0l-1.07.28-.16,0-.24-.92L18,23l-.29-1.09.92-.25c.1.37.21.71.29,1.07a.6.6,0,0,0,.34.45c.53.29,1,.6,1.57.9a.15.15,0,0,0,.21,0,3.7,3.7,0,0,1,.55-.31c.07,0,.1-.07.1-.15,0-.68,0-1.35,0-2a.36.36,0,0,0-.08-.19l-.89-.88.68-.68.75.8.78-.83.7.7-.86.86a.32.32,0,0,0-.12.29v2l.7.45s.09,0,.13,0l1.78-1a.34.34,0,0,0,.11-.17l.3-1.1A.58.58,0,0,1,25.7,21.66Zm-3.55,4.53A.8.8,0,0,0,23,25.4a.81.81,0,0,0-.79-.79.8.8,0,0,0-.8.79A.79.79,0,0,0,22.15,26.19Z"/><path d="M48.68,27.51a8.05,8.05,0,0,1-7.79,8,7.91,7.91,0,0,1-8.16-7.64,11,11,0,0,1,1.08-4.6A64.11,64.11,0,0,1,37.91,16c1.58-2.45,3.85-2.44,5.53-.06a31.18,31.18,0,0,1,5,10,4.22,4.22,0,0,1,.14.69C48.65,26.94,48.66,27.3,48.68,27.51Zm-7.8-6H40.5c-.76,1.69-1.58,3.35-2.26,5.07a2.49,2.49,0,0,0,.87,3,2.61,2.61,0,0,0,3.07.05,2.48,2.48,0,0,0,1-3.05C42.45,24.92,41.63,23.25,40.88,21.56Z"/><path d="M78.84,21.86c-.59-2.8-3.43-5.65-3.43-5.65a11.94,11.94,0,0,0-6.21-2.84c-.23,0-.51-.36-.62-.61C66.42,7.55,62,4.74,56.37,5.3a29.26,29.26,0,0,0-4.88,1.36,13.73,13.73,0,0,0-5.74-5.21,14.43,14.43,0,0,0-2.33-.9C43,.43,42.6.32,42.17.23A11.5,11.5,0,0,0,38.8,0c-.5,0-1,.1-1.35.17-.84.14-1.39.29-1.39.29a24.66,24.66,0,0,0-4.79,2.4,33.62,33.62,0,0,0-3.88,3.86l-.11,0a12.75,12.75,0,0,0-5.89-1.5,11,11,0,0,0-5.18,1.27,12.43,12.43,0,0,0-5.56,6.3,1.24,1.24,0,0,1-.81.62,12.44,12.44,0,0,0-3.71,1.21,10.71,10.71,0,0,0-4,3.65c-.16.24-.33.48-.48.75A28.75,28.75,0,0,0,0,23.37v3a1.52,1.52,0,0,1,.16.4,11.46,11.46,0,0,0,9.47,9.45,1.32,1.32,0,0,1,1.13,1,11.34,11.34,0,0,0,9.47,7.32,11.54,11.54,0,0,0,7.39-1.6,14.06,14.06,0,0,0,24,0l.32.15a11.5,11.5,0,0,0,16.62-6.13.94.94,0,0,1,.88-.66A11.52,11.52,0,0,0,78.84,21.86ZM68,31h-.57c-2.4-.06-3.23.65-3.58,2.88A6.19,6.19,0,0,1,52.92,37,2.89,2.89,0,0,0,50,35.69a2.92,2.92,0,0,0-2.2,2.4,8.48,8.48,0,0,1-16.37,0,2.89,2.89,0,0,0-2.24-2.37,2.82,2.82,0,0,0-2.83,1.26A5.89,5.89,0,0,1,19.83,39a5.93,5.93,0,0,1-3.55-2.57,6.52,6.52,0,0,1-.86-2.55c-.25-2-1.42-3-3.65-2.87h0a6.06,6.06,0,0,1-6.38-5.52,5.27,5.27,0,0,1,0-1.19,6.35,6.35,0,0,1,4.72-5.45,6,6,0,0,1,1.85-.16C14,18.81,15.06,18,15.4,16a6.33,6.33,0,0,1,2.31-4.09,6.21,6.21,0,0,1,2.71-1.2,6.5,6.5,0,0,1,2.53,0,6.17,6.17,0,0,1,3.4,2.17,3,3,0,0,0,2,1.27c1.5.13,2.53-.7,3-2.42A8.28,8.28,0,0,1,37,5.79a8.46,8.46,0,0,1,3.13-.4h.05a8.39,8.39,0,0,1,5.48,2.54,8.17,8.17,0,0,1,.9,1.12,8.9,8.9,0,0,1,1.23,2.6c.5,1.78,1.54,2.61,3.07,2.45A3.22,3.22,0,0,0,53,12.75a6.1,6.1,0,0,1,7.94-1.29,6,6,0,0,1,2.9,4.36c.34,2.22,1.32,3,3.56,2.83A6.2,6.2,0,1,1,68,31Z"/></g></g></svg>