<svg xmlns="http://www.w3.org/2000/svg" viewBox="0 0 81.16 68.97"><defs><style>.cls-1{fill:none;}</style></defs><title>showers-nightAsset 8set1</title><g id="Layer_2" data-name="Layer 2"><g id="Layer_1-2" data-name="Layer 1"><path class="cls-1" d="M19.63,31.16a6.33,6.33,0,0,0-2.3,4.09C17,37.34,16,38.11,13.83,38a6,6,0,0,0-1.84.15A6.37,6.37,0,0,0,7.26,43.6a5.82,5.82,0,0,0,0,1.18,6.05,6.05,0,0,0,6.38,5.52h0a21.94,21.94,0,0,0,6.1-13A27.35,27.35,0,0,0,19.63,31.16Z"/><path class="cls-1" d="M20.57,50.4A19.93,19.93,0,0,0,28.4,49C38,45.31,43.56,35.13,42.17,25c0-.09,0-.17,0-.25h-.05A8.58,8.58,0,0,0,33.33,31c-.48,1.72-1.5,2.54-3,2.41a3,3,0,0,1-2-1.27A6.13,6.13,0,0,0,24.88,30C26.2,37.16,24.62,44,20.57,50.4Z"/><path class="cls-1" d="M18.21,55.73a5.82,5.82,0,0,0,3.54,2.56,5.87,5.87,0,0,0,6.53-2A2.82,2.82,0,0,1,31.12,55a2.87,2.87,0,0,1,2.23,2.36,8.49,8.49,0,0,0,16.38,0,2.9,2.9,0,0,1,2.2-2.4,2.86,2.86,0,0,1,2.91,1.28,6.2,6.2,0,0,0,10.91-3.06c.35-2.23,1.19-2.94,3.58-2.89.1,0,.34,0,.58,0A6.19,6.19,0,1,0,69.3,38c-2.24.16-3.22-.62-3.56-2.84a6,6,0,0,0-2.89-4.35,6.11,6.11,0,0,0-8,1.28,3.25,3.25,0,0,1-2.09,1.37c-1.52.16-2.57-.68-3.06-2.45a8.78,8.78,0,0,0-1.23-2.6c-.33,6.58-3.05,13.91-7.28,18.07C34.86,53.33,27.17,56.39,18.21,55.73Z"/><path class="cls-1" d="M29.32,26.07a32.88,32.88,0,0,1,3.87-3.87A24.43,24.43,0,0,1,38,19.81a12.72,12.72,0,0,1,1.38-.3c.39-.06.86-.12,1.36-.16-2.43-6.18-8-12.13-19.93-13.53A16.35,16.35,0,0,0,15,6.16,20.83,20.83,0,0,0,8.26,9.05c7.22,3.28,12.31,8.38,15.05,15.46A12.84,12.84,0,0,1,29.2,26Z"/><path d="M23.31,24.51c-2.74-7.08-7.83-12.18-15-15.46A20.83,20.83,0,0,1,15,6.16a16.35,16.35,0,0,1,5.79-.34c11.92,1.4,17.5,7.35,19.93,13.53a11.5,11.5,0,0,1,3.37.19c.43.09.84.2,1.25.32a14.32,14.32,0,0,1,2.32.9,28.73,28.73,0,0,0-12.74-17,28.74,28.74,0,0,0-33.63,4l-.14.13c-.06,0-.17.17-.29.3A3.07,3.07,0,0,0,0,10a2.61,2.61,0,0,0,.22,1.29c.46,1,1.36,1.41,2.61,1.69a19.66,19.66,0,0,1,6.5,2.76,22.79,22.79,0,0,1,8.79,10.1A11,11,0,0,1,23.31,24.51Z"/><path d="M80.76,41.17c-.58-2.81-3.43-5.66-3.43-5.66a11.82,11.82,0,0,0-6.2-2.83c-.24,0-.52-.36-.63-.62-2.16-5.21-6.61-8-12.2-7.45A29.1,29.1,0,0,0,53.41,26a13.61,13.61,0,0,0-5.74-5.21,23.28,23.28,0,0,1,.74,3.68,25.45,25.45,0,0,1,.11,3.93A8.78,8.78,0,0,1,49.75,31c.49,1.77,1.54,2.61,3.06,2.45a3.25,3.25,0,0,0,2.09-1.37,6.11,6.11,0,0,1,8-1.28,6,6,0,0,1,2.89,4.35c.34,2.22,1.32,3,3.56,2.84a6.19,6.19,0,1,1,.61,12.37c-.24,0-.48,0-.58,0-2.39,0-3.23.66-3.58,2.89a6.2,6.2,0,0,1-10.91,3.06A2.86,2.86,0,0,0,51.93,55a2.9,2.9,0,0,0-2.2,2.4,8.49,8.49,0,0,1-16.38,0A2.87,2.87,0,0,0,31.12,55a2.82,2.82,0,0,0-2.84,1.25,5.87,5.87,0,0,1-6.53,2,5.82,5.82,0,0,1-3.54-2.56c-1-.08-2.06-.19-3.12-.36a2.76,2.76,0,0,1-2.45-1.89,2.83,2.83,0,0,1,.87-3l.18-.2h0a6.05,6.05,0,0,1-6.38-5.52,5.82,5.82,0,0,1,0-1.18A6.37,6.37,0,0,1,12,38.14,6,6,0,0,1,13.83,38c2.13.12,3.15-.65,3.5-2.74a6.33,6.33,0,0,1,2.3-4.09,21.54,21.54,0,0,0-1.5-5.37,12.44,12.44,0,0,0-5.56,6.3,1.24,1.24,0,0,1-.81.61,12.93,12.93,0,0,0-3.71,1.21,10.77,10.77,0,0,0-4,3.65c-.17.25-.33.49-.48.75a29.19,29.19,0,0,0-1.64,4.36v3a2.37,2.37,0,0,1,.17.41,11.46,11.46,0,0,0,9.46,9.44,1.32,1.32,0,0,1,1.13,1,11.4,11.4,0,0,0,9.47,7.32,11.61,11.61,0,0,0,7.39-1.61,14.07,14.07,0,0,0,24,0l.31.16A11.52,11.52,0,0,0,70.5,56.24a.93.93,0,0,1,.87-.66A11.51,11.51,0,0,0,80.76,41.17Z"/><path d="M28.28,32.15a3,3,0,0,0,2,1.27c1.5.13,2.52-.69,3-2.41a8.58,8.58,0,0,1,8.75-6.32h.05a23.92,23.92,0,0,0-1.4-5.35c-.5,0-1,.1-1.36.16a12.72,12.72,0,0,0-1.38.3,24.43,24.43,0,0,0-4.8,2.39,32.88,32.88,0,0,0-3.87,3.87L29.2,26a12.84,12.84,0,0,0-5.89-1.5c.3.77.58,1.55.82,2.37A29.86,29.86,0,0,1,24.88,30,6.13,6.13,0,0,1,28.28,32.15Z"/><path d="M22.34,30a6.19,6.19,0,0,1,2.54,0,29.86,29.86,0,0,0-.75-3.11c-.24-.82-.52-1.6-.82-2.37a11,11,0,0,0-5.18,1.28,21.54,21.54,0,0,1,1.5,5.37A6.08,6.08,0,0,1,22.34,30Z"/><path d="M13.69,50.3l-.18.2a2.83,2.83,0,0,0-.87,3,2.76,2.76,0,0,0,2.45,1.89c1.06.17,2.09.28,3.12.36a6.26,6.26,0,0,1-.86-2.56C17.09,51.18,15.93,50.19,13.69,50.3Z"/><path d="M44.1,19.54a11.5,11.5,0,0,0-3.37-.19,23.92,23.92,0,0,1,1.4,5.35,8.44,8.44,0,0,1,5.48,2.54,9,9,0,0,1,.91,1.13,25.45,25.45,0,0,0-.11-3.93,23.28,23.28,0,0,0-.74-3.68,14.32,14.32,0,0,0-2.32-.9C44.94,19.74,44.53,19.63,44.1,19.54Z"/><path d="M50,46.49a8,8,0,0,1-7.78,8,7.89,7.89,0,0,1-8.16-7.64,11,11,0,0,1,1.08-4.59A64.11,64.11,0,0,1,39.28,35c1.58-2.45,3.85-2.44,5.53-.06a31.23,31.23,0,0,1,5,10,4.13,4.13,0,0,1,.14.7C50,45.93,50,46.29,50,46.49Zm-7.79-6h-.38c-.76,1.69-1.58,3.35-2.26,5.07a2.47,2.47,0,0,0,.87,3,2.58,2.58,0,0,0,3.07.05,2.45,2.45,0,0,0,.94-3C43.82,43.91,43,42.24,42.25,40.54Z"/><path d="M64.2,45.42a4.8,4.8,0,0,1-4.66,4.79,4.72,4.72,0,0,1-4.88-4.57,6.76,6.76,0,0,1,.65-2.75,38.29,38.29,0,0,1,2.45-4.38c1-1.47,2.31-1.46,3.31,0a18.71,18.71,0,0,1,3,6,3.15,3.15,0,0,1,.09.42C64.19,45.08,64.2,45.29,64.2,45.42Zm-4.66-3.57h-.23c-.45,1-.94,2-1.35,3a1.49,1.49,0,0,0,.52,1.8,1.56,1.56,0,0,0,1.84,0,1.47,1.47,0,0,0,.56-1.82C60.48,43.87,60,42.87,59.54,41.85Z"/><path d="M28.8,45.42a4.8,4.8,0,0,1-4.66,4.79,4.72,4.72,0,0,1-4.88-4.57,6.45,6.45,0,0,1,.65-2.75,36.83,36.83,0,0,1,2.45-4.38c.95-1.47,2.3-1.46,3.31,0a19.13,19.13,0,0,1,3,6,3.1,3.1,0,0,1,.08.42C28.79,45.08,28.79,45.29,28.8,45.42Zm-4.67-3.57h-.22c-.46,1-.95,2-1.36,3a1.48,1.48,0,0,0,.53,1.8,1.55,1.55,0,0,0,1.83,0,1.46,1.46,0,0,0,.57-1.82C25.07,43.87,24.59,42.87,24.13,41.85Z"/></g></g></svg>