<svg xmlns="http://www.w3.org/2000/svg" viewBox="0 0 64.24 82.03"><title>sleetAsset 9set1</title><g id="Layer_2" data-name="Layer 2"><g id="Layer_1-2" data-name="Layer 1"><path d="M49.18,29.84l5.12,1.38L52.7,37.3,58.77,39l-1.38,5.16c-1.9-.51-3.75-.9-5.53-1.51a4.2,4.2,0,0,0-4,.51c-2.73,1.72-5.56,3.27-8.36,4.86A1,1,0,0,0,39,49.09a28.8,28.8,0,0,1,0,3.35c0,.49,0,.79.49,1.07,3.26,1.85,6.5,3.76,9.77,5.6a1.82,1.82,0,0,0,1.22.14c2.06-.51,4.11-1.09,6.16-1.64.23-.06.46-.09.76-.16l1.38,5.13L52.7,64.22l1.6,6.09L49.15,71.7c-.48-1.76-1.09-3.46-1.39-5.22A4.71,4.71,0,0,0,45,62.79c-3-1.54-5.81-3.3-8.57-4.89L32,60.42c0,3.23.1,6.67,0,10.09a4.35,4.35,0,0,0,1.61,3.84c1.41,1.2,2.65,2.6,3.91,3.86L33.73,82l-4.27-4.34L25.13,82l-3.84-3.91c.57-.55,1.31-1.26,2-2,1-1,2-2,2.95-3a1.52,1.52,0,0,0,.43-.9c0-4,0-8,0-11.88l-4.34-2.49-1.32.76c-2.84,1.64-5.68,3.3-8.54,4.91A2.08,2.08,0,0,0,11.4,65c-.54,2.2-1.16,4.39-1.77,6.66L4.47,70.31l1.6-6.09L0,62.57l1.37-5.14L3.51,58c1.63.43,3.25.9,4.88,1.29a1.67,1.67,0,0,0,1.14-.15c3.27-1.85,6.51-3.74,9.77-5.6a.91.91,0,0,0,.49-1,34.64,34.64,0,0,1,0-3.53.87.87,0,0,0-.51-1c-3.23-1.85-6.44-3.74-9.69-5.57a2,2,0,0,0-1.32-.15c-2,.49-4,1.06-6,1.59-.28.08-.56.12-.91.19L0,39l6.07-1.65-1.6-6.08,5.15-1.39c.55,2,1.16,4,1.59,5.95a3.45,3.45,0,0,0,1.89,2.52c3,1.62,5.91,3.36,8.84,5.08a.89.89,0,0,0,1.16-.08,23.67,23.67,0,0,1,3-1.76c.42-.2.58-.37.58-.82,0-3.79,0-7.58,0-11.37a1.7,1.7,0,0,0-.48-1.05c-1.66-1.69-3.35-3.35-5-4.95l3.79-3.78L29.26,24l4.37-4.61,3.91,3.91c-1.57,1.56-3.18,3.2-4.84,4.79A2,2,0,0,0,32,29.73c0,3.85,0,7.7,0,11.3,1.41.9,2.66,1.72,3.93,2.49a.86.86,0,0,0,.71-.07c3.33-1.91,6.67-3.82,10-5.78a1.69,1.69,0,0,0,.63-1c.58-2,1.1-4.1,1.65-6.16C49,30.35,49.07,30.15,49.18,29.84ZM29.32,55.2a4.44,4.44,0,1,0-4.38-4.45A4.49,4.49,0,0,0,29.32,55.2Z"/><path d="M60.7,3.86l1.89.5L62,6.61l2.24.62-.51,1.9c-.7-.18-1.38-.33-2-.55a1.53,1.53,0,0,0-1.46.19c-1,.63-2.06,1.2-3.09,1.79a.36.36,0,0,0-.21.41,10.26,10.26,0,0,1,0,1.24.36.36,0,0,0,.18.4c1.21.68,2.4,1.38,3.61,2.07a.69.69,0,0,0,.45.05c.77-.19,1.52-.4,2.28-.61l.28-.06.51,1.9-2.24.6.59,2.25-1.9.52a19.72,19.72,0,0,1-.52-1.93,1.73,1.73,0,0,0-1-1.36C58,15.47,57,14.82,56,14.23l-1.61.93c0,1.19,0,2.46,0,3.73a1.6,1.6,0,0,0,.59,1.42c.52.44,1,1,1.45,1.42L55,23.14l-1.57-1.61-1.6,1.62L50.39,21.7l.75-.73c.37-.36.73-.72,1.09-1.1a.52.52,0,0,0,.16-.33c0-1.47,0-2.95,0-4.39l-1.61-.92-.49.28-3.15,1.82a.78.78,0,0,0-.42.53c-.2.82-.43,1.62-.65,2.46l-1.91-.5.59-2.26L42.52,16l.51-1.9.79.2c.6.16,1.2.34,1.8.48a.67.67,0,0,0,.42-.05l3.61-2.08a.32.32,0,0,0,.18-.36c0-.44,0-.87,0-1.3a.33.33,0,0,0-.18-.36c-1.2-.69-2.39-1.39-3.59-2.06a.66.66,0,0,0-.48-.06c-.75.18-1.48.39-2.22.59L43,9.12l-.5-1.89,2.24-.61-.59-2.25,1.9-.51c.21.74.43,1.46.59,2.19a1.28,1.28,0,0,0,.7.94c1.1.6,2.19,1.24,3.27,1.87a.33.33,0,0,0,.43,0,7.89,7.89,0,0,1,1.13-.65c.15-.08.21-.14.21-.31,0-1.4,0-2.8,0-4.2a.67.67,0,0,0-.18-.39C51.6,2.66,51,2.05,50.38,1.46l1.4-1.4L53.33,1.7,55,0l1.44,1.44c-.57.58-1.17,1.19-1.78,1.78a.75.75,0,0,0-.25.6c0,1.42,0,2.84,0,4.17.52.33,1,.64,1.46.92a.3.3,0,0,0,.26,0c1.23-.71,2.46-1.42,3.68-2.14A.58.58,0,0,0,60,6.39c.21-.75.41-1.52.61-2.27C60.63,4,60.66,4,60.7,3.86Zm-7.34,9.37a1.64,1.64,0,1,0-1.62-1.65A1.66,1.66,0,0,0,53.36,13.23Z"/></g></g></svg>