<svg xmlns="http://www.w3.org/2000/svg" viewBox="0 0 79.24 49.66"><defs><style>.cls-1{stroke:#231f20;stroke-miterlimit:10;stroke-width:0.5px;}.cls-2{fill:none;}</style></defs><title>snowAsset 20set1</title><g id="Layer_2" data-name="Layer 2"><g id="Layer_1-2" data-name="Layer 1"><path class="cls-1" d="M46.3,18.08l1.65.45-.52,2,2,.53L49,22.69c-.62-.17-1.21-.29-1.79-.49a1.35,1.35,0,0,0-1.27.17c-.88.55-1.79,1.05-2.7,1.56a.33.33,0,0,0-.18.36,7.79,7.79,0,0,1,0,1.08c0,.16,0,.26.16.35l3.15,1.81a.61.61,0,0,0,.4,0l2-.53L49,27l.44,1.65-2,.53.52,2-1.66.45c-.16-.57-.35-1.12-.45-1.69a1.53,1.53,0,0,0-.91-1.19c-1-.49-1.87-1.06-2.76-1.57l-1.4.81c0,1,0,2.15,0,3.25a1.41,1.41,0,0,0,.51,1.24c.46.39.86.84,1.27,1.25l-1.23,1.22-1.37-1.4-1.4,1.41L37.3,33.66,38,33c.32-.32.64-.63.95-1a.47.47,0,0,0,.14-.29c0-1.28,0-2.57,0-3.83l-1.4-.8-.42.24c-.92.53-1.84,1.07-2.76,1.59a.7.7,0,0,0-.36.46c-.17.72-.37,1.42-.57,2.15l-1.67-.44.52-2-2-.53L30.87,27l.69.18c.53.14,1.05.29,1.58.41a.6.6,0,0,0,.37,0l3.15-1.81a.3.3,0,0,0,.16-.32,10.84,10.84,0,0,1,0-1.14.28.28,0,0,0-.17-.31c-1-.6-2.08-1.21-3.12-1.8a.71.71,0,0,0-.43,0c-.65.16-1.29.34-1.93.51l-.3.07L30.43,21l2-.54-.52-2,1.67-.45c.17.65.37,1.28.51,1.92a1.08,1.08,0,0,0,.61.81c1,.53,1.9,1.09,2.85,1.64a.28.28,0,0,0,.37,0,7.47,7.47,0,0,1,1-.57.26.26,0,0,0,.19-.27c0-1.22,0-2.44,0-3.66a.6.6,0,0,0-.16-.34c-.53-.55-1.08-1.08-1.6-1.6l1.22-1.22,1.36,1.43,1.41-1.48L42.54,16c-.5.5-1,1-1.56,1.54a.64.64,0,0,0-.21.53c0,1.24,0,2.48,0,3.64.45.29.86.56,1.27.81a.25.25,0,0,0,.22,0c1.08-.61,2.16-1.23,3.22-1.86a.55.55,0,0,0,.21-.32c.18-.65.35-1.32.53-2A2.16,2.16,0,0,1,46.3,18.08Zm-6.41,8.18a1.43,1.43,0,0,0,0-2.86,1.46,1.46,0,0,0-1.45,1.43A1.45,1.45,0,0,0,39.89,26.26Z"/><path class="cls-1" d="M60.24,20.93l.92.24-.29,1.09,1.09.29-.25.93c-.34-.09-.67-.16-1-.27a.73.73,0,0,0-.7.09c-.49.31-1,.58-1.5.87-.08,0-.1.1-.1.2a3.87,3.87,0,0,1,0,.59c0,.09,0,.14.09.19l1.75,1a.31.31,0,0,0,.21,0l1.1-.29.14,0,.25.91-1.09.3.29,1.08-.92.25a8,8,0,0,1-.25-.93.85.85,0,0,0-.5-.66c-.53-.27-1-.59-1.53-.87l-.78.45c0,.57,0,1.19,0,1.8a.76.76,0,0,0,.28.68c.25.22.48.47.7.69l-.68.68-.76-.77-.77.78-.69-.7.37-.36.52-.52a.3.3,0,0,0,.08-.16V26.38l-.77-.44-.24.14L53.7,27a.38.38,0,0,0-.2.26c-.1.39-.21.78-.32,1.19l-.92-.25.29-1.08-1.09-.3.25-.92.38.1.87.23a.24.24,0,0,0,.2,0l1.75-1c.08,0,.09-.09.09-.17s0-.42,0-.63a.18.18,0,0,0-.09-.18l-1.74-1a.31.31,0,0,0-.23,0l-1.07.29-.16,0-.25-.91,1.09-.3-.29-1.08.92-.25c.1.36.21.71.28,1.06a.65.65,0,0,0,.34.45c.53.29,1.06.6,1.58.91a.17.17,0,0,0,.21,0,3.6,3.6,0,0,1,.54-.31c.08,0,.11-.07.1-.15,0-.68,0-1.35,0-2a.31.31,0,0,0-.09-.19l-.88-.88.68-.68.75.8.78-.83.7.7-.87.86a.35.35,0,0,0-.12.29c0,.68,0,1.37,0,2l.71.44s.09,0,.12,0l1.78-1a.32.32,0,0,0,.12-.18c.1-.36.19-.73.29-1.1C60.21,21,60.22,21,60.24,20.93ZM56.7,25.45a.79.79,0,0,0,.8-.78.79.79,0,1,0-1.58,0A.78.78,0,0,0,56.7,25.45Z"/><path class="cls-1" d="M24.91,20.93l.91.24-.28,1.09,1.08.29-.25.93c-.34-.09-.67-.16-1-.27a.75.75,0,0,0-.71.09c-.49.31-1,.58-1.49.87-.09,0-.11.1-.1.2a5.8,5.8,0,0,1,0,.59.16.16,0,0,0,.08.19l1.75,1a.33.33,0,0,0,.22,0l1.1-.29.13,0,.25.91-1.08.3.28,1.08-.92.25c-.08-.31-.19-.62-.25-.93a.83.83,0,0,0-.5-.66c-.53-.27-1-.59-1.53-.87l-.77.45c0,.57,0,1.19,0,1.8a.76.76,0,0,0,.29.68c.25.22.47.47.7.69l-.68.68-.76-.77-.78.78-.68-.7.36-.36.53-.52a.28.28,0,0,0,.07-.16c0-.72,0-1.43,0-2.13l-.78-.44-.23.14L18.36,27a.38.38,0,0,0-.2.26c-.09.39-.21.78-.31,1.19l-.93-.25.29-1.08-1.08-.3.24-.92.38.1.87.23a.26.26,0,0,0,.21,0l1.74-1c.08,0,.09-.09.09-.17s0-.42,0-.63a.17.17,0,0,0-.09-.18l-1.73-1a.33.33,0,0,0-.24,0l-1.07.29-.16,0-.24-.91,1.08-.3-.29-1.08.92-.25c.1.36.21.71.29,1.06a.6.6,0,0,0,.34.45c.53.29,1.05.6,1.57.91a.17.17,0,0,0,.21,0A3.7,3.7,0,0,1,20.8,23c.07,0,.1-.07.1-.15,0-.68,0-1.35,0-2a.36.36,0,0,0-.08-.19l-.89-.88.68-.68.75.8.78-.83.7.7-.86.86a.33.33,0,0,0-.12.29v2l.7.44a.13.13,0,0,0,.12,0l1.79-1a.37.37,0,0,0,.11-.18l.3-1.1A.41.41,0,0,1,24.91,20.93Zm-3.55,4.52a.8.8,0,0,0,.81-.78.81.81,0,0,0-.79-.8.8.8,0,0,0-.8.79A.79.79,0,0,0,21.36,25.45Z"/><path class="cls-2" d="M17.71,11.86A6.33,6.33,0,0,0,15.4,16C15.06,18,14,18.81,11.91,18.68a6,6,0,0,0-1.85.16,6.35,6.35,0,0,0-4.72,5.45,5.27,5.27,0,0,0,0,1.19A6.06,6.06,0,0,0,11.75,31h0a22,22,0,0,0,6.1-13A27.33,27.33,0,0,0,17.71,11.86Z"/><path class="cls-2" d="M18.65,31.09a19.78,19.78,0,0,0,7.83-1.38C36.06,26,41.63,15.83,40.24,5.64l0-.24h-.05a8.46,8.46,0,0,0-3.13.4,8.28,8.28,0,0,0-5.62,5.91c-.48,1.72-1.51,2.55-3,2.42a3,3,0,0,1-2-1.27A6.17,6.17,0,0,0,23,10.68C24.28,17.86,22.69,24.67,18.65,31.09Z"/><path class="cls-2" d="M16.28,36.42A5.93,5.93,0,0,0,19.83,39a5.89,5.89,0,0,0,6.53-2.05,2.82,2.82,0,0,1,2.83-1.26,2.89,2.89,0,0,1,2.24,2.37,8.48,8.48,0,0,0,16.37,0,2.92,2.92,0,0,1,2.2-2.4A2.89,2.89,0,0,1,52.92,37a6.19,6.19,0,0,0,10.91-3.06C64.18,31.68,65,31,67.41,31H68a6.2,6.2,0,1,0-.6-12.38c-2.24.16-3.22-.61-3.56-2.83a6,6,0,0,0-2.9-4.36A6.1,6.1,0,0,0,53,12.75a3.22,3.22,0,0,1-2.09,1.36c-1.53.16-2.57-.67-3.07-2.45a8.9,8.9,0,0,0-1.23-2.6c-.32,6.59-3.05,13.92-7.27,18.08C32.94,34,25.24,37.09,16.28,36.42Z"/><path d="M78.84,21.86c-.59-2.8-3.43-5.65-3.43-5.65a11.94,11.94,0,0,0-6.21-2.84c-.23,0-.51-.36-.62-.61C66.42,7.55,62,4.74,56.37,5.3a29.26,29.26,0,0,0-4.88,1.36,13.73,13.73,0,0,0-5.74-5.21,26.34,26.34,0,0,1,.74,3.68,24.31,24.31,0,0,1,.1,3.93,8.9,8.9,0,0,1,1.23,2.6c.5,1.78,1.54,2.61,3.07,2.45A3.22,3.22,0,0,0,53,12.75a6.1,6.1,0,0,1,7.94-1.29,6,6,0,0,1,2.9,4.36c.34,2.22,1.32,3,3.56,2.83A6.2,6.2,0,1,1,68,31h-.57c-2.4-.06-3.23.65-3.58,2.88A6.19,6.19,0,0,1,52.92,37,2.89,2.89,0,0,0,50,35.69a2.92,2.92,0,0,0-2.2,2.4,8.48,8.48,0,0,1-16.37,0,2.89,2.89,0,0,0-2.24-2.37,2.82,2.82,0,0,0-2.83,1.26A5.89,5.89,0,0,1,19.83,39a5.93,5.93,0,0,1-3.55-2.57,30.89,30.89,0,0,1-3.11-.36,2.78,2.78,0,0,1-2.46-1.89,2.81,2.81,0,0,1,.88-3,1.71,1.71,0,0,1,.18-.2h0a6.06,6.06,0,0,1-6.38-5.52,5.27,5.27,0,0,1,0-1.19,6.35,6.35,0,0,1,4.72-5.45,6,6,0,0,1,1.85-.16C14,18.81,15.06,18,15.4,16a6.33,6.33,0,0,1,2.31-4.09,21.74,21.74,0,0,0-1.5-5.38,12.43,12.43,0,0,0-5.56,6.3,1.24,1.24,0,0,1-.81.62,12.44,12.44,0,0,0-3.71,1.21,10.71,10.71,0,0,0-4,3.65c-.16.24-.33.48-.48.75A28.75,28.75,0,0,0,0,23.37v3a1.52,1.52,0,0,1,.16.4,11.46,11.46,0,0,0,9.47,9.45,1.32,1.32,0,0,1,1.13,1,11.34,11.34,0,0,0,9.47,7.32,11.54,11.54,0,0,0,7.39-1.6,14.06,14.06,0,0,0,24,0l.32.15a11.5,11.5,0,0,0,16.62-6.13.94.94,0,0,1,.88-.66A11.52,11.52,0,0,0,78.84,21.86Z"/><path d="M26.35,12.85a3,3,0,0,0,2,1.27c1.5.13,2.53-.7,3-2.42A8.28,8.28,0,0,1,37,5.79a8.46,8.46,0,0,1,3.13-.4h.05A23.9,23.9,0,0,0,38.8,0c-.5,0-1,.1-1.35.17-.84.14-1.39.29-1.39.29a24.66,24.66,0,0,0-4.79,2.4,33.62,33.62,0,0,0-3.88,3.86l-.11,0a12.75,12.75,0,0,0-5.89-1.5c.29.77.57,1.55.81,2.36A30.49,30.49,0,0,1,23,10.68,6.17,6.17,0,0,1,26.35,12.85Z"/><path d="M20.42,10.66a6.5,6.5,0,0,1,2.53,0,30.49,30.49,0,0,0-.75-3.11C22,6.76,21.68,6,21.39,5.21a11,11,0,0,0-5.18,1.27,21.74,21.74,0,0,1,1.5,5.38A6.21,6.21,0,0,1,20.42,10.66Z"/><path d="M11.77,31a1.71,1.71,0,0,0-.18.2,2.81,2.81,0,0,0-.88,3,2.78,2.78,0,0,0,2.46,1.89,30.89,30.89,0,0,0,3.11.36,6.52,6.52,0,0,1-.86-2.55C15.17,31.87,14,30.88,11.77,31Z"/><path d="M42.17.23A11.5,11.5,0,0,0,38.8,0,23.9,23.9,0,0,1,40.21,5.4a8.39,8.39,0,0,1,5.48,2.54,8.17,8.17,0,0,1,.9,1.12,24.31,24.31,0,0,0-.1-3.93,26.34,26.34,0,0,0-.74-3.68,14.43,14.43,0,0,0-2.33-.9C43,.43,42.6.32,42.17.23Z"/></g></g></svg>