<svg xmlns="http://www.w3.org/2000/svg" viewBox="0 0 81.16 68.97"><defs><style>.cls-1{stroke:#231f20;stroke-miterlimit:10;stroke-width:0.5px;}.cls-2{fill:none;}</style></defs><title>snow-showers-nightAsset 22set1</title><g id="Layer_2" data-name="Layer 2"><g id="Layer_1-2" data-name="Layer 1"><path class="cls-1" d="M48.22,37.39l1.65.44-.51,2,2,.54L50.87,42c-.61-.16-1.21-.29-1.78-.48a1.34,1.34,0,0,0-1.28.16c-.88.56-1.79,1.06-2.69,1.57a.32.32,0,0,0-.19.36,7.79,7.79,0,0,1,0,1.08c0,.16,0,.25.16.34l3.15,1.81a.61.61,0,0,0,.4,0c.66-.16,1.32-.35,2-.52l.24-.05L51.32,48l-2,.53.51,2-1.66.45c-.15-.57-.35-1.12-.44-1.68A1.54,1.54,0,0,0,46.86,48c-1-.5-1.88-1.07-2.77-1.58l-1.4.81c0,1,0,2.15,0,3.26a1.4,1.4,0,0,0,.52,1.24c.45.38.85.84,1.26,1.24l-1.22,1.23-1.38-1.41-1.4,1.41L39.22,53c.19-.18.43-.4.66-.64s.64-.63.95-1a.49.49,0,0,0,.14-.29c0-1.29,0-2.58,0-3.83l-1.4-.81-.43.25L36.4,48.27a.68.68,0,0,0-.37.47c-.17.71-.37,1.41-.57,2.15l-1.66-.45.51-2-2-.54.44-1.65.69.17c.52.14,1,.29,1.57.42a.52.52,0,0,0,.37-.05L38.58,45a.28.28,0,0,0,.16-.32,10.65,10.65,0,0,1,0-1.13.28.28,0,0,0-.16-.32c-1-.59-2.08-1.2-3.13-1.79a.58.58,0,0,0-.43-.05c-.64.15-1.28.34-1.93.51L32.8,42l-.44-1.65,2-.53-.51-2,1.66-.45c.18.65.37,1.28.51,1.92a1.12,1.12,0,0,0,.61.81c1,.52,1.91,1.08,2.86,1.64a.29.29,0,0,0,.37,0,7.3,7.3,0,0,1,1-.56c.14-.07.19-.13.19-.27,0-1.22,0-2.45,0-3.67a.54.54,0,0,0-.16-.34c-.53-.54-1.08-1.08-1.6-1.59l1.23-1.22,1.36,1.43L43.21,34l1.26,1.26-1.56,1.55a.64.64,0,0,0-.22.52c0,1.24,0,2.48,0,3.65l1.27.8a.31.31,0,0,0,.23,0l3.22-1.87a.49.49,0,0,0,.2-.31c.19-.66.36-1.32.54-2C48.16,37.55,48.19,37.49,48.22,37.39Zm-6.4,8.18a1.43,1.43,0,1,0-1.42-1.44A1.45,1.45,0,0,0,41.82,45.57Z"/><path class="cls-1" d="M62.17,40.23l.91.25-.28,1.08,1.08.3-.25.92c-.34-.09-.67-.16-1-.27a.78.78,0,0,0-.71.09c-.49.31-1,.59-1.49.87a.17.17,0,0,0-.1.2q0,.3,0,.6a.17.17,0,0,0,.08.19l1.75,1a.33.33,0,0,0,.22,0l1.1-.29.13,0,.25.92-1.08.29.28,1.09-.92.25c-.08-.32-.19-.62-.25-.94a.8.8,0,0,0-.5-.65c-.53-.28-1-.59-1.53-.88l-.77.45c0,.58,0,1.19,0,1.8a.79.79,0,0,0,.29.69c.25.21.47.46.7.69l-.68.68-.76-.78-.78.78-.68-.7.36-.35.53-.53a.26.26,0,0,0,.07-.16c0-.71,0-1.43,0-2.12l-.78-.45-.23.14-1.53.88a.36.36,0,0,0-.2.26c-.09.39-.21.78-.32,1.18l-.92-.24.29-1.09-1.08-.29.24-.92.38.1.87.23a.37.37,0,0,0,.21,0l1.74-1a.17.17,0,0,0,.09-.18q0-.31,0-.63c0-.08,0-.13-.09-.17l-1.73-1a.39.39,0,0,0-.24,0c-.36.08-.71.19-1.07.28l-.16,0-.24-.91,1.08-.29-.29-1.09.92-.25c.1.36.21.71.29,1.06a.57.57,0,0,0,.34.45c.53.29,1.05.6,1.57.91a.17.17,0,0,0,.21,0,4.94,4.94,0,0,1,.55-.32.13.13,0,0,0,.1-.14c0-.68,0-1.36,0-2a.33.33,0,0,0-.08-.19l-.89-.89.68-.67.75.79.78-.82.7.7-.86.85a.34.34,0,0,0-.12.29v2c.25.16.47.31.7.44a.13.13,0,0,0,.12,0c.6-.34,1.2-.68,1.79-1a.34.34,0,0,0,.11-.17l.3-1.1A.46.46,0,0,1,62.17,40.23Zm-3.55,4.53a.79.79,0,1,0,0-1.58.79.79,0,0,0-.8.79A.8.8,0,0,0,58.62,44.76Z"/><path class="cls-1" d="M26.83,40.23l.92.25-.29,1.08,1.08.3-.24.92c-.34-.09-.67-.16-1-.27a.78.78,0,0,0-.71.09c-.48.31-1,.59-1.49.87a.18.18,0,0,0-.1.2,4,4,0,0,1,0,.6c0,.08,0,.14.09.19l1.74,1a.33.33,0,0,0,.22,0l1.1-.29.14,0,.24.92-1.08.29.29,1.09-.92.25a8.16,8.16,0,0,1-.25-.94.84.84,0,0,0-.5-.65c-.53-.28-1-.59-1.53-.88l-.78.45c0,.58,0,1.19,0,1.8a.79.79,0,0,0,.29.69c.25.21.47.46.7.69l-.68.68-.76-.78-.77.78-.69-.7.36-.35.53-.53a.27.27,0,0,0,.08-.16V45.69l-.77-.45-.24.14-1.52.88a.36.36,0,0,0-.2.26c-.1.39-.21.78-.32,1.18l-.92-.24.28-1.09-1.08-.29.24-.92.39.1.87.23a.34.34,0,0,0,.2,0l1.75-1a.16.16,0,0,0,.08-.18q0-.31,0-.63a.14.14,0,0,0-.09-.17l-1.73-1a.36.36,0,0,0-.23,0c-.36.08-.72.19-1.07.28l-.17,0-.24-.91,1.08-.29-.28-1.09.92-.25c.1.36.2.71.28,1.06a.61.61,0,0,0,.34.45c.53.29,1.05.6,1.58.91.08.05.12,0,.2,0a6.05,6.05,0,0,1,.55-.32.13.13,0,0,0,.1-.14v-2a.28.28,0,0,0-.09-.19l-.88-.89.67-.67.75.79.79-.82.69.7c-.28.28-.56.57-.86.85a.36.36,0,0,0-.12.29v2l.7.44a.15.15,0,0,0,.13,0l1.78-1a.28.28,0,0,0,.11-.17c.11-.37.2-.74.3-1.1Zm-3.54,4.53a.79.79,0,0,0,0-1.58.79.79,0,1,0,0,1.58Z"/><path class="cls-2" d="M19.63,31.16a6.33,6.33,0,0,0-2.3,4.09C17,37.34,16,38.11,13.83,38a6,6,0,0,0-1.84.15A6.37,6.37,0,0,0,7.26,43.6a5.82,5.82,0,0,0,0,1.18,6.05,6.05,0,0,0,6.38,5.52h0a21.94,21.94,0,0,0,6.1-13A27.35,27.35,0,0,0,19.63,31.16Z"/><path class="cls-2" d="M20.57,50.4A19.93,19.93,0,0,0,28.4,49C38,45.31,43.56,35.13,42.17,25c0-.09,0-.17,0-.25h-.05A8.58,8.58,0,0,0,33.33,31c-.48,1.72-1.5,2.54-3,2.41a3,3,0,0,1-2-1.27A6.13,6.13,0,0,0,24.88,30C26.2,37.16,24.62,44,20.57,50.4Z"/><path class="cls-2" d="M18.21,55.73a5.82,5.82,0,0,0,3.54,2.56,5.87,5.87,0,0,0,6.53-2A2.82,2.82,0,0,1,31.12,55a2.87,2.87,0,0,1,2.23,2.36,8.49,8.49,0,0,0,16.38,0,2.9,2.9,0,0,1,2.2-2.4,2.86,2.86,0,0,1,2.91,1.28,6.2,6.2,0,0,0,10.91-3.06c.35-2.23,1.19-2.94,3.58-2.89.1,0,.34,0,.58,0A6.19,6.19,0,1,0,69.3,38c-2.24.16-3.22-.62-3.56-2.84a6,6,0,0,0-2.89-4.35,6.11,6.11,0,0,0-8,1.28,3.25,3.25,0,0,1-2.09,1.37c-1.52.16-2.57-.68-3.06-2.45a8.78,8.78,0,0,0-1.23-2.6c-.33,6.58-3.05,13.91-7.28,18.07C34.86,53.33,27.17,56.39,18.21,55.73Z"/><path class="cls-2" d="M29.32,26.07a32.88,32.88,0,0,1,3.87-3.87A24.43,24.43,0,0,1,38,19.81a12.72,12.72,0,0,1,1.38-.3c.39-.06.86-.12,1.36-.16-2.43-6.18-8-12.13-19.93-13.53A16.35,16.35,0,0,0,15,6.16,20.83,20.83,0,0,0,8.26,9.05c7.22,3.28,12.31,8.38,15.05,15.46A12.84,12.84,0,0,1,29.2,26Z"/><path d="M23.31,24.51c-2.74-7.08-7.83-12.18-15-15.46A20.83,20.83,0,0,1,15,6.16a16.35,16.35,0,0,1,5.79-.34c11.92,1.4,17.5,7.35,19.93,13.53a11.5,11.5,0,0,1,3.37.19c.43.09.84.2,1.25.32a14.32,14.32,0,0,1,2.32.9,28.73,28.73,0,0,0-12.74-17,28.74,28.74,0,0,0-33.63,4l-.14.13c-.06,0-.17.17-.29.3A3.07,3.07,0,0,0,0,10a2.61,2.61,0,0,0,.22,1.29c.46,1,1.36,1.41,2.61,1.69a19.66,19.66,0,0,1,6.5,2.76,22.79,22.79,0,0,1,8.79,10.1A11,11,0,0,1,23.31,24.51Z"/><path d="M80.76,41.17c-.58-2.81-3.43-5.66-3.43-5.66a11.82,11.82,0,0,0-6.2-2.83c-.24,0-.52-.36-.63-.62-2.16-5.21-6.61-8-12.2-7.45A29.1,29.1,0,0,0,53.41,26a13.61,13.61,0,0,0-5.74-5.21,23.28,23.28,0,0,1,.74,3.68,25.45,25.45,0,0,1,.11,3.93A8.78,8.78,0,0,1,49.75,31c.49,1.77,1.54,2.61,3.06,2.45a3.25,3.25,0,0,0,2.09-1.37,6.11,6.11,0,0,1,8-1.28,6,6,0,0,1,2.89,4.35c.34,2.22,1.32,3,3.56,2.84a6.19,6.19,0,1,1,.61,12.37c-.24,0-.48,0-.58,0-2.39,0-3.23.66-3.58,2.89a6.2,6.2,0,0,1-10.91,3.06A2.86,2.86,0,0,0,51.93,55a2.9,2.9,0,0,0-2.2,2.4,8.49,8.49,0,0,1-16.38,0A2.87,2.87,0,0,0,31.12,55a2.82,2.82,0,0,0-2.84,1.25,5.87,5.87,0,0,1-6.53,2,5.82,5.82,0,0,1-3.54-2.56c-1-.08-2.06-.19-3.12-.36a2.76,2.76,0,0,1-2.45-1.89,2.83,2.83,0,0,1,.87-3l.18-.2h0a6.05,6.05,0,0,1-6.38-5.52,5.82,5.82,0,0,1,0-1.18A6.37,6.37,0,0,1,12,38.14,6,6,0,0,1,13.83,38c2.13.12,3.15-.65,3.5-2.74a6.33,6.33,0,0,1,2.3-4.09,21.54,21.54,0,0,0-1.5-5.37,12.44,12.44,0,0,0-5.56,6.3,1.24,1.24,0,0,1-.81.61,12.93,12.93,0,0,0-3.71,1.21,10.77,10.77,0,0,0-4,3.65c-.17.25-.33.49-.48.75a29.19,29.19,0,0,0-1.64,4.36v3a2.37,2.37,0,0,1,.17.41,11.46,11.46,0,0,0,9.46,9.44,1.32,1.32,0,0,1,1.13,1,11.4,11.4,0,0,0,9.47,7.32,11.61,11.61,0,0,0,7.39-1.61,14.07,14.07,0,0,0,24,0l.31.16A11.52,11.52,0,0,0,70.5,56.24a.93.93,0,0,1,.87-.66A11.51,11.51,0,0,0,80.76,41.17Z"/><path d="M28.28,32.15a3,3,0,0,0,2,1.27c1.5.13,2.52-.69,3-2.41a8.58,8.58,0,0,1,8.75-6.32h.05a23.92,23.92,0,0,0-1.4-5.35c-.5,0-1,.1-1.36.16a12.72,12.72,0,0,0-1.38.3,24.43,24.43,0,0,0-4.8,2.39,32.88,32.88,0,0,0-3.87,3.87L29.2,26a12.84,12.84,0,0,0-5.89-1.5c.3.77.58,1.55.82,2.37A29.86,29.86,0,0,1,24.88,30,6.13,6.13,0,0,1,28.28,32.15Z"/><path d="M22.34,30a6.19,6.19,0,0,1,2.54,0,29.86,29.86,0,0,0-.75-3.11c-.24-.82-.52-1.6-.82-2.37a11,11,0,0,0-5.18,1.28,21.54,21.54,0,0,1,1.5,5.37A6.08,6.08,0,0,1,22.34,30Z"/><path d="M13.69,50.3l-.18.2a2.83,2.83,0,0,0-.87,3,2.76,2.76,0,0,0,2.45,1.89c1.06.17,2.09.28,3.12.36a6.26,6.26,0,0,1-.86-2.56C17.09,51.18,15.93,50.19,13.69,50.3Z"/><path d="M44.1,19.54a11.5,11.5,0,0,0-3.37-.19,23.92,23.92,0,0,1,1.4,5.35,8.44,8.44,0,0,1,5.48,2.54,9,9,0,0,1,.91,1.13,25.45,25.45,0,0,0-.11-3.93,23.28,23.28,0,0,0-.74-3.68,14.32,14.32,0,0,0-2.32-.9C44.94,19.74,44.53,19.63,44.1,19.54Z"/></g></g></svg>