<svg xmlns="http://www.w3.org/2000/svg" viewBox="0 0 79.24 76.3"><defs><style>.cls-1{stroke:#231f20;stroke-miterlimit:10;stroke-width:0.5px;}</style></defs><title>thunder-rainAsset 16set1</title><g id="Layer_2" data-name="Layer 2"><g id="Layer_1-2" data-name="Layer 1"><path d="M48.68,27.51a8.05,8.05,0,0,1-7.79,8,7.91,7.91,0,0,1-8.16-7.64,11,11,0,0,1,1.08-4.6A64.11,64.11,0,0,1,37.91,16c1.58-2.45,3.85-2.44,5.53-.06a31.18,31.18,0,0,1,5,10,4.22,4.22,0,0,1,.14.69C48.65,26.94,48.66,27.3,48.68,27.51Zm-7.8-6H40.5c-.76,1.69-1.58,3.35-2.26,5.07a2.49,2.49,0,0,0,.87,3,2.61,2.61,0,0,0,3.07.05,2.48,2.48,0,0,0,1-3.05C42.45,24.92,41.63,23.25,40.88,21.56Z"/><path d="M62.84,26.43a4.82,4.82,0,0,1-4.66,4.8,4.72,4.72,0,0,1-4.88-4.57,6.59,6.59,0,0,1,.64-2.75,37,37,0,0,1,2.46-4.39c.94-1.47,2.3-1.46,3.3,0a18.66,18.66,0,0,1,3,6,2.71,2.71,0,0,1,.09.41C62.82,26.09,62.83,26.3,62.84,26.43Zm-4.67-3.56h-.23c-.45,1-.94,2-1.35,3a1.48,1.48,0,0,0,.52,1.79,1.56,1.56,0,0,0,1.84,0,1.47,1.47,0,0,0,.56-1.82C59.11,24.88,58.62,23.88,58.17,22.87Z"/><path d="M27.43,26.43a4.81,4.81,0,0,1-4.66,4.8,4.72,4.72,0,0,1-4.88-4.57,6.45,6.45,0,0,1,.65-2.75A37,37,0,0,1,21,19.52c1-1.47,2.3-1.46,3.31,0a18.66,18.66,0,0,1,3,6,2.7,2.7,0,0,1,.08.41C27.42,26.09,27.42,26.3,27.43,26.43Zm-4.67-3.56h-.22c-.46,1-.95,2-1.36,3a1.49,1.49,0,0,0,.53,1.79,1.55,1.55,0,0,0,1.83,0,1.46,1.46,0,0,0,.57-1.82C23.71,24.88,23.22,23.88,22.76,22.87Z"/><path d="M78.84,21.86c-.59-2.8-3.43-5.65-3.43-5.65a11.94,11.94,0,0,0-6.21-2.84c-.23,0-.51-.36-.62-.61C66.42,7.55,62,4.74,56.37,5.3a29.26,29.26,0,0,0-4.88,1.36,13.73,13.73,0,0,0-5.74-5.21,14.43,14.43,0,0,0-2.33-.9C43,.43,42.6.32,42.17.23A11.5,11.5,0,0,0,38.8,0c-.5,0-1,.1-1.35.17-.84.14-1.39.29-1.39.29a24.66,24.66,0,0,0-4.79,2.4,33.62,33.62,0,0,0-3.88,3.86l-.11,0a12.75,12.75,0,0,0-5.89-1.5,11,11,0,0,0-5.18,1.27,12.43,12.43,0,0,0-5.56,6.3,1.24,1.24,0,0,1-.81.62,12.44,12.44,0,0,0-3.71,1.21,10.71,10.71,0,0,0-4,3.65c-.16.24-.33.48-.48.75A28.75,28.75,0,0,0,0,23.37v3a1.52,1.52,0,0,1,.16.4,11.46,11.46,0,0,0,9.47,9.45,1.32,1.32,0,0,1,1.13,1,11.34,11.34,0,0,0,9.47,7.32,11.54,11.54,0,0,0,7.39-1.6,14.06,14.06,0,0,0,24,0l.32.15a11.5,11.5,0,0,0,16.62-6.13.94.94,0,0,1,.88-.66A11.52,11.52,0,0,0,78.84,21.86ZM68,31h-.57c-2.4-.06-3.23.65-3.58,2.88A6.19,6.19,0,0,1,52.92,37,2.89,2.89,0,0,0,50,35.69a2.92,2.92,0,0,0-2.2,2.4,8.48,8.48,0,0,1-16.37,0,2.89,2.89,0,0,0-2.24-2.37,2.82,2.82,0,0,0-2.83,1.26A5.89,5.89,0,0,1,19.83,39a5.93,5.93,0,0,1-3.55-2.57,6.52,6.52,0,0,1-.86-2.55c-.25-2-1.42-3-3.65-2.87h0a6.06,6.06,0,0,1-6.38-5.52,5.27,5.27,0,0,1,0-1.19,6.35,6.35,0,0,1,4.72-5.45,6,6,0,0,1,1.85-.16C14,18.81,15.06,18,15.4,16a6.33,6.33,0,0,1,2.31-4.09,6.21,6.21,0,0,1,2.71-1.2,6.5,6.5,0,0,1,2.53,0,6.17,6.17,0,0,1,3.4,2.17,3,3,0,0,0,2,1.27c1.5.13,2.53-.7,3-2.42A8.28,8.28,0,0,1,37,5.79a8.46,8.46,0,0,1,3.13-.4h.05a8.39,8.39,0,0,1,5.48,2.54,8.17,8.17,0,0,1,.9,1.12,8.9,8.9,0,0,1,1.23,2.6c.5,1.78,1.54,2.61,3.07,2.45A3.22,3.22,0,0,0,53,12.75a6.1,6.1,0,0,1,7.94-1.29,6,6,0,0,1,2.9,4.36c.34,2.22,1.32,3,3.56,2.83A6.2,6.2,0,1,1,68,31Z"/><path class="cls-1" d="M50.47,75.39c2.34-2.5,9.59-10.33,9.59-10.33h0c1.67-1.79,3.27-3.53,4.89-5.26a1.59,1.59,0,0,0,.48-1.93A1.66,1.66,0,0,0,63.61,57l-1.69.13c.16-.34.27-.58.39-.81,1.06-2,2.13-4.07,3.18-6.1.71-1.38.08-2.44-1.45-2.44-3.65,0-7.31,0-11,0a1.73,1.73,0,0,0-1.75,1.08q-3,6.3-6.1,12.57a1.5,1.5,0,0,0,1.45,2.35h4.43c-.24.74-.44,1.43-.7,2.1L49.06,70c-.49,1.5-1,2.86-1.34,4.27a1.72,1.72,0,0,0,.41,1.43,2.18,2.18,0,0,0,1.48.33C49.91,76,50.22,75.66,50.47,75.39ZM48.91,60.85a5.64,5.64,0,0,1,.21-.56c1.45-3,2.89-6,4.37-9a1,1,0,0,1,.65-.53c2.52,0,5,0,7.71,0L59.13,56c-.33.64-.67,1.27-1,1.9a1.5,1.5,0,0,0,1.48,2.37h.83l-7.46,8-.14-.09c.11-.39.22-.78.35-1.17.44-1.36.9-2.71,1.33-4.07A1.49,1.49,0,0,0,53,60.85Z"/></g></g></svg>