<svg xmlns="http://www.w3.org/2000/svg" viewBox="0 0 95.81 63.64"><title>windAsset 13set1</title><g id="Layer_2" data-name="Layer 2"><g id="Layer_1-2" data-name="Layer 1"><path d="M71.28,18.5a3,3,0,0,1-.87-4.61l.15-.18q4.41-4.53,8.93-9a2.92,2.92,0,0,1,4.33-.11A2.89,2.89,0,0,1,83.64,9c-2.92,3-5.88,5.91-8.83,8.85a2.89,2.89,0,0,1-3.49.69Z"/><path d="M55.54,14.75a3,3,0,0,1-.87-4.61l.15-.17q4.41-4.53,8.93-9a2.91,2.91,0,0,1,4.32-.1,2.9,2.9,0,0,1-.17,4.32c-2.93,3-5.89,5.9-8.84,8.84a2.87,2.87,0,0,1-3.49.7Z"/><path d="M78.83,35.82a1.46,1.46,0,0,0-2.46-.67l-2.58,2.57a6.57,6.57,0,0,1,.12.89A6.21,6.21,0,0,1,68,45h-.57c-2.4,0-3.23.66-3.58,2.89A6.2,6.2,0,0,1,52.92,51a2.77,2.77,0,0,0-5.12,1.12,8.48,8.48,0,0,1-16.37,0,2.88,2.88,0,0,0-2.24-2.37,2.83,2.83,0,0,0-2.83,1.25A5.86,5.86,0,0,1,19.83,53a5.87,5.87,0,0,1-3.55-2.56,6.57,6.57,0,0,1-.86-2.56c-.25-2-1.42-3-3.65-2.87h0a6,6,0,0,1-6.38-5.52,5.18,5.18,0,0,1,0-1.18,6.25,6.25,0,0,1,2.81-4.61,6.45,6.45,0,0,1,1.91-.85,6.35,6.35,0,0,1,1.85-.15c2.13.12,3.15-.65,3.49-2.74a6.38,6.38,0,0,1,2.31-4.09,6.31,6.31,0,0,1,2.71-1.19,6,6,0,0,1,5.93,2.18,3,3,0,0,0,2,1.27c1.5.13,2.53-.69,3-2.41A8.26,8.26,0,0,1,37,19.77a8.07,8.07,0,0,1,3.13-.4h.05a8.4,8.4,0,0,1,3.15.86c.91-.92,1.82-1.83,2.74-2.74a1.29,1.29,0,0,0-.35-2.06h0a14.43,14.43,0,0,0-2.33-.9c-.41-.12-.82-.23-1.25-.32A11.5,11.5,0,0,0,38.8,14c-.5,0-1,.1-1.35.16a13.35,13.35,0,0,0-1.39.3,24.11,24.11,0,0,0-4.79,2.4,32.83,32.83,0,0,0-3.88,3.86l-.11,0a12.75,12.75,0,0,0-5.89-1.5,10.85,10.85,0,0,0-5.18,1.27,12.41,12.41,0,0,0-5.54,6.25,1.26,1.26,0,0,1-.85.67,12.51,12.51,0,0,0-3.69,1.21,10.69,10.69,0,0,0-4,3.64c-.16.25-.33.49-.48.75A29.16,29.16,0,0,0,0,37.34v3a1.74,1.74,0,0,1,.16.41,11.45,11.45,0,0,0,9.47,9.44,1.34,1.34,0,0,1,1.13,1,11.38,11.38,0,0,0,9.47,7.32,11.54,11.54,0,0,0,7.39-1.61,14.06,14.06,0,0,0,24,0h0a11.52,11.52,0,0,0,16.91-6,1,1,0,0,1,.88-.67,11.52,11.52,0,0,0,9.39-14.41Z"/><path d="M82.39,27.43a3,3,0,0,1-.87-4.61l.15-.17q4.41-4.53,8.93-9a3,3,0,1,1,4.15,4.22c-2.92,3-5.89,5.9-8.84,8.84a2.87,2.87,0,0,1-3.49.7Z"/></g></g></svg>