<svg xmlns="http://www.w3.org/2000/svg" viewBox="0 0 68.01 67.11"><defs><style>.cls-1{fill:#0e0c0c;}</style></defs><title>clear-dayAsset 23</title><g id="Layer_2" data-name="Layer 2"><g id="Layer_1-2" data-name="Layer 1"><path class="cls-1" d="M67.77,27.58c-.16-1-.56-1-1.29-.84-2.08.37-4.17.68-6.24,1.1a2.07,2.07,0,0,1-.4,0,26.14,26.14,0,0,0-4.63-9.62,27.84,27.84,0,0,0-2.45-2.73,1.49,1.49,0,0,1,.31-.49c1-1.07,1.89-2.21,2.83-3.33s1.48-1.77,1.42-2.31-.65-1-1.85-2c-.59-.49-.89-.46-1.36.12-1.3,1.6-2.69,3.14-4,4.75a1.54,1.54,0,0,1-.65.54A26.53,26.53,0,0,0,36.11,8c.08-1.68,0-3.36,0-5,0-2.95,0-2.91-3-2.91-.8,0-1.07.19-1,1,.06,2.12,0,4.24,0,6.36a2.21,2.21,0,0,1,0,.54,26.5,26.5,0,0,0-13.48,4.87,1.94,1.94,0,0,1-.33-.32c-.88-1.11-1.8-2.18-2.71-3.26-.66-.76-1.27-2-2-2.13S12,8.26,11.1,8.85c-.58.4-.52.73-.1,1.22,1.42,1.63,2.78,3.31,4.2,4.95a4.23,4.23,0,0,1,.32.42C15,16,14.46,16.47,14,17A26.16,26.16,0,0,0,8.34,27.86l-.42,0c-1.34-.19-2.67-.51-4-.73C.51,26.57.63,26.39.05,29.48c-.19,1,.2,1.11.92,1.23,2.09.34,4.16.75,6.25,1.05a1.77,1.77,0,0,1,.42.12A26.72,26.72,0,0,0,10.13,46a1.51,1.51,0,0,1-.35.24c-1.32.7-2.59,1.49-3.89,2.24C3.24,50,3.27,50,4.86,52.65c.39.66.68.73,1.31.35,1.77-1.08,3.59-2.06,5.35-3.15a1.67,1.67,0,0,1,.71-.27c.24.34.47.7.73,1a26.58,26.58,0,0,0,9.82,7.88,1.72,1.72,0,0,1-.13.46c-.92,2.18-1.58,4.47-2.58,6.61,3.43,1.75,3.72,2,4.15.76.67-2,1.48-3.87,2.13-5.84a2.06,2.06,0,0,1,.28-.54,26.65,26.65,0,0,0,14.42.14c.48,1.56,1.06,3.1,1.6,4.64,1,2.77,1,2.74,3.79,1.74.75-.27.94-.54.64-1.32-.77-2-1.43-4-2.16-6-.05-.14-.09-.26-.12-.38a26.74,26.74,0,0,0,9.41-6.95A23.66,23.66,0,0,0,56,49.57a1.38,1.38,0,0,1,.31.17c1.2.74,2.43,1.44,3.65,2.15.88.5,1.88,1.5,2.62,1.34s1.11-1.66,1.72-2.5c.42-.57.26-.86-.31-1.18-1.88-1.07-3.73-2.2-5.61-3.26L58,46.11a26.84,26.84,0,0,0,2.53-14.22,2.26,2.26,0,0,1,.37-.11c1.33-.27,2.69-.41,4-.66C68.31,30.49,68.25,30.69,67.77,27.58Zm-24,26.58c-8.27,3.73-15.94,3.05-22.92-2l-1.65-1.25a10.32,10.32,0,0,1-1-.92,22.13,22.13,0,0,1-5.45-9.73c-2.61-9.33,1.54-20,9.44-24.42a18,18,0,0,1,9.34-3.33q9.07-.74,15.37,3.81c.35.26.69.52,1,.8s.43.34.64.53c.54.48,1.06,1,1.57,1.56l.47.52c.51.59,1,1.21,1.48,1.87.16.22.3.45.46.67,5.22,7.88,4.71,18.91-1.12,25.61A18,18,0,0,1,43.81,54.16Z"/></g></g></svg>