<svg xmlns="http://www.w3.org/2000/svg" viewBox="0 0 115.25 68.96"><defs><style>.cls-1{fill:#0a0b0b;}.cls-2{fill:#090808;}.cls-3{fill:#0e0c0c;}</style></defs><title>partly-cloudy-dayAsset 25</title><g id="Layer_2" data-name="Layer 2"><g id="Layer_1-2" data-name="Layer 1"><path class="cls-1" d="M31.27,56.19a15,15,0,0,1,3.21-7.62,13.32,13.32,0,0,1,8.11-4.64c.64-.11,1-.26,1.15-.91a27,27,0,0,1,8.2-13.51l3.55-2.68a27.51,27.51,0,0,1,12.09-3.91c10-.6,18,3.2,24,11.18a2.5,2.5,0,0,0,2.17,1.13A17.87,17.87,0,0,1,110.33,49a3.11,3.11,0,0,0,1.08,1.77c4.33,3.83,5.12,10.35,1.76,14.56a9.82,9.82,0,0,1-6.3,3.5c-1.05.18-1.52-.07-1.34-1.19a3.35,3.35,0,0,0,0-.77c-.13-1.28.17-2.11,1.74-2.12a3.68,3.68,0,0,0,2.23-1.14,6.27,6.27,0,0,0-.12-9.29,11.28,11.28,0,0,1-3.15-5.55,12.83,12.83,0,0,0-9.07-9h0a.41.41,0,0,0-.53-.21c-5.13-1.72-11.94.54-14.83,4.94a10.11,10.11,0,0,1,6,6.66c.74,2.66.75,2.66-2,2.66a2.9,2.9,0,0,0-.51,0c-.79.15-1-.25-1.1-1a6,6,0,0,0-5.63-5.14,6.33,6.33,0,0,0-6.12,4.13c-.23.65.11,1.61-.58,1.91a6.12,6.12,0,0,1-2.15.07H69.5c-1.3.29-1.34-.46-1.23-1.42a10,10,0,0,1,7.88-8.31c.56-.11,1.16-.08,1.54-.7a18.3,18.3,0,0,1,8-6.87A12.55,12.55,0,0,1,87.34,36c.68-.13.64-.37.27-.81A21.25,21.25,0,0,0,78,28.32h0a.43.43,0,0,0-.54-.22A21.44,21.44,0,0,0,65.94,27,22.89,22.89,0,0,0,47.08,46c-.19,1.25-.5,1.8-2,1.72a8.88,8.88,0,0,0-8.61,4.82,9,9,0,0,0,.1,9.51c1.16,2.31,3.18,3,5.58,3h49.9c1.93,0,1.93,0,2,1.87-.11,2-.11,2-2.15,2-16.33,0-32.67-.16-49,.07-8.33.12-11.46-6.17-11.65-11.62C31.28,57,31.28,56.57,31.27,56.19Z"/><path class="cls-2" d="M97.83,66.91c.11-1.87.11-1.87,2-1.87a2.9,2.9,0,0,0,.51,0c1.12-.21,1.56.24,1.35,1.36a2.11,2.11,0,0,0,0,.5c-.11,2-.11,2-1.83,2C97.92,68.89,97.92,68.89,97.83,66.91Z"/><path class="cls-3" d="M55,20.91a24,24,0,0,0-3.79-5.1c-.49-.49-.55-.79-.06-1.32.94-1,1.82-2.14,2.72-3.21C55.74,9,55.71,9,53.43,7.12c-.65-.54-.9-.41-1.36.17-1.25,1.57-2.6,3.05-3.83,4.62-.52.65-.86.66-1.53.21a23.42,23.42,0,0,0-11-4c-.71-.06-.93-.32-.9-1,0-1.45,0-2.89,0-4.34C34.82,0,34.82,0,32,0c-.77,0-1,.18-1,1,.06,2,0,4.09,0,6.13,0,.57,0,1-.76,1a23.64,23.64,0,0,0-11.34,4.1c-.58.39-.87.24-1.25-.24-.84-1.06-1.73-2.09-2.61-3.13-.63-.74-1.22-2-1.95-2.06S11.52,8,10.69,8.52c-.56.39-.5.7-.09,1.17,1.36,1.58,2.67,3.2,4,4.77.41.48.57.76,0,1.32A23.9,23.9,0,0,0,8.71,26c-.2.73-.53.92-1.25.77-1.41-.29-2.83-.53-4.25-.76C.5,25.57.57,25.59,0,28.39c-.17.95.2,1.07.9,1.18,2,.33,4,.72,6,1,.67.1.82.33.77,1A23.7,23.7,0,0,0,9.79,43.34c.26.58.22.86-.37,1.17-1.27.68-2.5,1.43-3.75,2.16-2.55,1.47-2.52,1.46-1,4,.37.63.65.71,1.27.33,1.7-1,3.45-2,5.15-3,.68-.42,1.05-.46,1.59.29a24.44,24.44,0,0,0,7.2,6.57c.81.51,2.17.63,2.34,1.51s-1,3.2-1.11,3.35c-.28.61,3.4,1.77,3.5,1.73.47-.16.78-2,1.18-3.06a1.83,1.83,0,0,0,.08-.25c.08-.32.24-.58.61-.48.63.16.67-.27.78-.69s.27-.88.41-1.32a1.62,1.62,0,0,1,0-.63c.46-.91-.06-1.13-.81-1.37-7.54-2.36-12.51-7.33-14.64-14.93-2.5-9,1.55-19.15,9.16-23.43A17.27,17.27,0,0,1,30.36,12c9.63-.78,16.87,3.07,21.57,11.56.29.54.54.81,1.15.42a7.44,7.44,0,0,1,1.16-.48C55.92,22.62,55.92,22.62,55,20.91Z"/></g></g></svg>