<svg xmlns="http://www.w3.org/2000/svg" viewBox="0 0 102.35 65.59"><defs><style>.cls-1{fill:none;}.cls-2{fill:#0a0b0b;}.cls-3{fill:#090808;}.cls-4{fill:#0e0c0c;}</style></defs><title>partly-cloudy-nightAsset 26</title><g id="Layer_2" data-name="Layer 2"><g id="Layer_1-2" data-name="Layer 1"><path class="cls-1" d="M39.33,14.28Q33,9.75,24,10.47c-3.24.26-9.45,3.38-9.66,3.51C6.6,18.53,2.6,29,5.17,38.21c.24.84.5,1.64.8,2.41a21.44,21.44,0,0,0,5.54,8L39.63,14.51Z"/><path class="cls-2" d="M18.37,52.82a15.06,15.06,0,0,1,3.21-7.63,13.31,13.31,0,0,1,8.11-4.63c.64-.11,1-.26,1.15-.91A27,27,0,0,1,39,26.14l3.55-2.68a27.47,27.47,0,0,1,12.09-3.91c10-.6,18,3.19,24,11.18a2.49,2.49,0,0,0,2.17,1.13A17.88,17.88,0,0,1,97.43,45.65a3.06,3.06,0,0,0,1.08,1.77c4.33,3.83,5.11,10.35,1.75,14.56A9.77,9.77,0,0,1,94,65.48c-1,.18-1.53-.07-1.34-1.2a3.29,3.29,0,0,0,0-.76c-.13-1.29.17-2.11,1.74-2.12a3.59,3.59,0,0,0,2.22-1.15A6.25,6.25,0,0,0,96.44,51a11.28,11.28,0,0,1-3.15-5.55,12.83,12.83,0,0,0-9.08-9h0a.41.41,0,0,0-.53-.21c-5.13-1.72-11.94.54-14.83,4.94a10.11,10.11,0,0,1,6,6.66c.74,2.66.75,2.66-2,2.66a2.78,2.78,0,0,0-.5,0c-.79.15-1-.25-1.1-1a6,6,0,0,0-5.63-5.14,6.32,6.32,0,0,0-6.12,4.13c-.24.65.11,1.61-.58,1.91a6.13,6.13,0,0,1-2.15.07.56.56,0,0,0-.13,0c-1.3.29-1.34-.46-1.22-1.42a10,10,0,0,1,7.88-8.31c.56-.11,1.16-.08,1.54-.7a18.33,18.33,0,0,1,8-6.87,12.68,12.68,0,0,1,1.68-.55c.67-.13.63-.37.27-.81A21.23,21.23,0,0,0,65.06,25h0a.42.42,0,0,0-.53-.22A21.55,21.55,0,0,0,53,23.65,22.91,22.91,0,0,0,34.18,42.59c-.19,1.25-.5,1.8-2,1.72a8.85,8.85,0,0,0-8.6,4.82,8.92,8.92,0,0,0,.1,9.51c1.16,2.31,3.18,3,5.58,3h49.9c1.93,0,1.93,0,2,1.86-.11,2-.11,2-2.15,2-16.33,0-32.67-.16-49,.07-8.33.12-11.46-6.17-11.65-11.63C18.37,53.58,18.37,53.2,18.37,52.82Z"/><path class="cls-3" d="M84.93,63.54c.11-1.87.11-1.87,2-1.87a2.9,2.9,0,0,0,.51,0c1.12-.21,1.56.24,1.35,1.36a2.15,2.15,0,0,0,0,.5c-.11,2-.11,2-1.83,2C85,65.52,85,65.52,84.93,63.54Z"/><path class="cls-4" d="M11.44,42.45a21.46,21.46,0,0,1-5.53-8,25.4,25.4,0,0,1-.8-2.42C2.54,22.89,6.54,12.4,14.23,7.85a22.47,22.47,0,0,1,25,.3l.29.23s3,2.14,3.52,2.68a.3.3,0,0,1,0,.08l2.48-3C45,7.5,44.42,6.9,43.8,6.34c-.25-.22-.51-.43-.77-.64s-.51-.4-.77-.59l-.46-.36A25.7,25.7,0,0,0,23.41.19a25.66,25.66,0,0,0-11.56,4.2c-9.15,5.61-14,18-10.93,29a28.26,28.26,0,0,0,3.63,8.06h0c.24.35.47.71.73,1.05A27.32,27.32,0,0,0,8.54,46h0c.29.26.59.5.9.73l1.24,1c.49.36,1,.68,1.49,1L15,45.16,27.26,30.35l-3.55-2.76Z"/><polygon class="cls-4" points="37.24 11.19 33.96 15.17 37.45 18.01 40.75 14.01 37.24 11.19"/></g></g></svg>