<svg xmlns="http://www.w3.org/2000/svg" viewBox="0 0 106.78 87.55"><defs><style>.cls-1{fill:#0a0b0b;}.cls-2{fill:#090808;}.cls-3{fill:#0e0c0c;}</style></defs><title>rain-snow-showers-dayAsset 33</title><g id="Layer_2" data-name="Layer 2"><g id="Layer_1-2" data-name="Layer 1"><path d="M53.42,77l2.65,2.51-1.82,1.66c-.94-1-2-1.91-3-3a3.4,3.4,0,0,0-3.38-1.39,7,7,0,0,1-1.13,0c0,1,0,1.94,0,2.88a1.1,1.1,0,0,0,.37.6c1.34,1.35,2.7,2.69,4.08,4.07L49.5,85.93,47,83.34l-.22.11v4.1H44.39V83.48l-.17-.08-2.5,2.71L40,84.26C41,83.18,42.1,82,43.29,81a2.84,2.84,0,0,0,1.1-2.74,12.2,12.2,0,0,1,0-1.49c-1,0-1.9,0-2.82,0a1.21,1.21,0,0,0-.67.4c-1.35,1.33-2.69,2.69-4,4l-1.76-1.78L37.76,77l-.09-.16H33.61V74.37h4.23L35,71.77l1.86-1.88c1.32,1.33,2.65,2.62,3.94,4a1.46,1.46,0,0,0,1.24.52c.75,0,1.5,0,2.36,0,0-1,0-2,0-3,0-.18-.24-.37-.4-.52-1.34-1.35-2.69-2.68-4-4L41.7,65l2.66,2.84V63.56h2.42v4.27L49.46,65l1.9,1.94c-.39.31-.81.61-1.19,1-.55.51-1.07,1.06-1.6,1.59-2,2-2,2-1.74,4.88,1,0,1.92,0,2.89,0,.2,0,.41-.25.59-.41L54.2,70a.93.93,0,0,1,.17-.1L56,71.74l-2.57,2.39.14.21h4v2.39h-4Z"/><path d="M91.31,66.79a1.88,1.88,0,0,1,.11,2.63h0c-1.62,1.67-3.27,3.31-4.92,4.94A1.7,1.7,0,1,1,84.05,72c1.66-1.69,3.35-3.37,5-5a1.53,1.53,0,0,1,2-.38Z"/><path d="M71.08,66.88a1.82,1.82,0,0,1,.09,2.47h0q-2.49,2.55-5,5A1.69,1.69,0,1,1,63.71,72c1.68-1.72,3.39-3.41,5.1-5.11a1.49,1.49,0,0,1,1.91-.34A2,2,0,0,1,71.08,66.88Z"/><path d="M91.31,77.87a1.88,1.88,0,0,1,.11,2.63h0c-1.62,1.67-3.27,3.31-4.92,4.94a1.7,1.7,0,1,1-2.44-2.35c1.66-1.69,3.35-3.37,5-5a1.54,1.54,0,0,1,2-.37Z"/><path d="M71.08,78a1.82,1.82,0,0,1,.09,2.47h0c-1.66,1.71-3.34,3.39-5,5.06a1.69,1.69,0,1,1-2.41-2.37c1.68-1.72,3.39-3.41,5.1-5.11a1.49,1.49,0,0,1,1.91-.34A2,2,0,0,1,71.08,78Z"/><path class="cls-1" d="M26.42,49.8a14.4,14.4,0,0,1,3.07-7.3,12.76,12.76,0,0,1,7.76-4.43c.61-.1,1-.25,1.1-.87A25.75,25.75,0,0,1,46.2,24.27l3.4-2.57A26.37,26.37,0,0,1,61.17,18c9.59-.57,17.24,3.06,23,10.7a2.37,2.37,0,0,0,2.07,1.08,17.1,17.1,0,0,1,15.84,13.2,3,3,0,0,0,1,1.69c4.15,3.66,4.9,9.91,1.68,13.93a9.38,9.38,0,0,1-6,3.36c-1,.17-1.46-.08-1.28-1.15a3,3,0,0,0,0-.73c-.12-1.23.16-2,1.67-2a3.49,3.49,0,0,0,2.12-1.1,6,6,0,0,0-.1-8.88,10.73,10.73,0,0,1-3-5.31,12.31,12.31,0,0,0-8.68-8.6h0c-.1-.22-.29-.24-.5-.2-4.91-1.64-11.43.52-14.2,4.74A9.61,9.61,0,0,1,80.42,45c.71,2.55.72,2.55-1.91,2.55a2.67,2.67,0,0,0-.49,0c-.75.14-.94-.24-1-.92a5.73,5.73,0,0,0-5.39-4.92,6,6,0,0,0-5.85,3.94c-.23.62.1,1.54-.56,1.83a5.79,5.79,0,0,1-2.05.07H63c-1.25.28-1.29-.44-1.17-1.36a9.59,9.59,0,0,1,7.54-8c.53-.1,1.11-.07,1.47-.67A17.52,17.52,0,0,1,78.47,31a13,13,0,0,1,1.6-.53c.65-.12.61-.36.26-.78a20.32,20.32,0,0,0-9.23-6.58h0c-.1-.23-.3-.25-.51-.21a20.63,20.63,0,0,0-11-1A21.9,21.9,0,0,0,41.55,40c-.18,1.19-.48,1.72-1.92,1.65a8.49,8.49,0,0,0-8.24,4.61,8.57,8.57,0,0,0,.1,9.1c1.11,2.21,3,2.89,5.34,2.89H84.58c1.85,0,1.85,0,2,1.78C86.42,62,86.42,62,84.47,62c-15.63,0-31.26-.15-46.88.07-8,.12-11-5.9-11.15-11.12C26.42,50.53,26.42,50.16,26.42,49.8Z"/><path class="cls-2" d="M90.11,60.06c.1-1.8.1-1.8,1.93-1.8a2.67,2.67,0,0,0,.49,0c1.07-.2,1.49.23,1.3,1.3a2,2,0,0,0,0,.48C93.76,62,93.76,62,92.11,62,90.19,62,90.19,62,90.11,60.06Z"/><path class="cls-3" d="M47.69,18.15a20.35,20.35,0,0,0-3.28-4.43c-.42-.42-.48-.69-.06-1.15.83-.89,1.58-1.85,2.37-2.78,1.66-2,1.63-1.95-.35-3.61-.56-.47-.78-.36-1.18.15-1.08,1.36-2.26,2.64-3.32,4-.45.57-.75.58-1.34.19A20.21,20.21,0,0,0,31,7.08c-.61,0-.8-.28-.78-.89,0-1.25,0-2.51,0-3.76C30.22,0,30.22,0,27.73,0c-.67,0-.9.16-.88.85,0,1.77,0,3.55,0,5.32,0,.49,0,.84-.66.89a20.65,20.65,0,0,0-9.85,3.56c-.5.34-.75.21-1.07-.2C14.56,9.49,13.79,8.6,13,7.7,12.48,7.06,12,6,11.34,5.91S10,6.91,9.28,7.4c-.49.33-.44.6-.08,1,1.18,1.37,2.32,2.78,3.5,4.14.35.41.49.66,0,1.14a20.7,20.7,0,0,0-5.16,8.88c-.18.63-.46.79-1.08.66C5.25,23,4,22.77,2.79,22.57.44,22.19.5,22.21,0,24.64c-.16.83.17.92.77,1,1.74.29,3.48.63,5.22.89.59.08.72.29.67.85A20.6,20.6,0,0,0,8.5,37.61c.23.51.18.75-.32,1C7.07,39.22,6,39.87,4.92,40.5c-2.21,1.28-2.19,1.27-.86,3.5.33.55.57.61,1.1.29,1.48-.9,3-1.72,4.47-2.63.6-.36.92-.39,1.38.26a21.28,21.28,0,0,0,6.25,5.7c.71.44,1.88.55,2,1.31s-.9,2.78-1,2.91c-.24.52,3,1.53,3,1.5.4-.14.67-1.7,1-2.66a1.72,1.72,0,0,0,.07-.21c.07-.28.2-.51.53-.42.54.14.58-.24.68-.6s.23-.77.35-1.15a1.59,1.59,0,0,1,0-.54c.4-.79-.06-1-.7-1.19a18,18,0,0,1-12.71-13C8.47,25.82,12,17,18.59,13.27a14.87,14.87,0,0,1,7.76-2.84c8.36-.69,14.64,2.66,18.72,10,.25.46.46.7,1,.36a6.92,6.92,0,0,1,1-.42C48.53,19.63,48.53,19.63,47.69,18.15Z"/></g></g></svg>