<svg xmlns="http://www.w3.org/2000/svg" viewBox="0 0 78.36 67.71"><defs><style>.cls-1{fill:#0a0b0b;}.cls-2{fill:#090808;}</style></defs><title>rain Asset 28</title><g id="Layer_2" data-name="Layer 2"><g id="Layer_1-2" data-name="Layer 1"><path d="M63.46,48.41a1.89,1.89,0,0,1,.11,2.64h0c-1.62,1.66-3.27,3.3-4.92,4.93a1.7,1.7,0,0,1-2.53.13,1.67,1.67,0,0,1,.09-2.47c1.66-1.7,3.35-3.38,5-5a1.53,1.53,0,0,1,2-.38Z"/><path d="M43.23,48.51A1.81,1.81,0,0,1,43.32,51h0q-2.49,2.55-5,5.05a1.69,1.69,0,1,1-2.41-2.37c1.68-1.72,3.39-3.41,5.1-5.1a1.5,1.5,0,0,1,1.91-.35A2,2,0,0,1,43.23,48.51Z"/><path d="M14.87,54.84a5.15,5.15,0,0,1,.63-1.13q2.52-2.6,5.1-5.11a1.67,1.67,0,0,1,2.47-.06A1.65,1.65,0,0,1,23,51c-1.66,1.7-3.35,3.37-5,5a1.64,1.64,0,0,1-2,.4A1.86,1.86,0,0,1,14.87,54.84Z"/><path d="M63.46,59.49a1.89,1.89,0,0,1,.11,2.64h0c-1.62,1.66-3.27,3.3-4.92,4.93a1.7,1.7,0,0,1-2.53.13,1.67,1.67,0,0,1,.09-2.47c1.66-1.7,3.35-3.38,5-5.05a1.53,1.53,0,0,1,2-.38Z"/><path d="M43.23,59.59a1.81,1.81,0,0,1,.09,2.46h0q-2.49,2.55-5,5a1.69,1.69,0,1,1-2.41-2.37c1.68-1.72,3.39-3.41,5.1-5.1a1.5,1.5,0,0,1,1.91-.35A2,2,0,0,1,43.23,59.59Z"/><path d="M14.87,65.92a5.15,5.15,0,0,1,.63-1.13q2.52-2.6,5.1-5.11A1.69,1.69,0,1,1,23,62.08c-1.66,1.7-3.35,3.37-5,5a1.64,1.64,0,0,1-2,.4A1.86,1.86,0,0,1,14.87,65.92Z"/><path class="cls-1" d="M0,31.1A14,14,0,0,1,3,24a12.39,12.39,0,0,1,7.57-4.33c.59-.1.92-.24,1.06-.85a25.25,25.25,0,0,1,7.66-12.6l3.31-2.5A25.59,25.59,0,0,1,33.88.06C43.24-.5,50.69,3,56.31,10.49a2.31,2.31,0,0,0,2,1A16.67,16.67,0,0,1,73.77,24.41a2.85,2.85,0,0,0,1,1.65c4,3.58,4.77,9.66,1.64,13.59a9.23,9.23,0,0,1-5.88,3.27c-1,.17-1.42-.07-1.25-1.12a3.41,3.41,0,0,0,0-.71c-.12-1.2.16-2,1.62-2A3.48,3.48,0,0,0,73,38a5.84,5.84,0,0,0-.11-8.66,10.52,10.52,0,0,1-2.94-5.18,12,12,0,0,0-8.47-8.38h0a.4.4,0,0,0-.5-.19c-4.78-1.6-11.14.51-13.84,4.62a9.38,9.38,0,0,1,5.56,6.21c.69,2.48.7,2.48-1.87,2.48a2.46,2.46,0,0,0-.47,0c-.74.14-.92-.24-1-.9A5.61,5.61,0,0,0,44,23.23a5.91,5.91,0,0,0-5.71,3.85c-.22.61.1,1.5-.54,1.78a5.53,5.53,0,0,1-2,.07h-.12c-1.21.27-1.25-.43-1.14-1.33a9.34,9.34,0,0,1,7.35-7.75c.52-.1,1.08-.07,1.44-.65a17,17,0,0,1,7.44-6.41,12.41,12.41,0,0,1,1.56-.52c.63-.12.59-.35.25-.76a19.89,19.89,0,0,0-9-6.41h0c-.1-.22-.29-.24-.5-.21a20.09,20.09,0,0,0-10.72-1,21.39,21.39,0,0,0-17.6,17.67c-.17,1.16-.46,1.67-1.87,1.6a8.28,8.28,0,0,0-8,4.5A8.33,8.33,0,0,0,5,36.54c1.07,2.15,3,2.81,5.2,2.81H56.71c1.81,0,1.81,0,1.91,1.74-.11,1.87-.11,1.87-2,1.87-15.24,0-30.48-.16-45.72.06C3.11,43.13.19,37.26,0,32.17,0,31.82,0,31.46,0,31.1Z"/><path class="cls-2" d="M62.11,41.1c.1-1.74.1-1.74,1.88-1.74a2.57,2.57,0,0,0,.48,0c1-.19,1.45.22,1.26,1.27a1.52,1.52,0,0,0,0,.47C65.67,43,65.67,43,64.06,43,62.19,43,62.19,43,62.11,41.1Z"/></g></g></svg>