<svg xmlns="http://www.w3.org/2000/svg" viewBox="0 0 78.36 69.91"><defs><style>.cls-1{fill:#0a0b0b;}.cls-2{fill:#090808;}</style></defs><title>rain-snowAsset 32</title><g id="Layer_2" data-name="Layer 2"><g id="Layer_1-2" data-name="Layer 1"><path class="cls-1" d="M0,31.1A14,14,0,0,1,3,24a12.39,12.39,0,0,1,7.57-4.33c.59-.1.92-.24,1.06-.85a25.25,25.25,0,0,1,7.66-12.6l3.31-2.5A25.59,25.59,0,0,1,33.88.06C43.24-.5,50.69,3,56.31,10.49a2.31,2.31,0,0,0,2,1A16.67,16.67,0,0,1,73.77,24.41a2.85,2.85,0,0,0,1,1.65c4,3.58,4.77,9.66,1.64,13.59a9.23,9.23,0,0,1-5.88,3.27c-1,.17-1.42-.07-1.25-1.12a3.41,3.41,0,0,0,0-.71c-.12-1.2.16-2,1.62-2A3.48,3.48,0,0,0,73,38a5.84,5.84,0,0,0-.11-8.66,10.52,10.52,0,0,1-2.94-5.18,12,12,0,0,0-8.47-8.38h0a.4.4,0,0,0-.5-.19c-4.78-1.6-11.14.51-13.84,4.62a9.38,9.38,0,0,1,5.56,6.21c.69,2.48.7,2.48-1.87,2.48a2.46,2.46,0,0,0-.47,0c-.74.14-.92-.24-1-.9A5.61,5.61,0,0,0,44,23.23a5.91,5.91,0,0,0-5.71,3.85c-.22.61.1,1.5-.54,1.78a5.53,5.53,0,0,1-2,.07h-.12c-1.21.27-1.25-.43-1.14-1.33a9.34,9.34,0,0,1,7.35-7.75c.52-.1,1.08-.07,1.44-.65a17,17,0,0,1,7.44-6.41,12.41,12.41,0,0,1,1.56-.52c.63-.12.59-.35.25-.76a19.89,19.89,0,0,0-9-6.41h0c-.1-.22-.29-.24-.5-.21a20.09,20.09,0,0,0-10.72-1,21.39,21.39,0,0,0-17.6,17.67c-.17,1.16-.46,1.67-1.87,1.6a8.28,8.28,0,0,0-8,4.5A8.33,8.33,0,0,0,5,36.54c1.07,2.15,3,2.81,5.2,2.81H56.71c1.81,0,1.81,0,1.91,1.74-.11,1.87-.11,1.87-2,1.87-15.24,0-30.48-.16-45.72.06C3.11,43.13.19,37.26,0,32.17,0,31.82,0,31.46,0,31.1Z"/><path class="cls-2" d="M62.11,41.1c.1-1.74.1-1.74,1.88-1.74a2.57,2.57,0,0,0,.48,0c1-.19,1.45.22,1.26,1.27a1.52,1.52,0,0,0,0,.47C65.67,43,65.67,43,64.06,43,62.19,43,62.19,43,62.11,41.1Z"/><path d="M26.08,59.33l2.65,2.51L26.91,63.5c-.94-1-2-1.91-2.95-3a3.4,3.4,0,0,0-3.38-1.39,7,7,0,0,1-1.13,0c0,1,0,1.94,0,2.88a1.1,1.1,0,0,0,.37.6c1.34,1.35,2.7,2.69,4.08,4.07l-1.76,1.63L19.69,65.7l-.21.11v4.1H17.05V65.84l-.17-.08-2.5,2.71-1.76-1.85c1.08-1.08,2.14-2.25,3.33-3.28a2.87,2.87,0,0,0,1.11-2.74,10.39,10.39,0,0,1,0-1.49c-1,0-1.9,0-2.82,0a1.21,1.21,0,0,0-.67.4c-1.35,1.33-2.69,2.69-4.05,4L7.74,61.8l2.68-2.49-.09-.16H6.27V56.73H10.5l-2.87-2.6,1.86-1.88c1.32,1.33,2.65,2.62,3.94,4a1.47,1.47,0,0,0,1.24.52c.75,0,1.5,0,2.36,0,0-1,0-2,0-3,0-.18-.24-.37-.4-.52-1.34-1.35-2.69-2.68-4-4l1.76-1.83L17,50.21V45.92h2.42v4.27l2.68-2.85L24,49.28c-.39.31-.81.61-1.19,1-.55.51-1.07,1.06-1.6,1.59-2,2-2,2-1.74,4.88,1,0,1.92,0,2.89,0,.2,0,.42-.25.59-.41l3.89-3.88a.93.93,0,0,1,.17-.1l1.58,1.8L26,56.49l.14.21h4.05v2.39H26.18Z"/><path d="M64,49.15a1.88,1.88,0,0,1,.11,2.63v0c-1.62,1.66-3.27,3.3-4.92,4.93a1.7,1.7,0,1,1-2.44-2.35c1.66-1.69,3.35-3.37,5-5a1.53,1.53,0,0,1,2-.38A2.23,2.23,0,0,1,64,49.15Z"/><path d="M43.74,49.25a1.81,1.81,0,0,1,.09,2.46h0q-2.49,2.55-5,5.05a1.69,1.69,0,1,1-2.41-2.37c1.68-1.72,3.39-3.41,5.1-5.11A1.49,1.49,0,0,1,43.38,49,1.69,1.69,0,0,1,43.74,49.25Z"/><path d="M64,60.23a1.88,1.88,0,0,1,.11,2.63h0c-1.62,1.67-3.27,3.31-4.92,4.94a1.7,1.7,0,1,1-2.44-2.35c1.66-1.69,3.35-3.37,5-5a1.54,1.54,0,0,1,2-.37A2.23,2.23,0,0,1,64,60.23Z"/><path d="M43.74,60.32a1.82,1.82,0,0,1,.09,2.47h0c-1.66,1.71-3.34,3.39-5,5.06a1.69,1.69,0,1,1-2.41-2.37c1.68-1.72,3.39-3.41,5.1-5.11A1.49,1.49,0,0,1,43.38,60,2,2,0,0,1,43.74,60.32Z"/></g></g></svg>