<svg xmlns="http://www.w3.org/2000/svg" viewBox="0 0 92.14 85.09"><defs><style>.cls-1{fill:none;}.cls-2{fill:#0a0b0b;}.cls-3{fill:#090808;}.cls-4{fill:#0e0c0c;}</style></defs><title>rain-snow-showers-nightAsset 34</title><g id="Layer_2" data-name="Layer 2"><g id="Layer_1-2" data-name="Layer 1"><path class="cls-1" d="M35.41,12.85Q29.74,8.77,21.57,9.43c-2.91.23-8.51,3-8.7,3.15C6,16.68,2.34,26.12,4.66,34.4c.21.75.45,1.47.72,2.17a19.18,19.18,0,0,0,5,7.16L35.67,13.06Z"/><path class="cls-2" d="M16.54,47.55a13.35,13.35,0,0,1,2.89-6.86,11.94,11.94,0,0,1,7.3-4.18c.57-.09.89-.24,1-.82a24.35,24.35,0,0,1,7.38-12.16l3.2-2.41A24.6,24.6,0,0,1,49.23,17.6c9-.54,16.21,2.87,21.63,10.06a2.24,2.24,0,0,0,2,1,16.11,16.11,0,0,1,14.9,12.41,2.69,2.69,0,0,0,1,1.59c3.9,3.45,4.6,9.33,1.58,13.11A8.9,8.9,0,0,1,84.59,59c-.94.16-1.37-.07-1.21-1.08a2.59,2.59,0,0,0,0-.68c-.12-1.17.15-1.9,1.57-1.92a3.27,3.27,0,0,0,2-1,5.63,5.63,0,0,0-.1-8.35,10.19,10.19,0,0,1-2.84-5,11.57,11.57,0,0,0-8.17-8.08h0a.38.38,0,0,0-.48-.19c-4.62-1.54-10.75.49-13.35,4.45a9.08,9.08,0,0,1,5.36,6c.67,2.39.68,2.39-1.8,2.39a3.53,3.53,0,0,0-.46,0c-.71.13-.89-.23-1-.87A5.41,5.41,0,0,0,59,40a5.67,5.67,0,0,0-5.5,3.71c-.22.58.09,1.45-.53,1.72a5.61,5.61,0,0,1-1.93.06.4.4,0,0,0-.11,0c-1.17.26-1.21-.41-1.1-1.28a9,9,0,0,1,7.09-7.48c.5-.09,1-.07,1.39-.63a16.43,16.43,0,0,1,7.17-6.18,11.61,11.61,0,0,1,1.51-.5c.61-.11.57-.33.24-.73a19.11,19.11,0,0,0-8.68-6.19h0a.4.4,0,0,0-.48-.2,19.4,19.4,0,0,0-10.34-1,20.61,20.61,0,0,0-17,17.05C30.6,39.46,30.32,40,29,39.89a8,8,0,0,0-7.75,4.34,8.06,8.06,0,0,0,.1,8.56c1,2.08,2.86,2.72,5,2.72H71.25c1.74,0,1.74,0,1.84,1.68C73,59,73,59,71.15,59c-14.7,0-29.41-.15-44.11.07-7.5.11-10.32-5.56-10.49-10.47C16.54,48.24,16.54,47.89,16.54,47.55Z"/><path class="cls-3" d="M76.45,57.2c.1-1.69.1-1.69,1.82-1.69a2.36,2.36,0,0,0,.46,0c1-.19,1.41.21,1.22,1.22a1.73,1.73,0,0,0,0,.45c-.09,1.8-.09,1.8-1.64,1.8C76.53,59,76.53,59,76.45,57.2Z"/><path class="cls-4" d="M10.3,38.21a19.33,19.33,0,0,1-5-7.16c-.27-.69-.51-1.42-.72-2.17C2.29,20.6,5.89,11.17,12.81,7.07a20.22,20.22,0,0,1,22.54.27l.26.2S38.35,9.47,38.78,10a.11.11,0,0,1,0,.07l2.24-2.71a22.35,22.35,0,0,0-1.62-1.61c-.22-.2-.46-.39-.69-.58s-.46-.36-.7-.53l-.41-.32A23.14,23.14,0,0,0,21.07.17,23.06,23.06,0,0,0,10.67,4C2.43,9-1.94,20.15.83,30.06A25.2,25.2,0,0,0,4.1,37.32h0c.22.31.43.63.66.94a24,24,0,0,0,2.89,3.12h0A10.15,10.15,0,0,0,8.5,42l1.11.86c.45.32.9.61,1.34.9l2.59-3.13,11-13.34-3.2-2.48Z"/><polygon class="cls-4" points="33.53 10.07 30.57 13.65 33.71 16.21 36.69 12.61 33.53 10.07"/><path d="M39.34,74.51,42,77l-1.82,1.66c-.94-1-2-1.91-3-3a3.4,3.4,0,0,0-3.38-1.39,7,7,0,0,1-1.13,0c0,1,0,1.94,0,2.88a1.07,1.07,0,0,0,.38.6c1.34,1.35,2.69,2.69,4.07,4.07l-1.76,1.63L33,80.88l-.21.11v4.1H30.32V81l-.18-.08-2.49,2.71L25.88,81.8C27,80.72,28,79.55,29.22,78.52a2.86,2.86,0,0,0,1.1-2.74,10.47,10.47,0,0,1,0-1.49c-1,0-1.91,0-2.83,0a1.21,1.21,0,0,0-.67.4c-1.35,1.33-2.69,2.69-4,4.05L21,77l2.68-2.49-.09-.16H19.53V71.91h4.24l-2.87-2.6,1.85-1.87c1.33,1.32,2.65,2.61,3.94,3.94a1.48,1.48,0,0,0,1.24.52c.75,0,1.5,0,2.37,0,0-1,0-2,0-3,0-.18-.24-.37-.39-.52-1.35-1.35-2.7-2.68-4-4l1.77-1.83,2.66,2.84V61.11H32.7v4.26l2.68-2.85,1.9,1.94c-.39.31-.81.61-1.19,1-.55.52-1.07,1.06-1.6,1.59-2,2-2,2-1.74,4.88,1,0,1.93,0,2.89,0,.2,0,.42-.24.59-.41l3.89-3.88a.8.8,0,0,1,.18-.1l1.58,1.8-2.58,2.4.14.2H43.5v2.39H39.44Z"/><path d="M77.23,64.33A1.88,1.88,0,0,1,77.34,67h0q-2.43,2.49-4.92,4.93A1.7,1.7,0,1,1,70,69.56c1.67-1.69,3.36-3.37,5-5a1.53,1.53,0,0,1,2-.38A1.55,1.55,0,0,1,77.23,64.33Z"/><path d="M57,64.43a1.81,1.81,0,0,1,.09,2.46h0c-1.65,1.7-3.34,3.38-5,5a1.68,1.68,0,0,1-2.47.11,1.7,1.7,0,0,1,.06-2.48c1.68-1.72,3.39-3.41,5.1-5.1a1.5,1.5,0,0,1,1.92-.35A1.93,1.93,0,0,1,57,64.43Z"/><path d="M77.23,75.41A1.86,1.86,0,0,1,77.34,78v0Q74.9,80.55,72.41,83A1.7,1.7,0,1,1,70,80.64c1.67-1.69,3.36-3.37,5-5a1.53,1.53,0,0,1,2-.38A1.55,1.55,0,0,1,77.23,75.41Z"/><path d="M57,75.51A1.81,1.81,0,0,1,57.09,78h0c-1.65,1.7-3.34,3.38-5,5a1.68,1.68,0,0,1-2.47.11,1.7,1.7,0,0,1,.06-2.48c1.68-1.72,3.39-3.41,5.1-5.11a1.51,1.51,0,0,1,1.92-.34A1.93,1.93,0,0,1,57,75.51Z"/></g></g></svg>