<svg xmlns="http://www.w3.org/2000/svg" viewBox="0 0 111.52 91.22"><defs><style>.cls-1{fill:#0a0b0b;}.cls-2{fill:#090808;}.cls-3{fill:#0e0c0c;}</style></defs><title>showers-dayAsset 29</title><g id="Layer_2" data-name="Layer 2"><g id="Layer_1-2" data-name="Layer 1"><path d="M94.73,71.92a1.9,1.9,0,0,1,.11,2.64h0c-1.62,1.67-3.27,3.31-4.92,4.94a1.69,1.69,0,0,1-2.53.12,1.67,1.67,0,0,1,.09-2.47c1.67-1.7,3.35-3.37,5-5a1.54,1.54,0,0,1,2-.37A1.5,1.5,0,0,1,94.73,71.92Z"/><path d="M74.5,72a1.81,1.81,0,0,1,.09,2.46h0q-2.49,2.57-5,5.05a1.69,1.69,0,1,1-2.41-2.36c1.68-1.72,3.39-3.42,5.1-5.11a1.48,1.48,0,0,1,1.91-.34A2,2,0,0,1,74.5,72Z"/><path d="M46.14,78.35a5.15,5.15,0,0,1,.63-1.13q2.52-2.58,5.1-5.11a1.69,1.69,0,1,1,2.37,2.41c-1.67,1.69-3.36,3.37-5.05,5a1.63,1.63,0,0,1-2,.4A1.85,1.85,0,0,1,46.14,78.35Z"/><path d="M94.73,83a1.9,1.9,0,0,1,.11,2.64h0c-1.62,1.67-3.27,3.31-4.92,4.94a1.69,1.69,0,0,1-2.53.12,1.67,1.67,0,0,1,.09-2.47c1.67-1.7,3.35-3.37,5-5a1.52,1.52,0,0,1,2-.37A1.08,1.08,0,0,1,94.73,83Z"/><path d="M74.5,83.1a1.81,1.81,0,0,1,.09,2.46h0q-2.49,2.57-5,5.05a1.69,1.69,0,1,1-2.41-2.36c1.68-1.72,3.39-3.42,5.1-5.11a1.48,1.48,0,0,1,1.91-.34A2,2,0,0,1,74.5,83.1Z"/><path d="M46.14,89.43a5.15,5.15,0,0,1,.63-1.13q2.52-2.58,5.1-5.11a1.69,1.69,0,1,1,2.37,2.41c-1.67,1.69-3.36,3.37-5.05,5a1.63,1.63,0,0,1-2,.4A1.85,1.85,0,0,1,46.14,89.43Z"/><path class="cls-1" d="M30.26,54.37A14.44,14.44,0,0,1,33.37,47a12.86,12.86,0,0,1,7.85-4.49c.61-.1,1-.26,1.1-.88a26.12,26.12,0,0,1,7.94-13.07L53.7,26a26.53,26.53,0,0,1,11.7-3.78C75.1,21.6,82.83,25.27,88.65,33a2.4,2.4,0,0,0,2.1,1.1,17.28,17.28,0,0,1,16,13.34,2.92,2.92,0,0,0,1,1.71c4.19,3.71,5,10,1.7,14.09a9.51,9.51,0,0,1-6.1,3.39c-1,.18-1.47-.07-1.29-1.15a3.72,3.72,0,0,0,0-.74c-.13-1.25.16-2,1.69-2.05a3.57,3.57,0,0,0,2.15-1.11,6.06,6.06,0,0,0-.11-9,11,11,0,0,1-3.06-5.38A12.41,12.41,0,0,0,94,38.52h0a.39.39,0,0,0-.51-.2c-5-1.66-11.56.52-14.35,4.78a9.77,9.77,0,0,1,5.76,6.44c.72,2.58.73,2.58-1.94,2.58a2.67,2.67,0,0,0-.49,0c-.76.14-1-.25-1.06-.94a5.82,5.82,0,0,0-5.45-5,6.11,6.11,0,0,0-5.92,4c-.23.63.11,1.56-.56,1.85a6,6,0,0,1-2.08.07h-.12c-1.26.28-1.3-.45-1.19-1.38a9.73,9.73,0,0,1,7.63-8c.54-.1,1.12-.07,1.49-.67a17.72,17.72,0,0,1,7.71-6.65,12.25,12.25,0,0,1,1.62-.53c.66-.13.62-.37.26-.79a20.51,20.51,0,0,0-9.33-6.66h0c-.1-.23-.3-.25-.51-.21a20.88,20.88,0,0,0-11.12-1A22.16,22.16,0,0,0,45.56,44.47c-.18,1.21-.48,1.74-1.94,1.67a8.59,8.59,0,0,0-8.33,4.67,8.64,8.64,0,0,0,.1,9.2c1.12,2.23,3.07,2.92,5.4,2.92H89.07c1.87,0,1.87,0,2,1.8-.11,1.93-.11,1.93-2.08,1.93-15.81,0-31.61-.16-47.41.07-8.07.12-11.1-6-11.28-11.25C30.27,55.11,30.27,54.74,30.26,54.37Z"/><path class="cls-2" d="M94.67,64.74c.1-1.81.1-1.81,2-1.81a2.67,2.67,0,0,0,.49,0c1.09-.2,1.51.23,1.31,1.31a2.7,2.7,0,0,0,0,.49c-.1,1.94-.1,1.94-1.77,1.94C94.75,66.67,94.75,66.67,94.67,64.74Z"/><path class="cls-3" d="M53.18,20.24a23.06,23.06,0,0,0-3.67-4.94c-.47-.47-.52-.77-.06-1.28.92-1,1.76-2.07,2.64-3.11,1.85-2.2,1.82-2.17-.39-4-.62-.52-.87-.4-1.32.17-1.2,1.51-2.51,2.94-3.7,4.46-.5.64-.83.64-1.49.21A22.49,22.49,0,0,0,34.56,7.9c-.69-.07-.9-.32-.88-1,0-1.4,0-2.8,0-4.2C33.69,0,33.69,0,30.92,0c-.75,0-1,.17-1,1,.06,2,0,4,0,5.93,0,.55,0,.94-.74,1a22.91,22.91,0,0,0-11,4c-.56.38-.84.23-1.21-.22-.81-1-1.67-2-2.53-3-.61-.72-1.18-1.91-1.88-2S11.15,7.7,10.35,8.25c-.54.37-.49.67-.1,1.13,1.32,1.53,2.59,3.09,3.91,4.62.39.45.55.73,0,1.27a23,23,0,0,0-5.76,9.89c-.2.71-.52.89-1.21.74-1.36-.28-2.74-.51-4.11-.73C.49,24.75.55,24.77,0,27.47c-.17.92.19,1,.87,1.14,1.94.32,3.87.71,5.82,1,.65.09.79.32.74.95a22.9,22.9,0,0,0,2,11.39c.25.56.2.83-.36,1.13-1.23.66-2.42,1.39-3.63,2.09-2.47,1.43-2.44,1.41-1,3.9.36.61.63.68,1.22.32,1.65-1,3.35-1.92,5-2.92.66-.41,1-.45,1.54.28a23.68,23.68,0,0,0,7,6.36c.78.49,2.09.61,2.26,1.46s-1,3.09-1.07,3.24c-.27.58,3.29,1.71,3.39,1.68.45-.16.75-1.9,1.14-3a2.17,2.17,0,0,0,.07-.24c.08-.31.23-.56.59-.47.61.16.65-.26.76-.66s.26-.86.39-1.28c0-.21-.05-.45,0-.61.44-.88-.07-1.1-.79-1.32-7.29-2.29-12.1-7.09-14.16-14.46C9.44,28.79,13.36,19,20.72,14.8a16.82,16.82,0,0,1,8.65-3.18c9.33-.76,16.33,3,20.88,11.19.29.52.52.78,1.11.41a6.47,6.47,0,0,1,1.12-.47C54.11,21.89,54.11,21.89,53.18,20.24Z"/></g></g></svg>