<svg xmlns="http://www.w3.org/2000/svg" viewBox="0 0 78.63 57.1"><title>sleetAsset 31</title><g id="Layer_2" data-name="Layer 2"><g id="Layer_1-2" data-name="Layer 1"><path d="M71.5,17.71c0,3.23,0,6.46,0,9.69a1.25,1.25,0,0,0,.59,1.16c5.35,4.14,7.6,9.59,6.1,16.18S72.37,55.25,65.82,56.63a15.52,15.52,0,0,1-18.3-13.12c-.8-6.16,1.39-11.14,6.31-14.9a1.36,1.36,0,0,0,.63-1.24q0-9.42,0-18.83A8.51,8.51,0,0,1,71.18,6.29a9.13,9.13,0,0,1,.31,2.27C71.52,11.61,71.5,14.66,71.5,17.71Zm-2.84.91v-10a5.69,5.69,0,1,0-11.37.16c0,6.48,0,13,0,19.44A2.38,2.38,0,0,1,56,30.57a12.75,12.75,0,0,0,10.21,23,12.17,12.17,0,0,0,9.29-10.23c.92-5.4-1.15-9.74-5.67-12.83a2.41,2.41,0,0,1-1.22-2.25C68.7,25.07,68.66,21.84,68.66,18.62Z"/><path d="M36.67,15.92l3.14,3-2.15,2c-1.11-1.11-2.41-2.25-3.5-3.55a4,4,0,0,0-4-1.63,9.8,9.8,0,0,1-1.34,0c0,1.17,0,2.28,0,3.4a1.32,1.32,0,0,0,.45.71c1.58,1.59,3.18,3.17,4.81,4.8L32,26.51l-2.91-3.06-.26.13v4.83H26v-4.8l-.2-.09-2.95,3.19-2.08-2.18c1.28-1.27,2.53-2.66,3.93-3.87A3.36,3.36,0,0,0,26,17.42a12.55,12.55,0,0,1,0-1.75c-1.16,0-2.25,0-3.33,0a1.39,1.39,0,0,0-.79.47c-1.6,1.58-3.18,3.17-4.79,4.79L15,18.85l3.16-3-.1-.19h-4.8V12.86h5L14.89,9.78l2.19-2.21c1.56,1.56,3.13,3.09,4.65,4.66a1.73,1.73,0,0,0,1.47.61c.88-.05,1.77,0,2.79,0,0-1.19,0-2.36,0-3.53,0-.21-.28-.43-.46-.61L20.76,4,22.84,1.8,26,5.16V.1h2.85v5L32,1.76l2.24,2.3c-.46.37-1,.72-1.41,1.14-.65.6-1.26,1.25-1.89,1.87-2.3,2.31-2.3,2.31-2.05,5.76,1.13,0,2.27,0,3.41,0,.24,0,.49-.28.7-.48l4.59-4.58a1.07,1.07,0,0,1,.21-.12l1.87,2.13-3,2.83.16.24h4.79v2.82H36.79Z"/><path d="M23.9,44.35l3.2,3-2.2,2c-1.13-1.14-2.45-2.3-3.57-3.63a4.11,4.11,0,0,0-4.07-1.67,8.66,8.66,0,0,1-1.36,0c0,1.2,0,2.34,0,3.48a1.37,1.37,0,0,0,.45.72c1.62,1.63,3.25,3.25,4.92,4.9l-2.12,2-3-3.13-.26.13V57.1H13V52.2l-.21-.1-3,3.27L7.66,53.14c1.31-1.3,2.59-2.72,4-4A3.41,3.41,0,0,0,13,45.88a13.25,13.25,0,0,1,0-1.79c-1.19,0-2.3,0-3.41,0a1.44,1.44,0,0,0-.81.48C7.15,46.2,5.54,47.83,3.9,49.48L1.78,47.33l3.23-3-.11-.19H0V41.22H5.11L1.65,38.08l2.23-2.26c1.6,1.59,3.2,3.15,4.75,4.76a1.8,1.8,0,0,0,1.5.62c.91-.05,1.81,0,2.86,0,0-1.22,0-2.42,0-3.61,0-.22-.28-.44-.47-.63-1.62-1.62-3.25-3.23-4.85-4.82l2.13-2.2L13,33.35V28.18h2.91v5.15l3.24-3.45,2.29,2.35c-.47.37-1,.74-1.43,1.16-.67.62-1.29,1.28-1.94,1.92-2.35,2.35-2.35,2.35-2.09,5.87,1.15,0,2.32,0,3.48,0,.25,0,.5-.29.71-.49L24.83,36a1.07,1.07,0,0,1,.21-.12L27,38.05l-3.1,2.88.16.24h4.9v2.88H24Z"/><path d="M61.56,5.75h2.83v26.5c0,1.44-.34,1.8-1.81,1.91a7.22,7.22,0,0,0-6.75,7H53a9.76,9.76,0,0,1,2.61-6.68,9.29,9.29,0,0,1,5-2.94c.8-.16.88-.5.88-1.17,0-7.84,0-15.69,0-23.53Z"/><path d="M70.1,41.3h2.69c.55,3.77-3.2,9.92-9.75,9.87V48.39A7.24,7.24,0,0,0,70.1,41.3Z"/></g></g></svg>