<svg xmlns="http://www.w3.org/2000/svg" viewBox="0 0 104.4 95.39"><defs><style>.cls-1{fill:#0a0b0b;}.cls-2{fill:#090808;}.cls-3{fill:#0e0c0c;}</style></defs><title>snow-showers-dayAsset 43</title><g id="Layer_2" data-name="Layer 2"><g id="Layer_1-2" data-name="Layer 1"><path d="M47,74.65l1.74,1.65-1.19,1.09c-.62-.62-1.34-1.25-2-2a2.24,2.24,0,0,0-2.22-.91,4.47,4.47,0,0,1-.74,0c0,.65,0,1.27,0,1.89,0,.14.14.29.25.4l2.67,2.67-1.15,1.07-1.63-1.7-.14.07v2.7H41V78.93l-.11-.05-1.65,1.78-1.16-1.22c.72-.7,1.41-1.48,2.2-2.15a1.88,1.88,0,0,0,.72-1.8,7.9,7.9,0,0,1,0-1c-.65,0-1.25,0-1.85,0a.8.8,0,0,0-.45.26l-2.66,2.67-1.15-1.17,1.76-1.64-.06-.11H33.94V72.94h2.78l-1.89-1.71L36.05,70c.88.87,1.75,1.72,2.59,2.59a.94.94,0,0,0,.82.34c.49,0,1,0,1.56,0,0-.67,0-1.32,0-2,0-.12-.16-.24-.26-.34L38.1,68l1.16-1.2L41,68.65V65.83H42.6v2.81l1.76-1.88L45.61,68c-.25.21-.53.4-.78.63s-.7.7-1,1C42.49,71,42.49,71,42.63,72.92c.63,0,1.27,0,1.9,0,.14,0,.28-.16.39-.27l2.56-2.55.11-.07,1,1.19-1.69,1.58.09.13H49.7v1.57H47Z"/><path d="M72.24,74.65,74,76.3l-1.2,1.09c-.62-.62-1.34-1.25-1.94-2a2.24,2.24,0,0,0-2.22-.91,4.59,4.59,0,0,1-.75,0c0,.65,0,1.27,0,1.89a.75.75,0,0,0,.25.4l2.68,2.67-1.16,1.07L68,78.84l-.14.07v2.7H66.31V78.93l-.12-.05-1.64,1.78-1.16-1.22c.71-.7,1.41-1.48,2.19-2.15a1.89,1.89,0,0,0,.73-1.8,7.9,7.9,0,0,1,0-1c-.65,0-1.25,0-1.86,0a.81.81,0,0,0-.44.26c-.89.88-1.77,1.77-2.66,2.67l-1.16-1.17,1.76-1.64-.06-.11H59.21V72.94H62l-1.89-1.71L61.33,70c.87.87,1.74,1.72,2.59,2.59a.93.93,0,0,0,.82.34c.49,0,1,0,1.55,0,0-.67,0-1.32,0-2,0-.12-.15-.24-.26-.34-.88-.89-1.77-1.77-2.64-2.63l1.16-1.2,1.75,1.86V65.83h1.58v2.81l1.77-1.88L70.89,68c-.26.21-.54.4-.78.63s-.71.7-1.06,1C67.77,71,67.77,71,67.91,72.92c.63,0,1.26,0,1.9,0,.13,0,.27-.16.38-.27.86-.84,1.71-1.7,2.56-2.55l.12-.07,1,1.19-1.69,1.58.09.13H75v1.57H72.31Z"/><path d="M99.52,74.65l1.74,1.65-1.2,1.09c-.61-.62-1.33-1.25-1.94-2a2.24,2.24,0,0,0-2.22-.91,4.57,4.57,0,0,1-.75,0c0,.65,0,1.27,0,1.89,0,.14.14.29.24.4.89.88,1.78,1.76,2.68,2.67l-1.15,1.07-1.63-1.7-.14.07v2.7H93.58V78.93l-.11-.05-1.65,1.78-1.16-1.22c.72-.7,1.41-1.48,2.2-2.15a1.88,1.88,0,0,0,.72-1.8,7.9,7.9,0,0,1,0-1c-.65,0-1.25,0-1.86,0a.81.81,0,0,0-.44.26c-.89.88-1.76,1.77-2.66,2.67l-1.16-1.17,1.77-1.64-.06-.11H86.48V72.94h2.79l-1.89-1.71L88.6,70c.87.87,1.74,1.72,2.59,2.59a.94.94,0,0,0,.82.34c.49,0,1,0,1.56,0,0-.67,0-1.32,0-2,0-.12-.16-.24-.26-.34L90.65,68l1.16-1.2,1.75,1.86V65.83h1.59v2.81l1.76-1.88L98.16,68c-.25.21-.53.4-.78.63s-.7.7-1,1C95,71,95,71,95.18,72.92c.63,0,1.27,0,1.9,0,.13,0,.28-.16.39-.27L100,70.09l.11-.07,1,1.19-1.69,1.58.09.13h2.67v1.57H99.58Z"/><path d="M60.15,89.88l1.38,1.31-1,.86c-.49-.49-1.06-1-1.54-1.57a1.77,1.77,0,0,0-1.76-.72,3.75,3.75,0,0,1-.59,0c0,.51,0,1,0,1.5,0,.1.11.22.2.31L59,93.7l-.92.85L56.82,93.2l-.12.06v2.13H55.44V93.27l-.09,0-1.3,1.41-.92-1c.56-.56,1.12-1.17,1.74-1.71a1.49,1.49,0,0,0,.57-1.43,6.58,6.58,0,0,1,0-.77c-.52,0-1,0-1.48,0a.63.63,0,0,0-.35.2L51.5,92.1l-.91-.93L52,89.87l0-.09H49.82V88.53H52l-1.5-1.36,1-1c.69.69,1.38,1.37,2,2.06a.77.77,0,0,0,.65.27c.39,0,.78,0,1.23,0,0-.52,0-1,0-1.56,0-.09-.12-.19-.2-.27l-2.1-2.08.92-1,1.38,1.49V82.89h1.26v2.22l1.4-1.48,1,1c-.2.16-.42.32-.62.5s-.56.55-.83.83c-1,1-1,1-.91,2.54.5,0,1,0,1.51,0,.1,0,.21-.12.3-.21l2-2,.09-.06.83,1L60.13,88.4l.07.11h2.11v1.24H60.2Z"/><path d="M80.18,89.88l1.39,1.31-.95.86c-.49-.49-1.06-1-1.54-1.57a1.77,1.77,0,0,0-1.76-.72,3.75,3.75,0,0,1-.59,0c0,.51,0,1,0,1.5,0,.1.11.22.19.31l2.13,2.12-.92.85L76.85,93.2l-.11.06v2.13H75.48V93.27l-.09,0-1.3,1.41-.92-1c.56-.56,1.11-1.17,1.73-1.71a1.5,1.5,0,0,0,.58-1.43,6.47,6.47,0,0,1,0-.77c-.51,0-1,0-1.47,0a.63.63,0,0,0-.35.2L71.54,92.1l-.92-.93,1.4-1.3,0-.09H69.85V88.53h2.21l-1.49-1.36,1-1,2.06,2.06a.75.75,0,0,0,.64.27c.39,0,.79,0,1.24,0,0-.52,0-1,0-1.56,0-.09-.13-.19-.21-.27L73.16,84.6l.92-1,1.38,1.49V82.89h1.26v2.22l1.4-1.48,1,1c-.2.16-.42.32-.62.5s-.56.55-.84.83c-1,1-1,1-.9,2.54.5,0,1,0,1.5,0,.11,0,.22-.12.31-.21l2-2,.09-.06.82,1L80.16,88.4l.07.11h2.12v1.24H80.24Z"/><path class="cls-1" d="M26,50.41a14,14,0,0,1,3-7.12A12.45,12.45,0,0,1,36.61,39c.59-.1.92-.25,1.07-.85a25.19,25.19,0,0,1,7.65-12.61L48.64,23a25.71,25.71,0,0,1,11.29-3.65c9.35-.56,16.81,3,22.42,10.43a2.32,2.32,0,0,0,2,1.06A16.67,16.67,0,0,1,99.81,43.71a2.87,2.87,0,0,0,1,1.65c4,3.58,4.77,9.67,1.64,13.59a9.14,9.14,0,0,1-5.88,3.27c-1,.17-1.42-.07-1.25-1.11a3.38,3.38,0,0,0,0-.71c-.12-1.21.16-2,1.62-2A3.37,3.37,0,0,0,99,57.34a5.84,5.84,0,0,0-.11-8.66A10.48,10.48,0,0,1,96,43.5a12,12,0,0,0-8.47-8.38h0a.4.4,0,0,0-.5-.2c-4.78-1.6-11.14.51-13.84,4.62a9.4,9.4,0,0,1,5.56,6.21c.7,2.48.71,2.48-1.86,2.48a3.84,3.84,0,0,0-.48,0c-.74.14-.92-.23-1-.9a5.61,5.61,0,0,0-5.26-4.79,5.9,5.9,0,0,0-5.71,3.84c-.22.61.1,1.51-.54,1.79a5.53,5.53,0,0,1-2,.06h-.12c-1.21.28-1.25-.43-1.14-1.32a9.38,9.38,0,0,1,7.35-7.76c.52-.1,1.08-.07,1.44-.65a17.1,17.1,0,0,1,7.44-6.41,12.36,12.36,0,0,1,1.56-.51c.63-.12.59-.35.25-.76a19.79,19.79,0,0,0-9-6.42h0c-.1-.22-.29-.24-.5-.21a20.19,20.19,0,0,0-10.72-1,21.39,21.39,0,0,0-17.6,17.67c-.17,1.16-.46,1.68-1.87,1.61a8.27,8.27,0,0,0-8,4.5,8.33,8.33,0,0,0,.1,8.87c1.08,2.16,3,2.82,5.2,2.82H82.76c1.8,0,1.8,0,1.9,1.75-.1,1.86-.1,1.86-2,1.86-15.24,0-30.48-.16-45.72.06-7.77.12-10.69-5.75-10.87-10.84C26.05,51.12,26.05,50.76,26,50.41Z"/><path class="cls-2" d="M88.15,60.41c.1-1.75.1-1.75,1.88-1.75a2.57,2.57,0,0,0,.48,0q1.56-.3,1.26,1.26a2,2,0,0,0,0,.48c-.1,1.86-.1,1.86-1.71,1.86C88.23,62.26,88.23,62.26,88.15,60.41Z"/><path class="cls-3" d="M49.1,18.68a20.93,20.93,0,0,0-3.38-4.55c-.43-.44-.49-.71-.06-1.19.85-.92,1.63-1.9,2.44-2.86,1.7-2,1.68-2-.36-3.71-.58-.49-.81-.37-1.22.15-1.11,1.4-2.32,2.71-3.42,4.12-.46.59-.76.59-1.37.19a20.91,20.91,0,0,0-9.82-3.54c-.63-.06-.83-.29-.81-.91,0-1.29,0-2.59,0-3.88,0-2.53,0-2.5-2.56-2.5-.69,0-.92.16-.9.88.05,1.82,0,3.65,0,5.47,0,.51,0,.87-.68.92a21.12,21.12,0,0,0-10.13,3.67c-.52.34-.78.21-1.11-.21-.76-1-1.55-1.88-2.34-2.8-.56-.66-1.09-1.76-1.74-1.84s-1.37,1-2.11,1.53c-.51.34-.46.62-.09,1,1.22,1.41,2.39,2.86,3.61,4.26.36.42.5.68,0,1.18a21.36,21.36,0,0,0-5.32,9.13c-.18.65-.47.82-1.11.69-1.26-.26-2.53-.47-3.8-.68C.45,22.85.51,22.87,0,25.37c-.16.85.17.95.8,1.05,1.79.3,3.57.65,5.37.91.6.09.74.3.69.88A21.11,21.11,0,0,0,8.75,38.72c.23.52.19.78-.33,1.05-1.14.6-2.24,1.28-3.35,1.93C2.79,43,2.81,43,4.18,45.3c.34.57.59.63,1.13.3,1.52-.93,3.09-1.77,4.6-2.7.62-.38.95-.41,1.42.26A22.3,22.3,0,0,0,17.77,49c.73.45,1.94.56,2.09,1.35s-.93,2.85-1,3c-.25.54,3,1.58,3.13,1.55.42-.15.69-1.76,1.06-2.74a1.8,1.8,0,0,0,.06-.22c.07-.29.21-.52.55-.43.56.14.6-.24.7-.62s.24-.79.36-1.18a1.7,1.7,0,0,1,0-.56c.41-.81-.06-1-.72-1.22A18.54,18.54,0,0,1,11,34.6c-2.24-8,1.38-17.11,8.18-20.93a15.4,15.4,0,0,1,8-2.94C35.73,10,42.2,13.48,46.4,21.06c.26.48.48.73,1,.38a5.88,5.88,0,0,1,1-.43C50,20.21,50,20.21,49.1,18.68Z"/></g></g></svg>