<svg xmlns="http://www.w3.org/2000/svg" viewBox="0 0 78.36 76.09"><defs><style>.cls-1{fill:#0a0b0b;}.cls-2{fill:#090808;}</style></defs><title>snowAsset 42</title><g id="Layer_2" data-name="Layer 2"><g id="Layer_1-2" data-name="Layer 1"><path d="M20.93,55.35,22.67,57l-1.2,1.1c-.61-.62-1.33-1.26-1.94-2a2.23,2.23,0,0,0-2.22-.91,6.23,6.23,0,0,1-.75,0c0,.66,0,1.28,0,1.9a.69.69,0,0,0,.24.39c.88.89,1.77,1.77,2.68,2.67l-1.15,1.08-1.63-1.7-.14.07V62.3H15V59.63l-.12-.05-1.64,1.78-1.16-1.22c.71-.71,1.41-1.48,2.19-2.16a1.87,1.87,0,0,0,.73-1.8,7.88,7.88,0,0,1,0-1c-.65,0-1.25,0-1.86,0a.75.75,0,0,0-.44.26c-.89.87-1.77,1.76-2.66,2.66L8.86,57l1.77-1.64-.06-.1H7.89V53.64h2.79L8.79,51.93,10,50.69c.87.87,1.74,1.73,2.59,2.6a1,1,0,0,0,.82.34c.49,0,1,0,1.56,0,0-.66,0-1.31,0-2,0-.12-.15-.24-.25-.35l-2.65-2.63,1.16-1.2L15,49.35V46.53h1.59v2.81l1.76-1.88,1.25,1.28c-.26.2-.53.4-.78.63s-.71.7-1.06,1.05c-1.28,1.28-1.28,1.28-1.14,3.2.63,0,1.27,0,1.9,0,.13,0,.27-.16.39-.27l2.56-2.55.11-.07,1,1.19L20.9,53.48l.09.13h2.67v1.58H21Z"/><path d="M46.2,55.35,48,57l-1.2,1.1c-.62-.62-1.34-1.26-2-2a2.2,2.2,0,0,0-2.21-.91,6.23,6.23,0,0,1-.75,0c0,.66,0,1.28,0,1.9a.77.77,0,0,0,.25.39c.88.89,1.77,1.77,2.68,2.67l-1.16,1.08L42,59.54l-.14.07V62.3H40.27V59.63l-.12-.05-1.64,1.78-1.16-1.22c.71-.71,1.41-1.48,2.19-2.16a1.87,1.87,0,0,0,.73-1.8,6.32,6.32,0,0,1,0-1c-.65,0-1.26,0-1.86,0a.75.75,0,0,0-.44.26c-.89.87-1.77,1.76-2.67,2.66L34.14,57l1.76-1.64-.06-.1H33.17V53.64H36l-1.89-1.71,1.22-1.24c.87.87,1.74,1.73,2.59,2.6a1,1,0,0,0,.82.34c.49,0,1,0,1.55,0,0-.66,0-1.31,0-2,0-.12-.16-.24-.26-.35l-2.64-2.63,1.16-1.2,1.74,1.87V46.53h1.59v2.81l1.77-1.88,1.25,1.28c-.26.2-.54.4-.79.63s-.7.7-1.05,1.05c-1.28,1.28-1.28,1.28-1.14,3.2.63,0,1.26,0,1.9,0,.13,0,.27-.16.38-.27l2.56-2.55.12-.07,1,1.19-1.69,1.57.09.13h2.66v1.58H46.27Z"/><path d="M73.47,55.35,75.22,57,74,58.09c-.61-.62-1.34-1.26-1.94-2a2.23,2.23,0,0,0-2.22-.91,6.23,6.23,0,0,1-.75,0c0,.66,0,1.28,0,1.9a.69.69,0,0,0,.24.39c.88.89,1.77,1.77,2.68,2.67L70.9,61.24l-1.63-1.7-.14.07V62.3H67.54V59.63l-.12-.05-1.64,1.78-1.16-1.22c.71-.71,1.41-1.48,2.19-2.16a1.87,1.87,0,0,0,.73-1.8,7.88,7.88,0,0,1,0-1c-.65,0-1.25,0-1.86,0a.75.75,0,0,0-.44.26c-.89.87-1.77,1.76-2.66,2.66L61.41,57l1.77-1.64-.06-.1H60.44V53.64h2.79l-1.89-1.71,1.22-1.24c.87.87,1.74,1.73,2.59,2.6a1,1,0,0,0,.82.34c.49,0,1,0,1.56,0,0-.66,0-1.31,0-2,0-.12-.15-.24-.25-.35l-2.65-2.63,1.16-1.2,1.75,1.87V46.53h1.59v2.81l1.76-1.88,1.25,1.28c-.26.2-.53.4-.78.63s-.71.7-1.06,1.05C69,51.7,69,51.7,69.14,53.62c.63,0,1.27,0,1.9,0,.13,0,.27-.16.39-.27L74,50.79l.12-.07,1,1.19-1.69,1.57.09.13h2.67v1.58H73.54Z"/><path d="M34.11,70.58l1.38,1.3-1,.87c-.49-.49-1.06-1-1.54-1.57a1.77,1.77,0,0,0-1.76-.72,3.86,3.86,0,0,1-.59,0c0,.52,0,1,0,1.5,0,.11.11.23.19.32L33,74.39l-.92.86L30.77,73.9l-.11,0v2.14H29.4V74l-.09,0L28,75.34l-.92-1c.56-.57,1.12-1.18,1.74-1.71a1.49,1.49,0,0,0,.57-1.43,6.61,6.61,0,0,1,0-.78c-.51,0-1,0-1.47,0a.65.65,0,0,0-.35.21l-2.11,2.11-.92-.92,1.4-1.31-.05-.08H23.78V69.22H26l-1.49-1.36,1-1c.7.69,1.39,1.36,2.06,2a.77.77,0,0,0,.65.28c.39,0,.78,0,1.23,0,0-.53,0-1,0-1.56,0-.09-.12-.19-.2-.27l-2.1-2.09.92-1,1.38,1.48V63.59h1.26v2.22L32,64.32l1,1c-.2.16-.42.32-.62.5s-.56.55-.83.83c-1,1-1,1-.91,2.54.5,0,1,0,1.51,0,.1,0,.21-.13.3-.22l2-2,.09,0,.83.94L34.09,69.1l.07.1h2.11v1.25H34.16Z"/><path d="M54.14,70.58l1.39,1.3-1,.87c-.49-.49-1.06-1-1.55-1.57a1.76,1.76,0,0,0-1.75-.72,4,4,0,0,1-.6,0c0,.52,0,1,0,1.5a.62.62,0,0,0,.2.32L53,74.39l-.91.86L50.81,73.9l-.11,0v2.14H49.44V74l-.09,0L48,75.34l-.92-1c.57-.57,1.12-1.18,1.74-1.71a1.5,1.5,0,0,0,.58-1.43,5,5,0,0,1,0-.78c-.51,0-1,0-1.47,0a.62.62,0,0,0-.35.21c-.71.7-1.4,1.4-2.11,2.11l-.92-.92L46,70.56l0-.08H43.81V69.22H46l-1.5-1.36,1-1c.69.69,1.38,1.36,2,2a.79.79,0,0,0,.65.28c.39,0,.79,0,1.24,0,0-.53,0-1,0-1.56,0-.09-.13-.19-.21-.27l-2.09-2.09.91-1,1.39,1.48V63.59h1.26v2.22l1.4-1.49,1,1c-.2.16-.43.32-.62.5s-.56.55-.84.83c-1,1-1,1-.9,2.54.49,0,1,0,1.5,0,.11,0,.22-.13.31-.22l2-2,.09,0,.82.94L54.12,69.1l.07.1h2.12v1.25H54.2Z"/><path class="cls-1" d="M0,31.1A14,14,0,0,1,3,24a12.39,12.39,0,0,1,7.57-4.33c.59-.1.92-.24,1.06-.85a25.25,25.25,0,0,1,7.66-12.6l3.31-2.5A25.59,25.59,0,0,1,33.88.06C43.24-.5,50.69,3,56.31,10.49a2.31,2.31,0,0,0,2,1A16.67,16.67,0,0,1,73.77,24.41a2.85,2.85,0,0,0,1,1.65c4,3.58,4.77,9.66,1.64,13.59a9.23,9.23,0,0,1-5.88,3.27c-1,.17-1.42-.07-1.25-1.12a3.41,3.41,0,0,0,0-.71c-.12-1.2.16-2,1.62-2A3.48,3.48,0,0,0,73,38a5.84,5.84,0,0,0-.11-8.66,10.52,10.52,0,0,1-2.94-5.18,12,12,0,0,0-8.47-8.38h0a.4.4,0,0,0-.5-.19c-4.78-1.6-11.14.51-13.84,4.62a9.38,9.38,0,0,1,5.56,6.21c.69,2.48.7,2.48-1.87,2.48a2.46,2.46,0,0,0-.47,0c-.74.14-.92-.24-1-.9A5.61,5.61,0,0,0,44,23.23a5.91,5.91,0,0,0-5.71,3.85c-.22.61.1,1.5-.54,1.78a5.53,5.53,0,0,1-2,.07h-.12c-1.21.27-1.25-.43-1.14-1.33a9.34,9.34,0,0,1,7.35-7.75c.52-.1,1.08-.07,1.44-.65a17,17,0,0,1,7.44-6.41,12.41,12.41,0,0,1,1.56-.52c.63-.12.59-.35.25-.76a19.89,19.89,0,0,0-9-6.41h0c-.1-.22-.29-.24-.5-.21a20.09,20.09,0,0,0-10.72-1,21.39,21.39,0,0,0-17.6,17.67c-.17,1.16-.46,1.67-1.87,1.6a8.28,8.28,0,0,0-8,4.5A8.33,8.33,0,0,0,5,36.54c1.07,2.15,3,2.81,5.2,2.81H56.71c1.81,0,1.81,0,1.91,1.74-.11,1.87-.11,1.87-2,1.87-15.24,0-30.48-.16-45.72.06C3.11,43.13.19,37.26,0,32.17,0,31.82,0,31.46,0,31.1Z"/><path class="cls-2" d="M62.11,41.1c.1-1.74.1-1.74,1.88-1.74a2.57,2.57,0,0,0,.48,0c1-.19,1.45.22,1.26,1.27a1.52,1.52,0,0,0,0,.47C65.67,43,65.67,43,64.06,43,62.19,43,62.19,43,62.11,41.1Z"/></g></g></svg>