<svg xmlns="http://www.w3.org/2000/svg" viewBox="0 0 97.81 89.85"><defs><style>.cls-1{fill:#0a0b0b;}.cls-2{fill:#090808;}.cls-3{fill:#0e0c0c;}</style></defs><title>thunder-showers-nightAsset 40</title><g id="Layer_2" data-name="Layer 2"><g id="Layer_1-2" data-name="Layer 1"><path d="M53.89,89.3c2-2.09,8-8.61,8-8.61h0c1.39-1.49,2.73-3,4.08-4.39a1.32,1.32,0,0,0,.4-1.61,1.39,1.39,0,0,0-1.52-.7c-.44.05-.89.07-1.41.11l.33-.68,2.65-5.09c.59-1.14.06-2-1.21-2-3,0-6.1,0-9.14,0a1.45,1.45,0,0,0-1.46.91c-1.69,3.49-3.4,7-5.09,10.48a1.26,1.26,0,0,0,1.22,2c1.21,0,2.42,0,3.68,0-.2.62-.36,1.2-.58,1.76l-1.12,3.42c-.41,1.25-.83,2.39-1.12,3.56a1.43,1.43,0,0,0,.34,1.19,1.8,1.8,0,0,0,1.23.27C53.42,89.83,53.68,89.52,53.89,89.3Zm-1.3-12.12a4.7,4.7,0,0,1,.18-.47c1.21-2.5,2.41-5,3.64-7.48a.82.82,0,0,1,.55-.44c2.1,0,4.19,0,6.42,0l-2.27,4.35-.82,1.58a1.25,1.25,0,0,0,1.23,2h.7L56,83.38l-.12-.07c.1-.33.19-.66.3-1,.37-1.13.75-2.26,1.11-3.39A1.23,1.23,0,0,0,56,77.18C54.88,77.17,53.77,77.18,52.59,77.18Z"/><path d="M82.34,67.53a1.9,1.9,0,0,1,.11,2.64h0c-1.62,1.67-3.27,3.3-4.92,4.93a1.71,1.71,0,0,1-2.54.13,1.68,1.68,0,0,1,.1-2.47c1.66-1.7,3.35-3.37,5-5a1.54,1.54,0,0,1,2-.38Z"/><path d="M33.75,74a5.15,5.15,0,0,1,.63-1.13c1.68-1.72,3.38-3.43,5.1-5.11a1.69,1.69,0,1,1,2.36,2.41c-1.66,1.69-3.35,3.36-5,5a1.64,1.64,0,0,1-2,.4A1.86,1.86,0,0,1,33.75,74Z"/><path d="M82.34,78.61a1.89,1.89,0,0,1,.11,2.64h0c-1.62,1.67-3.27,3.3-4.92,4.93a1.71,1.71,0,0,1-2.54.13,1.68,1.68,0,0,1,.1-2.47c1.66-1.7,3.35-3.37,5-5a1.54,1.54,0,0,1,2-.38Z"/><path d="M33.75,85a5.15,5.15,0,0,1,.63-1.13c1.68-1.72,3.38-3.43,5.1-5.11a1.69,1.69,0,1,1,2.36,2.41c-1.66,1.69-3.35,3.36-5,5a1.64,1.64,0,0,1-2,.4A1.86,1.86,0,0,1,33.75,85Z"/><path class="cls-1" d="M17.45,50.54a14.33,14.33,0,0,1,3.07-7.29,12.73,12.73,0,0,1,7.76-4.44c.61-.1.95-.25,1.1-.87A25.83,25.83,0,0,1,37.23,25l3.4-2.56A26.25,26.25,0,0,1,52.2,18.71c9.59-.58,17.23,3.05,23,10.69a2.35,2.35,0,0,0,2.07,1.08A17.11,17.11,0,0,1,93.1,43.68a3,3,0,0,0,1,1.69C98.28,49,99,55.28,95.81,59.31a9.41,9.41,0,0,1-6,3.35c-1,.17-1.46-.07-1.28-1.15a3.52,3.52,0,0,0,0-.72c-.12-1.24.16-2,1.67-2a3.47,3.47,0,0,0,2.12-1.09,6,6,0,0,0-.1-8.88,10.8,10.8,0,0,1-3-5.32,12.3,12.3,0,0,0-8.68-8.59h0c-.1-.23-.29-.25-.5-.21C75,33,68.52,35.18,65.75,39.4a9.62,9.62,0,0,1,5.7,6.37c.71,2.55.72,2.54-1.91,2.54a2.68,2.68,0,0,0-.49,0c-.75.14-.94-.25-1-.93a5.75,5.75,0,0,0-5.39-4.92,6,6,0,0,0-5.85,4c-.23.62.1,1.54-.56,1.82a5.36,5.36,0,0,1-2.05.07.48.48,0,0,0-.12,0c-1.25.28-1.29-.44-1.17-1.36a9.6,9.6,0,0,1,7.53-8c.54-.1,1.12-.07,1.48-.67a17.52,17.52,0,0,1,7.63-6.57,13,13,0,0,1,1.6-.53c.65-.12.61-.35.26-.78a20.22,20.22,0,0,0-9.23-6.57h0a.43.43,0,0,0-.51-.21,20.73,20.73,0,0,0-11-1,21.93,21.93,0,0,0-18,18.12c-.18,1.2-.48,1.72-1.92,1.65A8.5,8.5,0,0,0,22.42,47a8.57,8.57,0,0,0,.1,9.1c1.11,2.21,3,2.88,5.34,2.88H75.61c1.85,0,1.85,0,2,1.79-.11,1.91-.11,1.91-2.06,1.91-15.63,0-31.26-.16-46.88.07-8,.11-11-5.91-11.15-11.13C17.45,51.27,17.45,50.91,17.45,50.54Z"/><path class="cls-2" d="M81.14,60.8c.1-1.79.1-1.79,1.93-1.79a2.68,2.68,0,0,0,.49,0c1.07-.2,1.49.23,1.3,1.3a2.05,2.05,0,0,0,0,.49c-.1,1.91-.1,1.91-1.75,1.91C81.22,62.7,81.22,62.7,81.14,60.8Z"/><path class="cls-3" d="M11,40.62A20.61,20.61,0,0,1,5.65,33c-.28-.74-.54-1.51-.76-2.31C2.43,21.9,6.26,11.87,13.62,7.51a21.16,21.16,0,0,1,9.25-3.35A21,21,0,0,1,37.57,7.8l.29.22s2.91,2.05,3.37,2.57l0,.07,2.38-2.88c-.56-.6-1.13-1.18-1.73-1.71-.24-.22-.49-.41-.73-.61s-.49-.38-.74-.57L40,4.55A24.55,24.55,0,0,0,22.4.19a24.57,24.57,0,0,0-11.06,4C2.58,9.57-2.06,21.42.88,32a26.82,26.82,0,0,0,3.48,7.72h0c.23.33.45.67.7,1A27.07,27.07,0,0,0,8.17,44h0c.27.25.56.48.85.7l1.19.91c.47.34.95.65,1.42.95l2.75-3.32L26.09,29l-3.4-2.64Z"/><polygon class="cls-3" points="35.64 10.71 32.5 14.52 35.83 17.24 39 13.4 35.64 10.71"/></g></g></svg>