<svg xmlns="http://www.w3.org/2000/svg" viewBox="0 0 80.36 70.02"><defs><style>.cls-1{fill:#0a0b0b;}.cls-2{fill:#090808;}</style></defs><title>thunderAsset 37</title><g id="Layer_2" data-name="Layer 2"><g id="Layer_1-2" data-name="Layer 1"><path d="M36.44,69.47c2-2.08,8-8.61,8-8.61h0l4.08-4.39a1.32,1.32,0,0,0,.4-1.61,1.39,1.39,0,0,0-1.52-.7c-.44.05-.88.07-1.41.11l.33-.68L49,48.5c.59-1.14.07-2-1.21-2-3,0-6.09,0-9.14,0a1.45,1.45,0,0,0-1.46.91c-1.69,3.49-3.4,7-5.09,10.48a1.26,1.26,0,0,0,1.22,2H37c-.2.62-.36,1.2-.57,1.76L35.27,65c-.41,1.25-.83,2.39-1.12,3.56a1.46,1.46,0,0,0,.34,1.19,1.8,1.8,0,0,0,1.23.27C36,70,36.24,69.7,36.44,69.47Zm-1.3-12.12a4.7,4.7,0,0,1,.18-.47c1.21-2.5,2.41-5,3.64-7.48.1-.19.36-.44.55-.44,2.1,0,4.2,0,6.42,0-.79,1.52-1.53,2.93-2.26,4.35-.28.53-.56,1.05-.83,1.58a1.25,1.25,0,0,0,1.23,2h.7l-6.22,6.7-.12-.07c.09-.33.18-.65.29-1,.37-1.13.75-2.26,1.11-3.39a1.24,1.24,0,0,0-1.29-1.76Z"/><path class="cls-1" d="M0,31.9a14.33,14.33,0,0,1,3.07-7.3,12.72,12.72,0,0,1,7.76-4.43c.61-.11.95-.26,1.1-.88A25.83,25.83,0,0,1,19.78,6.37l3.4-2.57A26.25,26.25,0,0,1,34.75.06c9.59-.58,17.24,3.06,23,10.69a2.39,2.39,0,0,0,2.08,1.09A17.09,17.09,0,0,1,75.65,25a3,3,0,0,0,1,1.7c4.14,3.66,4.89,9.91,1.68,13.93a9.41,9.41,0,0,1-6,3.35c-1,.17-1.46-.07-1.28-1.14a3,3,0,0,0,0-.73c-.12-1.23.17-2,1.67-2A3.51,3.51,0,0,0,74.82,39a6,6,0,0,0-.11-8.88,10.76,10.76,0,0,1-3-5.32A12.3,12.3,0,0,0,63,16.22h0c-.1-.22-.29-.24-.5-.2-4.91-1.64-11.43.52-14.2,4.73A9.64,9.64,0,0,1,54,27.12c.71,2.55.73,2.55-1.91,2.54a2.68,2.68,0,0,0-.49,0c-.75.14-.94-.24-1-.93a5.77,5.77,0,0,0-5.4-4.92,6.06,6.06,0,0,0-5.85,3.95c-.23.62.1,1.54-.56,1.83a5.58,5.58,0,0,1-2,.06h-.12c-1.25.28-1.28-.44-1.17-1.36a9.62,9.62,0,0,1,7.54-8c.53-.1,1.11-.07,1.47-.66a17.45,17.45,0,0,1,7.63-6.57,11.53,11.53,0,0,1,1.6-.53c.65-.13.61-.36.26-.78a20.25,20.25,0,0,0-9.23-6.58h0c-.1-.23-.3-.25-.51-.22a20.59,20.59,0,0,0-11-1,21.92,21.92,0,0,0-18,18.12c-.18,1.19-.48,1.72-1.92,1.64A8.51,8.51,0,0,0,5,28.37a8.57,8.57,0,0,0,.1,9.1c1.11,2.21,3,2.89,5.34,2.88H58.16c1.85,0,1.85,0,2,1.79-.1,1.91-.1,1.91-2.06,1.91-15.62,0-31.25-.16-46.88.07C3.19,44.23.2,38.22,0,33,0,32.63,0,32.26,0,31.9Z"/><path class="cls-2" d="M63.69,42.15c.1-1.79.1-1.79,1.93-1.79a2.67,2.67,0,0,0,.49,0c1.07-.2,1.5.22,1.3,1.3a2,2,0,0,0,0,.48c-.1,1.91-.1,1.91-1.75,1.91C63.78,44.05,63.78,44.05,63.69,42.15Z"/></g></g></svg>