<svg xmlns="http://www.w3.org/2000/svg" viewBox="0 0 75.3 67.44"><defs><style>.cls-1{fill:#0a0b0b;}.cls-2{fill:#090808;}</style></defs><title>thunder-rainAsset 38</title><g id="Layer_2" data-name="Layer 2"><g id="Layer_1-2" data-name="Layer 1"><path d="M34,66.89l8-8.61h0c1.39-1.5,2.73-3,4.08-4.39a1.31,1.31,0,0,0,.39-1.61,1.36,1.36,0,0,0-1.51-.7l-1.41.11c.14-.29.23-.49.33-.68l2.65-5.09c.59-1.15.06-2-1.21-2-3.05,0-6.1,0-9.14,0a1.46,1.46,0,0,0-1.46.9c-1.69,3.5-3.4,7-5.09,10.48a1.26,1.26,0,0,0,1.21,2h3.69c-.2.62-.36,1.2-.58,1.75L32.81,62.4c-.4,1.25-.82,2.39-1.11,3.56a1.44,1.44,0,0,0,.34,1.2,1.8,1.8,0,0,0,1.23.27C33.52,67.41,33.78,67.11,34,66.89Zm-1.3-12.13a4.45,4.45,0,0,1,.18-.46c1.21-2.5,2.41-5,3.64-7.48a.82.82,0,0,1,.55-.44c2.09,0,4.19,0,6.42,0l-2.27,4.35-.82,1.58a1.25,1.25,0,0,0,1.23,2c.18,0,.36,0,.69,0L36.09,61,36,60.9c.1-.33.19-.66.29-1,.37-1.13.76-2.26,1.12-3.39a1.24,1.24,0,0,0-1.29-1.77Z"/><path d="M61,46.52a1.81,1.81,0,0,1,.1,2.53h0c-1.55,1.6-3.13,3.18-4.72,4.74a1.63,1.63,0,0,1-2.44.12A1.6,1.6,0,0,1,54,51.55c1.6-1.63,3.22-3.24,4.85-4.85a1.46,1.46,0,0,1,1.9-.36A1.3,1.3,0,0,1,61,46.52Z"/><path d="M14.29,52.69a5,5,0,0,1,.61-1.08c1.61-1.66,3.24-3.29,4.89-4.91A1.63,1.63,0,1,1,22.07,49c-1.61,1.63-3.23,3.24-4.85,4.85a1.57,1.57,0,0,1-1.91.38A1.78,1.78,0,0,1,14.29,52.69Z"/><path d="M61,57.17a1.81,1.81,0,0,1,.1,2.53h0c-1.55,1.6-3.13,3.17-4.72,4.74a1.63,1.63,0,0,1-2.44.12A1.6,1.6,0,0,1,54,62.2c1.6-1.64,3.22-3.25,4.85-4.86a1.47,1.47,0,0,1,1.9-.36A2.11,2.11,0,0,1,61,57.17Z"/><path d="M14.29,63.34a4.52,4.52,0,0,1,.61-1.08q2.42-2.49,4.89-4.91a1.63,1.63,0,1,1,2.28,2.31c-1.61,1.63-3.23,3.23-4.85,4.85a1.58,1.58,0,0,1-1.91.38A1.8,1.8,0,0,1,14.29,63.34Z"/><path class="cls-1" d="M0,29.89a13.39,13.39,0,0,1,2.88-6.84,11.9,11.9,0,0,1,7.27-4.15c.57-.1.89-.24,1-.82A24.23,24.23,0,0,1,18.53,6l3.19-2.4A24.54,24.54,0,0,1,32.56.06c9-.54,16.15,2.86,21.54,10a2.22,2.22,0,0,0,1.95,1A16,16,0,0,1,70.89,23.46a2.7,2.7,0,0,0,1,1.58c3.88,3.44,4.58,9.29,1.57,13.06a8.83,8.83,0,0,1-5.65,3.14c-.94.16-1.36-.07-1.2-1.07a3.1,3.1,0,0,0,0-.68c-.12-1.16.15-1.9,1.56-1.91a3.3,3.3,0,0,0,2-1,5.61,5.61,0,0,0-.1-8.32,10.16,10.16,0,0,1-2.83-5,11.51,11.51,0,0,0-8.13-8h0a.38.38,0,0,0-.48-.19c-4.6-1.54-10.71.48-13.3,4.43a9,9,0,0,1,5.34,6c.67,2.39.68,2.39-1.79,2.39a2.36,2.36,0,0,0-.46,0c-.71.13-.88-.23-1-.87a5.4,5.4,0,0,0-5-4.61A5.67,5.67,0,0,0,36.83,26c-.21.58.1,1.44-.52,1.71a5.31,5.31,0,0,1-1.92.07.48.48,0,0,0-.12,0c-1.16.26-1.2-.42-1.09-1.28a9,9,0,0,1,7.06-7.45c.5-.09,1-.06,1.38-.62a16.39,16.39,0,0,1,7.15-6.16,12,12,0,0,1,1.5-.5c.61-.11.57-.33.24-.73A19,19,0,0,0,41.87,4.9h0c-.1-.22-.28-.23-.48-.2a19.35,19.35,0,0,0-10.3-1,20.53,20.53,0,0,0-16.92,17c-.16,1.12-.44,1.61-1.79,1.55a8,8,0,0,0-7.72,4.32,8,8,0,0,0,.09,8.53c1,2.07,2.85,2.7,5,2.7H54.5c1.73,0,1.73,0,1.82,1.68-.09,1.79-.09,1.79-1.92,1.79-14.65,0-29.29-.15-43.93.06C3,41.45.19,35.81,0,30.91,0,30.57,0,30.23,0,29.89Z"/><path class="cls-2" d="M59.68,39.5c.1-1.68.1-1.68,1.81-1.68a3.53,3.53,0,0,0,.46,0c1-.19,1.4.21,1.21,1.21a1.38,1.38,0,0,0,0,.45c-.1,1.8-.1,1.8-1.65,1.8C59.76,41.28,59.76,41.28,59.68,39.5Z"/></g></g></svg>