<svg xmlns="http://www.w3.org/2000/svg" viewBox="0 0 89.44 69.27"><defs><style>.cls-1{fill:#0a0b0b;}.cls-2{fill:#090808;}</style></defs><title>windAsset 35</title><g id="Layer_2" data-name="Layer 2"><g id="Layer_1-2" data-name="Layer 1"><path d="M42.3,52.79a1.66,1.66,0,0,1,1.75-1c2.65,0,5.3,0,8,0a1.39,1.39,0,1,1,0,2.76c-2.65,0-5.3,0-8,0a1.67,1.67,0,0,1-1.75-1Z"/><path d="M42.3,47.27a1.67,1.67,0,0,1,1.75-1c1.44,0,2.88,0,4.32,0a1.38,1.38,0,1,1,0,2.75c-1.43,0-2.85,0-4.27,0a1.68,1.68,0,0,1-1.8-1Z"/><path d="M67.07,49c-4.34,0-8.68,0-13,0a1.38,1.38,0,0,1-.43-2.71,2.76,2.76,0,0,1,.64,0q12.52,0,25,0a7.34,7.34,0,0,0,6.32-3.15,5.85,5.85,0,0,0-1.27-8,4.46,4.46,0,0,0-5.76.49,3.29,3.29,0,0,0,0,4.57,2.36,2.36,0,0,0,3.35.1,1.39,1.39,0,1,1,1.9,2,5.15,5.15,0,0,1-7.72-.76,6.15,6.15,0,0,1,2.28-9.19,7.36,7.36,0,0,1,10,3.33A8.8,8.8,0,0,1,85,47.44,10.27,10.27,0,0,1,79.5,49Z"/><path d="M62.48,51.78c1.52,0,3,0,4.56,0A9.89,9.89,0,0,1,76.3,59a8.52,8.52,0,0,1-4.46,9.69,7.11,7.11,0,0,1-9.43-3.54,5.88,5.88,0,0,1,3.39-7.76A4.93,4.93,0,0,1,71,58.55a1.39,1.39,0,0,1,.08,2,1.35,1.35,0,0,1-1.91.1,2.49,2.49,0,0,0-3-.43,3.29,3.29,0,0,0-1.41,3.06,3.92,3.92,0,0,0,3.3,3.19,4.84,4.84,0,0,0,5.42-3.66,6.07,6.07,0,0,0-3-7.12,7.8,7.8,0,0,0-4.07-1.1H57.7a1.37,1.37,0,0,1-.41-2.7,1.94,1.94,0,0,1,.54,0Z"/><path class="cls-1" d="M0,29.39a13.17,13.17,0,0,1,2.83-6.72A11.73,11.73,0,0,1,10,18.58c.56-.09.87-.23,1-.8A23.8,23.8,0,0,1,18.23,5.87L21.36,3.5A24.43,24.43,0,0,1,32,.05c8.84-.53,15.89,2.82,21.19,9.86a2.17,2.17,0,0,0,1.91,1,15.78,15.78,0,0,1,14.6,12.16,2.65,2.65,0,0,0,1,1.56c3.82,3.38,4.51,9.13,1.55,12.84a8.71,8.71,0,0,1-5.56,3.09c-.92.16-1.34-.07-1.18-1.06a3.06,3.06,0,0,0,0-.67C65.33,37.7,65.6,37,67,37a3.25,3.25,0,0,0,2-1,5.52,5.52,0,0,0-.1-8.19,10,10,0,0,1-2.78-4.89,11.29,11.29,0,0,0-8-7.92h0a.37.37,0,0,0-.47-.19c-4.52-1.51-10.53.48-13.08,4.36A8.91,8.91,0,0,1,49.77,25c.65,2.35.66,2.35-1.77,2.35a2.26,2.26,0,0,0-.45,0c-.69.13-.87-.22-1-.85a5.32,5.32,0,0,0-5-4.54,5.56,5.56,0,0,0-5.39,3.64c-.21.57.09,1.42-.52,1.68a5.14,5.14,0,0,1-1.89.07.4.4,0,0,0-.11,0c-1.15.26-1.18-.41-1.08-1.25a8.84,8.84,0,0,1,6.95-7.33c.49-.1,1-.07,1.36-.62a16,16,0,0,1,7-6.05,11.52,11.52,0,0,1,1.47-.49c.6-.12.56-.33.24-.72a18.66,18.66,0,0,0-8.5-6.06h0a.4.4,0,0,0-.48-.2,18.91,18.91,0,0,0-10.13-.94A20.2,20.2,0,0,0,13.94,20.37c-.16,1.1-.44,1.59-1.77,1.52a7.84,7.84,0,0,0-7.59,4.25,7.89,7.89,0,0,0,.1,8.39c1,2,2.79,2.66,4.91,2.66h44c1.7,0,1.7,0,1.79,1.64-.09,1.76-.09,1.76-1.89,1.76-14.4,0-28.81-.14-43.21.07C2.94,40.76.18,35.22,0,30.4,0,30.07,0,29.73,0,29.39Z"/><path class="cls-2" d="M58.69,38.85c.1-1.66.1-1.66,1.78-1.66a2.26,2.26,0,0,0,.45,0c1-.18,1.38.21,1.2,1.2a1.66,1.66,0,0,0,0,.44c-.09,1.77-.09,1.77-1.61,1.77C58.77,40.6,58.77,40.6,58.69,38.85Z"/></g></g></svg>