<svg xmlns="http://www.w3.org/2000/svg" viewBox="0 0 115.07 60.7"><defs><style>.cls-1{fill:none;stroke:#000;stroke-miterlimit:10;stroke-width:4px;}</style></defs><title>cloudyAsset 50</title><g id="Layer_2" data-name="Layer 2"><g id="Layer_1-2" data-name="Layer 1"><path class="cls-1" d="M76.77,49.53a1.32,1.32,0,0,1,.77-.46A24.92,24.92,0,0,0,88.68,45c6.44,4.75,11.95,5.4,17.45,2.13,4.78-2.85,7.7-8.5,6.76-13.85-1.38-8-6.52-12-14.43-12.57C95.82,10.83,89.79,4.26,79.75,2.46,68,.36,59.45,5.51,53.73,15.7"/><path class="cls-1" d="M63.32,29.35H63a24,24,0,0,0-47,.87l-.87,0a13.89,13.89,0,0,0-5.53,1.6A14.38,14.38,0,0,0,7.2,33.43c-.4.33-.79.67-1.17,1A10.11,10.11,0,0,0,4,37a13.24,13.24,0,0,0-1.13,2.39C.28,47.32,4,53.28,8.23,56.13s11.5,4,17.85-1.57a24,24,0,0,0,27,0A14.67,14.67,0,1,0,63.32,29.35Z"/></g></g></svg>