<svg xmlns="http://www.w3.org/2000/svg" viewBox="0 0 115.07 90.87"><defs><style>.cls-1,.cls-2{fill:none;stroke:#000;stroke-miterlimit:10;}.cls-1{stroke-width:4px;}.cls-2{stroke-width:3px;}</style></defs><title>hailAsset 64</title><g id="Layer_2" data-name="Layer 2"><g id="Layer_1-2" data-name="Layer 1"><path class="cls-1" d="M76.77,49.53a1.32,1.32,0,0,1,.77-.46A24.92,24.92,0,0,0,88.68,45c6.44,4.75,11.95,5.4,17.45,2.13,4.78-2.85,7.7-8.5,6.76-13.85-1.38-8-6.52-12-14.43-12.57C95.82,10.83,89.79,4.26,79.75,2.46,68,.36,59.45,5.51,53.73,15.7"/><path class="cls-1" d="M63.32,29.35H63a24,24,0,0,0-47,.87l-.87,0a13.89,13.89,0,0,0-5.53,1.6A14.38,14.38,0,0,0,7.2,33.43c-.4.33-.79.67-1.17,1A10.11,10.11,0,0,0,4,37a13.24,13.24,0,0,0-1.13,2.39C.28,47.32,4,53.28,8.23,56.13s11.5,4,17.85-1.57a24,24,0,0,0,27,0A14.67,14.67,0,1,0,63.32,29.35Z"/><polygon class="cls-1" points="41.42 69.21 47.63 67.23 51.53 72.5 55.38 77.87 51.59 83.21 47.66 88.53 41.33 86.56 35.13 84.48 35.06 77.78 35.11 71.31 41.42 69.21"/><polygon class="cls-2" points="68.63 65.31 72.41 65.33 73.61 68.94 74.77 72.6 71.72 74.86 68.58 77.09 65.45 74.86 62.4 72.6 63.57 68.89 64.76 65.33 68.63 65.31"/><polygon class="cls-2" points="86.98 61.42 88.89 62.44 88.55 64.6 88.16 66.76 86.01 67.1 83.83 67.4 82.83 65.44 81.88 63.48 83.46 61.9 85.01 60.41 86.98 61.42"/></g></g></svg>