<svg xmlns="http://www.w3.org/2000/svg" viewBox="0 0 117.22 62.47"><defs><style>.cls-1{fill:none;stroke:#000;stroke-miterlimit:10;stroke-width:4px;}</style></defs><title>partly-cloudy-nightAsset 49</title><g id="Layer_2" data-name="Layer 2"><g id="Layer_1-2" data-name="Layer 1"><path class="cls-1" d="M18.58,30a19.63,19.63,0,0,1-1.65-11.06A24.21,24.21,0,0,1,23.29,6.56a32.14,32.14,0,0,1,2.84-2.74,16.28,16.28,0,0,0-4.08-1.45A16.57,16.57,0,0,0,6.2,29.6a16.23,16.23,0,0,0,5.51,4"/><path class="cls-1" d="M78.93,51.31a1.29,1.29,0,0,1,.77-.47,24.84,24.84,0,0,0,11.13-4.1c6.44,4.75,12,5.41,17.45,2.13C113.06,46,116,40.38,115.05,35c-1.39-8-6.53-12-14.43-12.58C98,12.61,91.94,6,81.9,4.24c-11.74-2.1-20.29,3.05-26,13.23"/><path class="cls-1" d="M65.48,31.12l-.36,0a24,24,0,0,0-47,.87l-.87,0a14.06,14.06,0,0,0-5.52,1.6,14.44,14.44,0,0,0-2.36,1.57,14.06,14.06,0,0,0-1.17,1,9.89,9.89,0,0,0-2.06,2.5A13.24,13.24,0,0,0,5,41.14c-2.57,8,1.16,13.91,5.38,16.76,4.38,3,11.5,4,17.86-1.56a24,24,0,0,0,27-.05A14.67,14.67,0,1,0,65.48,31.12Z"/></g></g></svg>