<svg xmlns="http://www.w3.org/2000/svg" viewBox="0 0 121.88 91.12"><defs><style>.cls-1,.cls-2,.cls-3,.cls-4,.cls-5{fill:none;stroke-miterlimit:10;}.cls-1,.cls-2,.cls-3{stroke:#000;}.cls-1,.cls-2{stroke-width:4px;}.cls-2,.cls-5{stroke-linecap:round;}.cls-3,.cls-4,.cls-5{stroke-width:2px;}.cls-4,.cls-5{stroke:#231f20;}</style></defs><title>rain-snow-showers-dayAsset 56</title><g id="Layer_2" data-name="Layer 2"><g id="Layer_1-2" data-name="Layer 1"><path class="cls-1" d="M39.79,13.71A19.75,19.75,0,1,0,11.21,38.44"/><path class="cls-1" d="M83.58,51.66a1.27,1.27,0,0,1,.78-.46,25,25,0,0,0,11.13-4.11c6.44,4.75,12,5.41,17.45,2.13,4.78-2.85,7.71-8.49,6.77-13.84-1.39-8-6.53-12-14.43-12.58C102.64,13,96.6,6.38,86.56,4.59c-11.74-2.1-20.29,3.05-26,13.23"/><path class="cls-1" d="M70.14,31.47l-.36,0a24,24,0,0,0-47,.87c-.29,0-.58,0-.87,0A14.27,14.27,0,0,0,16.37,34,14.8,14.8,0,0,0,14,35.56a14.06,14.06,0,0,0-1.17,1,10.07,10.07,0,0,0-2.06,2.5,13.13,13.13,0,0,0-1.13,2.4c-2.57,8,1.16,13.9,5.38,16.75,4.38,3,11.5,4,17.86-1.56a24,24,0,0,0,27,0A14.67,14.67,0,1,0,70.14,31.47Z"/><line class="cls-2" x1="72.38" y1="68.44" x2="72.38" y2="74.71"/><line class="cls-2" x1="46.55" y1="68.44" x2="46.55" y2="74.71"/><line class="cls-2" x1="20.72" y1="68.44" x2="20.72" y2="74.71"/><line class="cls-2" x1="58.43" y1="80.31" x2="58.43" y2="86.58"/><line class="cls-2" x1="32.6" y1="80.31" x2="32.6" y2="86.58"/><path class="cls-3" d="M106.21,74.7c-.21-.5-.44-1-.68-1.54v-1.6c.21-.5.41-1,.62-1.43a.82.82,0,0,0-.53-1.27l-1.45-.57-1.11-1.09-.64-1.61a.79.79,0,0,0-1.09-.45l-.83.37-.73.32H98.2c-.42-.18-.82-.34-1.2-.53-.87-.44-1.31-.23-1.6.66-.13.4-.3.8-.47,1.23l-1.12,1.12-1.54.61a.79.79,0,0,0-.48,1.13c.19.44.39.87.58,1.31a1.77,1.77,0,0,1,.08.22v1.57c-.23.55-.46,1.06-.67,1.57a.77.77,0,0,0,.45,1.08l.84.34.79.3,1.06,1.09L95.51,79c.26.67.64.82,1.3.53l1.41-.61h1.55l.81.34.74.32a.8.8,0,0,0,1.15-.49l.51-1.33.1-.22,1.09-1.09,1.3-.52c.1,0,.21-.07.31-.12A.78.78,0,0,0,106.21,74.7Z"/><line class="cls-4" x1="98.96" y1="55.12" x2="98.96" y2="90.12"/><line class="cls-5" x1="98.96" y1="54.46" x2="98.96" y2="90.12"/><polyline class="cls-5" points="95.63 56.39 98.93 58.31 102.31 56.23"/><polyline class="cls-5" points="102.31 88.45 99.01 86.53 95.63 88.61"/><line class="cls-5" x1="86.35" y1="59.69" x2="111.57" y2="84.91"/><polyline class="cls-5" points="85.36 63.41 89.06 62.44 89.97 58.58"/><polyline class="cls-5" points="112.75 81.36 109.06 82.33 108.15 86.19"/><line class="cls-5" x1="111.75" y1="59.68" x2="86.53" y2="84.89"/><polyline class="cls-5" points="108.04 58.69 109.01 62.38 112.87 63.29"/><polyline class="cls-5" points="90.08 86.08 89.11 82.39 85.25 81.47"/><line class="cls-5" x1="117.02" y1="72.37" x2="81.36" y2="72.37"/><polyline class="cls-5" points="115.09 69.05 113.17 72.34 115.25 75.72"/><polyline class="cls-5" points="83.03 75.72 84.95 72.42 82.87 69.05"/></g></g></svg>