<svg xmlns="http://www.w3.org/2000/svg" viewBox="0 0 117.22 91.65"><defs><style>.cls-1,.cls-2,.cls-3,.cls-4,.cls-5{fill:none;stroke-miterlimit:10;}.cls-1,.cls-2,.cls-3{stroke:#000;}.cls-1,.cls-2{stroke-width:4px;}.cls-2,.cls-5{stroke-linecap:round;}.cls-3,.cls-4,.cls-5{stroke-width:2px;}.cls-4,.cls-5{stroke:#231f20;}</style></defs><title>rain-snow-showers-nightAsset 57</title><g id="Layer_2" data-name="Layer 2"><g id="Layer_1-2" data-name="Layer 1"><path class="cls-1" d="M18.58,30a19.63,19.63,0,0,1-1.65-11.06A24.21,24.21,0,0,1,23.29,6.56a32.14,32.14,0,0,1,2.84-2.74,16.28,16.28,0,0,0-4.08-1.45A16.57,16.57,0,0,0,6.2,29.6a16.23,16.23,0,0,0,5.51,4"/><path class="cls-1" d="M78.93,51.31a1.29,1.29,0,0,1,.77-.47,24.84,24.84,0,0,0,11.13-4.1c6.44,4.75,12,5.41,17.45,2.13C113.06,46,116,40.38,115.05,35c-1.39-8-6.53-12-14.43-12.58C98,12.61,91.94,6,81.9,4.24c-11.74-2.1-20.29,3.05-26,13.23"/><path class="cls-1" d="M65.48,31.12l-.36,0a24,24,0,0,0-47,.87l-.87,0a14.06,14.06,0,0,0-5.52,1.6,14.44,14.44,0,0,0-2.36,1.57,14.06,14.06,0,0,0-1.17,1,9.89,9.89,0,0,0-2.06,2.5A13.24,13.24,0,0,0,5,41.14c-2.57,8,1.16,13.91,5.38,16.76,4.38,3,11.5,4,17.86-1.56a24,24,0,0,0,27-.05A14.67,14.67,0,1,0,65.48,31.12Z"/><line class="cls-2" x1="67.72" y1="68.96" x2="67.72" y2="75.23"/><line class="cls-2" x1="41.89" y1="68.96" x2="41.89" y2="75.23"/><line class="cls-2" x1="16.07" y1="68.96" x2="16.07" y2="75.23"/><line class="cls-2" x1="53.77" y1="80.84" x2="53.77" y2="87.11"/><line class="cls-2" x1="27.94" y1="80.84" x2="27.94" y2="87.11"/><path class="cls-3" d="M101.55,75.23c-.21-.51-.44-1-.67-1.54V72.08l.62-1.42a.82.82,0,0,0-.53-1.27l-1.45-.57-1.11-1.1c-.23-.56-.43-1.09-.64-1.6a.79.79,0,0,0-1.09-.45l-.83.37-.72.32H93.54c-.42-.19-.82-.34-1.2-.53-.87-.44-1.31-.23-1.6.66-.13.4-.3.79-.47,1.22l-1.12,1.12-1.54.62a.78.78,0,0,0-.47,1.13c.18.44.38.87.57,1.31a1.77,1.77,0,0,1,.08.22l0,1.57c-.24.54-.47,1-.68,1.57a.77.77,0,0,0,.45,1.08c.28.12.56.22.85.33l.78.31,1.06,1.09.58,1.44c.26.67.64.82,1.31.53l1.4-.61h1.56l.8.35.74.31a.78.78,0,0,0,1.15-.48l.51-1.33c0-.05.05-.11.1-.22L99.51,77l1.3-.52.31-.12A.78.78,0,0,0,101.55,75.23Z"/><line class="cls-4" x1="94.3" y1="55.65" x2="94.3" y2="90.65"/><line class="cls-5" x1="94.3" y1="54.99" x2="94.3" y2="90.65"/><polyline class="cls-5" points="90.97 56.92 94.27 58.84 97.65 56.76"/><polyline class="cls-5" points="97.65 88.98 94.35 87.06 90.97 89.14"/><line class="cls-5" x1="81.69" y1="60.22" x2="106.91" y2="85.44"/><polyline class="cls-5" points="80.7 63.93 84.4 62.96 85.31 59.1"/><polyline class="cls-5" points="108.1 81.89 104.4 82.86 103.49 86.72"/><line class="cls-5" x1="107.09" y1="60.2" x2="81.87" y2="85.42"/><polyline class="cls-5" points="103.38 59.22 104.35 62.91 108.21 63.82"/><polyline class="cls-5" points="85.42 86.61 84.45 82.91 80.59 82"/><line class="cls-5" x1="112.36" y1="72.9" x2="76.7" y2="72.9"/><polyline class="cls-5" points="110.43 69.57 108.51 72.87 110.59 76.25"/><polyline class="cls-5" points="78.37 76.25 80.29 72.95 78.21 69.57"/></g></g></svg>