<svg xmlns="http://www.w3.org/2000/svg" viewBox="0 0 115.07 84.88"><defs><style>.cls-1,.cls-2{fill:none;stroke:#000;stroke-miterlimit:10;stroke-width:4px;}.cls-2{stroke-linecap:round;}</style></defs><title>rainAsset 51</title><g id="Layer_2" data-name="Layer 2"><g id="Layer_1-2" data-name="Layer 1"><path class="cls-1" d="M76.77,49.53a1.32,1.32,0,0,1,.77-.46A24.92,24.92,0,0,0,88.68,45c6.44,4.75,11.95,5.4,17.45,2.13,4.78-2.85,7.7-8.5,6.76-13.85-1.38-8-6.52-12-14.43-12.57C95.82,10.83,89.79,4.26,79.75,2.46,68,.36,59.45,5.51,53.73,15.7"/><path class="cls-1" d="M63.32,29.35H63a24,24,0,0,0-47,.87l-.87,0a13.89,13.89,0,0,0-5.53,1.6A14.38,14.38,0,0,0,7.2,33.43c-.4.33-.79.67-1.17,1A10.11,10.11,0,0,0,4,37a13.24,13.24,0,0,0-1.13,2.39C.28,47.32,4,53.28,8.23,56.13s11.5,4,17.85-1.57a24,24,0,0,0,27,0A14.67,14.67,0,1,0,63.32,29.35Z"/><line class="cls-2" x1="85.91" y1="64.74" x2="85.91" y2="71.01"/><line class="cls-2" x1="60.08" y1="64.74" x2="60.08" y2="71.01"/><line class="cls-2" x1="34.25" y1="64.74" x2="34.25" y2="71.01"/><line class="cls-2" x1="71.95" y1="76.62" x2="71.95" y2="82.88"/><line class="cls-2" x1="46.12" y1="76.62" x2="46.12" y2="82.88"/></g></g></svg>