<svg xmlns="http://www.w3.org/2000/svg" viewBox="0 0 115.07 89.62"><defs><style>.cls-1,.cls-2,.cls-3,.cls-4{fill:none;stroke-miterlimit:10;}.cls-1,.cls-4{stroke:#000;}.cls-2,.cls-3{stroke:#231f20;}.cls-3{stroke-linecap:round;}.cls-4{stroke-width:4px;}</style></defs><title>snowAsset 65</title><g id="Layer_2" data-name="Layer 2"><g id="Layer_1-2" data-name="Layer 1"><path class="cls-1" d="M45.57,78.75c-.14-.34-.3-.68-.45-1V76.64c.15-.33.28-.65.42-1s.08-.69-.35-.85l-1-.39-.75-.73c-.15-.39-.28-.74-.43-1.09a.53.53,0,0,0-.73-.29c-.19.07-.37.16-.56.24l-.49.22H40.19c-.29-.13-.56-.23-.81-.36-.59-.29-.88-.15-1.08.44a7.82,7.82,0,0,1-.32.83l-.75.75-1,.41a.53.53,0,0,0-.32.77c.12.29.26.58.38.87l.06.15v1.06l-.46,1.06a.51.51,0,0,0,.31.72l.57.23.52.2.72.73c.13.34.26.66.38,1a.56.56,0,0,0,.88.35l1-.41h1l.54.23.5.21a.53.53,0,0,0,.77-.32c.12-.3.24-.6.35-.9,0,0,0-.07.07-.15l.73-.73.87-.35.21-.08A.53.53,0,0,0,45.57,78.75Z"/><line class="cls-2" x1="40.69" y1="65.59" x2="40.69" y2="89.12"/><line class="cls-3" x1="40.69" y1="65.14" x2="40.69" y2="89.12"/><polyline class="cls-3" points="38.46 66.44 40.68 67.73 42.95 66.33"/><polyline class="cls-3" points="42.95 88 40.73 86.7 38.46 88.11"/><line class="cls-3" x1="32.22" y1="68.66" x2="49.17" y2="85.62"/><polyline class="cls-3" points="31.55 71.16 34.04 70.5 34.65 67.91"/><polyline class="cls-3" points="49.97 83.23 47.49 83.88 46.88 86.48"/><line class="cls-3" x1="49.3" y1="68.65" x2="32.34" y2="85.61"/><polyline class="cls-3" points="46.8 67.98 47.45 70.47 50.05 71.08"/><polyline class="cls-3" points="34.73 86.4 34.07 83.92 31.48 83.31"/><line class="cls-3" x1="52.84" y1="77.19" x2="28.86" y2="77.19"/><polyline class="cls-3" points="51.54 74.95 50.25 77.17 51.65 79.44"/><polyline class="cls-3" points="29.98 79.44 31.28 77.22 29.88 74.95"/><path class="cls-1" d="M68.7,72.15l-.34-.77v-.79l.31-.7c.13-.32,0-.51-.26-.63L67.69,69l-.55-.54c-.11-.28-.21-.54-.32-.8a.38.38,0,0,0-.53-.22l-.42.18-.35.16h-.78c-.21-.09-.41-.16-.6-.26-.43-.22-.64-.11-.78.33-.07.2-.16.39-.24.6l-.55.56-.76.3a.39.39,0,0,0-.24.56c.1.21.19.43.29.64l0,.11v.78c-.11.27-.23.52-.33.78a.38.38,0,0,0,.22.53l.42.17.39.15.52.53c.1.25.2.48.29.72s.32.4.64.26l.7-.3h.77l.39.17.37.16a.39.39,0,0,0,.57-.24c.08-.22.17-.44.25-.65,0,0,0-.06.05-.12l.54-.53.64-.26.15-.06A.39.39,0,0,0,68.7,72.15Z"/><line class="cls-2" x1="65.11" y1="62.47" x2="65.11" y2="79.77"/><line class="cls-3" x1="65.11" y1="62.14" x2="65.11" y2="79.77"/><polyline class="cls-3" points="63.47 63.09 65.1 64.05 66.77 63.02"/><polyline class="cls-3" points="66.77 78.94 65.14 77.99 63.47 79.02"/><line class="cls-3" x1="58.88" y1="64.73" x2="71.35" y2="77.19"/><polyline class="cls-3" points="58.39 66.56 60.22 66.08 60.67 64.18"/><polyline class="cls-3" points="71.93 75.44 70.11 75.92 69.66 77.83"/><line class="cls-3" x1="71.43" y1="64.72" x2="58.97" y2="77.18"/><polyline class="cls-3" points="69.6 64.23 70.08 66.06 71.99 66.51"/><polyline class="cls-3" points="60.73 77.77 60.25 75.94 58.34 75.49"/><line class="cls-3" x1="74.04" y1="70.99" x2="56.41" y2="70.99"/><polyline class="cls-3" points="73.09 69.35 72.13 70.98 73.16 72.65"/><polyline class="cls-3" points="57.24 72.65 58.19 71.02 57.16 69.35"/><path class="cls-1" d="M88.12,65.44l-.24-.55v-.58c.08-.18.15-.35.23-.52s0-.36-.19-.45l-.53-.21-.4-.4c-.08-.2-.15-.39-.23-.57a.28.28,0,0,0-.39-.16l-.3.13-.26.11h-.57l-.43-.19c-.32-.16-.47-.08-.58.24a4,4,0,0,1-.17.44l-.4.41-.56.22a.28.28,0,0,0-.17.4l.21.48a.34.34,0,0,1,0,.08v.56c-.08.2-.16.38-.24.57a.28.28,0,0,0,.16.39l.31.12.28.11.38.39c.08.18.14.35.21.52s.23.3.47.19l.51-.22h.56l.29.12.27.12a.28.28,0,0,0,.41-.18c.06-.16.12-.32.19-.48a.44.44,0,0,1,0-.08l.39-.39.47-.19.12,0A.28.28,0,0,0,88.12,65.44Z"/><line class="cls-2" x1="85.5" y1="58.38" x2="85.5" y2="71"/><line class="cls-3" x1="85.5" y1="58.14" x2="85.5" y2="71"/><polyline class="cls-3" points="84.31 58.84 85.49 59.53 86.71 58.78"/><polyline class="cls-3" points="86.71 70.4 85.52 69.7 84.31 70.46"/><line class="cls-3" x1="80.96" y1="60.03" x2="90.05" y2="69.12"/><polyline class="cls-3" points="80.6 61.37 81.93 61.02 82.26 59.63"/><polyline class="cls-3" points="90.48 67.84 89.15 68.19 88.82 69.58"/><line class="cls-3" x1="90.12" y1="60.02" x2="81.02" y2="69.12"/><polyline class="cls-3" points="88.78 59.67 89.13 61 90.52 61.33"/><polyline class="cls-3" points="82.3 69.54 81.95 68.21 80.56 67.88"/><line class="cls-3" x1="92.02" y1="64.6" x2="79.16" y2="64.6"/><polyline class="cls-3" points="91.32 63.4 90.63 64.59 91.38 65.81"/><polyline class="cls-3" points="79.76 65.81 80.45 64.62 79.7 63.4"/><path class="cls-4" d="M76.77,49.53a1.32,1.32,0,0,1,.77-.46A24.92,24.92,0,0,0,88.68,45c6.44,4.75,11.95,5.4,17.45,2.13,4.78-2.85,7.7-8.5,6.76-13.85-1.38-8-6.52-12-14.43-12.57C95.82,10.83,89.79,4.26,79.75,2.46,68,.36,59.45,5.51,53.73,15.7"/><path class="cls-4" d="M63.32,29.35H63a24,24,0,0,0-47,.87l-.87,0a13.89,13.89,0,0,0-5.53,1.6A14.38,14.38,0,0,0,7.2,33.43c-.4.33-.79.67-1.17,1A10.11,10.11,0,0,0,4,37a13.24,13.24,0,0,0-1.13,2.39C.28,47.32,4,53.28,8.23,56.13s11.5,4,17.85-1.57a24,24,0,0,0,27,0A14.67,14.67,0,1,0,63.32,29.35Z"/></g></g></svg>