<svg xmlns="http://www.w3.org/2000/svg" viewBox="0 0 121.88 91.12"><defs><style>.cls-1{fill:#cae3f6;}.cls-2{fill:#f5b952;}.cls-3{fill:#aac7d5;}.cls-4,.cls-5,.cls-6,.cls-7,.cls-8{fill:none;stroke-miterlimit:10;}.cls-4,.cls-5,.cls-6{stroke:#000;}.cls-4,.cls-5{stroke-width:4px;}.cls-5,.cls-8{stroke-linecap:round;}.cls-6,.cls-7,.cls-8{stroke-width:2px;}.cls-7,.cls-8{stroke:#231f20;}</style></defs><title>rain-snow-showers-dayAsset 189colored</title><g id="Layer_2" data-name="Layer 2"><g id="Layer_1-2" data-name="Layer 1"><path class="cls-1" d="M106.21,74.75c-.21-.51-.44-1-.68-1.54V71.6c.21-.49.41-1,.62-1.42a.82.82,0,0,0-.53-1.27l-1.45-.57-1.11-1.1c-.23-.56-.43-1.09-.64-1.61a.79.79,0,0,0-1.09-.44l-.83.37-.73.32H98.2c-.42-.18-.82-.33-1.2-.52-.87-.44-1.31-.23-1.6.65-.13.41-.3.8-.47,1.23l-1.12,1.12L92.27,69a.79.79,0,0,0-.48,1.13c.19.44.39.87.58,1.31a1.77,1.77,0,0,1,.08.22V73.2c-.23.54-.46,1-.67,1.57a.77.77,0,0,0,.45,1.08c.28.12.56.22.84.33l.79.31,1.06,1.08c.2.51.39,1,.58,1.45.26.67.64.82,1.3.53l1.41-.61h1.55l.81.35.74.31a.79.79,0,0,0,1.15-.48l.51-1.33.1-.22,1.09-1.09,1.3-.52.31-.12A.78.78,0,0,0,106.21,74.75Z"/><path class="cls-2" d="M22.48,2.35a20.1,20.1,0,1,0,20.1,20.1A20.13,20.13,0,0,0,22.48,2.35Z"/><path class="cls-3" d="M83.5,52.25a1.32,1.32,0,0,1,.77-.46,24.92,24.92,0,0,0,11.14-4.1c6.44,4.75,12,5.4,17.45,2.13,4.78-2.85,7.7-8.5,6.76-13.85-1.38-8-6.52-12-14.43-12.57C102.55,13.55,96.52,7,86.48,5.18c-11.75-2.1-20.3,3.05-26,13.24"/><path class="cls-1" d="M70.05,32.07H69.7a24,24,0,0,0-47,.87l-.87,0a13.89,13.89,0,0,0-5.53,1.6,14.38,14.38,0,0,0-2.36,1.56c-.4.33-.79.67-1.17,1.05a10.11,10.11,0,0,0-2.06,2.5,13.24,13.24,0,0,0-1.13,2.39C7,50,10.73,56,15,58.85s11.5,4,17.85-1.57a24,24,0,0,0,27,0A14.67,14.67,0,1,0,70.05,32.07Z"/><path class="cls-4" d="M39.79,13.71A19.75,19.75,0,1,0,11.21,38.44"/><path class="cls-4" d="M83.58,51.66a1.27,1.27,0,0,1,.78-.46,25,25,0,0,0,11.13-4.11c6.44,4.75,12,5.41,17.45,2.13,4.78-2.85,7.71-8.49,6.77-13.84-1.39-8-6.53-12-14.43-12.58C102.64,13,96.6,6.38,86.56,4.59c-11.74-2.1-20.29,3.05-26,13.23"/><path class="cls-4" d="M70.14,31.47l-.36,0a24,24,0,0,0-47,.87c-.29,0-.58,0-.87,0A14.27,14.27,0,0,0,16.37,34,14.8,14.8,0,0,0,14,35.56a14.06,14.06,0,0,0-1.17,1,10.07,10.07,0,0,0-2.06,2.5,13.13,13.13,0,0,0-1.13,2.4c-2.57,8,1.16,13.9,5.38,16.75,4.38,3,11.5,4,17.86-1.56a24,24,0,0,0,27,0A14.67,14.67,0,1,0,70.14,31.47Z"/><line class="cls-5" x1="72.38" y1="68.44" x2="72.38" y2="74.71"/><line class="cls-5" x1="46.55" y1="68.44" x2="46.55" y2="74.71"/><line class="cls-5" x1="20.72" y1="68.44" x2="20.72" y2="74.71"/><line class="cls-5" x1="58.43" y1="80.31" x2="58.43" y2="86.58"/><line class="cls-5" x1="32.6" y1="80.31" x2="32.6" y2="86.58"/><path class="cls-6" d="M106.21,74.7c-.21-.5-.44-1-.68-1.54v-1.6c.21-.5.41-1,.62-1.43a.82.82,0,0,0-.53-1.27l-1.45-.57-1.11-1.09-.64-1.61a.79.79,0,0,0-1.09-.45l-.83.37-.73.32H98.2c-.42-.18-.82-.34-1.2-.53-.87-.44-1.31-.23-1.6.66-.13.4-.3.8-.47,1.23l-1.12,1.12-1.54.61a.79.79,0,0,0-.48,1.13c.19.44.39.87.58,1.31a1.77,1.77,0,0,1,.08.22v1.57c-.23.55-.46,1.06-.67,1.57a.77.77,0,0,0,.45,1.08l.84.34.79.3,1.06,1.09L95.51,79c.26.67.64.82,1.3.53l1.41-.61h1.55l.81.34.74.32a.8.8,0,0,0,1.15-.49l.51-1.33.1-.22,1.09-1.09,1.3-.52c.1,0,.21-.07.31-.12A.78.78,0,0,0,106.21,74.7Z"/><line class="cls-7" x1="98.96" y1="55.12" x2="98.96" y2="90.12"/><line class="cls-8" x1="98.96" y1="54.46" x2="98.96" y2="90.12"/><polyline class="cls-8" points="95.63 56.39 98.93 58.31 102.31 56.23"/><polyline class="cls-8" points="102.31 88.45 99.01 86.53 95.63 88.61"/><line class="cls-8" x1="86.35" y1="59.69" x2="111.57" y2="84.91"/><polyline class="cls-8" points="85.36 63.41 89.06 62.44 89.97 58.58"/><polyline class="cls-8" points="112.75 81.36 109.06 82.33 108.15 86.19"/><line class="cls-8" x1="111.75" y1="59.68" x2="86.53" y2="84.89"/><polyline class="cls-8" points="108.04 58.69 109.01 62.38 112.87 63.29"/><polyline class="cls-8" points="90.08 86.08 89.11 82.39 85.25 81.47"/><line class="cls-8" x1="117.02" y1="72.37" x2="81.36" y2="72.37"/><polyline class="cls-8" points="115.09 69.05 113.17 72.34 115.25 75.72"/><polyline class="cls-8" points="83.03 75.72 84.95 72.42 82.87 69.05"/></g></g></svg>