<svg xmlns="http://www.w3.org/2000/svg" viewBox="0 0 115.07 89.43"><defs><style>.cls-1{fill:#cae3f6;}.cls-2{fill:#aac7d5;}.cls-3,.cls-4,.cls-5,.cls-6,.cls-7{fill:none;stroke-miterlimit:10;}.cls-3,.cls-4,.cls-5{stroke:#000;}.cls-3,.cls-4{stroke-width:4px;}.cls-4,.cls-7{stroke-linecap:round;}.cls-5,.cls-6,.cls-7{stroke-width:2px;}.cls-6,.cls-7{stroke:#231f20;}</style></defs><title>rain-snowAsset 188colored</title><g id="Layer_2" data-name="Layer 2"><g id="Layer_1-2" data-name="Layer 1"><path class="cls-1" d="M99.4,73c-.22-.51-.45-1-.68-1.55v-1.6c.22-.49.42-1,.62-1.43a.82.82,0,0,0-.52-1.27l-1.45-.57L96.24,65.5c-.22-.57-.42-1.09-.63-1.61a.78.78,0,0,0-1.09-.44c-.28.11-.56.24-.84.36l-.72.32H91.39c-.42-.18-.83-.33-1.21-.53-.87-.43-1.31-.22-1.59.66-.13.41-.31.8-.48,1.23L87,66.61l-1.54.61A.79.79,0,0,0,85,68.36l.57,1.3c0,.07,0,.14.08.22l0,1.58c-.24.54-.46,1.05-.68,1.57a.78.78,0,0,0,.46,1.08l.84.33.78.31,1.07,1.08c.2.51.39,1,.57,1.45a.84.84,0,0,0,1.31.53l1.4-.61H93l.8.34.74.32a.79.79,0,0,0,1.15-.48c.18-.45.35-.89.52-1.33,0-.06,0-.11.1-.23l1.08-1.09,1.3-.51.32-.13A.78.78,0,0,0,99.4,73Z"/><path class="cls-2" d="M76.68,50a1.27,1.27,0,0,1,.78-.46,25,25,0,0,0,11.13-4.11c6.44,4.75,12,5.41,17.45,2.13,4.78-2.85,7.71-8.49,6.77-13.84-1.39-8-6.53-12-14.43-12.58C95.74,11.3,89.7,4.72,79.66,2.93,67.92.83,59.37,6,53.65,16.16"/><path class="cls-1" d="M63.24,29.81l-.36,0a24,24,0,0,0-47,.87c-.29,0-.58,0-.87,0a14.09,14.09,0,0,0-5.53,1.59A14.8,14.8,0,0,0,7.12,33.9,14.21,14.21,0,0,0,6,35a10,10,0,0,0-2.06,2.49,13.49,13.49,0,0,0-1.13,2.4C.19,47.79,3.92,53.75,8.14,56.6c4.38,2.95,11.5,4,17.86-1.57a24,24,0,0,0,27,0A14.67,14.67,0,1,0,63.24,29.81Z"/><path class="cls-3" d="M76.77,49.53a1.32,1.32,0,0,1,.77-.46A24.92,24.92,0,0,0,88.68,45c6.44,4.75,11.95,5.4,17.45,2.13,4.78-2.85,7.7-8.5,6.76-13.85-1.38-8-6.52-12-14.43-12.57C95.82,10.83,89.79,4.26,79.75,2.46,68,.36,59.45,5.51,53.73,15.7"/><path class="cls-3" d="M63.32,29.35H63a24,24,0,0,0-47,.87l-.87,0a13.89,13.89,0,0,0-5.53,1.6A14.38,14.38,0,0,0,7.2,33.43c-.4.33-.79.67-1.17,1A10.11,10.11,0,0,0,4,37a13.24,13.24,0,0,0-1.13,2.39C.28,47.32,4,53.28,8.23,56.13s11.5,4,17.85-1.57a24,24,0,0,0,27,0A14.67,14.67,0,1,0,63.32,29.35Z"/><line class="cls-4" x1="65.57" y1="66.74" x2="65.57" y2="73.01"/><line class="cls-4" x1="39.74" y1="66.74" x2="39.74" y2="73.01"/><line class="cls-4" x1="13.91" y1="66.74" x2="13.91" y2="73.01"/><line class="cls-4" x1="51.61" y1="78.62" x2="51.61" y2="84.88"/><line class="cls-4" x1="25.78" y1="78.62" x2="25.78" y2="84.88"/><path class="cls-5" d="M99.4,73c-.22-.51-.45-1-.68-1.55v-1.6c.22-.49.42-1,.62-1.43a.82.82,0,0,0-.52-1.27l-1.45-.57L96.24,65.5c-.22-.57-.42-1.09-.63-1.61a.78.78,0,0,0-1.09-.44c-.28.11-.56.24-.84.36l-.72.32H91.39c-.42-.18-.83-.33-1.21-.53-.87-.43-1.31-.22-1.59.66-.13.41-.31.8-.48,1.23L87,66.61l-1.54.61A.79.79,0,0,0,85,68.36l.57,1.3c0,.07,0,.14.08.22l0,1.58c-.24.54-.46,1.05-.68,1.57a.78.78,0,0,0,.46,1.08l.84.33.78.31,1.07,1.08c.2.51.39,1,.57,1.45a.84.84,0,0,0,1.31.53l1.4-.61H93l.8.34.74.32a.79.79,0,0,0,1.15-.48c.18-.45.35-.89.52-1.33,0-.06,0-.11.1-.23l1.08-1.09,1.3-.51.32-.13A.78.78,0,0,0,99.4,73Z"/><line class="cls-6" x1="92.14" y1="53.43" x2="92.14" y2="88.43"/><line class="cls-7" x1="92.14" y1="52.77" x2="92.14" y2="88.43"/><polyline class="cls-7" points="88.82 54.69 92.11 56.62 95.49 54.53"/><polyline class="cls-7" points="95.49 86.76 92.19 84.83 88.82 86.92"/><line class="cls-7" x1="79.54" y1="58" x2="104.75" y2="83.21"/><polyline class="cls-7" points="78.55 61.71 82.24 60.74 83.16 56.88"/><polyline class="cls-7" points="105.94 79.66 102.25 80.63 101.33 84.49"/><line class="cls-7" x1="104.93" y1="57.98" x2="79.72" y2="83.2"/><polyline class="cls-7" points="101.22 56.99 102.19 60.68 106.05 61.6"/><polyline class="cls-7" points="83.27 84.38 82.3 80.69 78.44 79.78"/><line class="cls-7" x1="110.2" y1="70.68" x2="74.54" y2="70.68"/><polyline class="cls-7" points="108.28 67.35 106.35 70.65 108.44 74.02"/><polyline class="cls-7" points="76.21 74.02 78.14 70.73 76.05 67.35"/></g></g></svg>