<svg xmlns="http://www.w3.org/2000/svg" viewBox="0 0 104.48 75.58"><defs><style>.cls-1{fill:#cae3f6;}.cls-2{fill:#649f4e;}.cls-3,.cls-4,.cls-5{fill:none;stroke-miterlimit:10;stroke-width:3px;}.cls-3,.cls-5{stroke:#231f20;}.cls-3{stroke-linecap:round;}.cls-4{stroke:#000;}</style></defs><title>sleet Asset 187colored</title><g id="Layer_2" data-name="Layer 2"><g id="Layer_1-2" data-name="Layer 1"><path class="cls-1" d="M52.09,42.69c-.44-1-.9-2-1.38-3.14l0-3.26L52,33.39a1.67,1.67,0,0,0-1.06-2.59c-1-.37-1.93-.75-3-1.16l-2.27-2.23c-.45-1.15-.86-2.21-1.29-3.27a1.61,1.61,0,0,0-2.22-.9L40.46,24,39,24.63h-3.2c-.85-.37-1.67-.68-2.45-1.07-1.77-.89-2.66-.47-3.24,1.34-.27.82-.63,1.62-1,2.5l-2.28,2.28L23.7,30.92a1.61,1.61,0,0,0-1,2.31l1.17,2.66a4.52,4.52,0,0,1,.16.45l0,3.2c-.48,1.1-.94,2.14-1.38,3.19a1.57,1.57,0,0,0,.92,2.2c.57.24,1.15.46,1.72.68l1.59.62,2.17,2.21,1.17,3c.54,1.35,1.31,1.67,2.66,1.07l2.85-1.24H39l1.64.69,1.5.65a1.6,1.6,0,0,0,2.34-1c.36-.9.7-1.81,1.06-2.71,0-.11.09-.22.2-.45l2.2-2.22,2.65-1.06c.21-.08.43-.15.64-.25A1.6,1.6,0,0,0,52.09,42.69Z"/><path class="cls-2" d="M95.9,27.83V17.89a5.69,5.69,0,1,0-11.37.16c0,6.48,0,13,0,19.44a2.42,2.42,0,0,1-1.28,2.3,12.75,12.75,0,0,0,10.21,23,12.16,12.16,0,0,0,9.29-10.22c.91-5.41-1.15-9.74-5.68-12.83a2.39,2.39,0,0,1-1.21-2.25C95.93,34.29,95.9,31.06,95.9,27.83Z"/><path class="cls-3" d="M95.9,27.83V17.89a5.69,5.69,0,1,0-11.37.16c0,6.48,0,13,0,19.44a2.42,2.42,0,0,1-1.28,2.3,12.75,12.75,0,0,0,10.21,23,12.16,12.16,0,0,0,9.29-10.22c.91-5.41-1.15-9.74-5.68-12.83a2.39,2.39,0,0,1-1.21-2.25C95.93,34.29,95.9,31.06,95.9,27.83Z"/><path class="cls-4" d="M52.09,42.69c-.44-1-.9-2-1.38-3.14l0-3.26L52,33.39a1.67,1.67,0,0,0-1.06-2.59c-1-.37-1.93-.75-3-1.16l-2.27-2.23c-.45-1.15-.86-2.21-1.29-3.27a1.61,1.61,0,0,0-2.22-.9L40.46,24,39,24.63h-3.2c-.85-.37-1.67-.68-2.45-1.07-1.77-.89-2.66-.47-3.24,1.34-.27.82-.63,1.62-1,2.5l-2.28,2.28L23.7,30.92a1.61,1.61,0,0,0-1,2.31l1.17,2.66a4.52,4.52,0,0,1,.16.45l0,3.2c-.48,1.1-.94,2.14-1.38,3.19a1.57,1.57,0,0,0,.92,2.2c.57.24,1.15.46,1.72.68l1.59.62,2.17,2.21,1.17,3c.54,1.35,1.31,1.67,2.66,1.07l2.85-1.24H39l1.64.69,1.5.65a1.6,1.6,0,0,0,2.34-1c.36-.9.7-1.81,1.06-2.71,0-.11.09-.22.2-.45l2.2-2.22,2.65-1.06c.21-.08.43-.15.64-.25A1.6,1.6,0,0,0,52.09,42.69Z"/><line class="cls-5" x1="37.32" y1="2.84" x2="37.32" y2="74.08"/><line class="cls-3" x1="37.32" y1="1.5" x2="37.32" y2="74.08"/><polyline class="cls-3" points="30.55 5.42 37.27 9.34 44.14 5.1"/><polyline class="cls-3" points="44.14 70.68 37.43 66.76 30.55 71"/><line class="cls-3" x1="11.67" y1="12.14" x2="62.99" y2="63.46"/><polyline class="cls-3" points="9.65 19.7 17.17 17.73 19.03 9.87"/><polyline class="cls-3" points="65.4 56.24 57.89 58.22 56.03 66.07"/><line class="cls-3" x1="63.36" y1="12.11" x2="12.04" y2="63.43"/><polyline class="cls-3" points="55.8 10.1 57.77 17.61 65.63 19.47"/><polyline class="cls-3" points="19.26 65.85 17.29 58.33 9.43 56.47"/><line class="cls-3" x1="74.08" y1="37.95" x2="1.5" y2="37.95"/><polyline class="cls-3" points="70.16 31.18 66.24 37.89 70.48 44.76"/><polyline class="cls-3" points="4.9 44.76 8.82 38.05 4.58 31.18"/><line class="cls-3" x1="89.94" y1="19.44" x2="89.94" y2="49.69"/></g></g></svg>