<svg xmlns="http://www.w3.org/2000/svg" viewBox="0 0 117.22 91.81"><defs><style>.cls-1{fill:#cae3f6;}.cls-2{fill:#f5b952;}.cls-3{fill:#aac7d5;}.cls-4,.cls-5,.cls-6,.cls-7{fill:none;stroke-miterlimit:10;}.cls-4,.cls-7{stroke:#000;}.cls-5,.cls-6{stroke:#231f20;}.cls-6{stroke-linecap:round;}.cls-7{stroke-width:4px;}</style></defs><title>snow-showers-nightAsset 200colored</title><g id="Layer_2" data-name="Layer 2"><g id="Layer_1-2" data-name="Layer 1"><path class="cls-1" d="M47.73,80.85l-.46-1V78.74q.21-.49.42-1a.55.55,0,0,0-.36-.85l-1-.39-.75-.73-.43-1.09a.53.53,0,0,0-.73-.29c-.19.07-.38.16-.56.24l-.49.22H42.34c-.28-.13-.55-.23-.81-.36-.58-.29-.88-.15-1.07.44-.09.28-.21.54-.32.83l-.75.75-1,.41a.54.54,0,0,0-.32.77l.39.88a1.09,1.09,0,0,1,0,.14v1.06c-.15.37-.31.71-.45,1.06a.51.51,0,0,0,.3.72l.57.23.53.2.71.73c.14.34.27.66.39,1s.43.55.88.35l.94-.41h1l.54.23.5.21a.53.53,0,0,0,.77-.32l.35-.9.06-.15.73-.73.88-.35.21-.08A.53.53,0,0,0,47.73,80.85Z"/><path class="cls-1" d="M70.85,74.25c-.1-.25-.22-.5-.33-.77v-.79l.3-.7c.14-.32.06-.51-.26-.63l-.71-.28-.56-.54-.31-.8a.39.39,0,0,0-.54-.22L68,69.7l-.36.16h-.78c-.2-.09-.4-.16-.59-.26-.43-.22-.65-.11-.79.33-.06.2-.15.39-.23.6l-.56.56-.76.3a.39.39,0,0,0-.23.56l.28.64a.49.49,0,0,1,0,.11v.78l-.34.78a.38.38,0,0,0,.23.53l.42.17.38.15.53.53.28.72c.13.33.32.4.65.26l.69-.3h.77l.4.17.36.16A.39.39,0,0,0,69,76.4c.09-.22.17-.44.26-.65a.78.78,0,0,1,0-.12l.53-.53.65-.26.15-.06A.38.38,0,0,0,70.85,74.25Z"/><path class="cls-1" d="M90.28,67.54,90,67v-.58l.22-.52c.1-.23,0-.36-.19-.45l-.52-.21-.4-.4c-.08-.2-.15-.39-.23-.57a.28.28,0,0,0-.39-.16l-.3.13-.26.11h-.57L87,64.15c-.31-.16-.47-.08-.57.24,0,.15-.11.29-.17.44l-.41.41-.55.22a.28.28,0,0,0-.17.41c.07.15.14.31.2.47s0,0,0,.08V67l-.25.57a.29.29,0,0,0,.17.39l.3.12.28.11.39.39.21.52c.09.24.23.3.47.19l.5-.22H88l.29.12.26.12a.29.29,0,0,0,.42-.18l.18-.47,0-.09.39-.39L90,68l.11,0A.29.29,0,0,0,90.28,67.54Z"/><path class="cls-2" d="M18.58,30.75a19.61,19.61,0,0,1-1.65-11A24.17,24.17,0,0,1,23.29,7.35,34,34,0,0,1,26.13,4.6a15.87,15.87,0,0,0-4.08-1.44A16.56,16.56,0,0,0,6.2,30.38a16.23,16.23,0,0,0,5.51,4.05"/><path class="cls-3" d="M78.5,52.09a1.23,1.23,0,0,1,.77-.46,24.82,24.82,0,0,0,11.14-4.11c6.44,4.76,12,5.41,17.45,2.13,4.78-2.85,7.7-8.49,6.76-13.84-1.38-8-6.52-12-14.43-12.58C97.55,13.39,91.52,6.82,81.48,5c-11.75-2.1-20.3,3.05-26,13.23"/><path class="cls-1" d="M65.05,31.9l-.35,0a24,24,0,0,0-47,.87c-.29,0-.58,0-.87,0a14,14,0,0,0-5.53,1.59A14.44,14.44,0,0,0,8.93,36a14.21,14.21,0,0,0-1.17,1,10.11,10.11,0,0,0-2.06,2.5,13.24,13.24,0,0,0-1.13,2.39C2,49.88,5.73,55.84,10,58.69s11.5,4,17.85-1.57a24,24,0,0,0,27,0A14.67,14.67,0,1,0,65.05,31.9Z"/><path class="cls-4" d="M47.73,80.94l-.46-1V78.82c.14-.33.28-.64.42-1a.55.55,0,0,0-.36-.85l-1-.38-.75-.74-.43-1.08a.53.53,0,0,0-.73-.3l-.56.24L43.4,75H42.34c-.28-.12-.55-.22-.81-.35-.58-.3-.88-.16-1.07.44-.09.27-.21.53-.32.82l-.75.76-1,.41a.53.53,0,0,0-.32.76l.39.88a1.31,1.31,0,0,1,0,.15V79.9c-.15.36-.31.7-.45,1a.53.53,0,0,0,.3.73l.57.22.53.21.71.73c.14.34.27.65.39,1s.43.55.88.36l.94-.42h1l.54.23.5.21a.52.52,0,0,0,.77-.32c.12-.3.23-.6.35-.89a1.14,1.14,0,0,1,.06-.15l.73-.74.88-.35.21-.08A.52.52,0,0,0,47.73,80.94Z"/><line class="cls-5" x1="42.85" y1="67.77" x2="42.85" y2="91.31"/><line class="cls-6" x1="42.85" y1="67.33" x2="42.85" y2="91.31"/><polyline class="cls-6" points="40.62 68.62 42.83 69.92 45.1 68.52"/><polyline class="cls-6" points="45.1 90.18 42.88 88.89 40.62 90.29"/><line class="cls-6" x1="34.38" y1="70.84" x2="51.33" y2="87.8"/><polyline class="cls-6" points="33.71 73.34 36.19 72.69 36.81 70.09"/><polyline class="cls-6" points="52.13 85.41 49.65 86.07 49.03 88.66"/><line class="cls-6" x1="51.45" y1="70.83" x2="34.5" y2="87.79"/><polyline class="cls-6" points="48.95 70.17 49.61 72.65 52.2 73.27"/><polyline class="cls-6" points="36.88 88.59 36.23 86.1 33.63 85.49"/><line class="cls-6" x1="54.99" y1="79.37" x2="31.02" y2="79.37"/><polyline class="cls-6" points="53.7 77.13 52.41 79.35 53.81 81.62"/><polyline class="cls-6" points="32.14 81.62 33.43 79.4 32.03 77.13"/><path class="cls-4" d="M70.85,74.33c-.1-.25-.22-.5-.33-.76v-.79c.1-.25.2-.48.3-.71s.06-.5-.26-.63l-.71-.28-.56-.54L69,69.83a.38.38,0,0,0-.54-.22c-.14,0-.27.12-.41.18l-.36.15h-.78c-.2-.09-.4-.16-.59-.26-.43-.21-.65-.11-.79.33-.06.2-.15.39-.23.61l-.56.55-.76.3a.39.39,0,0,0-.23.56c.09.22.19.43.28.65a.28.28,0,0,1,0,.11v.77l-.34.78a.38.38,0,0,0,.23.53l.42.17.38.15.53.54.28.71c.13.33.32.41.65.26l.69-.3h.77l.4.17.36.15a.39.39,0,0,0,.57-.23l.26-.66,0-.11.53-.54.65-.26.15-.06A.38.38,0,0,0,70.85,74.33Z"/><line class="cls-5" x1="67.27" y1="64.65" x2="67.27" y2="81.95"/><line class="cls-6" x1="67.27" y1="64.33" x2="67.27" y2="81.95"/><polyline class="cls-6" points="65.63 65.28 67.25 66.23 68.92 65.2"/><polyline class="cls-6" points="68.92 81.13 67.29 80.17 65.63 81.2"/><line class="cls-6" x1="61.04" y1="66.91" x2="73.5" y2="79.37"/><polyline class="cls-6" points="60.55 68.75 62.38 68.27 62.83 66.36"/><polyline class="cls-6" points="74.09 77.62 72.26 78.1 71.81 80.01"/><line class="cls-6" x1="73.59" y1="66.9" x2="61.13" y2="79.37"/><polyline class="cls-6" points="71.75 66.42 72.23 68.24 74.14 68.69"/><polyline class="cls-6" points="62.88 79.95 62.4 78.13 60.49 77.68"/><line class="cls-6" x1="76.19" y1="73.18" x2="58.57" y2="73.18"/><polyline class="cls-6" points="75.24 71.53 74.29 73.16 75.32 74.83"/><polyline class="cls-6" points="59.4 74.83 60.35 73.2 59.32 71.53"/><path class="cls-4" d="M90.28,67.63c-.08-.19-.16-.37-.25-.56v-.58l.22-.51a.3.3,0,0,0-.19-.46l-.52-.21-.4-.39c-.08-.21-.15-.39-.23-.58a.28.28,0,0,0-.39-.16l-.3.13-.26.12h-.57L87,64.24c-.31-.16-.47-.09-.57.23,0,.15-.11.29-.17.45l-.41.4-.55.22a.28.28,0,0,0-.17.41c.07.16.14.31.2.47s0,0,0,.08v.57c-.09.19-.17.38-.25.56a.29.29,0,0,0,.17.39l.3.12.28.11.39.39c.07.19.14.36.21.53s.23.29.47.19l.5-.22H88l.29.13.26.11a.29.29,0,0,0,.42-.17l.18-.48,0-.08.39-.4.47-.18.11,0A.28.28,0,0,0,90.28,67.63Z"/><line class="cls-5" x1="87.66" y1="60.57" x2="87.66" y2="73.19"/><line class="cls-6" x1="87.66" y1="60.33" x2="87.66" y2="73.19"/><polyline class="cls-6" points="86.46 61.02 87.65 61.72 88.87 60.97"/><polyline class="cls-6" points="88.87 72.58 87.68 71.89 86.46 72.64"/><line class="cls-6" x1="83.12" y1="62.21" x2="92.21" y2="71.31"/><polyline class="cls-6" points="82.76 63.55 84.09 63.2 84.42 61.81"/><polyline class="cls-6" points="92.64 70.03 91.3 70.38 90.97 71.77"/><line class="cls-6" x1="92.27" y1="62.21" x2="83.18" y2="71.3"/><polyline class="cls-6" points="90.93 61.85 91.28 63.18 92.68 63.51"/><polyline class="cls-6" points="84.46 71.73 84.11 70.4 82.72 70.07"/><line class="cls-6" x1="94.17" y1="66.78" x2="81.31" y2="66.78"/><polyline class="cls-6" points="93.48 65.59 92.78 66.78 93.53 67.99"/><polyline class="cls-6" points="81.92 67.99 82.61 66.8 81.86 65.59"/><path class="cls-7" d="M18.58,30a19.63,19.63,0,0,1-1.65-11.06A24.21,24.21,0,0,1,23.29,6.56a32.14,32.14,0,0,1,2.84-2.74,16.28,16.28,0,0,0-4.08-1.45A16.57,16.57,0,0,0,6.2,29.6a16.23,16.23,0,0,0,5.51,4"/><path class="cls-7" d="M78.93,51.31a1.29,1.29,0,0,1,.77-.47,24.84,24.84,0,0,0,11.13-4.1c6.44,4.75,12,5.41,17.45,2.13C113.06,46,116,40.38,115.05,35c-1.39-8-6.53-12-14.43-12.58C98,12.61,91.94,6,81.9,4.24c-11.74-2.1-20.29,3.05-26,13.23"/><path class="cls-7" d="M65.48,31.12l-.36,0a24,24,0,0,0-47,.87l-.87,0a14.06,14.06,0,0,0-5.52,1.6,14.44,14.44,0,0,0-2.36,1.57,14.06,14.06,0,0,0-1.17,1,9.89,9.89,0,0,0-2.06,2.5A13.24,13.24,0,0,0,5,41.14c-2.57,8,1.16,13.91,5.38,16.76,4.38,3,11.5,4,17.86-1.56a24,24,0,0,0,27-.05A14.67,14.67,0,1,0,65.48,31.12Z"/></g></g></svg>