<svg xmlns="http://www.w3.org/2000/svg" viewBox="0 0 121.88 91.8"><defs><style>.cls-1{fill:#cae3f6;}.cls-2{fill:#f5b952;}.cls-3{fill:#aac7d5;}.cls-4,.cls-5,.cls-6,.cls-7{fill:none;stroke-miterlimit:10;}.cls-4,.cls-7{stroke:#000;}.cls-5,.cls-6{stroke:#231f20;}.cls-6{stroke-linecap:round;}.cls-7{stroke-width:4px;}</style></defs><title>snow-showers-day Asset 199colored</title><g id="Layer_2" data-name="Layer 2"><g id="Layer_1-2" data-name="Layer 1"><path class="cls-1" d="M52.39,80.84c-.15-.35-.3-.68-.46-1V78.72l.41-1a.54.54,0,0,0-.35-.85l-1-.39-.75-.73c-.15-.38-.29-.74-.43-1.08a.53.53,0,0,0-.73-.3l-.56.24-.49.22H47c-.28-.12-.55-.23-.81-.36-.58-.29-.88-.15-1.07.45-.09.27-.21.53-.32.82l-.75.75L43,77a.53.53,0,0,0-.32.76l.39.88s0,.09.05.14v1.06c-.15.37-.31.71-.45,1.06a.53.53,0,0,0,.3.73l.57.22.53.2.71.73c.14.34.26.66.39,1s.43.55.88.35l.94-.41h1.05l.54.23.5.21a.53.53,0,0,0,.77-.32l.35-.9.06-.15L51,82l.88-.35.21-.08A.52.52,0,0,0,52.39,80.84Z"/><path class="cls-1" d="M75.51,74.23c-.1-.25-.22-.5-.33-.76v-.8l.31-.7c.14-.32.06-.51-.26-.63l-.72-.28L74,70.52l-.31-.8a.4.4,0,0,0-.54-.22l-.41.18-.36.16h-.78c-.2-.09-.4-.16-.59-.26-.43-.21-.65-.11-.79.33-.06.2-.15.39-.23.6l-.56.56-.76.3a.39.39,0,0,0-.23.56c.09.22.19.43.28.65a.69.69,0,0,0,0,.1v.78l-.34.78a.38.38,0,0,0,.23.53l.41.17.39.15.53.53.28.72c.13.33.32.4.65.26l.69-.3h.77l.4.17.36.15a.39.39,0,0,0,.57-.24c.09-.21.17-.43.26-.65a.48.48,0,0,1,0-.11l.53-.54.64-.26.16-.06A.38.38,0,0,0,75.51,74.23Z"/><path class="cls-1" d="M94.94,67.52,94.69,67v-.58l.22-.52c.1-.22,0-.36-.19-.45l-.52-.21-.4-.39-.23-.58a.28.28,0,0,0-.39-.16l-.3.13-.27.11h-.56l-.44-.19c-.31-.15-.47-.08-.57.24-.05.15-.11.29-.17.44l-.41.41-.55.22a.28.28,0,0,0-.17.41l.2.47,0,.08V67l-.25.57a.28.28,0,0,0,.17.39l.3.12.28.11.39.39.21.52c.09.24.23.3.47.19l.5-.22h.56l.29.13.27.11a.28.28,0,0,0,.41-.17c.07-.16.13-.32.19-.48l0-.08.39-.4.47-.18.11,0A.29.29,0,0,0,94.94,67.52Z"/><path class="cls-2" d="M22.48,2.48a20.1,20.1,0,1,0,20.1,20.1A20.13,20.13,0,0,0,22.48,2.48Z"/><path class="cls-3" d="M83.16,52.76a1.32,1.32,0,0,1,.77-.46,24.92,24.92,0,0,0,11.14-4.1c6.44,4.75,12,5.4,17.45,2.13,4.78-2.85,7.7-8.5,6.76-13.85-1.38-8-6.52-12-14.43-12.57-2.64-9.85-8.67-16.42-18.71-18.22-11.75-2.1-20.3,3.05-26,13.24"/><path class="cls-1" d="M69.71,32.58h-.35a24,24,0,0,0-47,.87l-.86,0A13.89,13.89,0,0,0,16,35.1a14.38,14.38,0,0,0-2.36,1.56c-.4.33-.79.67-1.17,1.05a10.11,10.11,0,0,0-2.06,2.5A13.24,13.24,0,0,0,9.23,42.6c-2.56,7.95,1.16,13.91,5.39,16.76s11.5,4,17.85-1.57a24,24,0,0,0,27,0A14.67,14.67,0,1,0,69.71,32.58Z"/><path class="cls-4" d="M52.39,80.93l-.46-1V78.81c.14-.33.28-.64.41-1A.55.55,0,0,0,52,77l-1-.38-.75-.74-.43-1.08a.53.53,0,0,0-.73-.3l-.56.25-.49.21H47c-.28-.12-.55-.22-.81-.35-.58-.3-.88-.16-1.07.44-.09.27-.21.54-.32.82l-.75.76L43,77a.53.53,0,0,0-.32.76l.39.88a1.31,1.31,0,0,1,.05.15v1.06c-.15.36-.31.71-.45,1a.53.53,0,0,0,.3.73l.57.22.53.21.71.73.39,1c.18.45.43.55.88.36l.94-.41h1.05l.54.23.5.22a.53.53,0,0,0,.77-.33l.35-.89a1.14,1.14,0,0,1,.06-.15l.73-.74.88-.34.21-.09A.52.52,0,0,0,52.39,80.93Z"/><line class="cls-5" x1="47.51" y1="67.76" x2="47.51" y2="91.3"/><line class="cls-6" x1="47.51" y1="67.32" x2="47.51" y2="91.3"/><polyline class="cls-6" points="45.27 68.61 47.49 69.91 49.76 68.51"/><polyline class="cls-6" points="49.76 90.17 47.54 88.88 45.27 90.28"/><line class="cls-6" x1="39.03" y1="70.84" x2="55.99" y2="87.79"/><polyline class="cls-6" points="38.37 73.33 40.85 72.68 41.47 70.08"/><polyline class="cls-6" points="56.79 85.41 54.3 86.06 53.69 88.65"/><line class="cls-6" x1="56.11" y1="70.83" x2="39.16" y2="87.78"/><polyline class="cls-6" points="53.61 70.16 54.27 72.64 56.86 73.26"/><polyline class="cls-6" points="41.54 88.58 40.89 86.1 38.29 85.48"/><line class="cls-6" x1="59.65" y1="79.36" x2="35.67" y2="79.36"/><polyline class="cls-6" points="58.36 77.13 57.06 79.34 58.47 81.61"/><polyline class="cls-6" points="36.8 81.61 38.09 79.4 36.69 77.13"/><path class="cls-4" d="M75.51,74.32c-.1-.25-.22-.5-.33-.76v-.79l.31-.71a.4.4,0,0,0-.26-.62l-.72-.29L74,70.61l-.31-.79a.38.38,0,0,0-.54-.22l-.41.18-.36.16h-.78L71,69.68c-.43-.22-.65-.12-.79.32-.06.2-.15.39-.23.61l-.56.55-.76.3a.39.39,0,0,0-.23.56c.09.22.19.43.28.65a.76.76,0,0,0,0,.11v.78c-.12.26-.23.52-.34.77a.4.4,0,0,0,.23.54L69,75l.39.15.53.54.28.71a.42.42,0,0,0,.65.27l.69-.31h.77l.4.17.36.16a.39.39,0,0,0,.57-.24l.26-.66,0-.11.53-.54.64-.26a.76.76,0,0,0,.16-.06A.38.38,0,0,0,75.51,74.32Z"/><line class="cls-5" x1="71.93" y1="64.65" x2="71.93" y2="81.94"/><line class="cls-6" x1="71.93" y1="64.32" x2="71.93" y2="81.94"/><polyline class="cls-6" points="70.28 65.27 71.91 66.22 73.58 65.19"/><polyline class="cls-6" points="73.58 81.12 71.95 80.17 70.28 81.2"/><line class="cls-6" x1="65.7" y1="66.9" x2="78.16" y2="79.37"/><polyline class="cls-6" points="65.21 68.74 67.03 68.26 67.48 66.35"/><polyline class="cls-6" points="78.75 77.61 76.92 78.09 76.47 80"/><line class="cls-6" x1="78.25" y1="66.9" x2="65.79" y2="79.36"/><polyline class="cls-6" points="76.41 66.41 76.89 68.23 78.8 68.68"/><polyline class="cls-6" points="67.54 79.94 67.06 78.12 65.15 77.67"/><line class="cls-6" x1="80.85" y1="73.17" x2="63.23" y2="73.17"/><polyline class="cls-6" points="79.9 71.53 78.95 73.16 79.98 74.83"/><polyline class="cls-6" points="64.05 74.83 65 73.2 63.98 71.53"/><path class="cls-4" d="M94.94,67.62c-.08-.19-.16-.37-.25-.56v-.58l.22-.51a.3.3,0,0,0-.19-.46l-.52-.2-.4-.4c-.08-.2-.16-.39-.23-.58a.28.28,0,0,0-.39-.16l-.3.13-.27.12h-.56l-.44-.19c-.31-.16-.47-.09-.57.23-.05.15-.11.29-.17.45l-.41.4-.55.22a.28.28,0,0,0-.17.41c.06.16.13.31.2.47l0,.08v.57c-.09.19-.17.38-.25.56a.28.28,0,0,0,.17.39c.1,0,.2.08.3.12l.28.11.39.4.21.52c.09.24.23.29.47.19l.5-.22h.56l.29.12.27.11a.28.28,0,0,0,.41-.17c.07-.16.13-.32.19-.48l0-.08.39-.39.47-.19.11,0A.3.3,0,0,0,94.94,67.62Z"/><line class="cls-5" x1="92.32" y1="60.56" x2="92.32" y2="73.18"/><line class="cls-6" x1="92.32" y1="60.32" x2="92.32" y2="73.18"/><polyline class="cls-6" points="91.12 61.01 92.31 61.71 93.53 60.96"/><polyline class="cls-6" points="93.53 72.58 92.34 71.88 91.12 72.63"/><line class="cls-6" x1="87.77" y1="62.21" x2="96.87" y2="71.3"/><polyline class="cls-6" points="87.42 63.54 88.75 63.19 89.08 61.8"/><polyline class="cls-6" points="97.29 70.02 95.96 70.37 95.63 71.76"/><line class="cls-6" x1="96.93" y1="62.2" x2="87.84" y2="71.29"/><polyline class="cls-6" points="95.59 61.84 95.94 63.17 97.33 63.5"/><polyline class="cls-6" points="89.12 71.72 88.77 70.39 87.38 70.06"/><line class="cls-6" x1="98.83" y1="66.78" x2="85.97" y2="66.78"/><polyline class="cls-6" points="98.14 65.58 97.44 66.77 98.19 67.98"/><polyline class="cls-6" points="86.58 67.98 87.27 66.8 86.52 65.58"/><path class="cls-7" d="M39.79,13.71A19.75,19.75,0,1,0,11.21,38.44"/><path class="cls-7" d="M83.58,51.66a1.27,1.27,0,0,1,.78-.46,25,25,0,0,0,11.13-4.11c6.44,4.75,12,5.41,17.45,2.13,4.78-2.85,7.71-8.49,6.77-13.84-1.39-8-6.53-12-14.43-12.58C102.64,13,96.6,6.38,86.56,4.59c-11.74-2.1-20.29,3.05-26,13.23"/><path class="cls-7" d="M70.14,31.47l-.36,0a24,24,0,0,0-47,.87c-.29,0-.58,0-.87,0A14.27,14.27,0,0,0,16.37,34,14.8,14.8,0,0,0,14,35.56a14.06,14.06,0,0,0-1.17,1,10.07,10.07,0,0,0-2.06,2.5,13.13,13.13,0,0,0-1.13,2.4c-2.57,8,1.16,13.9,5.38,16.75,4.38,3,11.5,4,17.86-1.56a24,24,0,0,0,27,0A14.67,14.67,0,1,0,70.14,31.47Z"/></g></g></svg>