<svg xmlns="http://www.w3.org/2000/svg" viewBox="0 0 115.07 86.92"><defs><style>.cls-1{fill:#cae3f6;}.cls-2{fill:#aac7d5;}.cls-3,.cls-4,.cls-5{fill:none;stroke:#000;stroke-miterlimit:10;}.cls-3,.cls-4{stroke-width:4px;}.cls-4{stroke-linecap:round;}.cls-5{stroke-width:3px;}</style></defs><title>thunder-rainAsset 194colored</title><g id="Layer_2" data-name="Layer 2"><g id="Layer_1-2" data-name="Layer 1"><path class="cls-1" d="M46.69,73l-3.64-1L42.79,72q.52-1.89,1.05-3.75c.33-1.16.66-2.31,1-3.47a1,1,0,0,0-.23-1,.86.86,0,0,0-1-.23,1.55,1.55,0,0,0-.58.43q-3.12,3.94-6.22,7.91s0,0-.05,0l-1.42,1.81h0c-.26.33-.55.69-.83,1.06a1,1,0,0,0,.57,1.76l3.5,1c.21.05.28.14.26.37-.1,1-.18,2-.26,3s-.15,1.78-.2,2.67a1,1,0,0,0,.93,1,1.12,1.12,0,0,0,.93-.54c1.69-2.27,3.39-4.53,5.08-6.79l.09-.12L47.09,75c.07-.1.13-.2.2-.29A1,1,0,0,0,46.69,73Z"/><path class="cls-2" d="M76.34,50a1.34,1.34,0,0,1,.78-.46,24.88,24.88,0,0,0,11.13-4.1c6.44,4.75,12,5.4,17.45,2.13,4.78-2.85,7.71-8.5,6.77-13.85-1.39-8-6.53-12-14.43-12.58C95.4,11.32,89.36,4.75,79.32,3,67.58.85,59,6,53.31,16.19"/><path class="cls-1" d="M62.9,29.84h-.36a24,24,0,0,0-47,.87l-.87,0a13.94,13.94,0,0,0-5.53,1.6,14.74,14.74,0,0,0-2.35,1.56c-.4.33-.79.67-1.17,1a9.69,9.69,0,0,0-2.06,2.5,13.24,13.24,0,0,0-1.13,2.39c-2.57,8,1.16,13.91,5.38,16.76,4.37,3,11.5,4,17.85-1.57a24,24,0,0,0,27,0A14.67,14.67,0,1,0,62.9,29.84Z"/><path class="cls-3" d="M76.77,49.53a1.32,1.32,0,0,1,.77-.46A24.92,24.92,0,0,0,88.68,45c6.44,4.75,11.95,5.4,17.45,2.13,4.78-2.85,7.7-8.5,6.76-13.85-1.38-8-6.52-12-14.43-12.57C95.82,10.83,89.79,4.26,79.75,2.46,68,.36,59.45,5.51,53.73,15.7"/><path class="cls-3" d="M63.32,29.35H63a24,24,0,0,0-47,.87l-.87,0a13.89,13.89,0,0,0-5.53,1.6A14.38,14.38,0,0,0,7.2,33.43c-.4.33-.79.67-1.17,1A10.11,10.11,0,0,0,4,37a13.24,13.24,0,0,0-1.13,2.39C.28,47.32,4,53.28,8.23,56.13s11.5,4,17.85-1.57a24,24,0,0,0,27,0A14.67,14.67,0,1,0,63.32,29.35Z"/><line class="cls-4" x1="85.91" y1="64.74" x2="85.91" y2="71.71"/><line class="cls-4" x1="60.08" y1="64.74" x2="60.08" y2="71.71"/><line class="cls-4" x1="71.95" y1="77.95" x2="71.95" y2="84.92"/><path class="cls-5" d="M46.69,73l-3.64-1L42.79,72q.52-1.89,1.05-3.75c.33-1.16.66-2.31,1-3.47a1,1,0,0,0-.23-1,.86.86,0,0,0-1-.23,1.55,1.55,0,0,0-.58.43q-3.12,3.94-6.22,7.91s0,0-.05,0l-1.42,1.81h0c-.26.33-.55.69-.83,1.06a1,1,0,0,0,.57,1.76l3.5,1c.21.05.28.14.26.37-.1,1-.18,2-.26,3s-.15,1.78-.2,2.67a1,1,0,0,0,.93,1,1.12,1.12,0,0,0,.93-.54c1.69-2.27,3.39-4.53,5.08-6.79l.09-.12L47.09,75c.07-.1.13-.2.2-.29A1,1,0,0,0,46.69,73Z"/></g></g></svg>