<svg xmlns="http://www.w3.org/2000/svg" viewBox="0 0 117.22 88.49"><defs><style>.cls-1{fill:#cae3f6;}.cls-2{fill:#f5b952;}.cls-3{fill:#aac7d5;}.cls-4,.cls-5,.cls-6{fill:none;stroke:#000;stroke-miterlimit:10;}.cls-4,.cls-5{stroke-width:4px;}.cls-5{stroke-linecap:round;}.cls-6{stroke-width:3px;}</style></defs><title>thunder-showers-nightAsset 196colored</title><g id="Layer_2" data-name="Layer 2"><g id="Layer_1-2" data-name="Layer 1"><path class="cls-1" d="M48.84,74.56l-3.64-1-.26-.08c.36-1.26.71-2.51,1.06-3.75s.65-2.31,1-3.47a1,1,0,0,0-.24-1,.86.86,0,0,0-1-.23,1.51,1.51,0,0,0-.57.43Q42.1,69.41,39,73.37l0,.06-1.43,1.8h0c-.26.33-.54.7-.83,1.06a1,1,0,0,0,.58,1.76l3.49,1c.22.06.29.14.27.37-.1,1-.18,2-.26,3s-.16,1.78-.21,2.67a1,1,0,0,0,.93,1,1.11,1.11,0,0,0,.94-.54c1.69-2.27,3.39-4.53,5.08-6.79l.09-.11,1.64-2.19.21-.29A1,1,0,0,0,48.84,74.56Z"/><path class="cls-2" d="M18.58,29.48a19.64,19.64,0,0,1-1.65-11.06A24.21,24.21,0,0,1,23.29,6.07a34,34,0,0,1,2.84-2.75,16.26,16.26,0,0,0-4.08-1.44A16.57,16.57,0,0,0,6.2,29.11a16.33,16.33,0,0,0,5.51,4"/><path class="cls-3" d="M78.5,51.75a1.23,1.23,0,0,1,.77-.46,24.94,24.94,0,0,0,11.14-4.11c6.44,4.75,12,5.41,17.45,2.13,4.78-2.85,7.7-8.49,6.76-13.84-1.38-8-6.52-12-14.43-12.58C97.55,13.05,91.52,6.48,81.48,4.68c-11.75-2.1-20.3,3.05-26,13.23"/><path class="cls-1" d="M65.05,31.56l-.35,0a24,24,0,0,0-47,.87c-.29,0-.58,0-.87,0a14,14,0,0,0-5.53,1.59,14.44,14.44,0,0,0-2.36,1.57A14.21,14.21,0,0,0,7.76,36.7,10.26,10.26,0,0,0,5.7,39.19a13.49,13.49,0,0,0-1.13,2.4C2,49.54,5.73,55.5,10,58.35s11.5,4,17.85-1.57a24,24,0,0,0,27,0A14.67,14.67,0,1,0,65.05,31.56Z"/><path class="cls-4" d="M18.58,30a19.63,19.63,0,0,1-1.65-11.06A24.21,24.21,0,0,1,23.29,6.56a32.14,32.14,0,0,1,2.84-2.74,16.28,16.28,0,0,0-4.08-1.45A16.57,16.57,0,0,0,6.2,29.6a16.23,16.23,0,0,0,5.51,4"/><path class="cls-4" d="M78.93,51.31a1.29,1.29,0,0,1,.77-.47,24.84,24.84,0,0,0,11.13-4.1c6.44,4.75,12,5.41,17.45,2.13C113.06,46,116,40.38,115.05,35c-1.39-8-6.53-12-14.43-12.58C98,12.61,91.94,6,81.9,4.24c-11.74-2.1-20.29,3.05-26,13.23"/><path class="cls-4" d="M65.48,31.12l-.36,0a24,24,0,0,0-47,.87l-.87,0a14.06,14.06,0,0,0-5.52,1.6,14.44,14.44,0,0,0-2.36,1.57,14.06,14.06,0,0,0-1.17,1,9.89,9.89,0,0,0-2.06,2.5A13.24,13.24,0,0,0,5,41.14c-2.57,8,1.16,13.91,5.38,16.76,4.38,3,11.5,4,17.86-1.56a24,24,0,0,0,27-.05A14.67,14.67,0,1,0,65.48,31.12Z"/><line class="cls-5" x1="88.06" y1="66.31" x2="88.06" y2="73.28"/><line class="cls-5" x1="62.23" y1="66.31" x2="62.23" y2="73.28"/><line class="cls-5" x1="74.11" y1="79.52" x2="74.11" y2="86.49"/><path class="cls-6" d="M48.84,74.56l-3.64-1-.26-.08c.36-1.26.71-2.51,1.06-3.75s.65-2.31,1-3.47a1,1,0,0,0-.24-1,.86.86,0,0,0-1-.23,1.51,1.51,0,0,0-.57.43Q42.1,69.41,39,73.37l0,.06-1.43,1.8h0c-.26.33-.54.7-.83,1.06a1,1,0,0,0,.58,1.76l3.49,1c.22.06.29.14.27.37-.1,1-.18,2-.26,3s-.16,1.78-.21,2.67a1,1,0,0,0,.93,1,1.11,1.11,0,0,0,.94-.54c1.69-2.27,3.39-4.53,5.08-6.79l.09-.11,1.64-2.19.21-.29A1,1,0,0,0,48.84,74.56Z"/></g></g></svg>