<svg xmlns="http://www.w3.org/2000/svg" viewBox="0 0 121.88 89.06"><defs><style>.cls-1{fill:#cae3f6;}.cls-2{fill:#f5b952;}.cls-3{fill:#aac7d5;}.cls-4,.cls-5,.cls-6{fill:none;stroke:#000;stroke-miterlimit:10;}.cls-4,.cls-5{stroke-width:4px;}.cls-5{stroke-linecap:round;}.cls-6{stroke-width:3px;}</style></defs><title>thunder-showers-dayAsset 195colored</title><g id="Layer_2" data-name="Layer 2"><g id="Layer_1-2" data-name="Layer 1"><path class="cls-1" d="M53.5,75.13l-3.64-1-.26-.08q.52-1.89,1-3.75c.33-1.16.66-2.31,1-3.47a1,1,0,0,0-.23-1,.86.86,0,0,0-.95-.23,1.51,1.51,0,0,0-.57.43Q46.75,70,43.65,73.94l0,.06-1.42,1.8h0c-.26.33-.54.7-.83,1.06a1,1,0,0,0,.57,1.76l3.5,1c.22.06.29.14.26.37-.1,1-.17,2-.25,3s-.16,1.78-.21,2.67a1,1,0,0,0,.93,1,1.11,1.11,0,0,0,.94-.54q2.53-3.41,5.08-6.79l.09-.11,1.64-2.19.21-.29A1,1,0,0,0,53.5,75.13Z"/><path class="cls-2" d="M22.48,2.74a20.1,20.1,0,1,0,20.1,20.1A20.12,20.12,0,0,0,22.48,2.74Z"/><path class="cls-3" d="M83.16,52.08a1.32,1.32,0,0,1,.77-.46,24.92,24.92,0,0,0,11.14-4.1c6.44,4.75,12,5.4,17.45,2.13,4.78-2.86,7.7-8.5,6.76-13.85-1.38-8-6.52-12-14.43-12.58C102.21,13.38,96.18,6.81,86.14,5c-11.75-2.1-20.3,3.05-26,13.24"/><path class="cls-1" d="M69.71,31.89l-.35,0a24,24,0,0,0-47,.87l-.86,0A13.89,13.89,0,0,0,16,34.42,14.38,14.38,0,0,0,13.59,36c-.4.33-.79.67-1.17,1.05a10.11,10.11,0,0,0-2.06,2.5,13.24,13.24,0,0,0-1.13,2.39c-2.56,7.95,1.16,13.91,5.39,16.76s11.5,4,17.85-1.57a24,24,0,0,0,27,0A14.67,14.67,0,1,0,69.71,31.89Z"/><path class="cls-4" d="M39.79,13.71A19.75,19.75,0,1,0,11.21,38.44"/><path class="cls-4" d="M83.58,51.66a1.27,1.27,0,0,1,.78-.46,25,25,0,0,0,11.13-4.11c6.44,4.75,12,5.41,17.45,2.13,4.78-2.85,7.71-8.49,6.77-13.84-1.39-8-6.53-12-14.43-12.58C102.64,13,96.6,6.38,86.56,4.59c-11.74-2.1-20.29,3.05-26,13.23"/><path class="cls-4" d="M70.14,31.47l-.36,0a24,24,0,0,0-47,.87c-.29,0-.58,0-.87,0A14.27,14.27,0,0,0,16.37,34,14.8,14.8,0,0,0,14,35.56a14.06,14.06,0,0,0-1.17,1,10.07,10.07,0,0,0-2.06,2.5,13.13,13.13,0,0,0-1.13,2.4c-2.57,8,1.16,13.9,5.38,16.75,4.38,3,11.5,4,17.86-1.56a24,24,0,0,0,27,0A14.67,14.67,0,1,0,70.14,31.47Z"/><line class="cls-5" x1="92.72" y1="66.88" x2="92.72" y2="73.85"/><line class="cls-5" x1="66.89" y1="66.88" x2="66.89" y2="73.85"/><line class="cls-5" x1="78.77" y1="80.09" x2="78.77" y2="87.06"/><path class="cls-6" d="M53.5,75.13l-3.64-1-.26-.08q.52-1.89,1-3.75c.33-1.16.66-2.31,1-3.47a1,1,0,0,0-.23-1,.86.86,0,0,0-.95-.23,1.51,1.51,0,0,0-.57.43Q46.75,70,43.65,73.94l0,.06-1.42,1.8h0c-.26.33-.54.7-.83,1.06a1,1,0,0,0,.57,1.76l3.5,1c.22.06.29.14.26.37-.1,1-.17,2-.25,3s-.16,1.78-.21,2.67a1,1,0,0,0,.93,1,1.11,1.11,0,0,0,.94-.54q2.53-3.41,5.08-6.79l.09-.11,1.64-2.19.21-.29A1,1,0,0,0,53.5,75.13Z"/></g></g></svg>